%TF.GenerationSoftware,KiCad,Pcbnew,10.0.1*%
%TF.CreationDate,2026-06-07T15:48:19-04:00*%
%TF.ProjectId,limbcontroller,6c696d62-636f-46e7-9472-6f6c6c65722e,rev?*%
%TF.SameCoordinates,Original*%
%TF.FileFunction,Drillmap*%
%TF.FilePolarity,Positive*%
%FSLAX45Y45*%
G04 Gerber Fmt 4.5, Leading zero omitted, Abs format (unit mm)*
G04 Created by KiCad (PCBNEW 10.0.1) date 2026-06-07 15:48:19*
%MOMM*%
%LPD*%
G01*
G04 APERTURE LIST*
%ADD10C,0.050000*%
%ADD11C,0.010000*%
%ADD12C,0.200000*%
G04 APERTURE END LIST*
D10*
X11100000Y-8900000D02*
G75*
G02*
X11200000Y-8800000I100000J0D01*
G01*
X11100000Y-13100000D02*
X11100000Y-8900000D01*
X11200000Y-8800000D02*
X16125000Y-8800000D01*
X11200000Y-13200000D02*
G75*
G02*
X11100000Y-13100000I0J100000D01*
G01*
X16125000Y-8800000D02*
G75*
G02*
X16225000Y-8900000I0J-100000D01*
G01*
X16125000Y-13200000D02*
X11200000Y-13200000D01*
X16225000Y-8900000D02*
X16223750Y-10546000D01*
X16225000Y-13100000D02*
G75*
G02*
X16125000Y-13200000I-100000J0D01*
G01*
X16225000Y-13100000D02*
X16225000Y-11470000D01*
X16247500Y-10546000D02*
X16223750Y-10546000D01*
X16247500Y-10546000D02*
X16247500Y-11470000D01*
X16247500Y-11470000D02*
X16225000Y-11470000D01*
D11*
X15557500Y-10546000D02*
X16247500Y-10546000D01*
X15557500Y-11470000D02*
X15557500Y-10546000D01*
X16247500Y-10546000D02*
X16247500Y-11470000D01*
X16247500Y-11470000D02*
X15557500Y-11470000D01*
D12*
X11358277Y-13513984D02*
X11358277Y-13313984D01*
X11358277Y-13313984D02*
X11405896Y-13313984D01*
X11405896Y-13313984D02*
X11434467Y-13323508D01*
X11434467Y-13323508D02*
X11453515Y-13342555D01*
X11453515Y-13342555D02*
X11463039Y-13361603D01*
X11463039Y-13361603D02*
X11472562Y-13399698D01*
X11472562Y-13399698D02*
X11472562Y-13428269D01*
X11472562Y-13428269D02*
X11463039Y-13466365D01*
X11463039Y-13466365D02*
X11453515Y-13485412D01*
X11453515Y-13485412D02*
X11434467Y-13504460D01*
X11434467Y-13504460D02*
X11405896Y-13513984D01*
X11405896Y-13513984D02*
X11358277Y-13513984D01*
X11558277Y-13513984D02*
X11558277Y-13380650D01*
X11558277Y-13418746D02*
X11567801Y-13399698D01*
X11567801Y-13399698D02*
X11577324Y-13390174D01*
X11577324Y-13390174D02*
X11596372Y-13380650D01*
X11596372Y-13380650D02*
X11615420Y-13380650D01*
X11682086Y-13513984D02*
X11682086Y-13380650D01*
X11682086Y-13313984D02*
X11672562Y-13323508D01*
X11672562Y-13323508D02*
X11682086Y-13333031D01*
X11682086Y-13333031D02*
X11691610Y-13323508D01*
X11691610Y-13323508D02*
X11682086Y-13313984D01*
X11682086Y-13313984D02*
X11682086Y-13333031D01*
X11805896Y-13513984D02*
X11786848Y-13504460D01*
X11786848Y-13504460D02*
X11777324Y-13485412D01*
X11777324Y-13485412D02*
X11777324Y-13313984D01*
X11910658Y-13513984D02*
X11891610Y-13504460D01*
X11891610Y-13504460D02*
X11882086Y-13485412D01*
X11882086Y-13485412D02*
X11882086Y-13313984D01*
X12139229Y-13513984D02*
X12139229Y-13313984D01*
X12139229Y-13313984D02*
X12205896Y-13456841D01*
X12205896Y-13456841D02*
X12272562Y-13313984D01*
X12272562Y-13313984D02*
X12272562Y-13513984D01*
X12453515Y-13513984D02*
X12453515Y-13409222D01*
X12453515Y-13409222D02*
X12443991Y-13390174D01*
X12443991Y-13390174D02*
X12424943Y-13380650D01*
X12424943Y-13380650D02*
X12386848Y-13380650D01*
X12386848Y-13380650D02*
X12367801Y-13390174D01*
X12453515Y-13504460D02*
X12434467Y-13513984D01*
X12434467Y-13513984D02*
X12386848Y-13513984D01*
X12386848Y-13513984D02*
X12367801Y-13504460D01*
X12367801Y-13504460D02*
X12358277Y-13485412D01*
X12358277Y-13485412D02*
X12358277Y-13466365D01*
X12358277Y-13466365D02*
X12367801Y-13447317D01*
X12367801Y-13447317D02*
X12386848Y-13437793D01*
X12386848Y-13437793D02*
X12434467Y-13437793D01*
X12434467Y-13437793D02*
X12453515Y-13428269D01*
X12548753Y-13380650D02*
X12548753Y-13580650D01*
X12548753Y-13390174D02*
X12567801Y-13380650D01*
X12567801Y-13380650D02*
X12605896Y-13380650D01*
X12605896Y-13380650D02*
X12624943Y-13390174D01*
X12624943Y-13390174D02*
X12634467Y-13399698D01*
X12634467Y-13399698D02*
X12643991Y-13418746D01*
X12643991Y-13418746D02*
X12643991Y-13475888D01*
X12643991Y-13475888D02*
X12634467Y-13494936D01*
X12634467Y-13494936D02*
X12624943Y-13504460D01*
X12624943Y-13504460D02*
X12605896Y-13513984D01*
X12605896Y-13513984D02*
X12567801Y-13513984D01*
X12567801Y-13513984D02*
X12548753Y-13504460D01*
X12729705Y-13494936D02*
X12739229Y-13504460D01*
X12739229Y-13504460D02*
X12729705Y-13513984D01*
X12729705Y-13513984D02*
X12720182Y-13504460D01*
X12720182Y-13504460D02*
X12729705Y-13494936D01*
X12729705Y-13494936D02*
X12729705Y-13513984D01*
X12729705Y-13390174D02*
X12739229Y-13399698D01*
X12739229Y-13399698D02*
X12729705Y-13409222D01*
X12729705Y-13409222D02*
X12720182Y-13399698D01*
X12720182Y-13399698D02*
X12729705Y-13390174D01*
X12729705Y-13390174D02*
X12729705Y-13409222D01*
M02*
