%TF.GenerationSoftware,KiCad,Pcbnew,10.0.1*%
%TF.CreationDate,2026-06-07T15:48:20-04:00*%
%TF.ProjectId,limbcontroller,6c696d62-636f-46e7-9472-6f6c6c65722e,rev?*%
%TF.SameCoordinates,Original*%
%TF.FileFunction,Paste,Top*%
%TF.FilePolarity,Positive*%
%FSLAX46Y46*%
G04 Gerber Fmt 4.6, Leading zero omitted, Abs format (unit mm)*
G04 Created by KiCad (PCBNEW 10.0.1) date 2026-06-07 15:48:20*
%MOMM*%
%LPD*%
G01*
G04 APERTURE LIST*
G04 Aperture macros list*
%AMRoundRect*
0 Rectangle with rounded corners*
0 $1 Rounding radius*
0 $2 $3 $4 $5 $6 $7 $8 $9 X,Y pos of 4 corners*
0 Add a 4 corners polygon primitive as box body*
4,1,4,$2,$3,$4,$5,$6,$7,$8,$9,$2,$3,0*
0 Add four circle primitives for the rounded corners*
1,1,$1+$1,$2,$3*
1,1,$1+$1,$4,$5*
1,1,$1+$1,$6,$7*
1,1,$1+$1,$8,$9*
0 Add four rect primitives between the rounded corners*
20,1,$1+$1,$2,$3,$4,$5,0*
20,1,$1+$1,$4,$5,$6,$7,0*
20,1,$1+$1,$6,$7,$8,$9,0*
20,1,$1+$1,$8,$9,$2,$3,0*%
G04 Aperture macros list end*
%ADD10RoundRect,0.090000X-0.139000X-0.090000X0.139000X-0.090000X0.139000X0.090000X-0.139000X0.090000X0*%
%ADD11RoundRect,0.090000X0.139000X0.090000X-0.139000X0.090000X-0.139000X-0.090000X0.139000X-0.090000X0*%
%ADD12RoundRect,0.090000X0.090000X-0.139000X0.090000X0.139000X-0.090000X0.139000X-0.090000X-0.139000X0*%
%ADD13RoundRect,0.040200X0.544800X0.294800X-0.544800X0.294800X-0.544800X-0.294800X0.544800X-0.294800X0*%
%ADD14R,1.150000X0.600000*%
%ADD15R,1.150000X0.300000*%
%ADD16RoundRect,0.200000X0.200000X-0.700000X0.200000X0.700000X-0.200000X0.700000X-0.200000X-0.700000X0*%
%ADD17RoundRect,0.070000X-0.710000X-0.070000X0.710000X-0.070000X0.710000X0.070000X-0.710000X0.070000X0*%
%ADD18RoundRect,0.070000X-0.070000X-0.710000X0.070000X-0.710000X0.070000X0.710000X-0.070000X0.710000X0*%
%ADD19RoundRect,0.250000X-0.412500X-0.650000X0.412500X-0.650000X0.412500X0.650000X-0.412500X0.650000X0*%
%ADD20RoundRect,0.250000X0.337500X0.475000X-0.337500X0.475000X-0.337500X-0.475000X0.337500X-0.475000X0*%
%ADD21R,0.254000X0.482600*%
%ADD22R,0.482600X0.254000*%
%ADD23RoundRect,0.090000X-0.090000X0.139000X-0.090000X-0.139000X0.090000X-0.139000X0.090000X0.139000X0*%
%ADD24RoundRect,0.250000X0.475000X-0.337500X0.475000X0.337500X-0.475000X0.337500X-0.475000X-0.337500X0*%
G04 APERTURE END LIST*
D10*
%TO.C,C5*%
X143455000Y-104000000D03*
X144320000Y-104000000D03*
%TD*%
D11*
%TO.C,R4*%
X142500000Y-115000000D03*
X141635000Y-115000000D03*
%TD*%
D10*
%TO.C,C19*%
X128817500Y-107250000D03*
X129682500Y-107250000D03*
%TD*%
D12*
%TO.C,R6*%
X141500000Y-104932500D03*
X141500000Y-104067500D03*
%TD*%
D10*
%TO.C,C3*%
X153630000Y-97875000D03*
X154495000Y-97875000D03*
%TD*%
D13*
%TO.C,U1*%
X131220000Y-119440000D03*
X131220000Y-118500000D03*
X131220000Y-117560000D03*
X128780000Y-117560000D03*
X128780000Y-119440000D03*
%TD*%
D12*
%TO.C,C7*%
X132000000Y-121932500D03*
X132000000Y-121067500D03*
%TD*%
D14*
%TO.C,J5*%
X155000000Y-113280000D03*
X155000000Y-112480000D03*
D15*
X155000000Y-111330000D03*
X155000000Y-110330000D03*
X155000000Y-109830000D03*
X155000000Y-108830000D03*
D14*
X155000000Y-106880000D03*
X155000000Y-107680000D03*
D15*
X155000000Y-108330000D03*
X155000000Y-109330000D03*
X155000000Y-110830000D03*
X155000000Y-111830000D03*
%TD*%
D11*
%TO.C,C13*%
X147682500Y-116000000D03*
X146817500Y-116000000D03*
%TD*%
%TO.C,C22*%
X129682500Y-106000000D03*
X128817500Y-106000000D03*
%TD*%
D16*
%TO.C,Q1*%
X131201676Y-98775000D03*
X130251676Y-102075000D03*
X129301676Y-98775000D03*
%TD*%
D17*
%TO.C,U5*%
X142077500Y-107250000D03*
X142077500Y-107750000D03*
X142077500Y-108250000D03*
X142077500Y-108750000D03*
X142077500Y-109250000D03*
X142077500Y-109750000D03*
X142077500Y-110250000D03*
X142077500Y-110750000D03*
X142077500Y-111250000D03*
X142077500Y-111750000D03*
X142077500Y-112250000D03*
X142077500Y-112750000D03*
D18*
X143507500Y-114180000D03*
X144007500Y-114180000D03*
X144507500Y-114180000D03*
X145007500Y-114180000D03*
X145507500Y-114180000D03*
X146007500Y-114180000D03*
X146507500Y-114180000D03*
X147007500Y-114180000D03*
X147507500Y-114180000D03*
X148007500Y-114180000D03*
X148507500Y-114180000D03*
X149007500Y-114180000D03*
D17*
X150437500Y-112750000D03*
X150437500Y-112250000D03*
X150437500Y-111750000D03*
X150437500Y-111250000D03*
X150437500Y-110750000D03*
X150437500Y-110250000D03*
X150437500Y-109750000D03*
X150437500Y-109250000D03*
X150437500Y-108750000D03*
X150437500Y-108250000D03*
X150437500Y-107750000D03*
X150437500Y-107250000D03*
D18*
X149007500Y-105820000D03*
X148507500Y-105820000D03*
X148007500Y-105820000D03*
X147507500Y-105820000D03*
X147007500Y-105820000D03*
X146507500Y-105820000D03*
X146007500Y-105820000D03*
X145507500Y-105820000D03*
X145007500Y-105820000D03*
X144507500Y-105820000D03*
X144007500Y-105820000D03*
X143507500Y-105820000D03*
%TD*%
D19*
%TO.C,C23*%
X127687500Y-113500000D03*
X130812500Y-113500000D03*
%TD*%
D20*
%TO.C,C21*%
X130787500Y-104250000D03*
X128712500Y-104250000D03*
%TD*%
D11*
%TO.C,R7*%
X153682500Y-108750000D03*
X152817500Y-108750000D03*
%TD*%
D21*
%TO.C,U6*%
X128914399Y-111061400D03*
X129414400Y-111061400D03*
X129914400Y-111061400D03*
X130414401Y-111061400D03*
D22*
X130578800Y-110405699D03*
X130578800Y-109905700D03*
X130578800Y-109405701D03*
D21*
X130414401Y-108750000D03*
X129914400Y-108750000D03*
X129414400Y-108750000D03*
X128914399Y-108750000D03*
D22*
X128750000Y-109405701D03*
X128750000Y-109905700D03*
X128750000Y-110405699D03*
%TD*%
D20*
%TO.C,C20*%
X129537500Y-121500000D03*
X127462500Y-121500000D03*
%TD*%
D12*
%TO.C,C8*%
X111750000Y-91770000D03*
X111750000Y-90905000D03*
%TD*%
D10*
%TO.C,C6*%
X141635000Y-116250000D03*
X142500000Y-116250000D03*
%TD*%
D23*
%TO.C,C9*%
X111750000Y-105955000D03*
X111750000Y-106820000D03*
%TD*%
D10*
%TO.C,C4*%
X153630000Y-98875000D03*
X154495000Y-98875000D03*
%TD*%
D11*
%TO.C,R5*%
X145682500Y-116000000D03*
X144817500Y-116000000D03*
%TD*%
D12*
%TO.C,R11*%
X152000000Y-112682500D03*
X152000000Y-111817500D03*
%TD*%
%TO.C,R1*%
X127625000Y-111527500D03*
X127625000Y-110662500D03*
%TD*%
D24*
%TO.C,C2*%
X127500000Y-125537500D03*
X127500000Y-123462500D03*
%TD*%
M02*
