M48
; DRILL file KiCad 10.0.1 date 2026-06-07T15:19:40
; FORMAT={-:-/ absolute / metric / decimal}
; #@! TF.CreationDate,2026-06-07T15:19:40-04:00
; #@! TF.GenerationSoftware,Kicad,Pcbnew,10.0.1
; #@! TF.FileFunction,Plated,1,2,PTH
FMAT,2
METRIC
; #@! TA.AperFunction,Plated,PTH,ViaDrill
T1C0.300
; #@! TA.AperFunction,Plated,PTH,ComponentDrill
T2C0.650
; #@! TA.AperFunction,Plated,PTH,ComponentDrill
T3C0.800
; #@! TA.AperFunction,Plated,PTH,ComponentDrill
T4C0.990
; #@! TA.AperFunction,Plated,PTH,ComponentDrill
T5C1.000
; #@! TA.AperFunction,Plated,PTH,ComponentDrill
T6C1.300
; #@! TA.AperFunction,Plated,PTH,ComponentDrill
T7C1.600
; #@! TA.AperFunction,Plated,PTH,ComponentDrill
T8C3.200
%
G90
G05
T1
X111.701Y-103.0
X111.701Y-107.56
X112.326Y-105.0
X112.326Y-108.25
X118.875Y-115.75
X119.5Y-115.25
X119.5Y-118.634
X119.5Y-110.0
X120.3Y-110.003
X121.1Y-110.0
X122.0Y-110.0
X122.8Y-110.0
X127.5Y-99.0
X128.499Y-111.033
X129.75Y-109.5
X129.838Y-110.296
X130.5Y-105.75
X130.625Y-106.54
X131.25Y-104.125
X131.25Y-108.75
X131.25Y-110.311
X132.0Y-104.75
X132.0Y-109.5
X132.0Y-115.75
X137.75Y-108.5
X137.922Y-103.298
X138.179Y-106.121
X138.484Y-103.868
X139.0Y-102.25
X139.5Y-97.75
X140.0Y-102.25
X140.122Y-105.878
X140.738Y-108.217
X140.75Y-107.321
X141.0Y-105.407
X141.187Y-99.2
X142.884Y-104.974
X143.0Y-106.75
X143.347Y-109.573
X143.5Y-97.0
X144.0Y-112.75
X144.84Y-116.0
X145.0Y-104.5
X145.398Y-99.0
X145.474Y-107.1
X146.25Y-100.75
X147.75Y-117.116
X148.0Y-111.75
X148.5Y-123.25
X148.732Y-112.232
X149.0Y-104.0
X149.0Y-108.375
X149.164Y-112.906
X149.789Y-113.5
X150.0Y-115.75
X150.438Y-107.11
X151.943Y-108.783
X152.534Y-110.455
X153.25Y-107.5
X153.25Y-112.75
X153.96Y-112.48
X154.023Y-107.707
T3
X113.66Y-90.11
X113.66Y-92.65
X113.66Y-95.19
X113.66Y-97.73
X113.66Y-100.27
X113.66Y-102.81
X113.66Y-105.35
X113.66Y-107.89
X126.36Y-90.11
X126.36Y-92.65
X126.36Y-95.19
X126.36Y-97.73
X126.36Y-100.27
X126.36Y-102.81
X126.36Y-105.35
X126.36Y-107.89
T4
X133.25Y-104.5
X133.25Y-109.0
X133.25Y-111.0
X133.25Y-115.5
X139.75Y-104.5
X139.75Y-109.0
X139.75Y-111.0
X139.75Y-115.5
T5
X115.75Y-113.0
X115.75Y-115.5
X115.75Y-118.0
X115.75Y-120.5
T6
X132.0Y-93.0
X132.0Y-127.0
X137.0Y-93.0
X137.0Y-127.0
X142.0Y-93.0
X142.0Y-127.0
X147.0Y-93.0
X147.0Y-127.0
X152.0Y-93.0
X152.0Y-127.0
T7
X123.5Y-114.13
X123.5Y-129.37
X134.38Y-100.5
X134.38Y-119.5
X149.62Y-100.5
X149.62Y-119.5
T8
X114.5Y-128.25
X158.5Y-92.0
X158.5Y-128.25
T2
G00X155.875Y-104.46
M15
G01X156.675Y-104.46
M16
G05
G00X155.875Y-115.7
M15
G01X156.675Y-115.7
M16
G05
G00X159.675Y-104.46
M15
G01X160.875Y-104.46
M16
G05
G00X159.675Y-115.7
M15
G01X160.875Y-115.7
M16
G05
M30
