%TF.GenerationSoftware,KiCad,Pcbnew,10.0.1*%
%TF.CreationDate,2026-06-07T15:48:20-04:00*%
%TF.ProjectId,limbcontroller,6c696d62-636f-46e7-9472-6f6c6c65722e,rev?*%
%TF.SameCoordinates,Original*%
%TF.FileFunction,Soldermask,Top*%
%TF.FilePolarity,Negative*%
%FSLAX46Y46*%
G04 Gerber Fmt 4.6, Leading zero omitted, Abs format (unit mm)*
G04 Created by KiCad (PCBNEW 10.0.1) date 2026-06-07 15:48:20*
%MOMM*%
%LPD*%
G01*
G04 APERTURE LIST*
G04 Aperture macros list*
%AMRoundRect*
0 Rectangle with rounded corners*
0 $1 Rounding radius*
0 $2 $3 $4 $5 $6 $7 $8 $9 X,Y pos of 4 corners*
0 Add a 4 corners polygon primitive as box body*
4,1,4,$2,$3,$4,$5,$6,$7,$8,$9,$2,$3,0*
0 Add four circle primitives for the rounded corners*
1,1,$1+$1,$2,$3*
1,1,$1+$1,$4,$5*
1,1,$1+$1,$6,$7*
1,1,$1+$1,$8,$9*
0 Add four rect primitives between the rounded corners*
20,1,$1+$1,$2,$3,$4,$5,0*
20,1,$1+$1,$4,$5,$6,$7,0*
20,1,$1+$1,$6,$7,$8,$9,0*
20,1,$1+$1,$8,$9,$2,$3,0*%
G04 Aperture macros list end*
%ADD10RoundRect,0.100000X-0.217500X-0.100000X0.217500X-0.100000X0.217500X0.100000X-0.217500X0.100000X0*%
%ADD11RoundRect,0.100000X0.217500X0.100000X-0.217500X0.100000X-0.217500X-0.100000X0.217500X-0.100000X0*%
%ADD12RoundRect,0.250000X-1.350000X-1.350000X1.350000X-1.350000X1.350000X1.350000X-1.350000X1.350000X0*%
%ADD13C,3.200000*%
%ADD14RoundRect,0.100000X0.100000X-0.217500X0.100000X0.217500X-0.100000X0.217500X-0.100000X-0.217500X0*%
%ADD15C,3.600000*%
%ADD16C,5.500000*%
%ADD17RoundRect,0.102000X-0.749000X-0.749000X0.749000X-0.749000X0.749000X0.749000X-0.749000X0.749000X0*%
%ADD18C,1.702000*%
%ADD19RoundRect,0.052440X0.634560X0.384560X-0.634560X0.384560X-0.634560X-0.384560X0.634560X-0.384560X0*%
%ADD20RoundRect,0.102000X0.754000X-0.754000X0.754000X0.754000X-0.754000X0.754000X-0.754000X-0.754000X0*%
%ADD21C,1.712000*%
%ADD22RoundRect,0.250001X-1.149999X-1.149999X1.149999X-1.149999X1.149999X1.149999X-1.149999X1.149999X0*%
%ADD23C,2.800000*%
%ADD24RoundRect,0.102000X0.575000X-0.300000X0.575000X0.300000X-0.575000X0.300000X-0.575000X-0.300000X0*%
%ADD25RoundRect,0.102000X0.575000X-0.150000X0.575000X0.150000X-0.575000X0.150000X-0.575000X-0.150000X0*%
%ADD26O,2.054000X1.254000*%
%ADD27O,2.454000X1.254000*%
%ADD28RoundRect,0.200000X0.200000X-0.700000X0.200000X0.700000X-0.200000X0.700000X-0.200000X-0.700000X0*%
%ADD29RoundRect,0.121000X-0.761000X-0.121000X0.761000X-0.121000X0.761000X0.121000X-0.761000X0.121000X0*%
%ADD30RoundRect,0.121000X-0.121000X-0.761000X0.121000X-0.761000X0.121000X0.761000X-0.121000X0.761000X0*%
%ADD31RoundRect,0.250000X-0.412500X-0.650000X0.412500X-0.650000X0.412500X0.650000X-0.412500X0.650000X0*%
%ADD32RoundRect,0.250000X0.337500X0.475000X-0.337500X0.475000X-0.337500X-0.475000X0.337500X-0.475000X0*%
%ADD33R,1.600000X1.600000*%
%ADD34O,1.600000X1.600000*%
%ADD35R,0.254000X0.482600*%
%ADD36R,0.482600X0.254000*%
%ADD37RoundRect,0.100000X-0.100000X0.217500X-0.100000X-0.217500X0.100000X-0.217500X0.100000X0.217500X0*%
%ADD38RoundRect,0.250000X-1.350000X1.350000X-1.350000X-1.350000X1.350000X-1.350000X1.350000X1.350000X0*%
%ADD39RoundRect,0.250000X0.475000X-0.337500X0.475000X0.337500X-0.475000X0.337500X-0.475000X-0.337500X0*%
G04 APERTURE END LIST*
D10*
%TO.C,C5*%
X143480000Y-104000000D03*
X144295000Y-104000000D03*
%TD*%
D11*
%TO.C,R4*%
X142475000Y-115000000D03*
X141660000Y-115000000D03*
%TD*%
D12*
%TO.C,D4*%
X134380000Y-100500000D03*
D13*
X149620000Y-100500000D03*
%TD*%
D10*
%TO.C,C19*%
X128842500Y-107250000D03*
X129657500Y-107250000D03*
%TD*%
D14*
%TO.C,R6*%
X141500000Y-104907500D03*
X141500000Y-104092500D03*
%TD*%
D12*
%TO.C,D3*%
X134380000Y-119500000D03*
D13*
X149620000Y-119500000D03*
%TD*%
D15*
%TO.C,REF\u002A\u002A*%
X114500000Y-128250000D03*
D16*
X114500000Y-128250000D03*
%TD*%
D17*
%TO.C,SW2*%
X133250000Y-104500000D03*
D18*
X139750000Y-104500000D03*
X133250000Y-109000000D03*
X139750000Y-109000000D03*
%TD*%
D10*
%TO.C,C3*%
X153655000Y-97875000D03*
X154470000Y-97875000D03*
%TD*%
D19*
%TO.C,U1*%
X131220000Y-119440000D03*
X131220000Y-118500000D03*
X131220000Y-117560000D03*
X128780000Y-117560000D03*
X128780000Y-119440000D03*
%TD*%
D15*
%TO.C,REF\u002A\u002A*%
X158500000Y-92000000D03*
D16*
X158500000Y-92000000D03*
%TD*%
D20*
%TO.C,M1*%
X115750000Y-113000000D03*
D21*
X115750000Y-115500000D03*
X115750000Y-118000000D03*
X115750000Y-120500000D03*
%TD*%
D22*
%TO.C,J4*%
X132000000Y-127000000D03*
D23*
X137000000Y-127000000D03*
X142000000Y-127000000D03*
X147000000Y-127000000D03*
X152000000Y-127000000D03*
%TD*%
D14*
%TO.C,C7*%
X132000000Y-121907500D03*
X132000000Y-121092500D03*
%TD*%
D24*
%TO.C,J5*%
X155000000Y-113280000D03*
X155000000Y-112480000D03*
D25*
X155000000Y-111330000D03*
X155000000Y-110330000D03*
X155000000Y-109830000D03*
X155000000Y-108830000D03*
D24*
X155000000Y-106880000D03*
X155000000Y-107680000D03*
D25*
X155000000Y-108330000D03*
X155000000Y-109330000D03*
X155000000Y-110830000D03*
X155000000Y-111830000D03*
D26*
X156275000Y-115700000D03*
D27*
X160275000Y-115700000D03*
D26*
X156275000Y-104460000D03*
D27*
X160275000Y-104460000D03*
%TD*%
D11*
%TO.C,C13*%
X147657500Y-116000000D03*
X146842500Y-116000000D03*
%TD*%
%TO.C,C22*%
X129657500Y-106000000D03*
X128842500Y-106000000D03*
%TD*%
D28*
%TO.C,Q1*%
X131201676Y-98775000D03*
X130251676Y-102075000D03*
X129301676Y-98775000D03*
%TD*%
D29*
%TO.C,U5*%
X142077500Y-107250000D03*
X142077500Y-107750000D03*
X142077500Y-108250000D03*
X142077500Y-108750000D03*
X142077500Y-109250000D03*
X142077500Y-109750000D03*
X142077500Y-110250000D03*
X142077500Y-110750000D03*
X142077500Y-111250000D03*
X142077500Y-111750000D03*
X142077500Y-112250000D03*
X142077500Y-112750000D03*
D30*
X143507500Y-114180000D03*
X144007500Y-114180000D03*
X144507500Y-114180000D03*
X145007500Y-114180000D03*
X145507500Y-114180000D03*
X146007500Y-114180000D03*
X146507500Y-114180000D03*
X147007500Y-114180000D03*
X147507500Y-114180000D03*
X148007500Y-114180000D03*
X148507500Y-114180000D03*
X149007500Y-114180000D03*
D29*
X150437500Y-112750000D03*
X150437500Y-112250000D03*
X150437500Y-111750000D03*
X150437500Y-111250000D03*
X150437500Y-110750000D03*
X150437500Y-110250000D03*
X150437500Y-109750000D03*
X150437500Y-109250000D03*
X150437500Y-108750000D03*
X150437500Y-108250000D03*
X150437500Y-107750000D03*
X150437500Y-107250000D03*
D30*
X149007500Y-105820000D03*
X148507500Y-105820000D03*
X148007500Y-105820000D03*
X147507500Y-105820000D03*
X147007500Y-105820000D03*
X146507500Y-105820000D03*
X146007500Y-105820000D03*
X145507500Y-105820000D03*
X145007500Y-105820000D03*
X144507500Y-105820000D03*
X144007500Y-105820000D03*
X143507500Y-105820000D03*
%TD*%
D22*
%TO.C,J3*%
X132000000Y-93000000D03*
D23*
X137000000Y-93000000D03*
X142000000Y-93000000D03*
X147000000Y-93000000D03*
X152000000Y-93000000D03*
%TD*%
D31*
%TO.C,C23*%
X127687500Y-113500000D03*
X130812500Y-113500000D03*
%TD*%
D32*
%TO.C,C21*%
X130787500Y-104250000D03*
X128712500Y-104250000D03*
%TD*%
D33*
%TO.C,A6*%
X113660000Y-90110000D03*
D34*
X113660000Y-92650000D03*
X113660000Y-95190000D03*
X113660000Y-97730000D03*
X113660000Y-100270000D03*
X113660000Y-102810000D03*
X113660000Y-105350000D03*
X113660000Y-107890000D03*
X126360000Y-107890000D03*
X126360000Y-105350000D03*
X126360000Y-102810000D03*
X126360000Y-100270000D03*
X126360000Y-97730000D03*
X126360000Y-95190000D03*
X126360000Y-92650000D03*
X126360000Y-90110000D03*
%TD*%
D11*
%TO.C,R7*%
X153657500Y-108750000D03*
X152842500Y-108750000D03*
%TD*%
D35*
%TO.C,U6*%
X128914399Y-111061400D03*
X129414400Y-111061400D03*
X129914400Y-111061400D03*
X130414401Y-111061400D03*
D36*
X130578800Y-110405699D03*
X130578800Y-109905700D03*
X130578800Y-109405701D03*
D35*
X130414401Y-108750000D03*
X129914400Y-108750000D03*
X129414400Y-108750000D03*
X128914399Y-108750000D03*
D36*
X128750000Y-109405701D03*
X128750000Y-109905700D03*
X128750000Y-110405699D03*
%TD*%
D32*
%TO.C,C20*%
X129537500Y-121500000D03*
X127462500Y-121500000D03*
%TD*%
D14*
%TO.C,C8*%
X111750000Y-91745000D03*
X111750000Y-90930000D03*
%TD*%
D15*
%TO.C,REF\u002A\u002A*%
X158500000Y-128250000D03*
D16*
X158500000Y-128250000D03*
%TD*%
D10*
%TO.C,C6*%
X141660000Y-116250000D03*
X142475000Y-116250000D03*
%TD*%
D37*
%TO.C,C9*%
X111750000Y-105980000D03*
X111750000Y-106795000D03*
%TD*%
D10*
%TO.C,C4*%
X153655000Y-98875000D03*
X154470000Y-98875000D03*
%TD*%
D11*
%TO.C,R5*%
X145657500Y-116000000D03*
X144842500Y-116000000D03*
%TD*%
D14*
%TO.C,R11*%
X152000000Y-112657500D03*
X152000000Y-111842500D03*
%TD*%
D17*
%TO.C,SW3*%
X133250000Y-111000000D03*
D18*
X139750000Y-111000000D03*
X133250000Y-115500000D03*
X139750000Y-115500000D03*
%TD*%
D38*
%TO.C,D1*%
X123500000Y-114130000D03*
D13*
X123500000Y-129370000D03*
%TD*%
D14*
%TO.C,R1*%
X127625000Y-111502500D03*
X127625000Y-110687500D03*
%TD*%
D39*
%TO.C,C2*%
X127500000Y-125537500D03*
X127500000Y-123462500D03*
%TD*%
M02*
