%TF.GenerationSoftware,KiCad,Pcbnew,10.0.1*%
%TF.CreationDate,2026-06-07T15:48:20-04:00*%
%TF.ProjectId,limbcontroller,6c696d62-636f-46e7-9472-6f6c6c65722e,rev?*%
%TF.SameCoordinates,Original*%
%TF.FileFunction,Copper,L1,Top*%
%TF.FilePolarity,Positive*%
%FSLAX46Y46*%
G04 Gerber Fmt 4.6, Leading zero omitted, Abs format (unit mm)*
G04 Created by KiCad (PCBNEW 10.0.1) date 2026-06-07 15:48:20*
%MOMM*%
%LPD*%
G01*
G04 APERTURE LIST*
G04 Aperture macros list*
%AMRoundRect*
0 Rectangle with rounded corners*
0 $1 Rounding radius*
0 $2 $3 $4 $5 $6 $7 $8 $9 X,Y pos of 4 corners*
0 Add a 4 corners polygon primitive as box body*
4,1,4,$2,$3,$4,$5,$6,$7,$8,$9,$2,$3,0*
0 Add four circle primitives for the rounded corners*
1,1,$1+$1,$2,$3*
1,1,$1+$1,$4,$5*
1,1,$1+$1,$6,$7*
1,1,$1+$1,$8,$9*
0 Add four rect primitives between the rounded corners*
20,1,$1+$1,$2,$3,$4,$5,0*
20,1,$1+$1,$4,$5,$6,$7,0*
20,1,$1+$1,$6,$7,$8,$9,0*
20,1,$1+$1,$8,$9,$2,$3,0*%
G04 Aperture macros list end*
%TA.AperFunction,SMDPad,CuDef*%
%ADD10RoundRect,0.100000X-0.217500X-0.100000X0.217500X-0.100000X0.217500X0.100000X-0.217500X0.100000X0*%
%TD*%
%TA.AperFunction,SMDPad,CuDef*%
%ADD11RoundRect,0.100000X0.217500X0.100000X-0.217500X0.100000X-0.217500X-0.100000X0.217500X-0.100000X0*%
%TD*%
%TA.AperFunction,ComponentPad*%
%ADD12RoundRect,0.250000X-1.350000X-1.350000X1.350000X-1.350000X1.350000X1.350000X-1.350000X1.350000X0*%
%TD*%
%TA.AperFunction,ComponentPad*%
%ADD13C,3.200000*%
%TD*%
%TA.AperFunction,SMDPad,CuDef*%
%ADD14RoundRect,0.100000X0.100000X-0.217500X0.100000X0.217500X-0.100000X0.217500X-0.100000X-0.217500X0*%
%TD*%
%TA.AperFunction,ComponentPad*%
%ADD15C,3.600000*%
%TD*%
%TA.AperFunction,ConnectorPad*%
%ADD16C,5.500000*%
%TD*%
%TA.AperFunction,ComponentPad*%
%ADD17R,1.498000X1.498000*%
%TD*%
%TA.AperFunction,ComponentPad*%
%ADD18C,1.498000*%
%TD*%
%TA.AperFunction,SMDPad,CuDef*%
%ADD19RoundRect,0.040200X0.544800X0.294800X-0.544800X0.294800X-0.544800X-0.294800X0.544800X-0.294800X0*%
%TD*%
%TA.AperFunction,ComponentPad*%
%ADD20R,1.508000X1.508000*%
%TD*%
%TA.AperFunction,ComponentPad*%
%ADD21C,1.508000*%
%TD*%
%TA.AperFunction,ComponentPad*%
%ADD22RoundRect,0.250001X-1.149999X-1.149999X1.149999X-1.149999X1.149999X1.149999X-1.149999X1.149999X0*%
%TD*%
%TA.AperFunction,ComponentPad*%
%ADD23C,2.800000*%
%TD*%
%TA.AperFunction,SMDPad,CuDef*%
%ADD24R,1.150000X0.600000*%
%TD*%
%TA.AperFunction,SMDPad,CuDef*%
%ADD25R,1.150000X0.300000*%
%TD*%
%TA.AperFunction,ComponentPad*%
%ADD26O,1.850000X1.050000*%
%TD*%
%TA.AperFunction,ComponentPad*%
%ADD27O,2.250000X1.050000*%
%TD*%
%TA.AperFunction,SMDPad,CuDef*%
%ADD28RoundRect,0.200000X0.200000X-0.700000X0.200000X0.700000X-0.200000X0.700000X-0.200000X-0.700000X0*%
%TD*%
%TA.AperFunction,SMDPad,CuDef*%
%ADD29RoundRect,0.070000X-0.710000X-0.070000X0.710000X-0.070000X0.710000X0.070000X-0.710000X0.070000X0*%
%TD*%
%TA.AperFunction,SMDPad,CuDef*%
%ADD30RoundRect,0.070000X-0.070000X-0.710000X0.070000X-0.710000X0.070000X0.710000X-0.070000X0.710000X0*%
%TD*%
%TA.AperFunction,SMDPad,CuDef*%
%ADD31RoundRect,0.250000X-0.412500X-0.650000X0.412500X-0.650000X0.412500X0.650000X-0.412500X0.650000X0*%
%TD*%
%TA.AperFunction,SMDPad,CuDef*%
%ADD32RoundRect,0.250000X0.337500X0.475000X-0.337500X0.475000X-0.337500X-0.475000X0.337500X-0.475000X0*%
%TD*%
%TA.AperFunction,ComponentPad*%
%ADD33R,1.600000X1.600000*%
%TD*%
%TA.AperFunction,ComponentPad*%
%ADD34O,1.600000X1.600000*%
%TD*%
%TA.AperFunction,SMDPad,CuDef*%
%ADD35R,0.254000X0.482600*%
%TD*%
%TA.AperFunction,SMDPad,CuDef*%
%ADD36R,0.482600X0.254000*%
%TD*%
%TA.AperFunction,SMDPad,CuDef*%
%ADD37RoundRect,0.100000X-0.100000X0.217500X-0.100000X-0.217500X0.100000X-0.217500X0.100000X0.217500X0*%
%TD*%
%TA.AperFunction,ComponentPad*%
%ADD38RoundRect,0.250000X-1.350000X1.350000X-1.350000X-1.350000X1.350000X-1.350000X1.350000X1.350000X0*%
%TD*%
%TA.AperFunction,SMDPad,CuDef*%
%ADD39RoundRect,0.250000X0.475000X-0.337500X0.475000X0.337500X-0.475000X0.337500X-0.475000X-0.337500X0*%
%TD*%
%TA.AperFunction,ViaPad*%
%ADD40C,0.600000*%
%TD*%
%TA.AperFunction,Conductor*%
%ADD41C,0.250000*%
%TD*%
%TA.AperFunction,Conductor*%
%ADD42C,0.500000*%
%TD*%
%TA.AperFunction,Conductor*%
%ADD43C,0.200000*%
%TD*%
G04 APERTURE END LIST*
D10*
%TO.P,C5,1*%
%TO.N,GND*%
X143480000Y-104000000D03*
%TO.P,C5,2*%
%TO.N,+3.3V*%
X144295000Y-104000000D03*
%TD*%
D11*
%TO.P,R4,1*%
%TO.N,+3.3V*%
X142475000Y-115000000D03*
%TO.P,R4,2*%
%TO.N,Net-(U5-VDDA)*%
X141660000Y-115000000D03*
%TD*%
D12*
%TO.P,D4,1,K_1*%
%TO.N,+3.3V*%
X134380000Y-100500000D03*
D13*
%TO.P,D4,2,A_2*%
%TO.N,/VCC*%
X149620000Y-100500000D03*
%TD*%
D10*
%TO.P,C19,1*%
%TO.N,GND*%
X128842500Y-107250000D03*
%TO.P,C19,2*%
%TO.N,Net-(U5-BOOT0)*%
X129657500Y-107250000D03*
%TD*%
D14*
%TO.P,R6,1*%
%TO.N,Net-(R6-Pad1)*%
X141500000Y-104907500D03*
%TO.P,R6,2*%
%TO.N,GND*%
X141500000Y-104092500D03*
%TD*%
D12*
%TO.P,D3,1,K_1*%
%TO.N,Net-(D3-K)*%
X134380000Y-119500000D03*
D13*
%TO.P,D3,2,A_2*%
%TO.N,Net-(D3-A)*%
X149620000Y-119500000D03*
%TD*%
D15*
%TO.P,REF\u002A\u002A,1*%
%TO.N,N/C*%
X114500000Y-128250000D03*
D16*
X114500000Y-128250000D03*
%TD*%
D17*
%TO.P,SW2,1*%
%TO.N,unconnected-(SW2-Pad1)*%
X133250000Y-104500000D03*
D18*
%TO.P,SW2,2*%
%TO.N,+3.3V*%
X139750000Y-104500000D03*
%TO.P,SW2,3*%
%TO.N,Net-(U5-BOOT0)*%
X133250000Y-109000000D03*
%TO.P,SW2,4*%
%TO.N,Net-(R6-Pad1)*%
X139750000Y-109000000D03*
%TD*%
D10*
%TO.P,C3,1*%
%TO.N,/VMOT*%
X153655000Y-97875000D03*
%TO.P,C3,2*%
%TO.N,GND*%
X154470000Y-97875000D03*
%TD*%
D19*
%TO.P,U1,1,VIN_1*%
%TO.N,Net-(D3-K)*%
X131220000Y-119440000D03*
%TO.P,U1,2,GND_2*%
%TO.N,GND*%
X131220000Y-118500000D03*
%TO.P,U1,3,EN_3*%
%TO.N,Net-(D3-K)*%
X131220000Y-117560000D03*
%TO.P,U1,4,BP_4*%
%TO.N,Net-(U1-BP)*%
X128780000Y-117560000D03*
%TO.P,U1,5,VOUT_5*%
%TO.N,Net-(D1-A)*%
X128780000Y-119440000D03*
%TD*%
D15*
%TO.P,REF\u002A\u002A,1*%
%TO.N,N/C*%
X158500000Y-92000000D03*
D16*
X158500000Y-92000000D03*
%TD*%
D20*
%TO.P,M1,1*%
%TO.N,Net-(A6-1A)*%
X115750000Y-113000000D03*
D21*
%TO.P,M1,2,-_2*%
%TO.N,Net-(A6-1B)*%
X115750000Y-115500000D03*
%TO.P,M1,3*%
%TO.N,Net-(A6-2A)*%
X115750000Y-118000000D03*
%TO.P,M1,4*%
%TO.N,Net-(A6-2B)*%
X115750000Y-120500000D03*
%TD*%
D22*
%TO.P,J4,1,Pin_1_1*%
%TO.N,GND*%
X132000000Y-127000000D03*
D23*
%TO.P,J4,2,Pin_2_2*%
%TO.N,SDA*%
X137000000Y-127000000D03*
%TO.P,J4,3,Pin_3_3*%
%TO.N,SCL*%
X142000000Y-127000000D03*
%TO.P,J4,4,Pin_4_4*%
%TO.N,/VCC*%
X147000000Y-127000000D03*
%TO.P,J4,5,Pin_5_5*%
%TO.N,/VMOT*%
X152000000Y-127000000D03*
%TD*%
D14*
%TO.P,C7,1*%
%TO.N,GND*%
X132000000Y-121907500D03*
%TO.P,C7,2*%
%TO.N,Net-(D3-K)*%
X132000000Y-121092500D03*
%TD*%
D24*
%TO.P,J5,A1/B12,GND_A1/B12*%
%TO.N,GND*%
X155000000Y-113280000D03*
%TO.P,J5,A4/B9,VBUS_A4/B9*%
%TO.N,Net-(D3-A)*%
X155000000Y-112480000D03*
D25*
%TO.P,J5,A5,CC1_A5*%
%TO.N,Net-(J5-CC1)*%
X155000000Y-111330000D03*
%TO.P,J5,A6,D+_A6*%
%TO.N,D+*%
X155000000Y-110330000D03*
%TO.P,J5,A7,D-_A7*%
%TO.N,D-*%
X155000000Y-109830000D03*
%TO.P,J5,A8*%
%TO.N,N/C*%
X155000000Y-108830000D03*
D24*
%TO.P,J5,B1/A12,GND_B1/A12*%
%TO.N,GND*%
X155000000Y-106880000D03*
%TO.P,J5,B4/AP,VBUS_B4/AP*%
%TO.N,Net-(D3-A)*%
X155000000Y-107680000D03*
D25*
%TO.P,J5,B5,CC2_B5*%
%TO.N,Net-(J5-CC2)*%
X155000000Y-108330000D03*
%TO.P,J5,B6,D+_B6*%
%TO.N,D+*%
X155000000Y-109330000D03*
%TO.P,J5,B7,D-_B7*%
%TO.N,D-*%
X155000000Y-110830000D03*
%TO.P,J5,B8*%
%TO.N,N/C*%
X155000000Y-111830000D03*
D26*
%TO.P,J5,SH,SHIELD_SH*%
%TO.N,unconnected-(J5-SHIELD-PadSH)_1*%
X156275000Y-115700000D03*
D27*
%TO.N,unconnected-(J5-SHIELD-PadSH)_2*%
X160275000Y-115700000D03*
D26*
%TO.N,unconnected-(J5-SHIELD-PadSH)*%
X156275000Y-104460000D03*
D27*
%TO.N,unconnected-(J5-SHIELD-PadSH)_3*%
X160275000Y-104460000D03*
%TD*%
D11*
%TO.P,C13,1*%
%TO.N,GND*%
X147657500Y-116000000D03*
%TO.P,C13,2*%
%TO.N,Net-(U5-NRST)*%
X146842500Y-116000000D03*
%TD*%
%TO.P,C22,1*%
%TO.N,GND*%
X129657500Y-106000000D03*
%TO.P,C22,2*%
%TO.N,+3.3V*%
X128842500Y-106000000D03*
%TD*%
D28*
%TO.P,Q1,B,B_B*%
%TO.N,/VCC*%
X131201676Y-98775000D03*
%TO.P,Q1,C,C_C*%
%TO.N,+3.3V*%
X130251676Y-102075000D03*
%TO.P,Q1,E,E_E*%
%TO.N,Net-(D1-K)*%
X129301676Y-98775000D03*
%TD*%
D29*
%TO.P,U5,1,VBAT_1*%
%TO.N,+3.3V*%
X142077500Y-107250000D03*
%TO.P,U5,2,PC13-TAMPER-RTC_2*%
%TO.N,unconnected-(U5-PC13-TAMPER-RTC-Pad2)*%
X142077500Y-107750000D03*
%TO.P,U5,3,PC14-OSC32_IN_3*%
%TO.N,unconnected-(U5-PC14-OSC32_IN-Pad3)*%
X142077500Y-108250000D03*
%TO.P,U5,4,PC15-OSC32_OUT_4*%
%TO.N,unconnected-(U5-PC15-OSC32_OUT-Pad4)*%
X142077500Y-108750000D03*
%TO.P,U5,5,PD0_OSC_IN_5*%
%TO.N,unconnected-(U5-PD0_OSC_IN-Pad5)*%
X142077500Y-109250000D03*
%TO.P,U5,6,PD1_OSC_OUT_6*%
%TO.N,unconnected-(U5-PD1_OSC_OUT-Pad6)*%
X142077500Y-109750000D03*
%TO.P,U5,7,NRST_7*%
%TO.N,Net-(U5-NRST)*%
X142077500Y-110250000D03*
%TO.P,U5,8,VSSA_8*%
%TO.N,GND*%
X142077500Y-110750000D03*
%TO.P,U5,9,VDDA_9*%
%TO.N,Net-(U5-VDDA)*%
X142077500Y-111250000D03*
%TO.P,U5,10,PA0_WKUP_10*%
%TO.N,unconnected-(U5-PA0_WKUP-Pad10)*%
X142077500Y-111750000D03*
%TO.P,U5,11,PA1_11*%
%TO.N,unconnected-(U5-PA1-Pad11)*%
X142077500Y-112250000D03*
%TO.P,U5,12,PA2_12*%
%TO.N,unconnected-(U5-PA2-Pad12)*%
X142077500Y-112750000D03*
D30*
%TO.P,U5,13,PA3_13*%
%TO.N,unconnected-(U5-PA3-Pad13)*%
X143507500Y-114180000D03*
%TO.P,U5,14,PA4_14*%
%TO.N,unconnected-(U5-PA4-Pad14)*%
X144007500Y-114180000D03*
%TO.P,U5,15,PA5_15*%
%TO.N,unconnected-(U5-PA5-Pad15)*%
X144507500Y-114180000D03*
%TO.P,U5,16,PA6_16*%
%TO.N,unconnected-(U5-PA6-Pad16)*%
X145007500Y-114180000D03*
%TO.P,U5,17,PA7_17*%
%TO.N,unconnected-(U5-PA7-Pad17)*%
X145507500Y-114180000D03*
%TO.P,U5,18,PB0_18*%
%TO.N,unconnected-(U5-PB0-Pad18)*%
X146007500Y-114180000D03*
%TO.P,U5,19,PB1_19*%
%TO.N,unconnected-(U5-PB1-Pad19)*%
X146507500Y-114180000D03*
%TO.P,U5,20,PB2_20*%
%TO.N,unconnected-(U5-PB2-Pad20)*%
X147007500Y-114180000D03*
%TO.P,U5,21,PB10_21*%
%TO.N,SCL*%
X147507500Y-114180000D03*
%TO.P,U5,22,PB11_22*%
%TO.N,SDA*%
X148007500Y-114180000D03*
%TO.P,U5,23,VSS_23*%
%TO.N,GND*%
X148507500Y-114180000D03*
%TO.P,U5,24,VDD_24*%
%TO.N,+3.3V*%
X149007500Y-114180000D03*
D29*
%TO.P,U5,25,PB12_25*%
%TO.N,unconnected-(U5-PB12-Pad25)*%
X150437500Y-112750000D03*
%TO.P,U5,26,PB13_26*%
%TO.N,MS1*%
X150437500Y-112250000D03*
%TO.P,U5,27,PB14_27*%
%TO.N,MS2*%
X150437500Y-111750000D03*
%TO.P,U5,28,PB15_28*%
%TO.N,MS3*%
X150437500Y-111250000D03*
%TO.P,U5,29,PA8_29*%
%TO.N,unconnected-(U5-PA8-Pad29)*%
X150437500Y-110750000D03*
%TO.P,U5,30,PA9_30*%
%TO.N,unconnected-(U5-PA9-Pad30)*%
X150437500Y-110250000D03*
%TO.P,U5,31,PA10_31*%
%TO.N,unconnected-(U5-PA10-Pad31)*%
X150437500Y-109750000D03*
%TO.P,U5,32,PA11_32*%
%TO.N,D-*%
X150437500Y-109250000D03*
%TO.P,U5,33,PA12_33*%
%TO.N,D+*%
X150437500Y-108750000D03*
%TO.P,U5,34,PA13_34*%
%TO.N,unconnected-(U5-PA13-Pad34)*%
X150437500Y-108250000D03*
%TO.P,U5,35,VSS_35*%
%TO.N,GND*%
X150437500Y-107750000D03*
%TO.P,U5,36,VDD_36*%
%TO.N,+3.3V*%
X150437500Y-107250000D03*
D30*
%TO.P,U5,37,PA14_37*%
%TO.N,unconnected-(U5-PA14-Pad37)*%
X149007500Y-105820000D03*
%TO.P,U5,38,PA15_38*%
%TO.N,unconnected-(U5-PA15-Pad38)*%
X148507500Y-105820000D03*
%TO.P,U5,39,PB3_39*%
%TO.N,STEP*%
X148007500Y-105820000D03*
%TO.P,U5,40,PB4_40*%
%TO.N,DIR*%
X147507500Y-105820000D03*
%TO.P,U5,41,PB5_41*%
%TO.N,unconnected-(U5-PB5-Pad41)*%
X147007500Y-105820000D03*
%TO.P,U5,42,PB6_42*%
%TO.N,SCL2*%
X146507500Y-105820000D03*
%TO.P,U5,43,PB7_43*%
%TO.N,SDA2*%
X146007500Y-105820000D03*
%TO.P,U5,44,BOOT0_44*%
%TO.N,Net-(U5-BOOT0)*%
X145507500Y-105820000D03*
%TO.P,U5,45,PB8_45*%
%TO.N,unconnected-(U5-PB8-Pad45)*%
X145007500Y-105820000D03*
%TO.P,U5,46,PB9_46*%
%TO.N,unconnected-(U5-PB9-Pad46)*%
X144507500Y-105820000D03*
%TO.P,U5,47,VSS_47*%
%TO.N,GND*%
X144007500Y-105820000D03*
%TO.P,U5,48,VDD_48*%
%TO.N,+3.3V*%
X143507500Y-105820000D03*
%TD*%
D22*
%TO.P,J3,1,Pin_1_1*%
%TO.N,GND*%
X132000000Y-93000000D03*
D23*
%TO.P,J3,2,Pin_2_2*%
%TO.N,SDA*%
X137000000Y-93000000D03*
%TO.P,J3,3,Pin_3_3*%
%TO.N,SCL*%
X142000000Y-93000000D03*
%TO.P,J3,4,Pin_4_4*%
%TO.N,/VCC*%
X147000000Y-93000000D03*
%TO.P,J3,5,Pin_5_5*%
%TO.N,/VMOT*%
X152000000Y-93000000D03*
%TD*%
D31*
%TO.P,C23,1*%
%TO.N,GND*%
X127687500Y-113500000D03*
%TO.P,C23,2*%
%TO.N,+3.3V*%
X130812500Y-113500000D03*
%TD*%
D32*
%TO.P,C21,1*%
%TO.N,GND*%
X130787500Y-104250000D03*
%TO.P,C21,2*%
%TO.N,Net-(D1-K)*%
X128712500Y-104250000D03*
%TD*%
D33*
%TO.P,A6,1,GND_1*%
%TO.N,GND*%
X113660000Y-90110000D03*
D34*
%TO.P,A6,2,VDD_2*%
%TO.N,/VCC*%
X113660000Y-92650000D03*
%TO.P,A6,3,1B_3*%
%TO.N,Net-(A6-1B)*%
X113660000Y-95190000D03*
%TO.P,A6,4,1A_4*%
%TO.N,Net-(A6-1A)*%
X113660000Y-97730000D03*
%TO.P,A6,5,2A_5*%
%TO.N,Net-(A6-2A)*%
X113660000Y-100270000D03*
%TO.P,A6,6,2B_6*%
%TO.N,Net-(A6-2B)*%
X113660000Y-102810000D03*
%TO.P,A6,7,GND_7*%
%TO.N,GND*%
X113660000Y-105350000D03*
%TO.P,A6,8,VMOT_8*%
%TO.N,/VMOT*%
X113660000Y-107890000D03*
%TO.P,A6,9,~{ENABLE}_9*%
%TO.N,unconnected-(A6-~{ENABLE}-Pad9)*%
X126360000Y-107890000D03*
%TO.P,A6,10,MS1_10*%
%TO.N,MS1*%
X126360000Y-105350000D03*
%TO.P,A6,11,MS2_11*%
%TO.N,MS2*%
X126360000Y-102810000D03*
%TO.P,A6,12,MS3_12*%
%TO.N,MS3*%
X126360000Y-100270000D03*
%TO.P,A6,13,~{RESET}_13*%
%TO.N,Net-(A6-~{RESET})*%
X126360000Y-97730000D03*
%TO.P,A6,14,~{SLEEP}_14*%
X126360000Y-95190000D03*
%TO.P,A6,15,STEP_15*%
%TO.N,STEP*%
X126360000Y-92650000D03*
%TO.P,A6,16,DIR_16*%
%TO.N,DIR*%
X126360000Y-90110000D03*
%TD*%
D11*
%TO.P,R7,1*%
%TO.N,Net-(J5-CC2)*%
X153657500Y-108750000D03*
%TO.P,R7,2*%
%TO.N,GND*%
X152842500Y-108750000D03*
%TD*%
D35*
%TO.P,U6,1,SDO_1*%
%TO.N,GND*%
X128914399Y-111061400D03*
%TO.P,U6,2,NC_2*%
%TO.N,unconnected-(U6-NC-Pad2)*%
X129414400Y-111061400D03*
%TO.P,U6,3,NC_3*%
%TO.N,unconnected-(U6-NC-Pad3)*%
X129914400Y-111061400D03*
%TO.P,U6,4,INT1_4*%
%TO.N,unconnected-(U6-INT1-Pad4)*%
X130414401Y-111061400D03*
D36*
%TO.P,U6,5,VDDIO_5*%
%TO.N,+3.3V*%
X130578800Y-110405699D03*
%TO.P,U6,6,GNDIO_6*%
%TO.N,GND*%
X130578800Y-109905700D03*
%TO.P,U6,7,GND_7*%
X130578800Y-109405701D03*
D35*
%TO.P,U6,8,VDD_8*%
%TO.N,+3.3V*%
X130414401Y-108750000D03*
%TO.P,U6,9,INT2_9*%
%TO.N,unconnected-(U6-INT2-Pad9)*%
X129914400Y-108750000D03*
%TO.P,U6,10,NC_10*%
%TO.N,unconnected-(U6-NC-Pad10)*%
X129414400Y-108750000D03*
%TO.P,U6,11,NC_11*%
%TO.N,unconnected-(U6-NC-Pad11)*%
X128914399Y-108750000D03*
D36*
%TO.P,U6,12,CSB_12*%
%TO.N,Net-(U6-CSB)*%
X128750000Y-109405701D03*
%TO.P,U6,13,SCX_13*%
%TO.N,SCL2*%
X128750000Y-109905700D03*
%TO.P,U6,14,SDX_14*%
%TO.N,SDA2*%
X128750000Y-110405699D03*
%TD*%
D32*
%TO.P,C20,1*%
%TO.N,GND*%
X129537500Y-121500000D03*
%TO.P,C20,2*%
%TO.N,Net-(U1-BP)*%
X127462500Y-121500000D03*
%TD*%
D14*
%TO.P,C8,1*%
%TO.N,/VCC*%
X111750000Y-91745000D03*
%TO.P,C8,2*%
%TO.N,GND*%
X111750000Y-90930000D03*
%TD*%
D15*
%TO.P,REF\u002A\u002A,1*%
%TO.N,N/C*%
X158500000Y-128250000D03*
D16*
X158500000Y-128250000D03*
%TD*%
D10*
%TO.P,C6,1*%
%TO.N,GND*%
X141660000Y-116250000D03*
%TO.P,C6,2*%
%TO.N,Net-(U5-VDDA)*%
X142475000Y-116250000D03*
%TD*%
D37*
%TO.P,C9,1*%
%TO.N,GND*%
X111750000Y-105980000D03*
%TO.P,C9,2*%
%TO.N,/VMOT*%
X111750000Y-106795000D03*
%TD*%
D10*
%TO.P,C4,1*%
%TO.N,/VCC*%
X153655000Y-98875000D03*
%TO.P,C4,2*%
%TO.N,GND*%
X154470000Y-98875000D03*
%TD*%
D11*
%TO.P,R5,1*%
%TO.N,+3.3V*%
X145657500Y-116000000D03*
%TO.P,R5,2*%
%TO.N,Net-(U5-NRST)*%
X144842500Y-116000000D03*
%TD*%
D14*
%TO.P,R11,1*%
%TO.N,GND*%
X152000000Y-112657500D03*
%TO.P,R11,2*%
%TO.N,Net-(J5-CC1)*%
X152000000Y-111842500D03*
%TD*%
D17*
%TO.P,SW3,1*%
%TO.N,Net-(U5-NRST)*%
X133250000Y-111000000D03*
D18*
%TO.P,SW3,2*%
%TO.N,unconnected-(SW3-Pad2)*%
X139750000Y-111000000D03*
%TO.P,SW3,3*%
%TO.N,GND*%
X133250000Y-115500000D03*
%TO.P,SW3,4*%
%TO.N,unconnected-(SW3-Pad4)*%
X139750000Y-115500000D03*
%TD*%
D38*
%TO.P,D1,1,K_1*%
%TO.N,Net-(D1-K)*%
X123500000Y-114130000D03*
D13*
%TO.P,D1,2,A_2*%
%TO.N,Net-(D1-A)*%
X123500000Y-129370000D03*
%TD*%
D14*
%TO.P,R1,1*%
%TO.N,+3.3V*%
X127625000Y-111502500D03*
%TO.P,R1,2*%
%TO.N,Net-(U6-CSB)*%
X127625000Y-110687500D03*
%TD*%
D39*
%TO.P,C2,1*%
%TO.N,GND*%
X127500000Y-125537500D03*
%TO.P,C2,2*%
%TO.N,Net-(D3-K)*%
X127500000Y-123462500D03*
%TD*%
D40*
%TO.N,GND*%
X132000000Y-104750000D03*
X153250000Y-107500000D03*
X153250000Y-112750000D03*
X132000000Y-115750000D03*
X128499393Y-111032614D03*
X132000000Y-109500000D03*
X150000000Y-115750000D03*
%TO.N,+3.3V*%
X131250000Y-102750000D03*
X143000000Y-106750000D03*
X131250000Y-110311398D03*
X131250000Y-108750000D03*
X150437500Y-107110000D03*
X149788854Y-113500000D03*
X145474143Y-107100000D03*
%TO.N,/VCC*%
X127500000Y-99000000D03*
%TO.N,Net-(U5-BOOT0)*%
X138179058Y-106120558D03*
X142883501Y-104974074D03*
X140121692Y-105878308D03*
X145000000Y-104500000D03*
%TO.N,Net-(R6-Pad1)*%
X141000000Y-105407500D03*
X140750000Y-107320554D03*
%TO.N,Net-(D3-A)*%
X154022645Y-107707411D03*
X153960407Y-112480000D03*
%TO.N,Net-(A6-1A)*%
X119500000Y-110000000D03*
%TO.N,Net-(A6-1B)*%
X120299997Y-110003182D03*
%TO.N,Net-(A6-2A)*%
X111701342Y-103000000D03*
X111701342Y-107560227D03*
%TO.N,Net-(A6-2B)*%
X112326342Y-108250000D03*
X112326342Y-105000000D03*
%TO.N,SDA*%
X145397638Y-99000000D03*
X149000000Y-108375000D03*
X149000000Y-104000000D03*
X143500000Y-97000000D03*
%TO.N,SCL*%
X144000000Y-112750000D03*
%TO.N,D+*%
X151942994Y-108782612D03*
X152534472Y-110455000D03*
%TO.N,Net-(U5-NRST)*%
X144840000Y-116000000D03*
X143347414Y-109573153D03*
X140737529Y-108216909D03*
X137750000Y-108500000D03*
%TO.N,MS1*%
X122800003Y-110000000D03*
X119499999Y-115250001D03*
X148500000Y-123250000D03*
X149163854Y-112906354D03*
X119499999Y-118633883D03*
%TO.N,MS2*%
X122000000Y-110000000D03*
X148731531Y-112231531D03*
X118875000Y-115750000D03*
%TO.N,MS3*%
X148000000Y-111750000D03*
X121099991Y-109999545D03*
X147750000Y-117116117D03*
%TO.N,STEP*%
X146250000Y-100750000D03*
%TO.N,DIR*%
X139500000Y-97750000D03*
X141187031Y-99200000D03*
%TO.N,SCL2*%
X139000000Y-102250000D03*
X137922047Y-103298432D03*
X129750000Y-109500000D03*
X130500000Y-105750000D03*
%TO.N,SDA2*%
X140000000Y-102250000D03*
X130625000Y-106540176D03*
X138483599Y-103868225D03*
X129837500Y-110296384D03*
%TD*%
%TO.N,GND*%
D41*
X150437500Y-107750000D02*
X153000000Y-107750000D01*
X149625000Y-115375000D02*
X149535000Y-115285000D01*
D42*
X155000000Y-100000000D02*
X154750000Y-100250000D01*
D41*
X132250000Y-115500000D02*
X132000000Y-115750000D01*
X131905701Y-109405701D02*
X132000000Y-109500000D01*
D43*
X129059744Y-121500000D02*
X129537500Y-121500000D01*
D41*
X145096946Y-107750000D02*
X150437500Y-107750000D01*
X149535000Y-115285000D02*
X149453750Y-115203750D01*
X143550000Y-104250000D02*
X143550000Y-104521946D01*
X153250000Y-113000000D02*
X153530000Y-113280000D01*
X130000000Y-115750000D02*
X132000000Y-115750000D01*
X148771946Y-115285000D02*
X148507500Y-115020554D01*
X143550000Y-104000000D02*
X143550000Y-104250000D01*
X149453750Y-115203750D02*
X149372500Y-115285000D01*
X147587500Y-116000000D02*
X149750000Y-116000000D01*
X153530000Y-113280000D02*
X155000000Y-113280000D01*
X143054450Y-110750000D02*
X144007500Y-109796950D01*
X154875000Y-98875000D02*
X154400000Y-98875000D01*
X153620000Y-106880000D02*
X155000000Y-106880000D01*
X130250000Y-120787500D02*
X129537500Y-121500000D01*
D42*
X155000000Y-97750000D02*
X155000000Y-92000000D01*
D41*
X142000000Y-123750000D02*
X135250000Y-123750000D01*
X127687500Y-113500000D02*
X129937500Y-115750000D01*
X144042500Y-104742500D02*
X144042500Y-106695554D01*
X132250000Y-115500000D02*
X133250000Y-115500000D01*
X149250000Y-115285000D02*
X149535000Y-115285000D01*
X153250000Y-112750000D02*
X153250000Y-113000000D01*
X128912500Y-106855264D02*
X129587500Y-106180264D01*
X149625000Y-115032500D02*
X149625000Y-115375000D01*
D43*
X126475000Y-122775000D02*
X126725000Y-122525000D01*
D41*
X140972500Y-111014446D02*
X141236946Y-110750000D01*
X129587500Y-106180264D02*
X129587500Y-106000000D01*
X143550000Y-104521946D02*
X144007500Y-104979446D01*
X152842500Y-107907500D02*
X153250000Y-107500000D01*
X149703750Y-114953750D02*
X149625000Y-115032500D01*
X131220000Y-118500000D02*
X130635001Y-118500000D01*
X135250000Y-123750000D02*
X132000000Y-127000000D01*
X113660000Y-90110000D02*
X112640000Y-90110000D01*
X143457500Y-104092500D02*
X143550000Y-104000000D01*
X130635001Y-118500000D02*
X130250000Y-118885001D01*
X130635001Y-118500000D02*
X130000000Y-117864999D01*
D43*
X126725000Y-122525000D02*
X128034744Y-122525000D01*
X126475000Y-124512500D02*
X126475000Y-122775000D01*
D41*
X144007500Y-104979446D02*
X144007500Y-105820000D01*
D43*
X131500000Y-104250000D02*
X132000000Y-104750000D01*
D41*
X130578800Y-109405701D02*
X131905701Y-109405701D01*
X144042500Y-106695554D02*
X145096946Y-107750000D01*
X155000000Y-98750000D02*
X154875000Y-98875000D01*
D42*
X155000000Y-92000000D02*
X153500000Y-90500000D01*
X155000000Y-98750000D02*
X155000000Y-100000000D01*
D41*
X149750000Y-116000000D02*
X150000000Y-115750000D01*
X111750000Y-106050000D02*
X112960000Y-106050000D01*
X142077500Y-110750000D02*
X143054450Y-110750000D01*
X153250000Y-107250000D02*
X153620000Y-106880000D01*
D42*
X134500000Y-90500000D02*
X132000000Y-93000000D01*
D41*
X149372500Y-115285000D02*
X149250000Y-115285000D01*
D43*
X128528179Y-111061400D02*
X128499393Y-111032614D01*
D41*
X130250000Y-118885001D02*
X130250000Y-120787500D01*
X141730000Y-116250000D02*
X140972500Y-115492500D01*
X143550000Y-104250000D02*
X144042500Y-104742500D01*
D42*
X154750000Y-106630000D02*
X155000000Y-106880000D01*
D41*
X131000000Y-121837500D02*
X131930000Y-121837500D01*
X129875000Y-121837500D02*
X129537500Y-121500000D01*
X150000000Y-115750000D02*
X149625000Y-115375000D01*
X154875000Y-97875000D02*
X155000000Y-97750000D01*
X152842500Y-108750000D02*
X152842500Y-107907500D01*
X128912500Y-107250000D02*
X128912500Y-106855264D01*
D43*
X129657500Y-105380000D02*
X130787500Y-104250000D01*
X130787500Y-104250000D02*
X131500000Y-104250000D01*
D41*
X153250000Y-107500000D02*
X153250000Y-107250000D01*
X141236946Y-110750000D02*
X142077500Y-110750000D01*
X130000000Y-117864999D02*
X130000000Y-115750000D01*
X140972500Y-115492500D02*
X140972500Y-111014446D01*
X131930000Y-121837500D02*
X132000000Y-121907500D01*
X148507500Y-115020554D02*
X148507500Y-114180000D01*
X150000000Y-115750000D02*
X142000000Y-123750000D01*
D43*
X128914399Y-111061400D02*
X128528179Y-111061400D01*
D41*
X149703750Y-114953750D02*
X149453750Y-115203750D01*
X129937500Y-115750000D02*
X130000000Y-115750000D01*
X112960000Y-106050000D02*
X113660000Y-105350000D01*
D42*
X153500000Y-90500000D02*
X134500000Y-90500000D01*
D41*
X130578800Y-109905700D02*
X130578800Y-109405701D01*
D43*
X129657500Y-106000000D02*
X129657500Y-105380000D01*
D41*
X149250000Y-115285000D02*
X148771946Y-115285000D01*
X144007500Y-109796950D02*
X144007500Y-105820000D01*
D42*
X155000000Y-98750000D02*
X155000000Y-97750000D01*
D41*
X153000000Y-107750000D02*
X153250000Y-107500000D01*
D43*
X127500000Y-125537500D02*
X126475000Y-124512500D01*
D41*
X112640000Y-90110000D02*
X111750000Y-91000000D01*
X131000000Y-121837500D02*
X129875000Y-121837500D01*
X154400000Y-97875000D02*
X154875000Y-97875000D01*
D43*
X128034744Y-122525000D02*
X129059744Y-121500000D01*
D42*
X154750000Y-100250000D02*
X154750000Y-106630000D01*
D41*
X141500000Y-104092500D02*
X143457500Y-104092500D01*
X152000000Y-112657500D02*
X149703750Y-114953750D01*
%TO.N,+3.3V*%
X131250000Y-111750000D02*
X131250000Y-112000000D01*
X138503750Y-103003750D02*
X139750000Y-104250000D01*
X136007500Y-100500000D02*
X138503750Y-102996250D01*
X142077500Y-107250000D02*
X141523054Y-106695554D01*
X131250000Y-110311398D02*
X131250000Y-111500000D01*
X131000000Y-111750000D02*
X131250000Y-112000000D01*
X138503750Y-102996250D02*
X138503750Y-103003750D01*
X139054750Y-105695250D02*
X139054750Y-105452750D01*
X128300000Y-106612500D02*
X128300000Y-107550000D01*
X127872500Y-111750000D02*
X131000000Y-111750000D01*
X142475000Y-115000000D02*
X143017500Y-115542500D01*
X138933500Y-105574000D02*
X139054750Y-105452750D01*
X134380000Y-100500000D02*
X136007500Y-100500000D01*
D43*
X143000000Y-106750000D02*
X142577500Y-106750000D01*
X142577500Y-106750000D02*
X142077500Y-107250000D01*
D41*
X131000000Y-111750000D02*
X131250000Y-111750000D01*
X129750000Y-107750000D02*
X130414401Y-108414401D01*
X143401514Y-102996250D02*
X138503750Y-102996250D01*
X143017500Y-115542500D02*
X143017500Y-116492764D01*
X139304750Y-105945250D02*
X139054750Y-105695250D01*
X131250000Y-110311398D02*
X131155699Y-110405699D01*
X142785264Y-116725000D02*
X139225000Y-116725000D01*
X131250000Y-113062500D02*
X130812500Y-113500000D01*
D43*
X145624143Y-107250000D02*
X145474143Y-107100000D01*
D41*
X128300000Y-107550000D02*
X128500000Y-107750000D01*
X139054750Y-105695250D02*
X138933500Y-105574000D01*
D43*
X143000000Y-106327500D02*
X143507500Y-105820000D01*
D41*
X141523054Y-106695554D02*
X140055054Y-106695554D01*
X139238250Y-105945250D02*
X138933500Y-106250000D01*
D43*
X149007500Y-114180000D02*
X149108854Y-114180000D01*
D41*
X139304750Y-105945250D02*
X138988250Y-105945250D01*
D43*
X131826676Y-100500000D02*
X134380000Y-100500000D01*
D41*
X145657500Y-116000000D02*
X145657500Y-116199999D01*
X128500000Y-107750000D02*
X129750000Y-107750000D01*
X144225000Y-104000000D02*
X144225000Y-103819736D01*
X138933500Y-106000000D02*
X138933500Y-105574000D01*
X131250000Y-111500000D02*
X131250000Y-111750000D01*
D43*
X143000000Y-106750000D02*
X143000000Y-106327500D01*
D41*
X139225000Y-116725000D02*
X138500000Y-116000000D01*
X139304750Y-105945250D02*
X139238250Y-105945250D01*
X139750000Y-104250000D02*
X139750000Y-104500000D01*
X139750000Y-104757500D02*
X139750000Y-104500000D01*
X144225000Y-103819736D02*
X143401514Y-102996250D01*
X130414401Y-108750000D02*
X131250000Y-108750000D01*
D43*
X149108854Y-114180000D02*
X149788854Y-113500000D01*
D41*
X138500000Y-106683500D02*
X138933500Y-106250000D01*
D43*
X150437500Y-107250000D02*
X145624143Y-107250000D01*
D41*
X134380000Y-100500000D02*
X134305000Y-100575000D01*
X138500000Y-116000000D02*
X138500000Y-106683500D01*
X145657500Y-116199999D02*
X145132499Y-116725000D01*
X131155699Y-110405699D02*
X130578800Y-110405699D01*
X140007500Y-104500000D02*
X140007500Y-104492500D01*
X131250000Y-102750000D02*
X132130000Y-102750000D01*
X131000000Y-111750000D02*
X131250000Y-111500000D01*
X132130000Y-102750000D02*
X134380000Y-100500000D01*
D43*
X130251676Y-102075000D02*
X131826676Y-100500000D01*
D41*
X140055054Y-106695554D02*
X139304750Y-105945250D01*
X145132499Y-116725000D02*
X142785264Y-116725000D01*
X138933500Y-106250000D02*
X138933500Y-106000000D01*
X139054750Y-105452750D02*
X139750000Y-104757500D01*
X143017500Y-116492764D02*
X142785264Y-116725000D01*
X128912500Y-106000000D02*
X128300000Y-106612500D01*
X130414401Y-108414401D02*
X130414401Y-108750000D01*
X127625000Y-111502500D02*
X127872500Y-111750000D01*
X138988250Y-105945250D02*
X138933500Y-106000000D01*
X131250000Y-112000000D02*
X131250000Y-113062500D01*
%TO.N,Net-(U5-VDDA)*%
X142475000Y-116143688D02*
X142475000Y-116250000D01*
X142918054Y-111250000D02*
X143250000Y-111581946D01*
X143250000Y-111581946D02*
X143250000Y-113000000D01*
X142077500Y-111250000D02*
X142918054Y-111250000D01*
X141660000Y-114590000D02*
X141660000Y-115000000D01*
X141660000Y-115328688D02*
X142475000Y-116143688D01*
X143250000Y-113000000D02*
X141660000Y-114590000D01*
X141660000Y-115000000D02*
X141660000Y-115328688D01*
%TO.N,/VCC*%
X113660000Y-92650000D02*
X112725000Y-92650000D01*
D43*
X147495000Y-98375000D02*
X149620000Y-100500000D01*
D41*
X112725000Y-92650000D02*
X111750000Y-91675000D01*
X149620000Y-95620000D02*
X149620000Y-100500000D01*
X127500000Y-98928672D02*
X128878672Y-97550000D01*
D43*
X131601676Y-98375000D02*
X147495000Y-98375000D01*
D41*
X130300000Y-97550000D02*
X131201676Y-98451676D01*
X147000000Y-93000000D02*
X149620000Y-95620000D01*
D43*
X131201676Y-98775000D02*
X131601676Y-98375000D01*
D41*
X127500000Y-99000000D02*
X127500000Y-98928672D01*
D43*
X151245000Y-98875000D02*
X149620000Y-100500000D01*
D41*
X131201676Y-98451676D02*
X131201676Y-98775000D01*
D43*
X153725000Y-98875000D02*
X151245000Y-98875000D01*
D41*
X128878672Y-97550000D02*
X130300000Y-97550000D01*
%TO.N,Net-(U5-BOOT0)*%
X140121692Y-105878308D02*
X140275884Y-106032500D01*
X131757500Y-107250000D02*
X129587500Y-107250000D01*
X140275884Y-106032500D02*
X141825075Y-106032500D01*
X145507500Y-104979446D02*
X145507500Y-105820000D01*
X133250000Y-109000000D02*
X135299616Y-109000000D01*
X135299616Y-109000000D02*
X138179058Y-106120558D01*
X133507500Y-109000000D02*
X131757500Y-107250000D01*
X141825075Y-106032500D02*
X142883501Y-104974074D01*
X145000000Y-104500000D02*
X145028054Y-104500000D01*
X145028054Y-104500000D02*
X145507500Y-104979446D01*
%TO.N,Net-(R6-Pad1)*%
X140007500Y-109000000D02*
X140007500Y-108063054D01*
X141000000Y-105407500D02*
X141500000Y-104907500D01*
X140007500Y-108063054D02*
X140750000Y-107320554D01*
%TO.N,Net-(D3-K)*%
D43*
X127500000Y-123462500D02*
X127768750Y-123462500D01*
X134380000Y-120413456D02*
X134380000Y-119500000D01*
D41*
X131280000Y-119500000D02*
X131220000Y-119440000D01*
D43*
X127768750Y-123462500D02*
X128731250Y-122500000D01*
D41*
X132000000Y-121092500D02*
X132787500Y-121092500D01*
X131930000Y-121162500D02*
X132000000Y-121092500D01*
D43*
X132268456Y-122525000D02*
X134380000Y-120413456D01*
D41*
X132440000Y-117560000D02*
X131220000Y-117560000D01*
D43*
X128731250Y-122500000D02*
X128750000Y-122500000D01*
X128775000Y-122525000D02*
X132268456Y-122525000D01*
D41*
X134380000Y-119500000D02*
X131280000Y-119500000D01*
X132787500Y-121092500D02*
X134380000Y-119500000D01*
D43*
X128750000Y-122500000D02*
X128775000Y-122525000D01*
D41*
X134380000Y-119500000D02*
X132440000Y-117560000D01*
%TO.N,Net-(D3-A)*%
X149620000Y-119500000D02*
X151000000Y-118120000D01*
X153960407Y-112480000D02*
X155000000Y-112480000D01*
X151000000Y-115000000D02*
X152542500Y-113457500D01*
X153605407Y-112125000D02*
X153960407Y-112480000D01*
X151000000Y-118120000D02*
X151000000Y-115000000D01*
X152542500Y-112514446D02*
X152931946Y-112125000D01*
X152542500Y-113457500D02*
X152542500Y-112514446D01*
X154022645Y-107707411D02*
X154050056Y-107680000D01*
X152931946Y-112125000D02*
X153605407Y-112125000D01*
X154050056Y-107680000D02*
X155000000Y-107680000D01*
%TO.N,/VMOT*%
X112915000Y-107890000D02*
X111750000Y-106725000D01*
X113660000Y-107890000D02*
X112915000Y-107890000D01*
X152000000Y-96150000D02*
X152000000Y-93000000D01*
X153725000Y-97875000D02*
X152000000Y-96150000D01*
%TO.N,Net-(U1-BP)*%
X129477186Y-120100000D02*
X129750000Y-119827186D01*
X127462500Y-121500000D02*
X128862500Y-120100000D01*
X129750000Y-119827186D02*
X129750000Y-118530000D01*
X129750000Y-118530000D02*
X128780000Y-117560000D01*
X128862500Y-120100000D02*
X129477186Y-120100000D01*
%TO.N,Net-(D1-A)*%
X127889900Y-119440000D02*
X123500000Y-123829900D01*
X123500000Y-123829900D02*
X123500000Y-129370000D01*
X128780000Y-119440000D02*
X127889900Y-119440000D01*
%TO.N,Net-(A6-1A)*%
X118500000Y-113000000D02*
X115750000Y-113000000D01*
X119500000Y-112000000D02*
X118500000Y-113000000D01*
X119500000Y-110000000D02*
X119500000Y-112000000D01*
%TO.N,Net-(A6-1B)*%
X120125000Y-110258884D02*
X120000000Y-110383884D01*
X120000000Y-110383884D02*
X120000000Y-112250000D01*
X120125000Y-110178179D02*
X120125000Y-110258884D01*
X120000000Y-112250000D02*
X116750000Y-115500000D01*
X120299997Y-110003182D02*
X120125000Y-110178179D01*
X116750000Y-115500000D02*
X115750000Y-115500000D01*
%TO.N,Net-(A6-2A)*%
X111701342Y-102228658D02*
X113660000Y-100270000D01*
X111701342Y-103000000D02*
X111701342Y-102228658D01*
X111701342Y-113951342D02*
X111701342Y-107560227D01*
X115750000Y-118000000D02*
X111701342Y-113951342D01*
%TO.N,Net-(A6-2B)*%
X115421000Y-116921000D02*
X112326342Y-113826342D01*
X112326342Y-104143658D02*
X113660000Y-102810000D01*
X112326342Y-113826342D02*
X112326342Y-108250000D01*
X115750000Y-120500000D02*
X116829000Y-119421000D01*
X112326342Y-105000000D02*
X112326342Y-104143658D01*
X116829000Y-117553063D02*
X116196937Y-116921000D01*
X116829000Y-119421000D02*
X116829000Y-117553063D01*
X116196937Y-116921000D02*
X115421000Y-116921000D01*
%TO.N,SDA*%
X145397638Y-99000000D02*
X149000000Y-102602362D01*
X139500000Y-93000000D02*
X137000000Y-93000000D01*
X147375000Y-110000000D02*
X149000000Y-108375000D01*
X149000000Y-102602362D02*
X149000000Y-104000000D01*
X148007500Y-113121104D02*
X147375000Y-112488604D01*
X147375000Y-112488604D02*
X147375000Y-110000000D01*
X143500000Y-97000000D02*
X139500000Y-93000000D01*
X148007500Y-114180000D02*
X148007500Y-113121104D01*
%TO.N,SCL*%
X147507500Y-114180000D02*
X147507500Y-113257500D01*
X147000000Y-112750000D02*
X144000000Y-112750000D01*
X147507500Y-113257500D02*
X147000000Y-112750000D01*
%TO.N,Net-(J5-CC1)*%
X153812499Y-111642501D02*
X154125000Y-111330000D01*
X152199999Y-111642501D02*
X153812499Y-111642501D01*
X154125000Y-111330000D02*
X155000000Y-111330000D01*
X152000000Y-111842500D02*
X152199999Y-111642501D01*
%TO.N,D+*%
X150470112Y-108782612D02*
X150437500Y-108750000D01*
X155000000Y-109330000D02*
X152490382Y-109330000D01*
X155000000Y-110330000D02*
X152659472Y-110330000D01*
X150720112Y-108782612D02*
X150687500Y-108750000D01*
X151942994Y-108782612D02*
X150470112Y-108782612D01*
X152490382Y-109330000D02*
X151942994Y-108782612D01*
X152659472Y-110330000D02*
X152534472Y-110455000D01*
%TO.N,D-*%
X155000000Y-109830000D02*
X152108054Y-109830000D01*
X152275588Y-111080000D02*
X151639027Y-110443439D01*
X153043356Y-110830000D02*
X152793356Y-111080000D01*
X152793356Y-111080000D02*
X152275588Y-111080000D01*
X151528054Y-109250000D02*
X150687500Y-109250000D01*
X155000000Y-110830000D02*
X153043356Y-110830000D01*
X151639027Y-109360973D02*
X151528054Y-109250000D01*
X151639027Y-110443439D02*
X151639027Y-109360973D01*
X152108054Y-109830000D02*
X151639027Y-109360973D01*
%TO.N,Net-(J5-CC2)*%
X154077500Y-108330000D02*
X155000000Y-108330000D01*
X153657500Y-108750000D02*
X154077500Y-108330000D01*
%TO.N,Net-(U5-NRST)*%
X142077500Y-110250000D02*
X142918054Y-110250000D01*
X142918054Y-110250000D02*
X143347414Y-109820640D01*
X143347414Y-109820640D02*
X143347414Y-109573153D01*
X146912500Y-116000000D02*
X146387500Y-115475000D01*
X145167501Y-115475000D02*
X144842500Y-115800001D01*
X140824000Y-109837054D02*
X140824000Y-108303380D01*
X142077500Y-110250000D02*
X141236946Y-110250000D01*
X146387500Y-115475000D02*
X145167501Y-115475000D01*
X144842500Y-115800001D02*
X144842500Y-116000000D01*
X141236946Y-110250000D02*
X140824000Y-109837054D01*
X137750000Y-108500000D02*
X135250000Y-111000000D01*
X140824000Y-108303380D02*
X140737529Y-108216909D01*
X135250000Y-111000000D02*
X133250000Y-111000000D01*
%TO.N,Net-(D1-K)*%
X123500000Y-114130000D02*
X123500000Y-113500000D01*
X123500000Y-113500000D02*
X127750000Y-109250000D01*
D43*
X128712500Y-104250000D02*
X127750000Y-104250000D01*
X127750000Y-100326676D02*
X129301676Y-98775000D01*
X127750000Y-105912500D02*
X127750000Y-104250000D01*
X127750000Y-104250000D02*
X127750000Y-100326676D01*
D41*
X127750000Y-109250000D02*
X127750000Y-105912500D01*
%TO.N,MS1*%
X121350000Y-111533884D02*
X122800003Y-110083881D01*
X130825100Y-131295000D02*
X122702638Y-131295000D01*
X134636396Y-125000000D02*
X133725000Y-125911396D01*
X122702638Y-131295000D02*
X119499999Y-128092361D01*
X119499999Y-114750001D02*
X121350000Y-112900000D01*
X119499999Y-115250001D02*
X119499999Y-114750001D01*
X149157500Y-112689446D02*
X149596946Y-112250000D01*
X149157500Y-112900000D02*
X149157500Y-112689446D01*
X133725000Y-128395100D02*
X130825100Y-131295000D01*
X119499999Y-128092361D02*
X119499999Y-118633883D01*
X149596946Y-112250000D02*
X150437500Y-112250000D01*
X146750000Y-125000000D02*
X134636396Y-125000000D01*
X149163854Y-112906354D02*
X149157500Y-112900000D01*
X133725000Y-125911396D02*
X133725000Y-128395100D01*
X122800003Y-110083881D02*
X122800003Y-110000000D01*
X121350000Y-112900000D02*
X121350000Y-111533884D01*
X148500000Y-123250000D02*
X146750000Y-125000000D01*
%TO.N,MS2*%
X150437500Y-111750000D02*
X149213062Y-111750000D01*
X120900000Y-111100000D02*
X122000000Y-110000000D01*
X118875000Y-115750000D02*
X118875000Y-114647792D01*
X118875000Y-114647792D02*
X120900000Y-112622792D01*
X120900000Y-112622792D02*
X120900000Y-111100000D01*
X149213062Y-111750000D02*
X148731531Y-112231531D01*
%TO.N,MS3*%
X120450000Y-110737063D02*
X120450000Y-112436396D01*
X120924997Y-110262066D02*
X120450000Y-110737063D01*
X147116117Y-117750000D02*
X147750000Y-117116117D01*
X125425000Y-116325000D02*
X125425000Y-112841396D01*
X130154900Y-114725000D02*
X131470100Y-114725000D01*
X129495100Y-112275000D02*
X129825000Y-112604900D01*
X125991396Y-112275000D02*
X129495100Y-112275000D01*
X118250000Y-116500000D02*
X120250000Y-118500000D01*
X121099991Y-109999545D02*
X120924997Y-110174539D01*
X148000000Y-111750000D02*
X148500000Y-111250000D01*
X148500000Y-111250000D02*
X150437500Y-111250000D01*
X136258704Y-114395100D02*
X139613604Y-117750000D01*
X129825000Y-114395100D02*
X130154900Y-114725000D01*
X131470100Y-114725000D02*
X131800000Y-114395100D01*
X125425000Y-112841396D02*
X125991396Y-112275000D01*
X118250000Y-114636396D02*
X118250000Y-116500000D01*
X120450000Y-112436396D02*
X118250000Y-114636396D01*
X139613604Y-117750000D02*
X147116117Y-117750000D01*
X131800000Y-114395100D02*
X136258704Y-114395100D01*
X129825000Y-112604900D02*
X129825000Y-114395100D01*
X120250000Y-118500000D02*
X123250000Y-118500000D01*
X123250000Y-118500000D02*
X125425000Y-116325000D01*
X120924997Y-110174539D02*
X120924997Y-110262066D01*
%TO.N,STEP*%
X146250000Y-100750000D02*
X148007500Y-102507500D01*
X148007500Y-102507500D02*
X148007500Y-105820000D01*
%TO.N,DIR*%
X143755635Y-99200000D02*
X141187031Y-99200000D01*
X126360000Y-90480100D02*
X126360000Y-90110000D01*
X147507500Y-105820000D02*
X147507500Y-102951865D01*
X147507500Y-102951865D02*
X143755635Y-99200000D01*
X139500000Y-97750000D02*
X133629900Y-97750000D01*
X133629900Y-97750000D02*
X126360000Y-90480100D01*
%TO.N,SCL2*%
X146507500Y-103618473D02*
X146507500Y-105820000D01*
X131375000Y-105250000D02*
X131699000Y-105574000D01*
X137922047Y-103327953D02*
X137922047Y-103298432D01*
X130500000Y-105750000D02*
X131000000Y-105250000D01*
X143889027Y-101000000D02*
X146507500Y-103618473D01*
X131699000Y-105574000D02*
X135676000Y-105574000D01*
X128750000Y-109905700D02*
X129344300Y-109905700D01*
X140250000Y-101000000D02*
X143889027Y-101000000D01*
X129344300Y-109905700D02*
X129750000Y-109500000D01*
X135676000Y-105574000D02*
X137922047Y-103327953D01*
X139000000Y-102250000D02*
X140250000Y-101000000D01*
X131000000Y-105250000D02*
X131375000Y-105250000D01*
%TO.N,SDA2*%
X143500000Y-101750000D02*
X146007500Y-104257500D01*
X135811648Y-106540176D02*
X138483599Y-103868225D01*
X140500000Y-101750000D02*
X143500000Y-101750000D01*
X146007500Y-104257500D02*
X146007500Y-105820000D01*
X129728185Y-110405699D02*
X129837500Y-110296384D01*
X128750000Y-110405699D02*
X129728185Y-110405699D01*
X140000000Y-102250000D02*
X140500000Y-101750000D01*
X130625000Y-106540176D02*
X135811648Y-106540176D01*
%TO.N,Net-(U6-CSB)*%
X127625000Y-110012400D02*
X128231699Y-109405701D01*
X127625000Y-110687500D02*
X127625000Y-110012400D01*
X128231699Y-109405701D02*
X128750000Y-109405701D01*
%TD*%
M02*
