%TF.GenerationSoftware,KiCad,Pcbnew,10.0.1*%
%TF.CreationDate,2026-06-07T15:48:20-04:00*%
%TF.ProjectId,limbcontroller,6c696d62-636f-46e7-9472-6f6c6c65722e,rev?*%
%TF.SameCoordinates,Original*%
%TF.FileFunction,Legend,Top*%
%TF.FilePolarity,Positive*%
%FSLAX46Y46*%
G04 Gerber Fmt 4.6, Leading zero omitted, Abs format (unit mm)*
G04 Created by KiCad (PCBNEW 10.0.1) date 2026-06-07 15:48:20*
%MOMM*%
%LPD*%
G01*
G04 APERTURE LIST*
%ADD10C,0.100000*%
%ADD11C,0.045000*%
%ADD12C,0.150000*%
%ADD13C,0.125000*%
%ADD14C,0.050000*%
%ADD15C,0.098716*%
%ADD16C,0.075000*%
%ADD17C,0.060000*%
%ADD18C,0.120000*%
%ADD19C,0.127000*%
%ADD20C,0.200000*%
%ADD21C,0.140000*%
%ADD22C,0.152400*%
G04 APERTURE END LIST*
D10*
X160073665Y-103065163D02*
X159573665Y-103065163D01*
X159573665Y-103065163D02*
X159573665Y-102946115D01*
X159573665Y-102946115D02*
X159597475Y-102874687D01*
X159597475Y-102874687D02*
X159645094Y-102827068D01*
X159645094Y-102827068D02*
X159692713Y-102803258D01*
X159692713Y-102803258D02*
X159787951Y-102779449D01*
X159787951Y-102779449D02*
X159859379Y-102779449D01*
X159859379Y-102779449D02*
X159954617Y-102803258D01*
X159954617Y-102803258D02*
X160002236Y-102827068D01*
X160002236Y-102827068D02*
X160049856Y-102874687D01*
X160049856Y-102874687D02*
X160073665Y-102946115D01*
X160073665Y-102946115D02*
X160073665Y-103065163D01*
X159811760Y-102398496D02*
X159811760Y-102565163D01*
X160073665Y-102565163D02*
X159573665Y-102565163D01*
X159573665Y-102565163D02*
X159573665Y-102327068D01*
X159573665Y-102136592D02*
X159978427Y-102136592D01*
X159978427Y-102136592D02*
X160026046Y-102112782D01*
X160026046Y-102112782D02*
X160049856Y-102088973D01*
X160049856Y-102088973D02*
X160073665Y-102041354D01*
X160073665Y-102041354D02*
X160073665Y-101946116D01*
X160073665Y-101946116D02*
X160049856Y-101898497D01*
X160049856Y-101898497D02*
X160026046Y-101874687D01*
X160026046Y-101874687D02*
X159978427Y-101850878D01*
X159978427Y-101850878D02*
X159573665Y-101850878D01*
X160073665Y-101231830D02*
X159573665Y-101231830D01*
X159573665Y-101231830D02*
X159930808Y-101065163D01*
X159930808Y-101065163D02*
X159573665Y-100898497D01*
X159573665Y-100898497D02*
X160073665Y-100898497D01*
X159573665Y-100565163D02*
X159573665Y-100469925D01*
X159573665Y-100469925D02*
X159597475Y-100422306D01*
X159597475Y-100422306D02*
X159645094Y-100374687D01*
X159645094Y-100374687D02*
X159740332Y-100350877D01*
X159740332Y-100350877D02*
X159906998Y-100350877D01*
X159906998Y-100350877D02*
X160002236Y-100374687D01*
X160002236Y-100374687D02*
X160049856Y-100422306D01*
X160049856Y-100422306D02*
X160073665Y-100469925D01*
X160073665Y-100469925D02*
X160073665Y-100565163D01*
X160073665Y-100565163D02*
X160049856Y-100612782D01*
X160049856Y-100612782D02*
X160002236Y-100660401D01*
X160002236Y-100660401D02*
X159906998Y-100684210D01*
X159906998Y-100684210D02*
X159740332Y-100684210D01*
X159740332Y-100684210D02*
X159645094Y-100660401D01*
X159645094Y-100660401D02*
X159597475Y-100612782D01*
X159597475Y-100612782D02*
X159573665Y-100565163D01*
X160073665Y-100136591D02*
X159573665Y-100136591D01*
X159573665Y-100136591D02*
X159573665Y-100017543D01*
X159573665Y-100017543D02*
X159597475Y-99946115D01*
X159597475Y-99946115D02*
X159645094Y-99898496D01*
X159645094Y-99898496D02*
X159692713Y-99874686D01*
X159692713Y-99874686D02*
X159787951Y-99850877D01*
X159787951Y-99850877D02*
X159859379Y-99850877D01*
X159859379Y-99850877D02*
X159954617Y-99874686D01*
X159954617Y-99874686D02*
X160002236Y-99898496D01*
X160002236Y-99898496D02*
X160049856Y-99946115D01*
X160049856Y-99946115D02*
X160073665Y-100017543D01*
X160073665Y-100017543D02*
X160073665Y-100136591D01*
X159811760Y-99636591D02*
X159811760Y-99469924D01*
X160073665Y-99398496D02*
X160073665Y-99636591D01*
X160073665Y-99636591D02*
X159573665Y-99636591D01*
X159573665Y-99636591D02*
X159573665Y-99398496D01*
X160026046Y-99184210D02*
X160049856Y-99160400D01*
X160049856Y-99160400D02*
X160073665Y-99184210D01*
X160073665Y-99184210D02*
X160049856Y-99208019D01*
X160049856Y-99208019D02*
X160026046Y-99184210D01*
X160026046Y-99184210D02*
X160073665Y-99184210D01*
X159764141Y-99184210D02*
X159787951Y-99160400D01*
X159787951Y-99160400D02*
X159811760Y-99184210D01*
X159811760Y-99184210D02*
X159787951Y-99208019D01*
X159787951Y-99208019D02*
X159764141Y-99184210D01*
X159764141Y-99184210D02*
X159811760Y-99184210D01*
X160378637Y-102993734D02*
X160497685Y-102993734D01*
X160450066Y-103112782D02*
X160497685Y-102993734D01*
X160497685Y-102993734D02*
X160450066Y-102874687D01*
X160592923Y-103065163D02*
X160497685Y-102993734D01*
X160497685Y-102993734D02*
X160592923Y-102922306D01*
X160878637Y-102303259D02*
X160378637Y-102303259D01*
X160616732Y-102303259D02*
X160616732Y-102017545D01*
X160878637Y-102017545D02*
X160378637Y-102017545D01*
X160378637Y-101684211D02*
X160378637Y-101588973D01*
X160378637Y-101588973D02*
X160402447Y-101541354D01*
X160402447Y-101541354D02*
X160450066Y-101493735D01*
X160450066Y-101493735D02*
X160545304Y-101469925D01*
X160545304Y-101469925D02*
X160711970Y-101469925D01*
X160711970Y-101469925D02*
X160807208Y-101493735D01*
X160807208Y-101493735D02*
X160854828Y-101541354D01*
X160854828Y-101541354D02*
X160878637Y-101588973D01*
X160878637Y-101588973D02*
X160878637Y-101684211D01*
X160878637Y-101684211D02*
X160854828Y-101731830D01*
X160854828Y-101731830D02*
X160807208Y-101779449D01*
X160807208Y-101779449D02*
X160711970Y-101803258D01*
X160711970Y-101803258D02*
X160545304Y-101803258D01*
X160545304Y-101803258D02*
X160450066Y-101779449D01*
X160450066Y-101779449D02*
X160402447Y-101731830D01*
X160402447Y-101731830D02*
X160378637Y-101684211D01*
X160878637Y-101017544D02*
X160878637Y-101255639D01*
X160878637Y-101255639D02*
X160378637Y-101255639D01*
X160878637Y-100850877D02*
X160378637Y-100850877D01*
X160378637Y-100850877D02*
X160378637Y-100731829D01*
X160378637Y-100731829D02*
X160402447Y-100660401D01*
X160402447Y-100660401D02*
X160450066Y-100612782D01*
X160450066Y-100612782D02*
X160497685Y-100588972D01*
X160497685Y-100588972D02*
X160592923Y-100565163D01*
X160592923Y-100565163D02*
X160664351Y-100565163D01*
X160664351Y-100565163D02*
X160759589Y-100588972D01*
X160759589Y-100588972D02*
X160807208Y-100612782D01*
X160807208Y-100612782D02*
X160854828Y-100660401D01*
X160854828Y-100660401D02*
X160878637Y-100731829D01*
X160878637Y-100731829D02*
X160878637Y-100850877D01*
X160878637Y-99969925D02*
X160378637Y-99969925D01*
X160378637Y-99969925D02*
X160378637Y-99850877D01*
X160378637Y-99850877D02*
X160402447Y-99779449D01*
X160402447Y-99779449D02*
X160450066Y-99731830D01*
X160450066Y-99731830D02*
X160497685Y-99708020D01*
X160497685Y-99708020D02*
X160592923Y-99684211D01*
X160592923Y-99684211D02*
X160664351Y-99684211D01*
X160664351Y-99684211D02*
X160759589Y-99708020D01*
X160759589Y-99708020D02*
X160807208Y-99731830D01*
X160807208Y-99731830D02*
X160854828Y-99779449D01*
X160854828Y-99779449D02*
X160878637Y-99850877D01*
X160878637Y-99850877D02*
X160878637Y-99969925D01*
X160378637Y-99374687D02*
X160378637Y-99279449D01*
X160378637Y-99279449D02*
X160402447Y-99231830D01*
X160402447Y-99231830D02*
X160450066Y-99184211D01*
X160450066Y-99184211D02*
X160545304Y-99160401D01*
X160545304Y-99160401D02*
X160711970Y-99160401D01*
X160711970Y-99160401D02*
X160807208Y-99184211D01*
X160807208Y-99184211D02*
X160854828Y-99231830D01*
X160854828Y-99231830D02*
X160878637Y-99279449D01*
X160878637Y-99279449D02*
X160878637Y-99374687D01*
X160878637Y-99374687D02*
X160854828Y-99422306D01*
X160854828Y-99422306D02*
X160807208Y-99469925D01*
X160807208Y-99469925D02*
X160711970Y-99493734D01*
X160711970Y-99493734D02*
X160545304Y-99493734D01*
X160545304Y-99493734D02*
X160450066Y-99469925D01*
X160450066Y-99469925D02*
X160402447Y-99422306D01*
X160402447Y-99422306D02*
X160378637Y-99374687D01*
X160378637Y-98993734D02*
X160878637Y-98874686D01*
X160878637Y-98874686D02*
X160521494Y-98779448D01*
X160521494Y-98779448D02*
X160878637Y-98684210D01*
X160878637Y-98684210D02*
X160378637Y-98565163D01*
X160878637Y-98374686D02*
X160378637Y-98374686D01*
X160378637Y-98374686D02*
X160878637Y-98088972D01*
X160878637Y-98088972D02*
X160378637Y-98088972D01*
X160616732Y-97303257D02*
X160640542Y-97231829D01*
X160640542Y-97231829D02*
X160664351Y-97208019D01*
X160664351Y-97208019D02*
X160711970Y-97184210D01*
X160711970Y-97184210D02*
X160783399Y-97184210D01*
X160783399Y-97184210D02*
X160831018Y-97208019D01*
X160831018Y-97208019D02*
X160854828Y-97231829D01*
X160854828Y-97231829D02*
X160878637Y-97279448D01*
X160878637Y-97279448D02*
X160878637Y-97469924D01*
X160878637Y-97469924D02*
X160378637Y-97469924D01*
X160378637Y-97469924D02*
X160378637Y-97303257D01*
X160378637Y-97303257D02*
X160402447Y-97255638D01*
X160402447Y-97255638D02*
X160426256Y-97231829D01*
X160426256Y-97231829D02*
X160473875Y-97208019D01*
X160473875Y-97208019D02*
X160521494Y-97208019D01*
X160521494Y-97208019D02*
X160569113Y-97231829D01*
X160569113Y-97231829D02*
X160592923Y-97255638D01*
X160592923Y-97255638D02*
X160616732Y-97303257D01*
X160616732Y-97303257D02*
X160616732Y-97469924D01*
X160378637Y-96874686D02*
X160378637Y-96779448D01*
X160378637Y-96779448D02*
X160402447Y-96731829D01*
X160402447Y-96731829D02*
X160450066Y-96684210D01*
X160450066Y-96684210D02*
X160545304Y-96660400D01*
X160545304Y-96660400D02*
X160711970Y-96660400D01*
X160711970Y-96660400D02*
X160807208Y-96684210D01*
X160807208Y-96684210D02*
X160854828Y-96731829D01*
X160854828Y-96731829D02*
X160878637Y-96779448D01*
X160878637Y-96779448D02*
X160878637Y-96874686D01*
X160878637Y-96874686D02*
X160854828Y-96922305D01*
X160854828Y-96922305D02*
X160807208Y-96969924D01*
X160807208Y-96969924D02*
X160711970Y-96993733D01*
X160711970Y-96993733D02*
X160545304Y-96993733D01*
X160545304Y-96993733D02*
X160450066Y-96969924D01*
X160450066Y-96969924D02*
X160402447Y-96922305D01*
X160402447Y-96922305D02*
X160378637Y-96874686D01*
X160378637Y-96350876D02*
X160378637Y-96255638D01*
X160378637Y-96255638D02*
X160402447Y-96208019D01*
X160402447Y-96208019D02*
X160450066Y-96160400D01*
X160450066Y-96160400D02*
X160545304Y-96136590D01*
X160545304Y-96136590D02*
X160711970Y-96136590D01*
X160711970Y-96136590D02*
X160807208Y-96160400D01*
X160807208Y-96160400D02*
X160854828Y-96208019D01*
X160854828Y-96208019D02*
X160878637Y-96255638D01*
X160878637Y-96255638D02*
X160878637Y-96350876D01*
X160878637Y-96350876D02*
X160854828Y-96398495D01*
X160854828Y-96398495D02*
X160807208Y-96446114D01*
X160807208Y-96446114D02*
X160711970Y-96469923D01*
X160711970Y-96469923D02*
X160545304Y-96469923D01*
X160545304Y-96469923D02*
X160450066Y-96446114D01*
X160450066Y-96446114D02*
X160402447Y-96398495D01*
X160402447Y-96398495D02*
X160378637Y-96350876D01*
X160378637Y-95993732D02*
X160378637Y-95708018D01*
X160878637Y-95850875D02*
X160378637Y-95850875D01*
X160378637Y-95446114D02*
X160378637Y-95398495D01*
X160378637Y-95398495D02*
X160402447Y-95350876D01*
X160402447Y-95350876D02*
X160426256Y-95327066D01*
X160426256Y-95327066D02*
X160473875Y-95303257D01*
X160473875Y-95303257D02*
X160569113Y-95279447D01*
X160569113Y-95279447D02*
X160688161Y-95279447D01*
X160688161Y-95279447D02*
X160783399Y-95303257D01*
X160783399Y-95303257D02*
X160831018Y-95327066D01*
X160831018Y-95327066D02*
X160854828Y-95350876D01*
X160854828Y-95350876D02*
X160878637Y-95398495D01*
X160878637Y-95398495D02*
X160878637Y-95446114D01*
X160878637Y-95446114D02*
X160854828Y-95493733D01*
X160854828Y-95493733D02*
X160831018Y-95517542D01*
X160831018Y-95517542D02*
X160783399Y-95541352D01*
X160783399Y-95541352D02*
X160688161Y-95565161D01*
X160688161Y-95565161D02*
X160569113Y-95565161D01*
X160569113Y-95565161D02*
X160473875Y-95541352D01*
X160473875Y-95541352D02*
X160426256Y-95517542D01*
X160426256Y-95517542D02*
X160402447Y-95493733D01*
X160402447Y-95493733D02*
X160378637Y-95446114D01*
X161183609Y-102993734D02*
X161302657Y-102993734D01*
X161255038Y-103112782D02*
X161302657Y-102993734D01*
X161302657Y-102993734D02*
X161255038Y-102874687D01*
X161397895Y-103065163D02*
X161302657Y-102993734D01*
X161302657Y-102993734D02*
X161397895Y-102922306D01*
X161183609Y-102374687D02*
X161183609Y-102088973D01*
X161683609Y-102231830D02*
X161183609Y-102231830D01*
X161540752Y-101946116D02*
X161540752Y-101708021D01*
X161683609Y-101993735D02*
X161183609Y-101827069D01*
X161183609Y-101827069D02*
X161683609Y-101660402D01*
X161683609Y-101493736D02*
X161183609Y-101493736D01*
X161183609Y-101493736D02*
X161183609Y-101303260D01*
X161183609Y-101303260D02*
X161207419Y-101255641D01*
X161207419Y-101255641D02*
X161231228Y-101231831D01*
X161231228Y-101231831D02*
X161278847Y-101208022D01*
X161278847Y-101208022D02*
X161350276Y-101208022D01*
X161350276Y-101208022D02*
X161397895Y-101231831D01*
X161397895Y-101231831D02*
X161421704Y-101255641D01*
X161421704Y-101255641D02*
X161445514Y-101303260D01*
X161445514Y-101303260D02*
X161445514Y-101493736D01*
X161683609Y-100327070D02*
X161445514Y-100493736D01*
X161683609Y-100612784D02*
X161183609Y-100612784D01*
X161183609Y-100612784D02*
X161183609Y-100422308D01*
X161183609Y-100422308D02*
X161207419Y-100374689D01*
X161207419Y-100374689D02*
X161231228Y-100350879D01*
X161231228Y-100350879D02*
X161278847Y-100327070D01*
X161278847Y-100327070D02*
X161350276Y-100327070D01*
X161350276Y-100327070D02*
X161397895Y-100350879D01*
X161397895Y-100350879D02*
X161421704Y-100374689D01*
X161421704Y-100374689D02*
X161445514Y-100422308D01*
X161445514Y-100422308D02*
X161445514Y-100612784D01*
X161421704Y-100112784D02*
X161421704Y-99946117D01*
X161683609Y-99874689D02*
X161683609Y-100112784D01*
X161683609Y-100112784D02*
X161183609Y-100112784D01*
X161183609Y-100112784D02*
X161183609Y-99874689D01*
X161659800Y-99684212D02*
X161683609Y-99612784D01*
X161683609Y-99612784D02*
X161683609Y-99493736D01*
X161683609Y-99493736D02*
X161659800Y-99446117D01*
X161659800Y-99446117D02*
X161635990Y-99422308D01*
X161635990Y-99422308D02*
X161588371Y-99398498D01*
X161588371Y-99398498D02*
X161540752Y-99398498D01*
X161540752Y-99398498D02*
X161493133Y-99422308D01*
X161493133Y-99422308D02*
X161469323Y-99446117D01*
X161469323Y-99446117D02*
X161445514Y-99493736D01*
X161445514Y-99493736D02*
X161421704Y-99588974D01*
X161421704Y-99588974D02*
X161397895Y-99636593D01*
X161397895Y-99636593D02*
X161374085Y-99660403D01*
X161374085Y-99660403D02*
X161326466Y-99684212D01*
X161326466Y-99684212D02*
X161278847Y-99684212D01*
X161278847Y-99684212D02*
X161231228Y-99660403D01*
X161231228Y-99660403D02*
X161207419Y-99636593D01*
X161207419Y-99636593D02*
X161183609Y-99588974D01*
X161183609Y-99588974D02*
X161183609Y-99469927D01*
X161183609Y-99469927D02*
X161207419Y-99398498D01*
X161421704Y-99184213D02*
X161421704Y-99017546D01*
X161683609Y-98946118D02*
X161683609Y-99184213D01*
X161683609Y-99184213D02*
X161183609Y-99184213D01*
X161183609Y-99184213D02*
X161183609Y-98946118D01*
X161183609Y-98803260D02*
X161183609Y-98517546D01*
X161683609Y-98660403D02*
X161183609Y-98660403D01*
D11*
X143837500Y-103607874D02*
X143823214Y-103622160D01*
X143823214Y-103622160D02*
X143780357Y-103636445D01*
X143780357Y-103636445D02*
X143751785Y-103636445D01*
X143751785Y-103636445D02*
X143708928Y-103622160D01*
X143708928Y-103622160D02*
X143680357Y-103593588D01*
X143680357Y-103593588D02*
X143666071Y-103565017D01*
X143666071Y-103565017D02*
X143651785Y-103507874D01*
X143651785Y-103507874D02*
X143651785Y-103465017D01*
X143651785Y-103465017D02*
X143666071Y-103407874D01*
X143666071Y-103407874D02*
X143680357Y-103379302D01*
X143680357Y-103379302D02*
X143708928Y-103350731D01*
X143708928Y-103350731D02*
X143751785Y-103336445D01*
X143751785Y-103336445D02*
X143780357Y-103336445D01*
X143780357Y-103336445D02*
X143823214Y-103350731D01*
X143823214Y-103350731D02*
X143837500Y-103365017D01*
X144108928Y-103336445D02*
X143966071Y-103336445D01*
X143966071Y-103336445D02*
X143951785Y-103479302D01*
X143951785Y-103479302D02*
X143966071Y-103465017D01*
X143966071Y-103465017D02*
X143994643Y-103450731D01*
X143994643Y-103450731D02*
X144066071Y-103450731D01*
X144066071Y-103450731D02*
X144094643Y-103465017D01*
X144094643Y-103465017D02*
X144108928Y-103479302D01*
X144108928Y-103479302D02*
X144123214Y-103507874D01*
X144123214Y-103507874D02*
X144123214Y-103579302D01*
X144123214Y-103579302D02*
X144108928Y-103607874D01*
X144108928Y-103607874D02*
X144094643Y-103622160D01*
X144094643Y-103622160D02*
X144066071Y-103636445D01*
X144066071Y-103636445D02*
X143994643Y-103636445D01*
X143994643Y-103636445D02*
X143966071Y-103622160D01*
X143966071Y-103622160D02*
X143951785Y-103607874D01*
X142017500Y-114636445D02*
X141917500Y-114493588D01*
X141846071Y-114636445D02*
X141846071Y-114336445D01*
X141846071Y-114336445D02*
X141960357Y-114336445D01*
X141960357Y-114336445D02*
X141988928Y-114350731D01*
X141988928Y-114350731D02*
X142003214Y-114365017D01*
X142003214Y-114365017D02*
X142017500Y-114393588D01*
X142017500Y-114393588D02*
X142017500Y-114436445D01*
X142017500Y-114436445D02*
X142003214Y-114465017D01*
X142003214Y-114465017D02*
X141988928Y-114479302D01*
X141988928Y-114479302D02*
X141960357Y-114493588D01*
X141960357Y-114493588D02*
X141846071Y-114493588D01*
X142274643Y-114436445D02*
X142274643Y-114636445D01*
X142203214Y-114322160D02*
X142131785Y-114536445D01*
X142131785Y-114536445D02*
X142317500Y-114536445D01*
D12*
X142011905Y-100954819D02*
X142011905Y-99954819D01*
X142011905Y-99954819D02*
X142250000Y-99954819D01*
X142250000Y-99954819D02*
X142392857Y-100002438D01*
X142392857Y-100002438D02*
X142488095Y-100097676D01*
X142488095Y-100097676D02*
X142535714Y-100192914D01*
X142535714Y-100192914D02*
X142583333Y-100383390D01*
X142583333Y-100383390D02*
X142583333Y-100526247D01*
X142583333Y-100526247D02*
X142535714Y-100716723D01*
X142535714Y-100716723D02*
X142488095Y-100811961D01*
X142488095Y-100811961D02*
X142392857Y-100907200D01*
X142392857Y-100907200D02*
X142250000Y-100954819D01*
X142250000Y-100954819D02*
X142011905Y-100954819D01*
X143440476Y-100288152D02*
X143440476Y-100954819D01*
X143202381Y-99907200D02*
X142964286Y-100621485D01*
X142964286Y-100621485D02*
X143583333Y-100621485D01*
X134118095Y-98354819D02*
X134118095Y-97354819D01*
X134689523Y-98354819D02*
X134260952Y-97783390D01*
X134689523Y-97354819D02*
X134118095Y-97926247D01*
D11*
X129057143Y-105607874D02*
X129042857Y-105622160D01*
X129042857Y-105622160D02*
X129000000Y-105636445D01*
X129000000Y-105636445D02*
X128971428Y-105636445D01*
X128971428Y-105636445D02*
X128928571Y-105622160D01*
X128928571Y-105622160D02*
X128900000Y-105593588D01*
X128900000Y-105593588D02*
X128885714Y-105565017D01*
X128885714Y-105565017D02*
X128871428Y-105507874D01*
X128871428Y-105507874D02*
X128871428Y-105465017D01*
X128871428Y-105465017D02*
X128885714Y-105407874D01*
X128885714Y-105407874D02*
X128900000Y-105379302D01*
X128900000Y-105379302D02*
X128928571Y-105350731D01*
X128928571Y-105350731D02*
X128971428Y-105336445D01*
X128971428Y-105336445D02*
X129000000Y-105336445D01*
X129000000Y-105336445D02*
X129042857Y-105350731D01*
X129042857Y-105350731D02*
X129057143Y-105365017D01*
X129342857Y-105636445D02*
X129171428Y-105636445D01*
X129257143Y-105636445D02*
X129257143Y-105336445D01*
X129257143Y-105336445D02*
X129228571Y-105379302D01*
X129228571Y-105379302D02*
X129200000Y-105407874D01*
X129200000Y-105407874D02*
X129171428Y-105422160D01*
X129485714Y-105636445D02*
X129542857Y-105636445D01*
X129542857Y-105636445D02*
X129571428Y-105622160D01*
X129571428Y-105622160D02*
X129585714Y-105607874D01*
X129585714Y-105607874D02*
X129614285Y-105565017D01*
X129614285Y-105565017D02*
X129628571Y-105507874D01*
X129628571Y-105507874D02*
X129628571Y-105393588D01*
X129628571Y-105393588D02*
X129614285Y-105365017D01*
X129614285Y-105365017D02*
X129600000Y-105350731D01*
X129600000Y-105350731D02*
X129571428Y-105336445D01*
X129571428Y-105336445D02*
X129514285Y-105336445D01*
X129514285Y-105336445D02*
X129485714Y-105350731D01*
X129485714Y-105350731D02*
X129471428Y-105365017D01*
X129471428Y-105365017D02*
X129457142Y-105393588D01*
X129457142Y-105393588D02*
X129457142Y-105465017D01*
X129457142Y-105465017D02*
X129471428Y-105493588D01*
X129471428Y-105493588D02*
X129485714Y-105507874D01*
X129485714Y-105507874D02*
X129514285Y-105522160D01*
X129514285Y-105522160D02*
X129571428Y-105522160D01*
X129571428Y-105522160D02*
X129600000Y-105507874D01*
X129600000Y-105507874D02*
X129614285Y-105493588D01*
X129614285Y-105493588D02*
X129628571Y-105465017D01*
X141136445Y-104549999D02*
X140993588Y-104649999D01*
X141136445Y-104721428D02*
X140836445Y-104721428D01*
X140836445Y-104721428D02*
X140836445Y-104607142D01*
X140836445Y-104607142D02*
X140850731Y-104578571D01*
X140850731Y-104578571D02*
X140865017Y-104564285D01*
X140865017Y-104564285D02*
X140893588Y-104549999D01*
X140893588Y-104549999D02*
X140936445Y-104549999D01*
X140936445Y-104549999D02*
X140965017Y-104564285D01*
X140965017Y-104564285D02*
X140979302Y-104578571D01*
X140979302Y-104578571D02*
X140993588Y-104607142D01*
X140993588Y-104607142D02*
X140993588Y-104721428D01*
X140836445Y-104292857D02*
X140836445Y-104349999D01*
X140836445Y-104349999D02*
X140850731Y-104378571D01*
X140850731Y-104378571D02*
X140865017Y-104392857D01*
X140865017Y-104392857D02*
X140907874Y-104421428D01*
X140907874Y-104421428D02*
X140965017Y-104435714D01*
X140965017Y-104435714D02*
X141079302Y-104435714D01*
X141079302Y-104435714D02*
X141107874Y-104421428D01*
X141107874Y-104421428D02*
X141122160Y-104407142D01*
X141122160Y-104407142D02*
X141136445Y-104378571D01*
X141136445Y-104378571D02*
X141136445Y-104321428D01*
X141136445Y-104321428D02*
X141122160Y-104292857D01*
X141122160Y-104292857D02*
X141107874Y-104278571D01*
X141107874Y-104278571D02*
X141079302Y-104264285D01*
X141079302Y-104264285D02*
X141007874Y-104264285D01*
X141007874Y-104264285D02*
X140979302Y-104278571D01*
X140979302Y-104278571D02*
X140965017Y-104292857D01*
X140965017Y-104292857D02*
X140950731Y-104321428D01*
X140950731Y-104321428D02*
X140950731Y-104378571D01*
X140950731Y-104378571D02*
X140965017Y-104407142D01*
X140965017Y-104407142D02*
X140979302Y-104421428D01*
X140979302Y-104421428D02*
X141007874Y-104435714D01*
D12*
X142011905Y-119954819D02*
X142011905Y-118954819D01*
X142011905Y-118954819D02*
X142250000Y-118954819D01*
X142250000Y-118954819D02*
X142392857Y-119002438D01*
X142392857Y-119002438D02*
X142488095Y-119097676D01*
X142488095Y-119097676D02*
X142535714Y-119192914D01*
X142535714Y-119192914D02*
X142583333Y-119383390D01*
X142583333Y-119383390D02*
X142583333Y-119526247D01*
X142583333Y-119526247D02*
X142535714Y-119716723D01*
X142535714Y-119716723D02*
X142488095Y-119811961D01*
X142488095Y-119811961D02*
X142392857Y-119907200D01*
X142392857Y-119907200D02*
X142250000Y-119954819D01*
X142250000Y-119954819D02*
X142011905Y-119954819D01*
X142916667Y-118954819D02*
X143535714Y-118954819D01*
X143535714Y-118954819D02*
X143202381Y-119335771D01*
X143202381Y-119335771D02*
X143345238Y-119335771D01*
X143345238Y-119335771D02*
X143440476Y-119383390D01*
X143440476Y-119383390D02*
X143488095Y-119431009D01*
X143488095Y-119431009D02*
X143535714Y-119526247D01*
X143535714Y-119526247D02*
X143535714Y-119764342D01*
X143535714Y-119764342D02*
X143488095Y-119859580D01*
X143488095Y-119859580D02*
X143440476Y-119907200D01*
X143440476Y-119907200D02*
X143345238Y-119954819D01*
X143345238Y-119954819D02*
X143059524Y-119954819D01*
X143059524Y-119954819D02*
X142964286Y-119907200D01*
X142964286Y-119907200D02*
X142916667Y-119859580D01*
X134118095Y-117354819D02*
X134118095Y-116354819D01*
X134689523Y-117354819D02*
X134260952Y-116783390D01*
X134689523Y-116354819D02*
X134118095Y-116926247D01*
D13*
X133255217Y-107416665D02*
X133285247Y-107345237D01*
X133285247Y-107345237D02*
X133285247Y-107226189D01*
X133285247Y-107226189D02*
X133255217Y-107178570D01*
X133255217Y-107178570D02*
X133225186Y-107154761D01*
X133225186Y-107154761D02*
X133165125Y-107130951D01*
X133165125Y-107130951D02*
X133105063Y-107130951D01*
X133105063Y-107130951D02*
X133045002Y-107154761D01*
X133045002Y-107154761D02*
X133014972Y-107178570D01*
X133014972Y-107178570D02*
X132984941Y-107226189D01*
X132984941Y-107226189D02*
X132954910Y-107321427D01*
X132954910Y-107321427D02*
X132924880Y-107369046D01*
X132924880Y-107369046D02*
X132894849Y-107392856D01*
X132894849Y-107392856D02*
X132834788Y-107416665D01*
X132834788Y-107416665D02*
X132774727Y-107416665D01*
X132774727Y-107416665D02*
X132714665Y-107392856D01*
X132714665Y-107392856D02*
X132684635Y-107369046D01*
X132684635Y-107369046D02*
X132654604Y-107321427D01*
X132654604Y-107321427D02*
X132654604Y-107202380D01*
X132654604Y-107202380D02*
X132684635Y-107130951D01*
X132654604Y-106964285D02*
X133285247Y-106845237D01*
X133285247Y-106845237D02*
X132834788Y-106749999D01*
X132834788Y-106749999D02*
X133285247Y-106654761D01*
X133285247Y-106654761D02*
X132654604Y-106535714D01*
X132714665Y-106369046D02*
X132684635Y-106345237D01*
X132684635Y-106345237D02*
X132654604Y-106297618D01*
X132654604Y-106297618D02*
X132654604Y-106178570D01*
X132654604Y-106178570D02*
X132684635Y-106130951D01*
X132684635Y-106130951D02*
X132714665Y-106107142D01*
X132714665Y-106107142D02*
X132774727Y-106083332D01*
X132774727Y-106083332D02*
X132834788Y-106083332D01*
X132834788Y-106083332D02*
X132924880Y-106107142D01*
X132924880Y-106107142D02*
X133285247Y-106392856D01*
X133285247Y-106392856D02*
X133285247Y-106083332D01*
D14*
X153950000Y-97607614D02*
X153935714Y-97621900D01*
X153935714Y-97621900D02*
X153892857Y-97636185D01*
X153892857Y-97636185D02*
X153864285Y-97636185D01*
X153864285Y-97636185D02*
X153821428Y-97621900D01*
X153821428Y-97621900D02*
X153792857Y-97593328D01*
X153792857Y-97593328D02*
X153778571Y-97564757D01*
X153778571Y-97564757D02*
X153764285Y-97507614D01*
X153764285Y-97507614D02*
X153764285Y-97464757D01*
X153764285Y-97464757D02*
X153778571Y-97407614D01*
X153778571Y-97407614D02*
X153792857Y-97379042D01*
X153792857Y-97379042D02*
X153821428Y-97350471D01*
X153821428Y-97350471D02*
X153864285Y-97336185D01*
X153864285Y-97336185D02*
X153892857Y-97336185D01*
X153892857Y-97336185D02*
X153935714Y-97350471D01*
X153935714Y-97350471D02*
X153950000Y-97364757D01*
X154050000Y-97336185D02*
X154235714Y-97336185D01*
X154235714Y-97336185D02*
X154135714Y-97450471D01*
X154135714Y-97450471D02*
X154178571Y-97450471D01*
X154178571Y-97450471D02*
X154207143Y-97464757D01*
X154207143Y-97464757D02*
X154221428Y-97479042D01*
X154221428Y-97479042D02*
X154235714Y-97507614D01*
X154235714Y-97507614D02*
X154235714Y-97579042D01*
X154235714Y-97579042D02*
X154221428Y-97607614D01*
X154221428Y-97607614D02*
X154207143Y-97621900D01*
X154207143Y-97621900D02*
X154178571Y-97636185D01*
X154178571Y-97636185D02*
X154092857Y-97636185D01*
X154092857Y-97636185D02*
X154064285Y-97621900D01*
X154064285Y-97621900D02*
X154050000Y-97607614D01*
D15*
X128199150Y-118282673D02*
X128199150Y-118602325D01*
X128199150Y-118602325D02*
X128217953Y-118639931D01*
X128217953Y-118639931D02*
X128236756Y-118658735D01*
X128236756Y-118658735D02*
X128274362Y-118677538D01*
X128274362Y-118677538D02*
X128349575Y-118677538D01*
X128349575Y-118677538D02*
X128387181Y-118658735D01*
X128387181Y-118658735D02*
X128405984Y-118639931D01*
X128405984Y-118639931D02*
X128424787Y-118602325D01*
X128424787Y-118602325D02*
X128424787Y-118282673D01*
X128819652Y-118677538D02*
X128594015Y-118677538D01*
X128706833Y-118677538D02*
X128706833Y-118282673D01*
X128706833Y-118282673D02*
X128669227Y-118339082D01*
X128669227Y-118339082D02*
X128631621Y-118376688D01*
X128631621Y-118376688D02*
X128594015Y-118395491D01*
D12*
X119429321Y-117514904D02*
X118484439Y-117514904D01*
X118484439Y-117514904D02*
X119159355Y-117199943D01*
X119159355Y-117199943D02*
X118484439Y-116884982D01*
X118484439Y-116884982D02*
X119429321Y-116884982D01*
X119429321Y-115940100D02*
X119429321Y-116480033D01*
X119429321Y-116210067D02*
X118484439Y-116210067D01*
X118484439Y-116210067D02*
X118619422Y-116300055D01*
X118619422Y-116300055D02*
X118709411Y-116390044D01*
X118709411Y-116390044D02*
X118754405Y-116480033D01*
X127454819Y-127333333D02*
X128169104Y-127333333D01*
X128169104Y-127333333D02*
X128311961Y-127380952D01*
X128311961Y-127380952D02*
X128407200Y-127476190D01*
X128407200Y-127476190D02*
X128454819Y-127619047D01*
X128454819Y-127619047D02*
X128454819Y-127714285D01*
X127788152Y-126428571D02*
X128454819Y-126428571D01*
X127407200Y-126666666D02*
X128121485Y-126904761D01*
X128121485Y-126904761D02*
X128121485Y-126285714D01*
D11*
X131607874Y-121549999D02*
X131622160Y-121564285D01*
X131622160Y-121564285D02*
X131636445Y-121607142D01*
X131636445Y-121607142D02*
X131636445Y-121635714D01*
X131636445Y-121635714D02*
X131622160Y-121678571D01*
X131622160Y-121678571D02*
X131593588Y-121707142D01*
X131593588Y-121707142D02*
X131565017Y-121721428D01*
X131565017Y-121721428D02*
X131507874Y-121735714D01*
X131507874Y-121735714D02*
X131465017Y-121735714D01*
X131465017Y-121735714D02*
X131407874Y-121721428D01*
X131407874Y-121721428D02*
X131379302Y-121707142D01*
X131379302Y-121707142D02*
X131350731Y-121678571D01*
X131350731Y-121678571D02*
X131336445Y-121635714D01*
X131336445Y-121635714D02*
X131336445Y-121607142D01*
X131336445Y-121607142D02*
X131350731Y-121564285D01*
X131350731Y-121564285D02*
X131365017Y-121549999D01*
X131336445Y-121449999D02*
X131336445Y-121249999D01*
X131336445Y-121249999D02*
X131636445Y-121378571D01*
D12*
X157654819Y-116083333D02*
X158369104Y-116083333D01*
X158369104Y-116083333D02*
X158511961Y-116130952D01*
X158511961Y-116130952D02*
X158607200Y-116226190D01*
X158607200Y-116226190D02*
X158654819Y-116369047D01*
X158654819Y-116369047D02*
X158654819Y-116464285D01*
X157654819Y-115130952D02*
X157654819Y-115607142D01*
X157654819Y-115607142D02*
X158131009Y-115654761D01*
X158131009Y-115654761D02*
X158083390Y-115607142D01*
X158083390Y-115607142D02*
X158035771Y-115511904D01*
X158035771Y-115511904D02*
X158035771Y-115273809D01*
X158035771Y-115273809D02*
X158083390Y-115178571D01*
X158083390Y-115178571D02*
X158131009Y-115130952D01*
X158131009Y-115130952D02*
X158226247Y-115083333D01*
X158226247Y-115083333D02*
X158464342Y-115083333D01*
X158464342Y-115083333D02*
X158559580Y-115130952D01*
X158559580Y-115130952D02*
X158607200Y-115178571D01*
X158607200Y-115178571D02*
X158654819Y-115273809D01*
X158654819Y-115273809D02*
X158654819Y-115511904D01*
X158654819Y-115511904D02*
X158607200Y-115607142D01*
X158607200Y-115607142D02*
X158559580Y-115654761D01*
D11*
X147057143Y-116607874D02*
X147042857Y-116622160D01*
X147042857Y-116622160D02*
X147000000Y-116636445D01*
X147000000Y-116636445D02*
X146971428Y-116636445D01*
X146971428Y-116636445D02*
X146928571Y-116622160D01*
X146928571Y-116622160D02*
X146900000Y-116593588D01*
X146900000Y-116593588D02*
X146885714Y-116565017D01*
X146885714Y-116565017D02*
X146871428Y-116507874D01*
X146871428Y-116507874D02*
X146871428Y-116465017D01*
X146871428Y-116465017D02*
X146885714Y-116407874D01*
X146885714Y-116407874D02*
X146900000Y-116379302D01*
X146900000Y-116379302D02*
X146928571Y-116350731D01*
X146928571Y-116350731D02*
X146971428Y-116336445D01*
X146971428Y-116336445D02*
X147000000Y-116336445D01*
X147000000Y-116336445D02*
X147042857Y-116350731D01*
X147042857Y-116350731D02*
X147057143Y-116365017D01*
X147342857Y-116636445D02*
X147171428Y-116636445D01*
X147257143Y-116636445D02*
X147257143Y-116336445D01*
X147257143Y-116336445D02*
X147228571Y-116379302D01*
X147228571Y-116379302D02*
X147200000Y-116407874D01*
X147200000Y-116407874D02*
X147171428Y-116422160D01*
X147442857Y-116336445D02*
X147628571Y-116336445D01*
X147628571Y-116336445D02*
X147528571Y-116450731D01*
X147528571Y-116450731D02*
X147571428Y-116450731D01*
X147571428Y-116450731D02*
X147600000Y-116465017D01*
X147600000Y-116465017D02*
X147614285Y-116479302D01*
X147614285Y-116479302D02*
X147628571Y-116507874D01*
X147628571Y-116507874D02*
X147628571Y-116579302D01*
X147628571Y-116579302D02*
X147614285Y-116607874D01*
X147614285Y-116607874D02*
X147600000Y-116622160D01*
X147600000Y-116622160D02*
X147571428Y-116636445D01*
X147571428Y-116636445D02*
X147485714Y-116636445D01*
X147485714Y-116636445D02*
X147457142Y-116622160D01*
X147457142Y-116622160D02*
X147442857Y-116607874D01*
X129057143Y-106857874D02*
X129042857Y-106872160D01*
X129042857Y-106872160D02*
X129000000Y-106886445D01*
X129000000Y-106886445D02*
X128971428Y-106886445D01*
X128971428Y-106886445D02*
X128928571Y-106872160D01*
X128928571Y-106872160D02*
X128900000Y-106843588D01*
X128900000Y-106843588D02*
X128885714Y-106815017D01*
X128885714Y-106815017D02*
X128871428Y-106757874D01*
X128871428Y-106757874D02*
X128871428Y-106715017D01*
X128871428Y-106715017D02*
X128885714Y-106657874D01*
X128885714Y-106657874D02*
X128900000Y-106629302D01*
X128900000Y-106629302D02*
X128928571Y-106600731D01*
X128928571Y-106600731D02*
X128971428Y-106586445D01*
X128971428Y-106586445D02*
X129000000Y-106586445D01*
X129000000Y-106586445D02*
X129042857Y-106600731D01*
X129042857Y-106600731D02*
X129057143Y-106615017D01*
X129171428Y-106615017D02*
X129185714Y-106600731D01*
X129185714Y-106600731D02*
X129214286Y-106586445D01*
X129214286Y-106586445D02*
X129285714Y-106586445D01*
X129285714Y-106586445D02*
X129314286Y-106600731D01*
X129314286Y-106600731D02*
X129328571Y-106615017D01*
X129328571Y-106615017D02*
X129342857Y-106643588D01*
X129342857Y-106643588D02*
X129342857Y-106672160D01*
X129342857Y-106672160D02*
X129328571Y-106715017D01*
X129328571Y-106715017D02*
X129157143Y-106886445D01*
X129157143Y-106886445D02*
X129342857Y-106886445D01*
X129457142Y-106615017D02*
X129471428Y-106600731D01*
X129471428Y-106600731D02*
X129500000Y-106586445D01*
X129500000Y-106586445D02*
X129571428Y-106586445D01*
X129571428Y-106586445D02*
X129600000Y-106600731D01*
X129600000Y-106600731D02*
X129614285Y-106615017D01*
X129614285Y-106615017D02*
X129628571Y-106643588D01*
X129628571Y-106643588D02*
X129628571Y-106672160D01*
X129628571Y-106672160D02*
X129614285Y-106715017D01*
X129614285Y-106715017D02*
X129442857Y-106886445D01*
X129442857Y-106886445D02*
X129628571Y-106886445D01*
D16*
X129525028Y-102297619D02*
X129501219Y-102345238D01*
X129501219Y-102345238D02*
X129453600Y-102392857D01*
X129453600Y-102392857D02*
X129382171Y-102464285D01*
X129382171Y-102464285D02*
X129358361Y-102511904D01*
X129358361Y-102511904D02*
X129358361Y-102559523D01*
X129477409Y-102535714D02*
X129453600Y-102583333D01*
X129453600Y-102583333D02*
X129405980Y-102630952D01*
X129405980Y-102630952D02*
X129310742Y-102654761D01*
X129310742Y-102654761D02*
X129144076Y-102654761D01*
X129144076Y-102654761D02*
X129048838Y-102630952D01*
X129048838Y-102630952D02*
X129001219Y-102583333D01*
X129001219Y-102583333D02*
X128977409Y-102535714D01*
X128977409Y-102535714D02*
X128977409Y-102440476D01*
X128977409Y-102440476D02*
X129001219Y-102392857D01*
X129001219Y-102392857D02*
X129048838Y-102345238D01*
X129048838Y-102345238D02*
X129144076Y-102321428D01*
X129144076Y-102321428D02*
X129310742Y-102321428D01*
X129310742Y-102321428D02*
X129405980Y-102345238D01*
X129405980Y-102345238D02*
X129453600Y-102392857D01*
X129453600Y-102392857D02*
X129477409Y-102440476D01*
X129477409Y-102440476D02*
X129477409Y-102535714D01*
X129477409Y-101845237D02*
X129477409Y-102130951D01*
X129477409Y-101988094D02*
X128977409Y-101988094D01*
X128977409Y-101988094D02*
X129048838Y-102035713D01*
X129048838Y-102035713D02*
X129096457Y-102083332D01*
X129096457Y-102083332D02*
X129120266Y-102130951D01*
D12*
X145712319Y-110761904D02*
X146521842Y-110761904D01*
X146521842Y-110761904D02*
X146617080Y-110714285D01*
X146617080Y-110714285D02*
X146664700Y-110666666D01*
X146664700Y-110666666D02*
X146712319Y-110571428D01*
X146712319Y-110571428D02*
X146712319Y-110380952D01*
X146712319Y-110380952D02*
X146664700Y-110285714D01*
X146664700Y-110285714D02*
X146617080Y-110238095D01*
X146617080Y-110238095D02*
X146521842Y-110190476D01*
X146521842Y-110190476D02*
X145712319Y-110190476D01*
X145712319Y-109238095D02*
X145712319Y-109714285D01*
X145712319Y-109714285D02*
X146188509Y-109761904D01*
X146188509Y-109761904D02*
X146140890Y-109714285D01*
X146140890Y-109714285D02*
X146093271Y-109619047D01*
X146093271Y-109619047D02*
X146093271Y-109380952D01*
X146093271Y-109380952D02*
X146140890Y-109285714D01*
X146140890Y-109285714D02*
X146188509Y-109238095D01*
X146188509Y-109238095D02*
X146283747Y-109190476D01*
X146283747Y-109190476D02*
X146521842Y-109190476D01*
X146521842Y-109190476D02*
X146617080Y-109238095D01*
X146617080Y-109238095D02*
X146664700Y-109285714D01*
X146664700Y-109285714D02*
X146712319Y-109380952D01*
X146712319Y-109380952D02*
X146712319Y-109619047D01*
X146712319Y-109619047D02*
X146664700Y-109714285D01*
X146664700Y-109714285D02*
X146617080Y-109761904D01*
X127454819Y-93333333D02*
X128169104Y-93333333D01*
X128169104Y-93333333D02*
X128311961Y-93380952D01*
X128311961Y-93380952D02*
X128407200Y-93476190D01*
X128407200Y-93476190D02*
X128454819Y-93619047D01*
X128454819Y-93619047D02*
X128454819Y-93714285D01*
X127454819Y-92952380D02*
X127454819Y-92333333D01*
X127454819Y-92333333D02*
X127835771Y-92666666D01*
X127835771Y-92666666D02*
X127835771Y-92523809D01*
X127835771Y-92523809D02*
X127883390Y-92428571D01*
X127883390Y-92428571D02*
X127931009Y-92380952D01*
X127931009Y-92380952D02*
X128026247Y-92333333D01*
X128026247Y-92333333D02*
X128264342Y-92333333D01*
X128264342Y-92333333D02*
X128359580Y-92380952D01*
X128359580Y-92380952D02*
X128407200Y-92428571D01*
X128407200Y-92428571D02*
X128454819Y-92523809D01*
X128454819Y-92523809D02*
X128454819Y-92809523D01*
X128454819Y-92809523D02*
X128407200Y-92904761D01*
X128407200Y-92904761D02*
X128359580Y-92952380D01*
D11*
X129057143Y-112107874D02*
X129042857Y-112122160D01*
X129042857Y-112122160D02*
X129000000Y-112136445D01*
X129000000Y-112136445D02*
X128971428Y-112136445D01*
X128971428Y-112136445D02*
X128928571Y-112122160D01*
X128928571Y-112122160D02*
X128900000Y-112093588D01*
X128900000Y-112093588D02*
X128885714Y-112065017D01*
X128885714Y-112065017D02*
X128871428Y-112007874D01*
X128871428Y-112007874D02*
X128871428Y-111965017D01*
X128871428Y-111965017D02*
X128885714Y-111907874D01*
X128885714Y-111907874D02*
X128900000Y-111879302D01*
X128900000Y-111879302D02*
X128928571Y-111850731D01*
X128928571Y-111850731D02*
X128971428Y-111836445D01*
X128971428Y-111836445D02*
X129000000Y-111836445D01*
X129000000Y-111836445D02*
X129042857Y-111850731D01*
X129042857Y-111850731D02*
X129057143Y-111865017D01*
X129171428Y-111865017D02*
X129185714Y-111850731D01*
X129185714Y-111850731D02*
X129214286Y-111836445D01*
X129214286Y-111836445D02*
X129285714Y-111836445D01*
X129285714Y-111836445D02*
X129314286Y-111850731D01*
X129314286Y-111850731D02*
X129328571Y-111865017D01*
X129328571Y-111865017D02*
X129342857Y-111893588D01*
X129342857Y-111893588D02*
X129342857Y-111922160D01*
X129342857Y-111922160D02*
X129328571Y-111965017D01*
X129328571Y-111965017D02*
X129157143Y-112136445D01*
X129157143Y-112136445D02*
X129342857Y-112136445D01*
X129442857Y-111836445D02*
X129628571Y-111836445D01*
X129628571Y-111836445D02*
X129528571Y-111950731D01*
X129528571Y-111950731D02*
X129571428Y-111950731D01*
X129571428Y-111950731D02*
X129600000Y-111965017D01*
X129600000Y-111965017D02*
X129614285Y-111979302D01*
X129614285Y-111979302D02*
X129628571Y-112007874D01*
X129628571Y-112007874D02*
X129628571Y-112079302D01*
X129628571Y-112079302D02*
X129614285Y-112107874D01*
X129614285Y-112107874D02*
X129600000Y-112122160D01*
X129600000Y-112122160D02*
X129571428Y-112136445D01*
X129571428Y-112136445D02*
X129485714Y-112136445D01*
X129485714Y-112136445D02*
X129457142Y-112122160D01*
X129457142Y-112122160D02*
X129442857Y-112107874D01*
D10*
X129428571Y-103428490D02*
X129404762Y-103452300D01*
X129404762Y-103452300D02*
X129333333Y-103476109D01*
X129333333Y-103476109D02*
X129285714Y-103476109D01*
X129285714Y-103476109D02*
X129214286Y-103452300D01*
X129214286Y-103452300D02*
X129166667Y-103404680D01*
X129166667Y-103404680D02*
X129142857Y-103357061D01*
X129142857Y-103357061D02*
X129119048Y-103261823D01*
X129119048Y-103261823D02*
X129119048Y-103190395D01*
X129119048Y-103190395D02*
X129142857Y-103095157D01*
X129142857Y-103095157D02*
X129166667Y-103047538D01*
X129166667Y-103047538D02*
X129214286Y-102999919D01*
X129214286Y-102999919D02*
X129285714Y-102976109D01*
X129285714Y-102976109D02*
X129333333Y-102976109D01*
X129333333Y-102976109D02*
X129404762Y-102999919D01*
X129404762Y-102999919D02*
X129428571Y-103023728D01*
X129619048Y-103023728D02*
X129642857Y-102999919D01*
X129642857Y-102999919D02*
X129690476Y-102976109D01*
X129690476Y-102976109D02*
X129809524Y-102976109D01*
X129809524Y-102976109D02*
X129857143Y-102999919D01*
X129857143Y-102999919D02*
X129880952Y-103023728D01*
X129880952Y-103023728D02*
X129904762Y-103071347D01*
X129904762Y-103071347D02*
X129904762Y-103118966D01*
X129904762Y-103118966D02*
X129880952Y-103190395D01*
X129880952Y-103190395D02*
X129595238Y-103476109D01*
X129595238Y-103476109D02*
X129904762Y-103476109D01*
X130380952Y-103476109D02*
X130095238Y-103476109D01*
X130238095Y-103476109D02*
X130238095Y-102976109D01*
X130238095Y-102976109D02*
X130190476Y-103047538D01*
X130190476Y-103047538D02*
X130142857Y-103095157D01*
X130142857Y-103095157D02*
X130095238Y-103118966D01*
D12*
X119535714Y-110419104D02*
X120011904Y-110419104D01*
X119440476Y-110704819D02*
X119773809Y-109704819D01*
X119773809Y-109704819D02*
X120107142Y-110704819D01*
X120869047Y-109704819D02*
X120678571Y-109704819D01*
X120678571Y-109704819D02*
X120583333Y-109752438D01*
X120583333Y-109752438D02*
X120535714Y-109800057D01*
X120535714Y-109800057D02*
X120440476Y-109942914D01*
X120440476Y-109942914D02*
X120392857Y-110133390D01*
X120392857Y-110133390D02*
X120392857Y-110514342D01*
X120392857Y-110514342D02*
X120440476Y-110609580D01*
X120440476Y-110609580D02*
X120488095Y-110657200D01*
X120488095Y-110657200D02*
X120583333Y-110704819D01*
X120583333Y-110704819D02*
X120773809Y-110704819D01*
X120773809Y-110704819D02*
X120869047Y-110657200D01*
X120869047Y-110657200D02*
X120916666Y-110609580D01*
X120916666Y-110609580D02*
X120964285Y-110514342D01*
X120964285Y-110514342D02*
X120964285Y-110276247D01*
X120964285Y-110276247D02*
X120916666Y-110181009D01*
X120916666Y-110181009D02*
X120869047Y-110133390D01*
X120869047Y-110133390D02*
X120773809Y-110085771D01*
X120773809Y-110085771D02*
X120583333Y-110085771D01*
X120583333Y-110085771D02*
X120488095Y-110133390D01*
X120488095Y-110133390D02*
X120440476Y-110181009D01*
X120440476Y-110181009D02*
X120392857Y-110276247D01*
D11*
X152017500Y-108886445D02*
X151917500Y-108743588D01*
X151846071Y-108886445D02*
X151846071Y-108586445D01*
X151846071Y-108586445D02*
X151960357Y-108586445D01*
X151960357Y-108586445D02*
X151988928Y-108600731D01*
X151988928Y-108600731D02*
X152003214Y-108615017D01*
X152003214Y-108615017D02*
X152017500Y-108643588D01*
X152017500Y-108643588D02*
X152017500Y-108686445D01*
X152017500Y-108686445D02*
X152003214Y-108715017D01*
X152003214Y-108715017D02*
X151988928Y-108729302D01*
X151988928Y-108729302D02*
X151960357Y-108743588D01*
X151960357Y-108743588D02*
X151846071Y-108743588D01*
X152117500Y-108586445D02*
X152317500Y-108586445D01*
X152317500Y-108586445D02*
X152188928Y-108886445D01*
D16*
X127727409Y-110130952D02*
X128132171Y-110130952D01*
X128132171Y-110130952D02*
X128179790Y-110107142D01*
X128179790Y-110107142D02*
X128203600Y-110083333D01*
X128203600Y-110083333D02*
X128227409Y-110035714D01*
X128227409Y-110035714D02*
X128227409Y-109940476D01*
X128227409Y-109940476D02*
X128203600Y-109892857D01*
X128203600Y-109892857D02*
X128179790Y-109869047D01*
X128179790Y-109869047D02*
X128132171Y-109845238D01*
X128132171Y-109845238D02*
X127727409Y-109845238D01*
X127727409Y-109392856D02*
X127727409Y-109488094D01*
X127727409Y-109488094D02*
X127751219Y-109535713D01*
X127751219Y-109535713D02*
X127775028Y-109559523D01*
X127775028Y-109559523D02*
X127846457Y-109607142D01*
X127846457Y-109607142D02*
X127941695Y-109630951D01*
X127941695Y-109630951D02*
X128132171Y-109630951D01*
X128132171Y-109630951D02*
X128179790Y-109607142D01*
X128179790Y-109607142D02*
X128203600Y-109583332D01*
X128203600Y-109583332D02*
X128227409Y-109535713D01*
X128227409Y-109535713D02*
X128227409Y-109440475D01*
X128227409Y-109440475D02*
X128203600Y-109392856D01*
X128203600Y-109392856D02*
X128179790Y-109369047D01*
X128179790Y-109369047D02*
X128132171Y-109345237D01*
X128132171Y-109345237D02*
X128013123Y-109345237D01*
X128013123Y-109345237D02*
X127965504Y-109369047D01*
X127965504Y-109369047D02*
X127941695Y-109392856D01*
X127941695Y-109392856D02*
X127917885Y-109440475D01*
X127917885Y-109440475D02*
X127917885Y-109535713D01*
X127917885Y-109535713D02*
X127941695Y-109583332D01*
X127941695Y-109583332D02*
X127965504Y-109607142D01*
X127965504Y-109607142D02*
X128013123Y-109630951D01*
D12*
X128119219Y-111937699D02*
X128357314Y-111937699D01*
X128262076Y-112175794D02*
X128357314Y-111937699D01*
X128357314Y-111937699D02*
X128262076Y-111699604D01*
X128547790Y-112080556D02*
X128357314Y-111937699D01*
X128357314Y-111937699D02*
X128547790Y-111794842D01*
X128119219Y-111937699D02*
X128357314Y-111937699D01*
X128262076Y-112175794D02*
X128357314Y-111937699D01*
X128357314Y-111937699D02*
X128262076Y-111699604D01*
X128547790Y-112080556D02*
X128357314Y-111937699D01*
X128357314Y-111937699D02*
X128547790Y-111794842D01*
D11*
X128307143Y-122607874D02*
X128292857Y-122622160D01*
X128292857Y-122622160D02*
X128250000Y-122636445D01*
X128250000Y-122636445D02*
X128221428Y-122636445D01*
X128221428Y-122636445D02*
X128178571Y-122622160D01*
X128178571Y-122622160D02*
X128150000Y-122593588D01*
X128150000Y-122593588D02*
X128135714Y-122565017D01*
X128135714Y-122565017D02*
X128121428Y-122507874D01*
X128121428Y-122507874D02*
X128121428Y-122465017D01*
X128121428Y-122465017D02*
X128135714Y-122407874D01*
X128135714Y-122407874D02*
X128150000Y-122379302D01*
X128150000Y-122379302D02*
X128178571Y-122350731D01*
X128178571Y-122350731D02*
X128221428Y-122336445D01*
X128221428Y-122336445D02*
X128250000Y-122336445D01*
X128250000Y-122336445D02*
X128292857Y-122350731D01*
X128292857Y-122350731D02*
X128307143Y-122365017D01*
X128421428Y-122365017D02*
X128435714Y-122350731D01*
X128435714Y-122350731D02*
X128464286Y-122336445D01*
X128464286Y-122336445D02*
X128535714Y-122336445D01*
X128535714Y-122336445D02*
X128564286Y-122350731D01*
X128564286Y-122350731D02*
X128578571Y-122365017D01*
X128578571Y-122365017D02*
X128592857Y-122393588D01*
X128592857Y-122393588D02*
X128592857Y-122422160D01*
X128592857Y-122422160D02*
X128578571Y-122465017D01*
X128578571Y-122465017D02*
X128407143Y-122636445D01*
X128407143Y-122636445D02*
X128592857Y-122636445D01*
X128778571Y-122336445D02*
X128807142Y-122336445D01*
X128807142Y-122336445D02*
X128835714Y-122350731D01*
X128835714Y-122350731D02*
X128850000Y-122365017D01*
X128850000Y-122365017D02*
X128864285Y-122393588D01*
X128864285Y-122393588D02*
X128878571Y-122450731D01*
X128878571Y-122450731D02*
X128878571Y-122522160D01*
X128878571Y-122522160D02*
X128864285Y-122579302D01*
X128864285Y-122579302D02*
X128850000Y-122607874D01*
X128850000Y-122607874D02*
X128835714Y-122622160D01*
X128835714Y-122622160D02*
X128807142Y-122636445D01*
X128807142Y-122636445D02*
X128778571Y-122636445D01*
X128778571Y-122636445D02*
X128750000Y-122622160D01*
X128750000Y-122622160D02*
X128735714Y-122607874D01*
X128735714Y-122607874D02*
X128721428Y-122579302D01*
X128721428Y-122579302D02*
X128707142Y-122522160D01*
X128707142Y-122522160D02*
X128707142Y-122450731D01*
X128707142Y-122450731D02*
X128721428Y-122393588D01*
X128721428Y-122393588D02*
X128735714Y-122365017D01*
X128735714Y-122365017D02*
X128750000Y-122350731D01*
X128750000Y-122350731D02*
X128778571Y-122336445D01*
D17*
X111930570Y-92833333D02*
X111954380Y-92857142D01*
X111954380Y-92857142D02*
X111978189Y-92928571D01*
X111978189Y-92928571D02*
X111978189Y-92976190D01*
X111978189Y-92976190D02*
X111954380Y-93047618D01*
X111954380Y-93047618D02*
X111906760Y-93095237D01*
X111906760Y-93095237D02*
X111859141Y-93119047D01*
X111859141Y-93119047D02*
X111763903Y-93142856D01*
X111763903Y-93142856D02*
X111692475Y-93142856D01*
X111692475Y-93142856D02*
X111597237Y-93119047D01*
X111597237Y-93119047D02*
X111549618Y-93095237D01*
X111549618Y-93095237D02*
X111501999Y-93047618D01*
X111501999Y-93047618D02*
X111478189Y-92976190D01*
X111478189Y-92976190D02*
X111478189Y-92928571D01*
X111478189Y-92928571D02*
X111501999Y-92857142D01*
X111501999Y-92857142D02*
X111525808Y-92833333D01*
X111692475Y-92547618D02*
X111668665Y-92595237D01*
X111668665Y-92595237D02*
X111644856Y-92619047D01*
X111644856Y-92619047D02*
X111597237Y-92642856D01*
X111597237Y-92642856D02*
X111573427Y-92642856D01*
X111573427Y-92642856D02*
X111525808Y-92619047D01*
X111525808Y-92619047D02*
X111501999Y-92595237D01*
X111501999Y-92595237D02*
X111478189Y-92547618D01*
X111478189Y-92547618D02*
X111478189Y-92452380D01*
X111478189Y-92452380D02*
X111501999Y-92404761D01*
X111501999Y-92404761D02*
X111525808Y-92380952D01*
X111525808Y-92380952D02*
X111573427Y-92357142D01*
X111573427Y-92357142D02*
X111597237Y-92357142D01*
X111597237Y-92357142D02*
X111644856Y-92380952D01*
X111644856Y-92380952D02*
X111668665Y-92404761D01*
X111668665Y-92404761D02*
X111692475Y-92452380D01*
X111692475Y-92452380D02*
X111692475Y-92547618D01*
X111692475Y-92547618D02*
X111716284Y-92595237D01*
X111716284Y-92595237D02*
X111740094Y-92619047D01*
X111740094Y-92619047D02*
X111787713Y-92642856D01*
X111787713Y-92642856D02*
X111882951Y-92642856D01*
X111882951Y-92642856D02*
X111930570Y-92619047D01*
X111930570Y-92619047D02*
X111954380Y-92595237D01*
X111954380Y-92595237D02*
X111978189Y-92547618D01*
X111978189Y-92547618D02*
X111978189Y-92452380D01*
X111978189Y-92452380D02*
X111954380Y-92404761D01*
X111954380Y-92404761D02*
X111930570Y-92380952D01*
X111930570Y-92380952D02*
X111882951Y-92357142D01*
X111882951Y-92357142D02*
X111787713Y-92357142D01*
X111787713Y-92357142D02*
X111740094Y-92380952D01*
X111740094Y-92380952D02*
X111716284Y-92404761D01*
X111716284Y-92404761D02*
X111692475Y-92452380D01*
D11*
X142017500Y-115857874D02*
X142003214Y-115872160D01*
X142003214Y-115872160D02*
X141960357Y-115886445D01*
X141960357Y-115886445D02*
X141931785Y-115886445D01*
X141931785Y-115886445D02*
X141888928Y-115872160D01*
X141888928Y-115872160D02*
X141860357Y-115843588D01*
X141860357Y-115843588D02*
X141846071Y-115815017D01*
X141846071Y-115815017D02*
X141831785Y-115757874D01*
X141831785Y-115757874D02*
X141831785Y-115715017D01*
X141831785Y-115715017D02*
X141846071Y-115657874D01*
X141846071Y-115657874D02*
X141860357Y-115629302D01*
X141860357Y-115629302D02*
X141888928Y-115600731D01*
X141888928Y-115600731D02*
X141931785Y-115586445D01*
X141931785Y-115586445D02*
X141960357Y-115586445D01*
X141960357Y-115586445D02*
X142003214Y-115600731D01*
X142003214Y-115600731D02*
X142017500Y-115615017D01*
X142274643Y-115586445D02*
X142217500Y-115586445D01*
X142217500Y-115586445D02*
X142188928Y-115600731D01*
X142188928Y-115600731D02*
X142174643Y-115615017D01*
X142174643Y-115615017D02*
X142146071Y-115657874D01*
X142146071Y-115657874D02*
X142131785Y-115715017D01*
X142131785Y-115715017D02*
X142131785Y-115829302D01*
X142131785Y-115829302D02*
X142146071Y-115857874D01*
X142146071Y-115857874D02*
X142160357Y-115872160D01*
X142160357Y-115872160D02*
X142188928Y-115886445D01*
X142188928Y-115886445D02*
X142246071Y-115886445D01*
X142246071Y-115886445D02*
X142274643Y-115872160D01*
X142274643Y-115872160D02*
X142288928Y-115857874D01*
X142288928Y-115857874D02*
X142303214Y-115829302D01*
X142303214Y-115829302D02*
X142303214Y-115757874D01*
X142303214Y-115757874D02*
X142288928Y-115729302D01*
X142288928Y-115729302D02*
X142274643Y-115715017D01*
X142274643Y-115715017D02*
X142246071Y-115700731D01*
X142246071Y-115700731D02*
X142188928Y-115700731D01*
X142188928Y-115700731D02*
X142160357Y-115715017D01*
X142160357Y-115715017D02*
X142146071Y-115729302D01*
X142146071Y-115729302D02*
X142131785Y-115757874D01*
X111357874Y-106437499D02*
X111372160Y-106451785D01*
X111372160Y-106451785D02*
X111386445Y-106494642D01*
X111386445Y-106494642D02*
X111386445Y-106523214D01*
X111386445Y-106523214D02*
X111372160Y-106566071D01*
X111372160Y-106566071D02*
X111343588Y-106594642D01*
X111343588Y-106594642D02*
X111315017Y-106608928D01*
X111315017Y-106608928D02*
X111257874Y-106623214D01*
X111257874Y-106623214D02*
X111215017Y-106623214D01*
X111215017Y-106623214D02*
X111157874Y-106608928D01*
X111157874Y-106608928D02*
X111129302Y-106594642D01*
X111129302Y-106594642D02*
X111100731Y-106566071D01*
X111100731Y-106566071D02*
X111086445Y-106523214D01*
X111086445Y-106523214D02*
X111086445Y-106494642D01*
X111086445Y-106494642D02*
X111100731Y-106451785D01*
X111100731Y-106451785D02*
X111115017Y-106437499D01*
X111386445Y-106294642D02*
X111386445Y-106237499D01*
X111386445Y-106237499D02*
X111372160Y-106208928D01*
X111372160Y-106208928D02*
X111357874Y-106194642D01*
X111357874Y-106194642D02*
X111315017Y-106166071D01*
X111315017Y-106166071D02*
X111257874Y-106151785D01*
X111257874Y-106151785D02*
X111143588Y-106151785D01*
X111143588Y-106151785D02*
X111115017Y-106166071D01*
X111115017Y-106166071D02*
X111100731Y-106180357D01*
X111100731Y-106180357D02*
X111086445Y-106208928D01*
X111086445Y-106208928D02*
X111086445Y-106266071D01*
X111086445Y-106266071D02*
X111100731Y-106294642D01*
X111100731Y-106294642D02*
X111115017Y-106308928D01*
X111115017Y-106308928D02*
X111143588Y-106323214D01*
X111143588Y-106323214D02*
X111215017Y-106323214D01*
X111215017Y-106323214D02*
X111243588Y-106308928D01*
X111243588Y-106308928D02*
X111257874Y-106294642D01*
X111257874Y-106294642D02*
X111272160Y-106266071D01*
X111272160Y-106266071D02*
X111272160Y-106208928D01*
X111272160Y-106208928D02*
X111257874Y-106180357D01*
X111257874Y-106180357D02*
X111243588Y-106166071D01*
X111243588Y-106166071D02*
X111215017Y-106151785D01*
X153950000Y-99357874D02*
X153935714Y-99372160D01*
X153935714Y-99372160D02*
X153892857Y-99386445D01*
X153892857Y-99386445D02*
X153864285Y-99386445D01*
X153864285Y-99386445D02*
X153821428Y-99372160D01*
X153821428Y-99372160D02*
X153792857Y-99343588D01*
X153792857Y-99343588D02*
X153778571Y-99315017D01*
X153778571Y-99315017D02*
X153764285Y-99257874D01*
X153764285Y-99257874D02*
X153764285Y-99215017D01*
X153764285Y-99215017D02*
X153778571Y-99157874D01*
X153778571Y-99157874D02*
X153792857Y-99129302D01*
X153792857Y-99129302D02*
X153821428Y-99100731D01*
X153821428Y-99100731D02*
X153864285Y-99086445D01*
X153864285Y-99086445D02*
X153892857Y-99086445D01*
X153892857Y-99086445D02*
X153935714Y-99100731D01*
X153935714Y-99100731D02*
X153950000Y-99115017D01*
X154207143Y-99186445D02*
X154207143Y-99386445D01*
X154135714Y-99072160D02*
X154064285Y-99286445D01*
X154064285Y-99286445D02*
X154250000Y-99286445D01*
X145200000Y-116636445D02*
X145100000Y-116493588D01*
X145028571Y-116636445D02*
X145028571Y-116336445D01*
X145028571Y-116336445D02*
X145142857Y-116336445D01*
X145142857Y-116336445D02*
X145171428Y-116350731D01*
X145171428Y-116350731D02*
X145185714Y-116365017D01*
X145185714Y-116365017D02*
X145200000Y-116393588D01*
X145200000Y-116393588D02*
X145200000Y-116436445D01*
X145200000Y-116436445D02*
X145185714Y-116465017D01*
X145185714Y-116465017D02*
X145171428Y-116479302D01*
X145171428Y-116479302D02*
X145142857Y-116493588D01*
X145142857Y-116493588D02*
X145028571Y-116493588D01*
X145471428Y-116336445D02*
X145328571Y-116336445D01*
X145328571Y-116336445D02*
X145314285Y-116479302D01*
X145314285Y-116479302D02*
X145328571Y-116465017D01*
X145328571Y-116465017D02*
X145357143Y-116450731D01*
X145357143Y-116450731D02*
X145428571Y-116450731D01*
X145428571Y-116450731D02*
X145457143Y-116465017D01*
X145457143Y-116465017D02*
X145471428Y-116479302D01*
X145471428Y-116479302D02*
X145485714Y-116507874D01*
X145485714Y-116507874D02*
X145485714Y-116579302D01*
X145485714Y-116579302D02*
X145471428Y-116607874D01*
X145471428Y-116607874D02*
X145457143Y-116622160D01*
X145457143Y-116622160D02*
X145428571Y-116636445D01*
X145428571Y-116636445D02*
X145357143Y-116636445D01*
X145357143Y-116636445D02*
X145328571Y-116622160D01*
X145328571Y-116622160D02*
X145314285Y-116607874D01*
X152636445Y-111942856D02*
X152493588Y-112042856D01*
X152636445Y-112114285D02*
X152336445Y-112114285D01*
X152336445Y-112114285D02*
X152336445Y-111999999D01*
X152336445Y-111999999D02*
X152350731Y-111971428D01*
X152350731Y-111971428D02*
X152365017Y-111957142D01*
X152365017Y-111957142D02*
X152393588Y-111942856D01*
X152393588Y-111942856D02*
X152436445Y-111942856D01*
X152436445Y-111942856D02*
X152465017Y-111957142D01*
X152465017Y-111957142D02*
X152479302Y-111971428D01*
X152479302Y-111971428D02*
X152493588Y-111999999D01*
X152493588Y-111999999D02*
X152493588Y-112114285D01*
X152636445Y-111657142D02*
X152636445Y-111828571D01*
X152636445Y-111742856D02*
X152336445Y-111742856D01*
X152336445Y-111742856D02*
X152379302Y-111771428D01*
X152379302Y-111771428D02*
X152407874Y-111799999D01*
X152407874Y-111799999D02*
X152422160Y-111828571D01*
X152636445Y-111371428D02*
X152636445Y-111542857D01*
X152636445Y-111457142D02*
X152336445Y-111457142D01*
X152336445Y-111457142D02*
X152379302Y-111485714D01*
X152379302Y-111485714D02*
X152407874Y-111514285D01*
X152407874Y-111514285D02*
X152422160Y-111542857D01*
D12*
X133253917Y-114090856D02*
X133283947Y-114000764D01*
X133283947Y-114000764D02*
X133283947Y-113850611D01*
X133283947Y-113850611D02*
X133253917Y-113790550D01*
X133253917Y-113790550D02*
X133223886Y-113760519D01*
X133223886Y-113760519D02*
X133163825Y-113730489D01*
X133163825Y-113730489D02*
X133103763Y-113730489D01*
X133103763Y-113730489D02*
X133043702Y-113760519D01*
X133043702Y-113760519D02*
X133013672Y-113790550D01*
X133013672Y-113790550D02*
X132983641Y-113850611D01*
X132983641Y-113850611D02*
X132953610Y-113970734D01*
X132953610Y-113970734D02*
X132923580Y-114030795D01*
X132923580Y-114030795D02*
X132893549Y-114060825D01*
X132893549Y-114060825D02*
X132833488Y-114090856D01*
X132833488Y-114090856D02*
X132773427Y-114090856D01*
X132773427Y-114090856D02*
X132713365Y-114060825D01*
X132713365Y-114060825D02*
X132683335Y-114030795D01*
X132683335Y-114030795D02*
X132653304Y-113970734D01*
X132653304Y-113970734D02*
X132653304Y-113820580D01*
X132653304Y-113820580D02*
X132683335Y-113730489D01*
X132653304Y-113520275D02*
X133283947Y-113370122D01*
X133283947Y-113370122D02*
X132833488Y-113249999D01*
X132833488Y-113249999D02*
X133283947Y-113129877D01*
X133283947Y-113129877D02*
X132653304Y-112979724D01*
X132653304Y-112799540D02*
X132653304Y-112409142D01*
X132653304Y-112409142D02*
X132893549Y-112619356D01*
X132893549Y-112619356D02*
X132893549Y-112529264D01*
X132893549Y-112529264D02*
X132923580Y-112469203D01*
X132923580Y-112469203D02*
X132953610Y-112439172D01*
X132953610Y-112439172D02*
X133013672Y-112409142D01*
X133013672Y-112409142D02*
X133163825Y-112409142D01*
X133163825Y-112409142D02*
X133223886Y-112439172D01*
X133223886Y-112439172D02*
X133253917Y-112469203D01*
X133253917Y-112469203D02*
X133283947Y-112529264D01*
X133283947Y-112529264D02*
X133283947Y-112709448D01*
X133283947Y-112709448D02*
X133253917Y-112769509D01*
X133253917Y-112769509D02*
X133223886Y-112799540D01*
X123954819Y-123238094D02*
X122954819Y-123238094D01*
X122954819Y-123238094D02*
X122954819Y-122999999D01*
X122954819Y-122999999D02*
X123002438Y-122857142D01*
X123002438Y-122857142D02*
X123097676Y-122761904D01*
X123097676Y-122761904D02*
X123192914Y-122714285D01*
X123192914Y-122714285D02*
X123383390Y-122666666D01*
X123383390Y-122666666D02*
X123526247Y-122666666D01*
X123526247Y-122666666D02*
X123716723Y-122714285D01*
X123716723Y-122714285D02*
X123811961Y-122761904D01*
X123811961Y-122761904D02*
X123907200Y-122857142D01*
X123907200Y-122857142D02*
X123954819Y-122999999D01*
X123954819Y-122999999D02*
X123954819Y-123238094D01*
X123954819Y-121714285D02*
X123954819Y-122285713D01*
X123954819Y-121999999D02*
X122954819Y-121999999D01*
X122954819Y-121999999D02*
X123097676Y-122095237D01*
X123097676Y-122095237D02*
X123192914Y-122190475D01*
X123192914Y-122190475D02*
X123240533Y-122285713D01*
X126554819Y-114391904D02*
X125554819Y-114391904D01*
X126554819Y-113820476D02*
X125983390Y-114249047D01*
X125554819Y-113820476D02*
X126126247Y-114391904D01*
D11*
X127136445Y-111144999D02*
X126993588Y-111244999D01*
X127136445Y-111316428D02*
X126836445Y-111316428D01*
X126836445Y-111316428D02*
X126836445Y-111202142D01*
X126836445Y-111202142D02*
X126850731Y-111173571D01*
X126850731Y-111173571D02*
X126865017Y-111159285D01*
X126865017Y-111159285D02*
X126893588Y-111144999D01*
X126893588Y-111144999D02*
X126936445Y-111144999D01*
X126936445Y-111144999D02*
X126965017Y-111159285D01*
X126965017Y-111159285D02*
X126979302Y-111173571D01*
X126979302Y-111173571D02*
X126993588Y-111202142D01*
X126993588Y-111202142D02*
X126993588Y-111316428D01*
X127136445Y-110859285D02*
X127136445Y-111030714D01*
X127136445Y-110944999D02*
X126836445Y-110944999D01*
X126836445Y-110944999D02*
X126879302Y-110973571D01*
X126879302Y-110973571D02*
X126907874Y-111002142D01*
X126907874Y-111002142D02*
X126922160Y-111030714D01*
X126607874Y-124549999D02*
X126622160Y-124564285D01*
X126622160Y-124564285D02*
X126636445Y-124607142D01*
X126636445Y-124607142D02*
X126636445Y-124635714D01*
X126636445Y-124635714D02*
X126622160Y-124678571D01*
X126622160Y-124678571D02*
X126593588Y-124707142D01*
X126593588Y-124707142D02*
X126565017Y-124721428D01*
X126565017Y-124721428D02*
X126507874Y-124735714D01*
X126507874Y-124735714D02*
X126465017Y-124735714D01*
X126465017Y-124735714D02*
X126407874Y-124721428D01*
X126407874Y-124721428D02*
X126379302Y-124707142D01*
X126379302Y-124707142D02*
X126350731Y-124678571D01*
X126350731Y-124678571D02*
X126336445Y-124635714D01*
X126336445Y-124635714D02*
X126336445Y-124607142D01*
X126336445Y-124607142D02*
X126350731Y-124564285D01*
X126350731Y-124564285D02*
X126365017Y-124549999D01*
X126365017Y-124435714D02*
X126350731Y-124421428D01*
X126350731Y-124421428D02*
X126336445Y-124392857D01*
X126336445Y-124392857D02*
X126336445Y-124321428D01*
X126336445Y-124321428D02*
X126350731Y-124292857D01*
X126350731Y-124292857D02*
X126365017Y-124278571D01*
X126365017Y-124278571D02*
X126393588Y-124264285D01*
X126393588Y-124264285D02*
X126422160Y-124264285D01*
X126422160Y-124264285D02*
X126465017Y-124278571D01*
X126465017Y-124278571D02*
X126636445Y-124449999D01*
X126636445Y-124449999D02*
X126636445Y-124264285D01*
%TO.C,D4*%
D18*
X136220000Y-100500000D02*
X137130000Y-100500000D01*
X138555000Y-97780000D02*
X138555000Y-103220000D01*
X138675000Y-97780000D02*
X138675000Y-103220000D01*
X138795000Y-97780000D02*
X138795000Y-103220000D01*
X147780000Y-100500000D02*
X146870000Y-100500000D01*
X137130000Y-97780000D02*
X146870000Y-97780000D01*
X146870000Y-103220000D01*
X137130000Y-103220000D01*
X137130000Y-97780000D01*
%TO.C,D3*%
X136220000Y-119500000D02*
X137130000Y-119500000D01*
X138555000Y-116780000D02*
X138555000Y-122220000D01*
X138675000Y-116780000D02*
X138675000Y-122220000D01*
X138795000Y-116780000D02*
X138795000Y-122220000D01*
X147780000Y-119500000D02*
X146870000Y-119500000D01*
X137130000Y-116780000D02*
X146870000Y-116780000D01*
X146870000Y-122220000D01*
X137130000Y-122220000D01*
X137130000Y-116780000D01*
%TO.C,SW2*%
D19*
X133505000Y-105600000D02*
X133505000Y-107900000D01*
X134300000Y-103755000D02*
X138800000Y-103755000D01*
X138800000Y-109745000D02*
X134200000Y-109745000D01*
X139500000Y-105600000D02*
X139500000Y-107900000D01*
D20*
X132155000Y-104500000D02*
G75*
G02*
X131955000Y-104500000I-100000J0D01*
G01*
X131955000Y-104500000D02*
G75*
G02*
X132155000Y-104500000I100000J0D01*
G01*
D19*
X138255000Y-106750000D02*
G75*
G02*
X134745000Y-106750000I-1755000J0D01*
G01*
X134745000Y-106750000D02*
G75*
G02*
X138255000Y-106750000I1755000J0D01*
G01*
%TO.C,U1*%
D21*
X131470000Y-120100000D02*
G75*
G02*
X131330000Y-120100000I-70000J0D01*
G01*
X131330000Y-120100000D02*
G75*
G02*
X131470000Y-120100000I70000J0D01*
G01*
%TO.C,M1*%
D19*
X112350000Y-110550000D02*
X118100000Y-110550000D01*
X112350000Y-122950000D02*
X112350000Y-110550000D01*
X118100000Y-110550000D02*
X118100000Y-122950000D01*
X118100000Y-122950000D02*
X112350000Y-122950000D01*
D20*
X115850000Y-109750000D02*
G75*
G02*
X115650000Y-109750000I-100000J0D01*
G01*
X115650000Y-109750000D02*
G75*
G02*
X115850000Y-109750000I100000J0D01*
G01*
%TO.C,J4*%
D18*
X128880000Y-122880000D02*
X154620000Y-122880000D01*
X128880000Y-126500000D02*
X130120000Y-126500000D01*
X128880000Y-127500000D02*
X130120000Y-127500000D01*
X128880000Y-128800000D02*
X130120000Y-128800000D01*
X128880000Y-130920000D02*
X128880000Y-122880000D01*
X131700000Y-130920000D02*
X128880000Y-130920000D01*
X133880000Y-126500000D02*
X135188000Y-126500000D01*
X133880000Y-127500000D02*
X135188000Y-127500000D01*
X133880000Y-128800000D02*
X136457000Y-128800000D01*
X137543000Y-128800000D02*
X141457000Y-128800000D01*
X138812000Y-126500000D02*
X140188000Y-126500000D01*
X138812000Y-127500000D02*
X140188000Y-127500000D01*
X142543000Y-128800000D02*
X146457000Y-128800000D01*
X143812000Y-126500000D02*
X145188000Y-126500000D01*
X143812000Y-127500000D02*
X145188000Y-127500000D01*
X147543000Y-128800000D02*
X151457000Y-128800000D01*
X148812000Y-126500000D02*
X150188000Y-126500000D01*
X148812000Y-127500000D02*
X150188000Y-127500000D01*
X152543000Y-128800000D02*
X154620000Y-128800000D01*
X153812000Y-126500000D02*
X154620000Y-126500000D01*
X153812000Y-127500000D02*
X154620000Y-127500000D01*
X154620000Y-122880000D02*
X154620000Y-130920000D01*
X154620000Y-130920000D02*
X132300000Y-130920000D01*
X132440000Y-131530000D02*
X131560000Y-131530000D01*
X132000000Y-130920000D01*
X132440000Y-131530000D01*
G36*
X132440000Y-131530000D02*
G01*
X131560000Y-131530000D01*
X132000000Y-130920000D01*
X132440000Y-131530000D01*
G37*
%TO.C,J5*%
D20*
X154025000Y-113330000D02*
G75*
G02*
X153825000Y-113330000I-100000J0D01*
G01*
X153825000Y-113330000D02*
G75*
G02*
X154025000Y-113330000I100000J0D01*
G01*
%TO.C,Q1*%
D18*
X128601676Y-99515000D02*
X128601676Y-101375000D01*
X128601676Y-101375000D02*
X129651676Y-101375000D01*
X131901676Y-99575000D02*
X131901676Y-101375000D01*
X131901676Y-101375000D02*
X130851676Y-101375000D01*
X128640000Y-99065000D02*
X128310000Y-99305000D01*
X128310000Y-98825000D01*
X128640000Y-99065000D01*
G36*
X128640000Y-99065000D02*
G01*
X128310000Y-99305000D01*
X128310000Y-98825000D01*
X128640000Y-99065000D01*
G37*
%TO.C,U5*%
D19*
X142657500Y-106400000D02*
X142657500Y-106790000D01*
X142657500Y-113210000D02*
X142657500Y-113600000D01*
X142657500Y-113600000D02*
X143047500Y-113600000D01*
X143047500Y-106400000D02*
X142657500Y-106400000D01*
X149467500Y-113600000D02*
X149857500Y-113600000D01*
X149857500Y-106400000D02*
X149467500Y-106400000D01*
X149857500Y-106790000D02*
X149857500Y-106400000D01*
X149857500Y-113600000D02*
X149857500Y-113210000D01*
D20*
X140407500Y-107050000D02*
G75*
G02*
X140107500Y-107050000I-150000J0D01*
G01*
X140107500Y-107050000D02*
G75*
G02*
X140407500Y-107050000I150000J0D01*
G01*
%TO.C,J3*%
D18*
X128880000Y-88880000D02*
X154620000Y-88880000D01*
X128880000Y-92500000D02*
X130120000Y-92500000D01*
X128880000Y-93500000D02*
X130120000Y-93500000D01*
X128880000Y-94800000D02*
X130120000Y-94800000D01*
X128880000Y-96920000D02*
X128880000Y-88880000D01*
X131700000Y-96920000D02*
X128880000Y-96920000D01*
X133880000Y-92500000D02*
X135188000Y-92500000D01*
X133880000Y-93500000D02*
X135188000Y-93500000D01*
X133880000Y-94800000D02*
X136457000Y-94800000D01*
X137543000Y-94800000D02*
X141457000Y-94800000D01*
X138812000Y-92500000D02*
X140188000Y-92500000D01*
X138812000Y-93500000D02*
X140188000Y-93500000D01*
X142543000Y-94800000D02*
X146457000Y-94800000D01*
X143812000Y-92500000D02*
X145188000Y-92500000D01*
X143812000Y-93500000D02*
X145188000Y-93500000D01*
X147543000Y-94800000D02*
X151457000Y-94800000D01*
X148812000Y-92500000D02*
X150188000Y-92500000D01*
X148812000Y-93500000D02*
X150188000Y-93500000D01*
X152543000Y-94800000D02*
X154620000Y-94800000D01*
X153812000Y-92500000D02*
X154620000Y-92500000D01*
X153812000Y-93500000D02*
X154620000Y-93500000D01*
X154620000Y-88880000D02*
X154620000Y-96920000D01*
X154620000Y-96920000D02*
X132300000Y-96920000D01*
X132440000Y-97530000D02*
X131560000Y-97530000D01*
X132000000Y-96920000D01*
X132440000Y-97530000D01*
G36*
X132440000Y-97530000D02*
G01*
X131560000Y-97530000D01*
X132000000Y-96920000D01*
X132440000Y-97530000D01*
G37*
%TO.C,C23*%
X128538748Y-112590000D02*
X129961252Y-112590000D01*
X128538748Y-114410000D02*
X129961252Y-114410000D01*
%TO.C,C21*%
X130011252Y-103515000D02*
X129488748Y-103515000D01*
X130011252Y-104985000D02*
X129488748Y-104985000D01*
%TO.C,A6*%
X112260000Y-88710000D02*
X112260000Y-90110000D01*
X112260000Y-91380000D02*
X112260000Y-109290000D01*
X112260000Y-109290000D02*
X127760000Y-109290000D01*
X113660000Y-88710000D02*
X112260000Y-88710000D01*
X114930000Y-88710000D02*
X114930000Y-91380000D01*
X114930000Y-91380000D02*
X112260000Y-91380000D01*
X114930000Y-91380000D02*
X114930000Y-109290000D01*
X125090000Y-88710000D02*
X125090000Y-109290000D01*
X127760000Y-88710000D02*
X114930000Y-88710000D01*
X127760000Y-109290000D02*
X127760000Y-88710000D01*
%TO.C,U6*%
D22*
X128343600Y-108280100D02*
X128343600Y-108989810D01*
X128343600Y-110821590D02*
X128343600Y-111531300D01*
X128343600Y-111531300D02*
X128545618Y-111531300D01*
X128545618Y-108280100D02*
X128343600Y-108280100D01*
X130783182Y-111531300D02*
X130985200Y-111531300D01*
X130985200Y-108280100D02*
X130783182Y-108280100D01*
X130985200Y-108989810D02*
X130985200Y-108280100D01*
X130985200Y-111531300D02*
X130985200Y-110821590D01*
%TO.C,C20*%
D18*
X128761252Y-120765000D02*
X128238748Y-120765000D01*
X128761252Y-122235000D02*
X128238748Y-122235000D01*
%TO.C,SW3*%
D19*
X133505000Y-112100000D02*
X133505000Y-114400000D01*
X134300000Y-110255000D02*
X138800000Y-110255000D01*
X138800000Y-116245000D02*
X134200000Y-116245000D01*
X139500000Y-112100000D02*
X139500000Y-114400000D01*
D20*
X132155000Y-111000000D02*
G75*
G02*
X131955000Y-111000000I-100000J0D01*
G01*
X131955000Y-111000000D02*
G75*
G02*
X132155000Y-111000000I100000J0D01*
G01*
D19*
X138255000Y-113250000D02*
G75*
G02*
X134745000Y-113250000I-1755000J0D01*
G01*
X134745000Y-113250000D02*
G75*
G02*
X138255000Y-113250000I1755000J0D01*
G01*
%TO.C,D1*%
D18*
X123500000Y-115970000D02*
X123500000Y-116880000D01*
X123500000Y-127530000D02*
X123500000Y-126620000D01*
X126220000Y-118305000D02*
X120780000Y-118305000D01*
X126220000Y-118425000D02*
X120780000Y-118425000D01*
X126220000Y-118545000D02*
X120780000Y-118545000D01*
X120780000Y-116880000D02*
X126220000Y-116880000D01*
X126220000Y-126620000D01*
X120780000Y-126620000D01*
X120780000Y-116880000D01*
%TO.C,C2*%
X126765000Y-124761252D02*
X126765000Y-124238748D01*
X128235000Y-124761252D02*
X128235000Y-124238748D01*
%TD*%
M02*
