M48
; DRILL file KiCad 10.0.1 date 2026-06-07T15:34:14
; FORMAT={-:-/ absolute / metric / decimal}
; #@! TF.CreationDate,2026-06-07T15:34:14-04:00
; #@! TF.GenerationSoftware,Kicad,Pcbnew,10.0.1
; #@! TF.FileFunction,Plated,1,2,PTH
FMAT,2
METRIC
; #@! TA.AperFunction,Plated,PTH,ViaDrill
T1C0.300
; #@! TA.AperFunction,Plated,PTH,ComponentDrill
T2C0.600
; #@! TA.AperFunction,Plated,PTH,ComponentDrill
T3C0.800
; #@! TA.AperFunction,Plated,PTH,ComponentDrill
T4C1.000
; #@! TA.AperFunction,Plated,PTH,ComponentDrill
T5C1.020
; #@! TA.AperFunction,Plated,PTH,ComponentDrill
T6C1.300
; #@! TA.AperFunction,Plated,PTH,ComponentDrill
T7C1.600
; #@! TA.AperFunction,Plated,PTH,ComponentDrill
T8C2.700
; #@! TA.AperFunction,Plated,PTH,ComponentDrill
T9C3.200
%
G90
G05
T1
X142.5Y-71.5
X144.5Y-69.505
X146.177Y-72.823
X147.0Y-75.5
X147.088Y-93.292
X154.316Y-95.0
X155.0Y-86.0
X157.4Y-66.354
X157.9Y-71.024
X158.0Y-69.6
X162.401Y-69.6
X167.91Y-68.5
T3
X161.0Y-77.5
X166.0Y-77.5
T4
X147.5Y-101.868
X147.5Y-106.868
X158.5Y-101.868
X158.5Y-106.868
T5
X117.486Y-67.84
X117.486Y-70.38
X117.486Y-72.92
X117.486Y-75.46
X117.486Y-78.0
X117.486Y-80.54
X117.486Y-83.08
X117.486Y-85.62
X117.486Y-88.16
X117.486Y-90.7
X117.486Y-93.24
X117.486Y-95.78
X117.486Y-98.32
X117.486Y-100.86
X117.486Y-103.4
X117.486Y-105.94
X117.486Y-108.48
X117.486Y-111.02
X117.486Y-113.56
X117.486Y-116.1
X117.486Y-118.64
X117.486Y-121.18
X140.346Y-67.84
X140.346Y-70.38
X140.346Y-72.92
X140.346Y-75.46
X140.346Y-78.0
X140.346Y-80.54
X140.346Y-83.08
X140.346Y-85.62
X140.346Y-88.16
X140.346Y-90.7
X140.346Y-93.24
X140.346Y-95.78
X140.346Y-98.32
X140.346Y-100.86
X140.346Y-103.4
X140.346Y-105.94
X140.346Y-108.48
X140.346Y-111.02
X140.346Y-113.56
X140.346Y-116.1
X140.346Y-118.64
X140.346Y-121.18
T6
X145.75Y-63.467
X150.75Y-63.467
X155.75Y-63.467
X160.75Y-63.467
X165.75Y-63.467
T7
X144.38Y-96.0
X159.62Y-96.0
T8
X146.4Y-119.0
X153.6Y-119.0
T9
X165.0Y-116.0
X165.0Y-125.0
T2
G00X143.25Y-124.45
M15
G01X143.25Y-125.55
M16
G05
G00X156.75Y-124.45
M15
G01X156.75Y-125.55
M16
G05
M30
