%TF.GenerationSoftware,KiCad,Pcbnew,10.0.1*%
%TF.CreationDate,2026-06-07T15:34:10-04:00*%
%TF.ProjectId,maincontroller,6d61696e-636f-46e7-9472-6f6c6c65722e,rev?*%
%TF.SameCoordinates,Original*%
%TF.FileFunction,Copper,L1,Top*%
%TF.FilePolarity,Positive*%
%FSLAX46Y46*%
G04 Gerber Fmt 4.6, Leading zero omitted, Abs format (unit mm)*
G04 Created by KiCad (PCBNEW 10.0.1) date 2026-06-07 15:34:10*
%MOMM*%
%LPD*%
G01*
G04 APERTURE LIST*
G04 Aperture macros list*
%AMRoundRect*
0 Rectangle with rounded corners*
0 $1 Rounding radius*
0 $2 $3 $4 $5 $6 $7 $8 $9 X,Y pos of 4 corners*
0 Add a 4 corners polygon primitive as box body*
4,1,4,$2,$3,$4,$5,$6,$7,$8,$9,$2,$3,0*
0 Add four circle primitives for the rounded corners*
1,1,$1+$1,$2,$3*
1,1,$1+$1,$4,$5*
1,1,$1+$1,$6,$7*
1,1,$1+$1,$8,$9*
0 Add four rect primitives between the rounded corners*
20,1,$1+$1,$2,$3,$4,$5,0*
20,1,$1+$1,$4,$5,$6,$7,0*
20,1,$1+$1,$6,$7,$8,$9,0*
20,1,$1+$1,$8,$9,$2,$3,0*%
G04 Aperture macros list end*
%TA.AperFunction,ComponentPad*%
%ADD10R,3.716000X3.716000*%
%TD*%
%TA.AperFunction,ComponentPad*%
%ADD11C,3.716000*%
%TD*%
%TA.AperFunction,ComponentPad*%
%ADD12O,1.200000X2.400000*%
%TD*%
%TA.AperFunction,SMDPad,CuDef*%
%ADD13RoundRect,0.100000X-0.100000X0.217500X-0.100000X-0.217500X0.100000X-0.217500X0.100000X0.217500X0*%
%TD*%
%TA.AperFunction,SMDPad,CuDef*%
%ADD14RoundRect,0.250000X-0.650000X0.412500X-0.650000X-0.412500X0.650000X-0.412500X0.650000X0.412500X0*%
%TD*%
%TA.AperFunction,SMDPad,CuDef*%
%ADD15RoundRect,0.250000X0.337500X0.475000X-0.337500X0.475000X-0.337500X-0.475000X0.337500X-0.475000X0*%
%TD*%
%TA.AperFunction,SMDPad,CuDef*%
%ADD16RoundRect,0.250000X0.475000X-0.337500X0.475000X0.337500X-0.475000X0.337500X-0.475000X-0.337500X0*%
%TD*%
%TA.AperFunction,SMDPad,CuDef*%
%ADD17R,3.400000X1.000000*%
%TD*%
%TA.AperFunction,SMDPad,CuDef*%
%ADD18R,8.600000X10.700000*%
%TD*%
%TA.AperFunction,ComponentPad*%
%ADD19C,3.600000*%
%TD*%
%TA.AperFunction,ConnectorPad*%
%ADD20C,5.600000*%
%TD*%
%TA.AperFunction,ComponentPad*%
%ADD21C,1.600000*%
%TD*%
%TA.AperFunction,SMDPad,CuDef*%
%ADD22RoundRect,0.100000X-0.217500X-0.100000X0.217500X-0.100000X0.217500X0.100000X-0.217500X0.100000X0*%
%TD*%
%TA.AperFunction,ComponentPad*%
%ADD23R,1.530000X1.530000*%
%TD*%
%TA.AperFunction,ComponentPad*%
%ADD24C,1.530000*%
%TD*%
%TA.AperFunction,ComponentPad*%
%ADD25RoundRect,0.250000X0.750000X-0.750000X0.750000X0.750000X-0.750000X0.750000X-0.750000X-0.750000X0*%
%TD*%
%TA.AperFunction,ComponentPad*%
%ADD26C,2.000000*%
%TD*%
%TA.AperFunction,ComponentPad*%
%ADD27RoundRect,0.250000X1.350000X1.350000X-1.350000X1.350000X-1.350000X-1.350000X1.350000X-1.350000X0*%
%TD*%
%TA.AperFunction,ComponentPad*%
%ADD28C,3.200000*%
%TD*%
%TA.AperFunction,SMDPad,CuDef*%
%ADD29R,2.057400X4.902200*%
%TD*%
%TA.AperFunction,SMDPad,CuDef*%
%ADD30RoundRect,0.100000X-0.495000X-0.100000X0.495000X-0.100000X0.495000X0.100000X-0.495000X0.100000X0*%
%TD*%
%TA.AperFunction,SMDPad,CuDef*%
%ADD31RoundRect,0.250000X0.350000X0.450000X-0.350000X0.450000X-0.350000X-0.450000X0.350000X-0.450000X0*%
%TD*%
%TA.AperFunction,ComponentPad*%
%ADD32RoundRect,0.250001X-1.149999X-1.149999X1.149999X-1.149999X1.149999X1.149999X-1.149999X1.149999X0*%
%TD*%
%TA.AperFunction,ComponentPad*%
%ADD33C,2.800000*%
%TD*%
%TA.AperFunction,ViaPad*%
%ADD34C,0.600000*%
%TD*%
%TA.AperFunction,Conductor*%
%ADD35C,0.500000*%
%TD*%
%TA.AperFunction,Conductor*%
%ADD36C,0.200000*%
%TD*%
%TA.AperFunction,Conductor*%
%ADD37C,0.250000*%
%TD*%
G04 APERTURE END LIST*
D10*
%TO.P,J1,1,P_1*%
%TO.N,+19.5V*%
X146400000Y-119000000D03*
D11*
%TO.P,J1,2,N_2*%
%TO.N,GND*%
X153600000Y-119000000D03*
D12*
%TO.P,J1,SH1,SHIELD_SH1*%
%TO.N,unconnected-(J1-SHIELD-PadSH1)*%
X143250000Y-125000000D03*
%TO.P,J1,SH2,SHIELD_SH2*%
%TO.N,unconnected-(J1-SHIELD-PadSH1)_1*%
X156750000Y-125000000D03*
%TD*%
D13*
%TO.P,R3,1*%
%TO.N,Net-(U3-~{ON}{slash}OFF)*%
X160500000Y-84592500D03*
%TO.P,R3,2*%
%TO.N,GND*%
X160500000Y-85407500D03*
%TD*%
D14*
%TO.P,C16,1*%
%TO.N,+3.3V*%
X157000000Y-76187500D03*
%TO.P,C16,2*%
%TO.N,GND*%
X157000000Y-79312500D03*
%TD*%
D15*
%TO.P,C18,1*%
%TO.N,+3.3V*%
X158500000Y-73250000D03*
%TO.P,C18,2*%
%TO.N,GND*%
X156425000Y-73250000D03*
%TD*%
D16*
%TO.P,C14,1*%
%TO.N,+3.3V*%
X156500000Y-71037500D03*
%TO.P,C14,2*%
%TO.N,GND*%
X156500000Y-68962500D03*
%TD*%
D17*
%TO.P,U3,1,VIN_1*%
%TO.N,+19.5V*%
X157687500Y-90400000D03*
%TO.P,U3,2,OUT_2*%
%TO.N,Net-(D2-K)*%
X157687500Y-88700000D03*
%TO.P,U3,3,GND_3*%
%TO.N,GND*%
X157687500Y-87000000D03*
%TO.P,U3,4,FB_4*%
%TO.N,+3.3V*%
X157687500Y-85300000D03*
%TO.P,U3,5,~{ON}/OFF_5*%
%TO.N,Net-(U3-~{ON}{slash}OFF)*%
X157687500Y-83600000D03*
D18*
%TO.P,U3,6,GND_6*%
%TO.N,GND*%
X147087500Y-87000000D03*
%TD*%
D19*
%TO.P,REF\u002A\u002A,1*%
%TO.N,N/C*%
X165000000Y-116000000D03*
D20*
X165000000Y-116000000D03*
%TD*%
D14*
%TO.P,C10,1*%
%TO.N,+3.3V*%
X114500000Y-67437500D03*
%TO.P,C10,2*%
%TO.N,GND*%
X114500000Y-70562500D03*
%TD*%
D19*
%TO.P,REF\u002A\u002A,1*%
%TO.N,N/C*%
X165000000Y-125000000D03*
D20*
X165000000Y-125000000D03*
%TD*%
D21*
%TO.P,C11,1*%
%TO.N,+3.3V*%
X161000000Y-77500000D03*
%TO.P,C11,2*%
%TO.N,GND*%
X166000000Y-77500000D03*
%TD*%
D22*
%TO.P,C17,1*%
%TO.N,+19.5V*%
X167092500Y-68500000D03*
%TO.P,C17,2*%
%TO.N,GND*%
X167907500Y-68500000D03*
%TD*%
D23*
%TO.P,U2,J1_1,3V3_J1_1*%
%TO.N,+3.3V*%
X117486000Y-67840000D03*
D24*
%TO.P,U2,J1_2,3V3_J1_2*%
X117486000Y-70380000D03*
%TO.P,U2,J1_3,RST_J1_3*%
%TO.N,unconnected-(U2-RST-PadJ1_3)*%
X117486000Y-72920000D03*
%TO.P,U2,J1_4,GPIO4_J1_4*%
%TO.N,unconnected-(U2-GPIO4-PadJ1_4)*%
X117486000Y-75460000D03*
%TO.P,U2,J1_5,GPIO5_J1_5*%
%TO.N,unconnected-(U2-GPIO5-PadJ1_5)*%
X117486000Y-78000000D03*
%TO.P,U2,J1_6,GPIO6_J1_6*%
%TO.N,unconnected-(U2-GPIO6-PadJ1_6)*%
X117486000Y-80540000D03*
%TO.P,U2,J1_7,GPIO7_J1_7*%
%TO.N,unconnected-(U2-GPIO7-PadJ1_7)*%
X117486000Y-83080000D03*
%TO.P,U2,J1_8,GPIO15_J1_8*%
%TO.N,unconnected-(U2-GPIO15-PadJ1_8)*%
X117486000Y-85620000D03*
%TO.P,U2,J1_9,GPIO16_J1_9*%
%TO.N,unconnected-(U2-GPIO16-PadJ1_9)*%
X117486000Y-88160000D03*
%TO.P,U2,J1_10,GPIO17_J1_10*%
%TO.N,unconnected-(U2-GPIO17-PadJ1_10)*%
X117486000Y-90700000D03*
%TO.P,U2,J1_11,GPIO18_J1_11*%
%TO.N,unconnected-(U2-GPIO18-PadJ1_11)*%
X117486000Y-93240000D03*
%TO.P,U2,J1_12,GPIO8_J1_12*%
%TO.N,SDA*%
X117486000Y-95780000D03*
%TO.P,U2,J1_13,GPIO3_J1_13*%
%TO.N,unconnected-(U2-GPIO3-PadJ1_13)*%
X117486000Y-98320000D03*
%TO.P,U2,J1_14,GPIO46_J1_14*%
%TO.N,unconnected-(U2-GPIO46-PadJ1_14)*%
X117486000Y-100860000D03*
%TO.P,U2,J1_15,GPIO9_J1_15*%
%TO.N,SCL*%
X117486000Y-103400000D03*
%TO.P,U2,J1_16,GPIO10_J1_16*%
%TO.N,unconnected-(U2-GPIO10-PadJ1_16)*%
X117486000Y-105940000D03*
%TO.P,U2,J1_17,GPIO11_J1_17*%
%TO.N,unconnected-(U2-GPIO11-PadJ1_17)*%
X117486000Y-108480000D03*
%TO.P,U2,J1_18,GPIO12_J1_18*%
%TO.N,unconnected-(U2-GPIO12-PadJ1_18)*%
X117486000Y-111020000D03*
%TO.P,U2,J1_19,GPIO13_J1_19*%
%TO.N,unconnected-(U2-GPIO13-PadJ1_19)*%
X117486000Y-113560000D03*
%TO.P,U2,J1_20,GPIO14_J1_20*%
%TO.N,unconnected-(U2-GPIO14-PadJ1_20)*%
X117486000Y-116100000D03*
%TO.P,U2,J1_21,5V0_J1_21*%
%TO.N,unconnected-(U2-5V0-PadJ1_21)*%
X117486000Y-118640000D03*
%TO.P,U2,J1_22,GND_J1_22*%
%TO.N,GND*%
X117486000Y-121180000D03*
%TO.P,U2,J3_1,GND_J3_1*%
X140346000Y-67840000D03*
%TO.P,U2,J3_2,U0TXD/GPIO43_J3_2*%
%TO.N,unconnected-(U2-U0TXD{slash}GPIO43-PadJ3_2)*%
X140346000Y-70380000D03*
%TO.P,U2,J3_3,U0RXD/GPIO44_J3_3*%
%TO.N,unconnected-(U2-U0RXD{slash}GPIO44-PadJ3_3)*%
X140346000Y-72920000D03*
%TO.P,U2,J3_4,GPIO1_J3_4*%
%TO.N,unconnected-(U2-GPIO1-PadJ3_4)*%
X140346000Y-75460000D03*
%TO.P,U2,J3_5,GPIO2_J3_5*%
%TO.N,unconnected-(U2-GPIO2-PadJ3_5)*%
X140346000Y-78000000D03*
%TO.P,U2,J3_6,MTMS/GPIO42_J3_6*%
%TO.N,unconnected-(U2-MTMS{slash}GPIO42-PadJ3_6)*%
X140346000Y-80540000D03*
%TO.P,U2,J3_7,MTDI/GPIO41_J3_7*%
%TO.N,unconnected-(U2-MTDI{slash}GPIO41-PadJ3_7)*%
X140346000Y-83080000D03*
%TO.P,U2,J3_8,MTDO/GPIO40_J3_8*%
%TO.N,unconnected-(U2-MTDO{slash}GPIO40-PadJ3_8)*%
X140346000Y-85620000D03*
%TO.P,U2,J3_9,MTCK/GPIO39_J3_9*%
%TO.N,unconnected-(U2-MTCK{slash}GPIO39-PadJ3_9)*%
X140346000Y-88160000D03*
%TO.P,U2,J3_10,GPIO38_J3_10*%
%TO.N,unconnected-(U2-GPIO38-PadJ3_10)*%
X140346000Y-90700000D03*
%TO.P,U2,J3_11,GPIO37_J3_11*%
%TO.N,unconnected-(U2-GPIO37-PadJ3_11)*%
X140346000Y-93240000D03*
%TO.P,U2,J3_12,GPIO36_J3_12*%
%TO.N,unconnected-(U2-GPIO36-PadJ3_12)*%
X140346000Y-95780000D03*
%TO.P,U2,J3_13,GPIO35_J3_13*%
%TO.N,unconnected-(U2-GPIO35-PadJ3_13)*%
X140346000Y-98320000D03*
%TO.P,U2,J3_14,GPIO0_J3_14*%
%TO.N,unconnected-(U2-GPIO0-PadJ3_14)*%
X140346000Y-100860000D03*
%TO.P,U2,J3_15,GPIO45_J3_15*%
%TO.N,unconnected-(U2-GPIO45-PadJ3_15)*%
X140346000Y-103400000D03*
%TO.P,U2,J3_16,GPIO48_J3_16*%
%TO.N,unconnected-(U2-GPIO48-PadJ3_16)*%
X140346000Y-105940000D03*
%TO.P,U2,J3_17,GPIO47_J3_17*%
%TO.N,unconnected-(U2-GPIO47-PadJ3_17)*%
X140346000Y-108480000D03*
%TO.P,U2,J3_18,GPIO21_J3_18*%
%TO.N,unconnected-(U2-GPIO21-PadJ3_18)*%
X140346000Y-111020000D03*
%TO.P,U2,J3_19,USB_D+/GPIO20_J3_19*%
%TO.N,unconnected-(U2-USB_D+{slash}GPIO20-PadJ3_19)*%
X140346000Y-113560000D03*
%TO.P,U2,J3_20,USB_D-/GPIO19_J3_20*%
%TO.N,unconnected-(U2-USB_D-{slash}GPIO19-PadJ3_20)*%
X140346000Y-116100000D03*
%TO.P,U2,J3_21,GND_J3_21*%
%TO.N,GND*%
X140346000Y-118640000D03*
%TO.P,U2,J3_22,GND_J3_22*%
X140346000Y-121180000D03*
%TD*%
D25*
%TO.P,C15,1*%
%TO.N,+19.5V*%
X147500000Y-106867677D03*
D26*
%TO.P,C15,2*%
%TO.N,GND*%
X147500000Y-101867677D03*
%TD*%
D27*
%TO.P,D2,1,K_1*%
%TO.N,Net-(D2-K)*%
X159620000Y-96000000D03*
D28*
%TO.P,D2,2,A_2*%
%TO.N,GND*%
X144380000Y-96000000D03*
%TD*%
D29*
%TO.P,L2,1,1_1*%
%TO.N,Net-(D2-K)*%
X143780300Y-74500000D03*
%TO.P,L2,2,2_2*%
%TO.N,+3.3V*%
X154219700Y-74500000D03*
%TD*%
D30*
%TO.P,U4,1,VCC_1*%
%TO.N,+3.3V*%
X159540000Y-69000000D03*
%TO.P,U4,2,GND_2*%
%TO.N,GND*%
X159540000Y-69650000D03*
%TO.P,U4,3,ENABLE_3*%
%TO.N,+3.3V*%
X159540000Y-70300000D03*
%TO.P,U4,4,BUS2_4*%
%TO.N,SDA*%
X161460000Y-70300000D03*
%TO.P,U4,5,GND_5*%
%TO.N,GND*%
X161460000Y-69650000D03*
%TO.P,U4,6,BUS1_6*%
%TO.N,SCL*%
X161460000Y-69000000D03*
%TD*%
D31*
%TO.P,R2,1*%
%TO.N,+3.3V*%
X165500000Y-71000000D03*
%TO.P,R2,2*%
%TO.N,SDA*%
X163500000Y-71000000D03*
%TD*%
D32*
%TO.P,J2,1,Pin_1_1*%
%TO.N,GND*%
X145750000Y-63467500D03*
D33*
%TO.P,J2,2,Pin_2_2*%
%TO.N,SDA*%
X150750000Y-63467500D03*
%TO.P,J2,3,Pin_3_3*%
%TO.N,SCL*%
X155750000Y-63467500D03*
%TO.P,J2,4,Pin_4_4*%
%TO.N,+3.3V*%
X160750000Y-63467500D03*
%TO.P,J2,5,Pin_5_5*%
%TO.N,+19.5V*%
X165750000Y-63467500D03*
%TD*%
D14*
%TO.P,C1,1*%
%TO.N,+19.5V*%
X159500000Y-111937500D03*
%TO.P,C1,2*%
%TO.N,GND*%
X159500000Y-115062500D03*
%TD*%
D25*
%TO.P,C12,1*%
%TO.N,+19.5V*%
X158500000Y-106867677D03*
D26*
%TO.P,C12,2*%
%TO.N,GND*%
X158500000Y-101867677D03*
%TD*%
D31*
%TO.P,R1,1*%
%TO.N,+3.3V*%
X165500000Y-69000000D03*
%TO.P,R1,2*%
%TO.N,SCL*%
X163500000Y-69000000D03*
%TD*%
D34*
%TO.N,GND*%
X162400875Y-69600000D03*
X155000000Y-86000000D03*
X158000000Y-69600000D03*
X167910000Y-68500000D03*
X154316161Y-95000000D03*
X157900001Y-71024388D03*
X147087500Y-93292500D03*
%TO.N,+3.3V*%
X157400271Y-66354485D03*
%TO.N,SDA*%
X142500000Y-71500000D03*
X144500000Y-69505000D03*
%TO.N,SCL*%
X146177265Y-72822735D03*
X147000000Y-75500000D03*
%TD*%
%TO.N,+19.5V*%
D35*
X164000000Y-90852500D02*
X164000000Y-76000000D01*
X161670000Y-93182500D02*
X158887500Y-90400000D01*
X158500000Y-106867677D02*
X158500000Y-110937500D01*
X147500000Y-106867677D02*
X146400000Y-107967677D01*
X158500000Y-106867677D02*
X161670000Y-103697677D01*
X165750000Y-67157500D02*
X165750000Y-63467500D01*
X167092500Y-68500000D02*
X165750000Y-67157500D01*
X164000000Y-76000000D02*
X167092500Y-72907500D01*
X167092500Y-72907500D02*
X167092500Y-68500000D01*
X146400000Y-107967677D02*
X146400000Y-119000000D01*
X161670000Y-103697677D02*
X161670000Y-93182500D01*
X158887500Y-90400000D02*
X157687500Y-90400000D01*
X158500000Y-110937500D02*
X159500000Y-111937500D01*
X161670000Y-93182500D02*
X164000000Y-90852500D01*
X147500000Y-106867677D02*
X158500000Y-106867677D01*
%TO.N,GND*%
D36*
X158907500Y-87000000D02*
X157687500Y-87000000D01*
X157937500Y-69662500D02*
X158000000Y-69600000D01*
X137673500Y-65167500D02*
X140346000Y-67840000D01*
X161460000Y-69650000D02*
X162350875Y-69650000D01*
X159527500Y-69662500D02*
X159540000Y-69650000D01*
X155500000Y-86012500D02*
X155500000Y-86000000D01*
X157900001Y-72099999D02*
X156750000Y-73250000D01*
X114922756Y-65167500D02*
X137673500Y-65167500D01*
X158250000Y-78062500D02*
X158250000Y-75250000D01*
X157000000Y-79312500D02*
X158250000Y-78062500D01*
X167907500Y-75592500D02*
X167907500Y-68500000D01*
D35*
X157537500Y-115062500D02*
X159500000Y-115062500D01*
D36*
X157362500Y-68962500D02*
X158000000Y-69600000D01*
X157687500Y-87000000D02*
X159000000Y-87000000D01*
X156487500Y-87000000D02*
X155500000Y-86012500D01*
X162350875Y-69650000D02*
X162400875Y-69600000D01*
X157687500Y-87000000D02*
X156487500Y-87000000D01*
X155500000Y-86000000D02*
X155000000Y-86000000D01*
D35*
X153600000Y-119000000D02*
X157537500Y-115062500D01*
D36*
X159500000Y-72250000D02*
X158274388Y-71024388D01*
X158250000Y-75250000D02*
X159500000Y-74000000D01*
X160500000Y-85407500D02*
X158907500Y-87000000D01*
X159500000Y-74000000D02*
X159500000Y-72250000D01*
X113300000Y-69362500D02*
X113300000Y-66790256D01*
X159540000Y-69650000D02*
X158050000Y-69650000D01*
X156750000Y-73250000D02*
X156425000Y-73250000D01*
X114500000Y-70562500D02*
X113300000Y-69362500D01*
X158274388Y-71024388D02*
X157900001Y-71024388D01*
X157900001Y-71024388D02*
X157900001Y-72099999D01*
X147087500Y-93292500D02*
X144380000Y-96000000D01*
X113300000Y-66790256D02*
X114922756Y-65167500D01*
X156500000Y-68962500D02*
X157362500Y-68962500D01*
X158050000Y-69650000D02*
X158000000Y-69600000D01*
X156342590Y-69000000D02*
X156050000Y-69292590D01*
X147087500Y-93292500D02*
X147087500Y-87000000D01*
X166000000Y-77500000D02*
X167907500Y-75592500D01*
X167910000Y-68500000D02*
X167907500Y-68500000D01*
%TO.N,Net-(U3-~{ON}{slash}OFF)*%
X157687500Y-83600000D02*
X159507500Y-83600000D01*
X159507500Y-83600000D02*
X160500000Y-84592500D01*
%TO.N,+3.3V*%
X118551000Y-68905000D02*
X148624700Y-68905000D01*
X155679756Y-68075000D02*
X154219700Y-69535056D01*
X157000000Y-76187500D02*
X155907200Y-76187500D01*
X165500000Y-68217500D02*
X160750000Y-63467500D01*
X159540000Y-70300000D02*
X157237500Y-70300000D01*
X154219700Y-73317800D02*
X154219700Y-74500000D01*
X155907200Y-76187500D02*
X154219700Y-74500000D01*
X117083500Y-67437500D02*
X117486000Y-67840000D01*
X114500000Y-67437500D02*
X117083500Y-67437500D01*
X158615000Y-68075000D02*
X159540000Y-69000000D01*
X117486000Y-67840000D02*
X118551000Y-68905000D01*
X161000000Y-77500000D02*
X156750000Y-81750000D01*
X155679756Y-68075000D02*
X158615000Y-68075000D01*
X154219700Y-81750000D02*
X154219700Y-74500000D01*
X157400271Y-66354485D02*
X155679756Y-68075000D01*
X117486000Y-70380000D02*
X118551000Y-69315000D01*
X156500000Y-71037500D02*
X154219700Y-73317800D01*
X156300000Y-85300000D02*
X154219700Y-83219700D01*
X165500000Y-71000000D02*
X165500000Y-69000000D01*
X156750000Y-81750000D02*
X154219700Y-81750000D01*
X154219700Y-83219700D02*
X154219700Y-74500000D01*
X157250000Y-74500000D02*
X154219700Y-74500000D01*
X158500000Y-73250000D02*
X157250000Y-74500000D01*
X118551000Y-69315000D02*
X118551000Y-68905000D01*
X154219700Y-74500000D02*
X154219700Y-69535056D01*
X165500000Y-69000000D02*
X165500000Y-68217500D01*
X157687500Y-85300000D02*
X156300000Y-85300000D01*
X157237500Y-70300000D02*
X156500000Y-71037500D01*
D37*
X160162500Y-64055000D02*
X160750000Y-63467500D01*
D36*
X148624700Y-68905000D02*
X154219700Y-74500000D01*
%TO.N,Net-(D2-K)*%
X151687500Y-81178500D02*
X145009000Y-74500000D01*
X145009000Y-74500000D02*
X143780300Y-74500000D01*
X159620000Y-96000000D02*
X155687500Y-92067500D01*
X155687500Y-92067500D02*
X155687500Y-89500000D01*
X151687500Y-83900000D02*
X151687500Y-81178500D01*
X155687500Y-89500000D02*
X156487500Y-88700000D01*
X156487500Y-88700000D02*
X151687500Y-83900000D01*
X156487500Y-88700000D02*
X157687500Y-88700000D01*
%TO.N,SDA*%
X160816544Y-70300000D02*
X160435000Y-69918456D01*
X144500000Y-69500000D02*
X142500000Y-71500000D01*
X152782500Y-65500000D02*
X150750000Y-63467500D01*
X160435000Y-69918456D02*
X160435000Y-68540686D01*
X161460000Y-70300000D02*
X160816544Y-70300000D01*
X144500000Y-69505000D02*
X144500000Y-69500000D01*
X157394314Y-65500000D02*
X152782500Y-65500000D01*
X160435000Y-68540686D02*
X157394314Y-65500000D01*
X163500000Y-71000000D02*
X162160000Y-71000000D01*
X162160000Y-71000000D02*
X161460000Y-70300000D01*
%TO.N,SCL*%
X161460000Y-69000000D02*
X155927500Y-63467500D01*
X163500000Y-69000000D02*
X161460000Y-69000000D01*
X147000000Y-73645470D02*
X146177265Y-72822735D01*
X147000000Y-75500000D02*
X147000000Y-73645470D01*
X155927500Y-63467500D02*
X155750000Y-63467500D01*
%TD*%
M02*
