%TF.GenerationSoftware,KiCad,Pcbnew,10.0.1*%
%TF.CreationDate,2026-06-07T15:20:16-04:00*%
%TF.ProjectId,maincontroller,6d61696e-636f-46e7-9472-6f6c6c65722e,rev?*%
%TF.SameCoordinates,Original*%
%TF.FileFunction,Paste,Top*%
%TF.FilePolarity,Positive*%
%FSLAX46Y46*%
G04 Gerber Fmt 4.6, Leading zero omitted, Abs format (unit mm)*
G04 Created by KiCad (PCBNEW 10.0.1) date 2026-06-07 15:20:16*
%MOMM*%
%LPD*%
G01*
G04 APERTURE LIST*
G04 Aperture macros list*
%AMRoundRect*
0 Rectangle with rounded corners*
0 $1 Rounding radius*
0 $2 $3 $4 $5 $6 $7 $8 $9 X,Y pos of 4 corners*
0 Add a 4 corners polygon primitive as box body*
4,1,4,$2,$3,$4,$5,$6,$7,$8,$9,$2,$3,0*
0 Add four circle primitives for the rounded corners*
1,1,$1+$1,$2,$3*
1,1,$1+$1,$4,$5*
1,1,$1+$1,$6,$7*
1,1,$1+$1,$8,$9*
0 Add four rect primitives between the rounded corners*
20,1,$1+$1,$2,$3,$4,$5,0*
20,1,$1+$1,$4,$5,$6,$7,0*
20,1,$1+$1,$6,$7,$8,$9,0*
20,1,$1+$1,$8,$9,$2,$3,0*%
G04 Aperture macros list end*
%ADD10C,0.010000*%
%ADD11RoundRect,0.090000X-0.090000X0.139000X-0.090000X-0.139000X0.090000X-0.139000X0.090000X0.139000X0*%
%ADD12RoundRect,0.250000X0.650000X-0.412500X0.650000X0.412500X-0.650000X0.412500X-0.650000X-0.412500X0*%
%ADD13RoundRect,0.067500X0.067500X-0.137500X0.067500X0.137500X-0.067500X0.137500X-0.067500X-0.137500X0*%
%ADD14RoundRect,0.250000X-0.650000X0.412500X-0.650000X-0.412500X0.650000X-0.412500X0.650000X0.412500X0*%
%ADD15RoundRect,0.090000X-0.139000X-0.090000X0.139000X-0.090000X0.139000X0.090000X-0.139000X0.090000X0*%
%ADD16R,2.057400X4.902200*%
%ADD17RoundRect,0.100000X-0.495000X-0.100000X0.495000X-0.100000X0.495000X0.100000X-0.495000X0.100000X0*%
%ADD18RoundRect,0.250000X0.350000X0.450000X-0.350000X0.450000X-0.350000X-0.450000X0.350000X-0.450000X0*%
G04 APERTURE END LIST*
D10*
%TO.C,U3*%
X151337500Y-92300000D02*
X142837500Y-92300000D01*
X142837500Y-81700000D01*
X151337500Y-81700000D01*
X151337500Y-92300000D01*
G36*
X151337500Y-92300000D02*
G01*
X142837500Y-92300000D01*
X142837500Y-81700000D01*
X151337500Y-81700000D01*
X151337500Y-92300000D01*
G37*
X159337500Y-84050000D02*
X156037500Y-84050000D01*
X156037500Y-83150000D01*
X159337500Y-83150000D01*
X159337500Y-84050000D01*
G36*
X159337500Y-84050000D02*
G01*
X156037500Y-84050000D01*
X156037500Y-83150000D01*
X159337500Y-83150000D01*
X159337500Y-84050000D01*
G37*
X159337500Y-85750000D02*
X156037500Y-85750000D01*
X156037500Y-84850000D01*
X159337500Y-84850000D01*
X159337500Y-85750000D01*
G36*
X159337500Y-85750000D02*
G01*
X156037500Y-85750000D01*
X156037500Y-84850000D01*
X159337500Y-84850000D01*
X159337500Y-85750000D01*
G37*
X159337500Y-87450000D02*
X156037500Y-87450000D01*
X156037500Y-86550000D01*
X159337500Y-86550000D01*
X159337500Y-87450000D01*
G36*
X159337500Y-87450000D02*
G01*
X156037500Y-87450000D01*
X156037500Y-86550000D01*
X159337500Y-86550000D01*
X159337500Y-87450000D01*
G37*
X159337500Y-89150000D02*
X156037500Y-89150000D01*
X156037500Y-88250000D01*
X159337500Y-88250000D01*
X159337500Y-89150000D01*
G36*
X159337500Y-89150000D02*
G01*
X156037500Y-89150000D01*
X156037500Y-88250000D01*
X159337500Y-88250000D01*
X159337500Y-89150000D01*
G37*
X159337500Y-90850000D02*
X156037500Y-90850000D01*
X156037500Y-89950000D01*
X159337500Y-89950000D01*
X159337500Y-90850000D01*
G36*
X159337500Y-90850000D02*
G01*
X156037500Y-90850000D01*
X156037500Y-89950000D01*
X159337500Y-89950000D01*
X159337500Y-90850000D01*
G37*
%TD*%
D11*
%TO.C,R3*%
X160500000Y-84567500D03*
X160500000Y-85432500D03*
%TD*%
D12*
%TO.C,C16*%
X157000000Y-75062500D03*
X157000000Y-71937500D03*
%TD*%
D13*
%TO.C,C18*%
X157500000Y-70362500D03*
X157500000Y-69637500D03*
%TD*%
%TO.C,C14*%
X156500000Y-70362500D03*
X156500000Y-69637500D03*
%TD*%
D14*
%TO.C,C10*%
X114500000Y-67437500D03*
X114500000Y-70562500D03*
%TD*%
D15*
%TO.C,C17*%
X167067500Y-68500000D03*
X167932500Y-68500000D03*
%TD*%
D16*
%TO.C,L2*%
X143780300Y-74500000D03*
X154219700Y-74500000D03*
%TD*%
D17*
%TO.C,U4*%
X159540000Y-69000000D03*
X159540000Y-69650000D03*
X159540000Y-70300000D03*
X161460000Y-70300000D03*
X161460000Y-69650000D03*
X161460000Y-69000000D03*
%TD*%
D18*
%TO.C,R2*%
X165500000Y-71000000D03*
X163500000Y-71000000D03*
%TD*%
D14*
%TO.C,C1*%
X159500000Y-111937500D03*
X159500000Y-115062500D03*
%TD*%
D18*
%TO.C,R1*%
X165500000Y-69000000D03*
X163500000Y-69000000D03*
%TD*%
M02*
