%TF.GenerationSoftware,KiCad,Pcbnew,10.0.1*%
%TF.CreationDate,2026-06-07T15:34:14-04:00*%
%TF.ProjectId,maincontroller,6d61696e-636f-46e7-9472-6f6c6c65722e,rev?*%
%TF.SameCoordinates,Original*%
%TF.FileFunction,Drillmap*%
%TF.FilePolarity,Positive*%
%FSLAX45Y45*%
G04 Gerber Fmt 4.5, Leading zero omitted, Abs format (unit mm)*
G04 Created by KiCad (PCBNEW 10.0.1) date 2026-06-07 15:34:14*
%MOMM*%
%LPD*%
G01*
G04 APERTURE LIST*
%ADD10C,0.050000*%
%ADD11C,0.200000*%
%ADD12C,0.100000*%
%ADD13C,0.102000*%
%ADD14C,0.130000*%
%ADD15C,0.160000*%
%ADD16C,0.270000*%
%ADD17C,0.320000*%
G04 APERTURE END LIST*
D10*
X11300000Y-6150000D02*
X11300000Y-6150000D01*
G75*
G02*
X11600000Y-5850000I300000J0D01*
G01*
X16600000Y-5850000D01*
G75*
G02*
X16900000Y-6150000I0J-300000D01*
G01*
X16900000Y-12650000D01*
G75*
G02*
X16600000Y-12950000I-300000J0D01*
G01*
X11600000Y-12950000D01*
G75*
G02*
X11300000Y-12650000I0J300000D01*
G01*
X11300000Y-6150000D01*
X16600000Y-5850000D02*
X16900000Y-5850000D01*
X16900000Y-6150000D01*
X16600000Y-6150000D01*
X16600000Y-5850000D01*
D11*
D12*
X14235000Y-7135000D02*
X14265000Y-7165000D01*
X14265000Y-7135000D02*
X14235000Y-7165000D01*
X14435000Y-6935500D02*
X14465000Y-6965500D01*
X14465000Y-6935500D02*
X14435000Y-6965500D01*
X14602726Y-7267273D02*
X14632726Y-7297273D01*
X14632726Y-7267273D02*
X14602726Y-7297273D01*
X14685000Y-7535000D02*
X14715000Y-7565000D01*
X14715000Y-7535000D02*
X14685000Y-7565000D01*
X14693750Y-9314250D02*
X14723750Y-9344250D01*
X14723750Y-9314250D02*
X14693750Y-9344250D01*
X15416616Y-9485000D02*
X15446616Y-9515000D01*
X15446616Y-9485000D02*
X15416616Y-9515000D01*
X15485000Y-8585000D02*
X15515000Y-8615000D01*
X15515000Y-8585000D02*
X15485000Y-8615000D01*
X15725027Y-6620448D02*
X15755027Y-6650448D01*
X15755027Y-6620448D02*
X15725027Y-6650448D01*
X15775000Y-7087439D02*
X15805000Y-7117439D01*
X15805000Y-7087439D02*
X15775000Y-7117439D01*
X15785000Y-6945000D02*
X15815000Y-6975000D01*
X15815000Y-6945000D02*
X15785000Y-6975000D01*
X16225087Y-6945000D02*
X16255087Y-6975000D01*
X16255087Y-6945000D02*
X16225087Y-6975000D01*
X16776000Y-6835000D02*
X16806000Y-6865000D01*
X16806000Y-6835000D02*
X16776000Y-6865000D01*
X14355000Y-12500000D02*
G75*
G02*
X14295000Y-12500000I-30000J0D01*
G01*
X14295000Y-12500000D02*
G75*
G02*
X14355000Y-12500000I30000J0D01*
G01*
X14295000Y-12445000D02*
X14295000Y-12555000D01*
X14355000Y-12555000D02*
G75*
G02*
X14295000Y-12555000I-30000J0D01*
G01*
X14355000Y-12555000D02*
X14355000Y-12445000D01*
X14355000Y-12445000D02*
G75*
G03*
X14295000Y-12445000I-30000J0D01*
G01*
X15705000Y-12500000D02*
G75*
G02*
X15645000Y-12500000I-30000J0D01*
G01*
X15645000Y-12500000D02*
G75*
G02*
X15705000Y-12500000I30000J0D01*
G01*
X15645000Y-12445000D02*
X15645000Y-12555000D01*
X15705000Y-12555000D02*
G75*
G02*
X15645000Y-12555000I-30000J0D01*
G01*
X15705000Y-12555000D02*
X15705000Y-12445000D01*
X15705000Y-12445000D02*
G75*
G03*
X15645000Y-12445000I-30000J0D01*
G01*
X16100000Y-7710000D02*
X16100000Y-7790000D01*
X16060000Y-7750000D02*
X16140000Y-7750000D01*
X16600000Y-7710000D02*
X16600000Y-7790000D01*
X16560000Y-7750000D02*
X16640000Y-7750000D01*
X14785356Y-10222123D02*
X14785356Y-10151412D01*
X14714644Y-10151412D01*
X14714644Y-10222123D01*
X14785356Y-10222123D01*
X14785356Y-10722123D02*
X14785356Y-10651412D01*
X14714644Y-10651412D01*
X14714644Y-10722123D01*
X14785356Y-10722123D01*
X15885356Y-10222123D02*
X15885356Y-10151412D01*
X15814644Y-10151412D01*
X15814644Y-10222123D01*
X15885356Y-10222123D01*
X15885356Y-10722123D02*
X15885356Y-10651412D01*
X15814644Y-10651412D01*
X15814644Y-10722123D01*
X15885356Y-10722123D01*
D13*
X11748600Y-6835000D02*
X11799600Y-6784000D01*
X11748600Y-6733000D01*
X11697600Y-6784000D01*
X11748600Y-6835000D01*
X11748600Y-7089000D02*
X11799600Y-7038000D01*
X11748600Y-6987000D01*
X11697600Y-7038000D01*
X11748600Y-7089000D01*
X11748600Y-7343000D02*
X11799600Y-7292000D01*
X11748600Y-7241000D01*
X11697600Y-7292000D01*
X11748600Y-7343000D01*
X11748600Y-7597000D02*
X11799600Y-7546000D01*
X11748600Y-7495000D01*
X11697600Y-7546000D01*
X11748600Y-7597000D01*
X11748600Y-7851000D02*
X11799600Y-7800000D01*
X11748600Y-7749000D01*
X11697600Y-7800000D01*
X11748600Y-7851000D01*
X11748600Y-8105000D02*
X11799600Y-8054000D01*
X11748600Y-8003000D01*
X11697600Y-8054000D01*
X11748600Y-8105000D01*
X11748600Y-8359000D02*
X11799600Y-8308000D01*
X11748600Y-8257000D01*
X11697600Y-8308000D01*
X11748600Y-8359000D01*
X11748600Y-8613000D02*
X11799600Y-8562000D01*
X11748600Y-8511000D01*
X11697600Y-8562000D01*
X11748600Y-8613000D01*
X11748600Y-8867000D02*
X11799600Y-8816000D01*
X11748600Y-8765000D01*
X11697600Y-8816000D01*
X11748600Y-8867000D01*
X11748600Y-9121000D02*
X11799600Y-9070000D01*
X11748600Y-9019000D01*
X11697600Y-9070000D01*
X11748600Y-9121000D01*
X11748600Y-9375000D02*
X11799600Y-9324000D01*
X11748600Y-9273000D01*
X11697600Y-9324000D01*
X11748600Y-9375000D01*
X11748600Y-9629000D02*
X11799600Y-9578000D01*
X11748600Y-9527000D01*
X11697600Y-9578000D01*
X11748600Y-9629000D01*
X11748600Y-9883000D02*
X11799600Y-9832000D01*
X11748600Y-9781000D01*
X11697600Y-9832000D01*
X11748600Y-9883000D01*
X11748600Y-10137000D02*
X11799600Y-10086000D01*
X11748600Y-10035000D01*
X11697600Y-10086000D01*
X11748600Y-10137000D01*
X11748600Y-10391000D02*
X11799600Y-10340000D01*
X11748600Y-10289000D01*
X11697600Y-10340000D01*
X11748600Y-10391000D01*
X11748600Y-10645000D02*
X11799600Y-10594000D01*
X11748600Y-10543000D01*
X11697600Y-10594000D01*
X11748600Y-10645000D01*
X11748600Y-10899000D02*
X11799600Y-10848000D01*
X11748600Y-10797000D01*
X11697600Y-10848000D01*
X11748600Y-10899000D01*
X11748600Y-11153000D02*
X11799600Y-11102000D01*
X11748600Y-11051000D01*
X11697600Y-11102000D01*
X11748600Y-11153000D01*
X11748600Y-11407000D02*
X11799600Y-11356000D01*
X11748600Y-11305000D01*
X11697600Y-11356000D01*
X11748600Y-11407000D01*
X11748600Y-11661000D02*
X11799600Y-11610000D01*
X11748600Y-11559000D01*
X11697600Y-11610000D01*
X11748600Y-11661000D01*
X11748600Y-11915000D02*
X11799600Y-11864000D01*
X11748600Y-11813000D01*
X11697600Y-11864000D01*
X11748600Y-11915000D01*
X11748600Y-12169000D02*
X11799600Y-12118000D01*
X11748600Y-12067000D01*
X11697600Y-12118000D01*
X11748600Y-12169000D01*
X14034600Y-6835000D02*
X14085600Y-6784000D01*
X14034600Y-6733000D01*
X13983600Y-6784000D01*
X14034600Y-6835000D01*
X14034600Y-7089000D02*
X14085600Y-7038000D01*
X14034600Y-6987000D01*
X13983600Y-7038000D01*
X14034600Y-7089000D01*
X14034600Y-7343000D02*
X14085600Y-7292000D01*
X14034600Y-7241000D01*
X13983600Y-7292000D01*
X14034600Y-7343000D01*
X14034600Y-7597000D02*
X14085600Y-7546000D01*
X14034600Y-7495000D01*
X13983600Y-7546000D01*
X14034600Y-7597000D01*
X14034600Y-7851000D02*
X14085600Y-7800000D01*
X14034600Y-7749000D01*
X13983600Y-7800000D01*
X14034600Y-7851000D01*
X14034600Y-8105000D02*
X14085600Y-8054000D01*
X14034600Y-8003000D01*
X13983600Y-8054000D01*
X14034600Y-8105000D01*
X14034600Y-8359000D02*
X14085600Y-8308000D01*
X14034600Y-8257000D01*
X13983600Y-8308000D01*
X14034600Y-8359000D01*
X14034600Y-8613000D02*
X14085600Y-8562000D01*
X14034600Y-8511000D01*
X13983600Y-8562000D01*
X14034600Y-8613000D01*
X14034600Y-8867000D02*
X14085600Y-8816000D01*
X14034600Y-8765000D01*
X13983600Y-8816000D01*
X14034600Y-8867000D01*
X14034600Y-9121000D02*
X14085600Y-9070000D01*
X14034600Y-9019000D01*
X13983600Y-9070000D01*
X14034600Y-9121000D01*
X14034600Y-9375000D02*
X14085600Y-9324000D01*
X14034600Y-9273000D01*
X13983600Y-9324000D01*
X14034600Y-9375000D01*
X14034600Y-9629000D02*
X14085600Y-9578000D01*
X14034600Y-9527000D01*
X13983600Y-9578000D01*
X14034600Y-9629000D01*
X14034600Y-9883000D02*
X14085600Y-9832000D01*
X14034600Y-9781000D01*
X13983600Y-9832000D01*
X14034600Y-9883000D01*
X14034600Y-10137000D02*
X14085600Y-10086000D01*
X14034600Y-10035000D01*
X13983600Y-10086000D01*
X14034600Y-10137000D01*
X14034600Y-10391000D02*
X14085600Y-10340000D01*
X14034600Y-10289000D01*
X13983600Y-10340000D01*
X14034600Y-10391000D01*
X14034600Y-10645000D02*
X14085600Y-10594000D01*
X14034600Y-10543000D01*
X13983600Y-10594000D01*
X14034600Y-10645000D01*
X14034600Y-10899000D02*
X14085600Y-10848000D01*
X14034600Y-10797000D01*
X13983600Y-10848000D01*
X14034600Y-10899000D01*
X14034600Y-11153000D02*
X14085600Y-11102000D01*
X14034600Y-11051000D01*
X13983600Y-11102000D01*
X14034600Y-11153000D01*
X14034600Y-11407000D02*
X14085600Y-11356000D01*
X14034600Y-11305000D01*
X13983600Y-11356000D01*
X14034600Y-11407000D01*
X14034600Y-11661000D02*
X14085600Y-11610000D01*
X14034600Y-11559000D01*
X13983600Y-11610000D01*
X14034600Y-11661000D01*
X14034600Y-11915000D02*
X14085600Y-11864000D01*
X14034600Y-11813000D01*
X13983600Y-11864000D01*
X14034600Y-11915000D01*
X14034600Y-12169000D02*
X14085600Y-12118000D01*
X14034600Y-12067000D01*
X13983600Y-12118000D01*
X14034600Y-12169000D01*
D14*
X14510000Y-6281750D02*
X14640000Y-6411750D01*
X14640000Y-6281750D02*
X14510000Y-6411750D01*
X14640000Y-6346750D02*
G75*
G02*
X14510000Y-6346750I-65000J0D01*
G01*
X14510000Y-6346750D02*
G75*
G02*
X14640000Y-6346750I65000J0D01*
G01*
X15010000Y-6281750D02*
X15140000Y-6411750D01*
X15140000Y-6281750D02*
X15010000Y-6411750D01*
X15140000Y-6346750D02*
G75*
G02*
X15010000Y-6346750I-65000J0D01*
G01*
X15010000Y-6346750D02*
G75*
G02*
X15140000Y-6346750I65000J0D01*
G01*
X15510000Y-6281750D02*
X15640000Y-6411750D01*
X15640000Y-6281750D02*
X15510000Y-6411750D01*
X15640000Y-6346750D02*
G75*
G02*
X15510000Y-6346750I-65000J0D01*
G01*
X15510000Y-6346750D02*
G75*
G02*
X15640000Y-6346750I65000J0D01*
G01*
X16010000Y-6281750D02*
X16140000Y-6411750D01*
X16140000Y-6281750D02*
X16010000Y-6411750D01*
X16140000Y-6346750D02*
G75*
G02*
X16010000Y-6346750I-65000J0D01*
G01*
X16010000Y-6346750D02*
G75*
G02*
X16140000Y-6346750I65000J0D01*
G01*
X16510000Y-6281750D02*
X16640000Y-6411750D01*
X16640000Y-6281750D02*
X16510000Y-6411750D01*
X16640000Y-6346750D02*
G75*
G02*
X16510000Y-6346750I-65000J0D01*
G01*
X16510000Y-6346750D02*
G75*
G02*
X16640000Y-6346750I65000J0D01*
G01*
D15*
X14358000Y-9520000D02*
X14518000Y-9680000D01*
X14518000Y-9520000D02*
X14358000Y-9680000D01*
X14438000Y-9520000D02*
X14438000Y-9680000D01*
X14358000Y-9600000D02*
X14518000Y-9600000D01*
X15882000Y-9520000D02*
X16042000Y-9680000D01*
X16042000Y-9520000D02*
X15882000Y-9680000D01*
X15962000Y-9520000D02*
X15962000Y-9680000D01*
X15882000Y-9600000D02*
X16042000Y-9600000D01*
D16*
X14505000Y-11765000D02*
X14775000Y-12035000D01*
X14775000Y-11765000D02*
X14505000Y-12035000D01*
X14735460Y-11995460D02*
X14735460Y-11804540D01*
X14544540Y-11804540D01*
X14544540Y-11995460D01*
X14735460Y-11995460D01*
X15225000Y-11765000D02*
X15495000Y-12035000D01*
X15495000Y-11765000D02*
X15225000Y-12035000D01*
X15455460Y-11995460D02*
X15455460Y-11804540D01*
X15264540Y-11804540D01*
X15264540Y-11995460D01*
X15455460Y-11995460D01*
D17*
X16340000Y-11440000D02*
X16660000Y-11760000D01*
X16660000Y-11440000D02*
X16340000Y-11760000D01*
X16500000Y-11760000D02*
X16660000Y-11600000D01*
X16500000Y-11440000D01*
X16340000Y-11600000D01*
X16500000Y-11760000D01*
X16340000Y-12340000D02*
X16660000Y-12660000D01*
X16660000Y-12340000D02*
X16340000Y-12660000D01*
X16500000Y-12660000D02*
X16660000Y-12500000D01*
X16500000Y-12340000D01*
X16340000Y-12500000D01*
X16500000Y-12660000D01*
D11*
X11558277Y-13263984D02*
X11558277Y-13063984D01*
X11558277Y-13063984D02*
X11605896Y-13063984D01*
X11605896Y-13063984D02*
X11634467Y-13073508D01*
X11634467Y-13073508D02*
X11653515Y-13092555D01*
X11653515Y-13092555D02*
X11663039Y-13111603D01*
X11663039Y-13111603D02*
X11672562Y-13149698D01*
X11672562Y-13149698D02*
X11672562Y-13178269D01*
X11672562Y-13178269D02*
X11663039Y-13216365D01*
X11663039Y-13216365D02*
X11653515Y-13235412D01*
X11653515Y-13235412D02*
X11634467Y-13254460D01*
X11634467Y-13254460D02*
X11605896Y-13263984D01*
X11605896Y-13263984D02*
X11558277Y-13263984D01*
X11758277Y-13263984D02*
X11758277Y-13130650D01*
X11758277Y-13168746D02*
X11767801Y-13149698D01*
X11767801Y-13149698D02*
X11777324Y-13140174D01*
X11777324Y-13140174D02*
X11796372Y-13130650D01*
X11796372Y-13130650D02*
X11815420Y-13130650D01*
X11882086Y-13263984D02*
X11882086Y-13130650D01*
X11882086Y-13063984D02*
X11872562Y-13073508D01*
X11872562Y-13073508D02*
X11882086Y-13083031D01*
X11882086Y-13083031D02*
X11891610Y-13073508D01*
X11891610Y-13073508D02*
X11882086Y-13063984D01*
X11882086Y-13063984D02*
X11882086Y-13083031D01*
X12005896Y-13263984D02*
X11986848Y-13254460D01*
X11986848Y-13254460D02*
X11977324Y-13235412D01*
X11977324Y-13235412D02*
X11977324Y-13063984D01*
X12110658Y-13263984D02*
X12091610Y-13254460D01*
X12091610Y-13254460D02*
X12082086Y-13235412D01*
X12082086Y-13235412D02*
X12082086Y-13063984D01*
X12339229Y-13263984D02*
X12339229Y-13063984D01*
X12339229Y-13063984D02*
X12405896Y-13206841D01*
X12405896Y-13206841D02*
X12472562Y-13063984D01*
X12472562Y-13063984D02*
X12472562Y-13263984D01*
X12653515Y-13263984D02*
X12653515Y-13159222D01*
X12653515Y-13159222D02*
X12643991Y-13140174D01*
X12643991Y-13140174D02*
X12624943Y-13130650D01*
X12624943Y-13130650D02*
X12586848Y-13130650D01*
X12586848Y-13130650D02*
X12567801Y-13140174D01*
X12653515Y-13254460D02*
X12634467Y-13263984D01*
X12634467Y-13263984D02*
X12586848Y-13263984D01*
X12586848Y-13263984D02*
X12567801Y-13254460D01*
X12567801Y-13254460D02*
X12558277Y-13235412D01*
X12558277Y-13235412D02*
X12558277Y-13216365D01*
X12558277Y-13216365D02*
X12567801Y-13197317D01*
X12567801Y-13197317D02*
X12586848Y-13187793D01*
X12586848Y-13187793D02*
X12634467Y-13187793D01*
X12634467Y-13187793D02*
X12653515Y-13178269D01*
X12748753Y-13130650D02*
X12748753Y-13330650D01*
X12748753Y-13140174D02*
X12767801Y-13130650D01*
X12767801Y-13130650D02*
X12805896Y-13130650D01*
X12805896Y-13130650D02*
X12824943Y-13140174D01*
X12824943Y-13140174D02*
X12834467Y-13149698D01*
X12834467Y-13149698D02*
X12843991Y-13168746D01*
X12843991Y-13168746D02*
X12843991Y-13225888D01*
X12843991Y-13225888D02*
X12834467Y-13244936D01*
X12834467Y-13244936D02*
X12824943Y-13254460D01*
X12824943Y-13254460D02*
X12805896Y-13263984D01*
X12805896Y-13263984D02*
X12767801Y-13263984D01*
X12767801Y-13263984D02*
X12748753Y-13254460D01*
X12929705Y-13244936D02*
X12939229Y-13254460D01*
X12939229Y-13254460D02*
X12929705Y-13263984D01*
X12929705Y-13263984D02*
X12920182Y-13254460D01*
X12920182Y-13254460D02*
X12929705Y-13244936D01*
X12929705Y-13244936D02*
X12929705Y-13263984D01*
X12929705Y-13140174D02*
X12939229Y-13149698D01*
X12939229Y-13149698D02*
X12929705Y-13159222D01*
X12929705Y-13159222D02*
X12920182Y-13149698D01*
X12920182Y-13149698D02*
X12929705Y-13140174D01*
X12929705Y-13140174D02*
X12929705Y-13159222D01*
D12*
X11267500Y-13577500D02*
X11297500Y-13607500D01*
X11297500Y-13577500D02*
X11267500Y-13607500D01*
D11*
X11596372Y-13483984D02*
X11615420Y-13483984D01*
X11615420Y-13483984D02*
X11634467Y-13493508D01*
X11634467Y-13493508D02*
X11643991Y-13503031D01*
X11643991Y-13503031D02*
X11653515Y-13522079D01*
X11653515Y-13522079D02*
X11663039Y-13560174D01*
X11663039Y-13560174D02*
X11663039Y-13607793D01*
X11663039Y-13607793D02*
X11653515Y-13645888D01*
X11653515Y-13645888D02*
X11643991Y-13664936D01*
X11643991Y-13664936D02*
X11634467Y-13674460D01*
X11634467Y-13674460D02*
X11615420Y-13683984D01*
X11615420Y-13683984D02*
X11596372Y-13683984D01*
X11596372Y-13683984D02*
X11577324Y-13674460D01*
X11577324Y-13674460D02*
X11567801Y-13664936D01*
X11567801Y-13664936D02*
X11558277Y-13645888D01*
X11558277Y-13645888D02*
X11548753Y-13607793D01*
X11548753Y-13607793D02*
X11548753Y-13560174D01*
X11548753Y-13560174D02*
X11558277Y-13522079D01*
X11558277Y-13522079D02*
X11567801Y-13503031D01*
X11567801Y-13503031D02*
X11577324Y-13493508D01*
X11577324Y-13493508D02*
X11596372Y-13483984D01*
X11748753Y-13664936D02*
X11758277Y-13674460D01*
X11758277Y-13674460D02*
X11748753Y-13683984D01*
X11748753Y-13683984D02*
X11739229Y-13674460D01*
X11739229Y-13674460D02*
X11748753Y-13664936D01*
X11748753Y-13664936D02*
X11748753Y-13683984D01*
X11824943Y-13483984D02*
X11948753Y-13483984D01*
X11948753Y-13483984D02*
X11882086Y-13560174D01*
X11882086Y-13560174D02*
X11910658Y-13560174D01*
X11910658Y-13560174D02*
X11929705Y-13569698D01*
X11929705Y-13569698D02*
X11939229Y-13579222D01*
X11939229Y-13579222D02*
X11948753Y-13598269D01*
X11948753Y-13598269D02*
X11948753Y-13645888D01*
X11948753Y-13645888D02*
X11939229Y-13664936D01*
X11939229Y-13664936D02*
X11929705Y-13674460D01*
X11929705Y-13674460D02*
X11910658Y-13683984D01*
X11910658Y-13683984D02*
X11853515Y-13683984D01*
X11853515Y-13683984D02*
X11834467Y-13674460D01*
X11834467Y-13674460D02*
X11824943Y-13664936D01*
X12072562Y-13483984D02*
X12091610Y-13483984D01*
X12091610Y-13483984D02*
X12110658Y-13493508D01*
X12110658Y-13493508D02*
X12120182Y-13503031D01*
X12120182Y-13503031D02*
X12129705Y-13522079D01*
X12129705Y-13522079D02*
X12139229Y-13560174D01*
X12139229Y-13560174D02*
X12139229Y-13607793D01*
X12139229Y-13607793D02*
X12129705Y-13645888D01*
X12129705Y-13645888D02*
X12120182Y-13664936D01*
X12120182Y-13664936D02*
X12110658Y-13674460D01*
X12110658Y-13674460D02*
X12091610Y-13683984D01*
X12091610Y-13683984D02*
X12072562Y-13683984D01*
X12072562Y-13683984D02*
X12053515Y-13674460D01*
X12053515Y-13674460D02*
X12043991Y-13664936D01*
X12043991Y-13664936D02*
X12034467Y-13645888D01*
X12034467Y-13645888D02*
X12024943Y-13607793D01*
X12024943Y-13607793D02*
X12024943Y-13560174D01*
X12024943Y-13560174D02*
X12034467Y-13522079D01*
X12034467Y-13522079D02*
X12043991Y-13503031D01*
X12043991Y-13503031D02*
X12053515Y-13493508D01*
X12053515Y-13493508D02*
X12072562Y-13483984D01*
X12263039Y-13483984D02*
X12282086Y-13483984D01*
X12282086Y-13483984D02*
X12301134Y-13493508D01*
X12301134Y-13493508D02*
X12310658Y-13503031D01*
X12310658Y-13503031D02*
X12320182Y-13522079D01*
X12320182Y-13522079D02*
X12329705Y-13560174D01*
X12329705Y-13560174D02*
X12329705Y-13607793D01*
X12329705Y-13607793D02*
X12320182Y-13645888D01*
X12320182Y-13645888D02*
X12310658Y-13664936D01*
X12310658Y-13664936D02*
X12301134Y-13674460D01*
X12301134Y-13674460D02*
X12282086Y-13683984D01*
X12282086Y-13683984D02*
X12263039Y-13683984D01*
X12263039Y-13683984D02*
X12243991Y-13674460D01*
X12243991Y-13674460D02*
X12234467Y-13664936D01*
X12234467Y-13664936D02*
X12224943Y-13645888D01*
X12224943Y-13645888D02*
X12215420Y-13607793D01*
X12215420Y-13607793D02*
X12215420Y-13560174D01*
X12215420Y-13560174D02*
X12224943Y-13522079D01*
X12224943Y-13522079D02*
X12234467Y-13503031D01*
X12234467Y-13503031D02*
X12243991Y-13493508D01*
X12243991Y-13493508D02*
X12263039Y-13483984D01*
X12415420Y-13683984D02*
X12415420Y-13550650D01*
X12415420Y-13569698D02*
X12424943Y-13560174D01*
X12424943Y-13560174D02*
X12443991Y-13550650D01*
X12443991Y-13550650D02*
X12472563Y-13550650D01*
X12472563Y-13550650D02*
X12491610Y-13560174D01*
X12491610Y-13560174D02*
X12501134Y-13579222D01*
X12501134Y-13579222D02*
X12501134Y-13683984D01*
X12501134Y-13579222D02*
X12510658Y-13560174D01*
X12510658Y-13560174D02*
X12529705Y-13550650D01*
X12529705Y-13550650D02*
X12558277Y-13550650D01*
X12558277Y-13550650D02*
X12577324Y-13560174D01*
X12577324Y-13560174D02*
X12586848Y-13579222D01*
X12586848Y-13579222D02*
X12586848Y-13683984D01*
X12682086Y-13683984D02*
X12682086Y-13550650D01*
X12682086Y-13569698D02*
X12691610Y-13560174D01*
X12691610Y-13560174D02*
X12710658Y-13550650D01*
X12710658Y-13550650D02*
X12739229Y-13550650D01*
X12739229Y-13550650D02*
X12758277Y-13560174D01*
X12758277Y-13560174D02*
X12767801Y-13579222D01*
X12767801Y-13579222D02*
X12767801Y-13683984D01*
X12767801Y-13579222D02*
X12777324Y-13560174D01*
X12777324Y-13560174D02*
X12796372Y-13550650D01*
X12796372Y-13550650D02*
X12824943Y-13550650D01*
X12824943Y-13550650D02*
X12843991Y-13560174D01*
X12843991Y-13560174D02*
X12853515Y-13579222D01*
X12853515Y-13579222D02*
X12853515Y-13683984D01*
X13243991Y-13474460D02*
X13072563Y-13731603D01*
X13501134Y-13483984D02*
X13520182Y-13483984D01*
X13520182Y-13483984D02*
X13539229Y-13493508D01*
X13539229Y-13493508D02*
X13548753Y-13503031D01*
X13548753Y-13503031D02*
X13558277Y-13522079D01*
X13558277Y-13522079D02*
X13567801Y-13560174D01*
X13567801Y-13560174D02*
X13567801Y-13607793D01*
X13567801Y-13607793D02*
X13558277Y-13645888D01*
X13558277Y-13645888D02*
X13548753Y-13664936D01*
X13548753Y-13664936D02*
X13539229Y-13674460D01*
X13539229Y-13674460D02*
X13520182Y-13683984D01*
X13520182Y-13683984D02*
X13501134Y-13683984D01*
X13501134Y-13683984D02*
X13482086Y-13674460D01*
X13482086Y-13674460D02*
X13472563Y-13664936D01*
X13472563Y-13664936D02*
X13463039Y-13645888D01*
X13463039Y-13645888D02*
X13453515Y-13607793D01*
X13453515Y-13607793D02*
X13453515Y-13560174D01*
X13453515Y-13560174D02*
X13463039Y-13522079D01*
X13463039Y-13522079D02*
X13472563Y-13503031D01*
X13472563Y-13503031D02*
X13482086Y-13493508D01*
X13482086Y-13493508D02*
X13501134Y-13483984D01*
X13653515Y-13664936D02*
X13663039Y-13674460D01*
X13663039Y-13674460D02*
X13653515Y-13683984D01*
X13653515Y-13683984D02*
X13643991Y-13674460D01*
X13643991Y-13674460D02*
X13653515Y-13664936D01*
X13653515Y-13664936D02*
X13653515Y-13683984D01*
X13786848Y-13483984D02*
X13805896Y-13483984D01*
X13805896Y-13483984D02*
X13824944Y-13493508D01*
X13824944Y-13493508D02*
X13834467Y-13503031D01*
X13834467Y-13503031D02*
X13843991Y-13522079D01*
X13843991Y-13522079D02*
X13853515Y-13560174D01*
X13853515Y-13560174D02*
X13853515Y-13607793D01*
X13853515Y-13607793D02*
X13843991Y-13645888D01*
X13843991Y-13645888D02*
X13834467Y-13664936D01*
X13834467Y-13664936D02*
X13824944Y-13674460D01*
X13824944Y-13674460D02*
X13805896Y-13683984D01*
X13805896Y-13683984D02*
X13786848Y-13683984D01*
X13786848Y-13683984D02*
X13767801Y-13674460D01*
X13767801Y-13674460D02*
X13758277Y-13664936D01*
X13758277Y-13664936D02*
X13748753Y-13645888D01*
X13748753Y-13645888D02*
X13739229Y-13607793D01*
X13739229Y-13607793D02*
X13739229Y-13560174D01*
X13739229Y-13560174D02*
X13748753Y-13522079D01*
X13748753Y-13522079D02*
X13758277Y-13503031D01*
X13758277Y-13503031D02*
X13767801Y-13493508D01*
X13767801Y-13493508D02*
X13786848Y-13483984D01*
X14043991Y-13683984D02*
X13929706Y-13683984D01*
X13986848Y-13683984D02*
X13986848Y-13483984D01*
X13986848Y-13483984D02*
X13967801Y-13512555D01*
X13967801Y-13512555D02*
X13948753Y-13531603D01*
X13948753Y-13531603D02*
X13929706Y-13541127D01*
X14234467Y-13683984D02*
X14120182Y-13683984D01*
X14177325Y-13683984D02*
X14177325Y-13483984D01*
X14177325Y-13483984D02*
X14158277Y-13512555D01*
X14158277Y-13512555D02*
X14139229Y-13531603D01*
X14139229Y-13531603D02*
X14120182Y-13541127D01*
X14348753Y-13569698D02*
X14329706Y-13560174D01*
X14329706Y-13560174D02*
X14320182Y-13550650D01*
X14320182Y-13550650D02*
X14310658Y-13531603D01*
X14310658Y-13531603D02*
X14310658Y-13522079D01*
X14310658Y-13522079D02*
X14320182Y-13503031D01*
X14320182Y-13503031D02*
X14329706Y-13493508D01*
X14329706Y-13493508D02*
X14348753Y-13483984D01*
X14348753Y-13483984D02*
X14386848Y-13483984D01*
X14386848Y-13483984D02*
X14405896Y-13493508D01*
X14405896Y-13493508D02*
X14415420Y-13503031D01*
X14415420Y-13503031D02*
X14424944Y-13522079D01*
X14424944Y-13522079D02*
X14424944Y-13531603D01*
X14424944Y-13531603D02*
X14415420Y-13550650D01*
X14415420Y-13550650D02*
X14405896Y-13560174D01*
X14405896Y-13560174D02*
X14386848Y-13569698D01*
X14386848Y-13569698D02*
X14348753Y-13569698D01*
X14348753Y-13569698D02*
X14329706Y-13579222D01*
X14329706Y-13579222D02*
X14320182Y-13588746D01*
X14320182Y-13588746D02*
X14310658Y-13607793D01*
X14310658Y-13607793D02*
X14310658Y-13645888D01*
X14310658Y-13645888D02*
X14320182Y-13664936D01*
X14320182Y-13664936D02*
X14329706Y-13674460D01*
X14329706Y-13674460D02*
X14348753Y-13683984D01*
X14348753Y-13683984D02*
X14386848Y-13683984D01*
X14386848Y-13683984D02*
X14405896Y-13674460D01*
X14405896Y-13674460D02*
X14415420Y-13664936D01*
X14415420Y-13664936D02*
X14424944Y-13645888D01*
X14424944Y-13645888D02*
X14424944Y-13607793D01*
X14424944Y-13607793D02*
X14415420Y-13588746D01*
X14415420Y-13588746D02*
X14405896Y-13579222D01*
X14405896Y-13579222D02*
X14386848Y-13569698D01*
X14501134Y-13483984D02*
X14501134Y-13522079D01*
X14577325Y-13483984D02*
X14577325Y-13522079D01*
X14872563Y-13760174D02*
X14863039Y-13750650D01*
X14863039Y-13750650D02*
X14843991Y-13722079D01*
X14843991Y-13722079D02*
X14834468Y-13703031D01*
X14834468Y-13703031D02*
X14824944Y-13674460D01*
X14824944Y-13674460D02*
X14815420Y-13626841D01*
X14815420Y-13626841D02*
X14815420Y-13588746D01*
X14815420Y-13588746D02*
X14824944Y-13541127D01*
X14824944Y-13541127D02*
X14834468Y-13512555D01*
X14834468Y-13512555D02*
X14843991Y-13493508D01*
X14843991Y-13493508D02*
X14863039Y-13464936D01*
X14863039Y-13464936D02*
X14872563Y-13455412D01*
X15053515Y-13683984D02*
X14939229Y-13683984D01*
X14996372Y-13683984D02*
X14996372Y-13483984D01*
X14996372Y-13483984D02*
X14977325Y-13512555D01*
X14977325Y-13512555D02*
X14958277Y-13531603D01*
X14958277Y-13531603D02*
X14939229Y-13541127D01*
X15129706Y-13503031D02*
X15139229Y-13493508D01*
X15139229Y-13493508D02*
X15158277Y-13483984D01*
X15158277Y-13483984D02*
X15205896Y-13483984D01*
X15205896Y-13483984D02*
X15224944Y-13493508D01*
X15224944Y-13493508D02*
X15234468Y-13503031D01*
X15234468Y-13503031D02*
X15243991Y-13522079D01*
X15243991Y-13522079D02*
X15243991Y-13541127D01*
X15243991Y-13541127D02*
X15234468Y-13569698D01*
X15234468Y-13569698D02*
X15120182Y-13683984D01*
X15120182Y-13683984D02*
X15243991Y-13683984D01*
X15482087Y-13683984D02*
X15482087Y-13483984D01*
X15567801Y-13683984D02*
X15567801Y-13579222D01*
X15567801Y-13579222D02*
X15558277Y-13560174D01*
X15558277Y-13560174D02*
X15539230Y-13550650D01*
X15539230Y-13550650D02*
X15510658Y-13550650D01*
X15510658Y-13550650D02*
X15491610Y-13560174D01*
X15491610Y-13560174D02*
X15482087Y-13569698D01*
X15691610Y-13683984D02*
X15672563Y-13674460D01*
X15672563Y-13674460D02*
X15663039Y-13664936D01*
X15663039Y-13664936D02*
X15653515Y-13645888D01*
X15653515Y-13645888D02*
X15653515Y-13588746D01*
X15653515Y-13588746D02*
X15663039Y-13569698D01*
X15663039Y-13569698D02*
X15672563Y-13560174D01*
X15672563Y-13560174D02*
X15691610Y-13550650D01*
X15691610Y-13550650D02*
X15720182Y-13550650D01*
X15720182Y-13550650D02*
X15739230Y-13560174D01*
X15739230Y-13560174D02*
X15748753Y-13569698D01*
X15748753Y-13569698D02*
X15758277Y-13588746D01*
X15758277Y-13588746D02*
X15758277Y-13645888D01*
X15758277Y-13645888D02*
X15748753Y-13664936D01*
X15748753Y-13664936D02*
X15739230Y-13674460D01*
X15739230Y-13674460D02*
X15720182Y-13683984D01*
X15720182Y-13683984D02*
X15691610Y-13683984D01*
X15872563Y-13683984D02*
X15853515Y-13674460D01*
X15853515Y-13674460D02*
X15843991Y-13655412D01*
X15843991Y-13655412D02*
X15843991Y-13483984D01*
X16024944Y-13674460D02*
X16005896Y-13683984D01*
X16005896Y-13683984D02*
X15967801Y-13683984D01*
X15967801Y-13683984D02*
X15948753Y-13674460D01*
X15948753Y-13674460D02*
X15939230Y-13655412D01*
X15939230Y-13655412D02*
X15939230Y-13579222D01*
X15939230Y-13579222D02*
X15948753Y-13560174D01*
X15948753Y-13560174D02*
X15967801Y-13550650D01*
X15967801Y-13550650D02*
X16005896Y-13550650D01*
X16005896Y-13550650D02*
X16024944Y-13560174D01*
X16024944Y-13560174D02*
X16034468Y-13579222D01*
X16034468Y-13579222D02*
X16034468Y-13598269D01*
X16034468Y-13598269D02*
X15939230Y-13617317D01*
X16110658Y-13674460D02*
X16129706Y-13683984D01*
X16129706Y-13683984D02*
X16167801Y-13683984D01*
X16167801Y-13683984D02*
X16186849Y-13674460D01*
X16186849Y-13674460D02*
X16196372Y-13655412D01*
X16196372Y-13655412D02*
X16196372Y-13645888D01*
X16196372Y-13645888D02*
X16186849Y-13626841D01*
X16186849Y-13626841D02*
X16167801Y-13617317D01*
X16167801Y-13617317D02*
X16139230Y-13617317D01*
X16139230Y-13617317D02*
X16120182Y-13607793D01*
X16120182Y-13607793D02*
X16110658Y-13588746D01*
X16110658Y-13588746D02*
X16110658Y-13579222D01*
X16110658Y-13579222D02*
X16120182Y-13560174D01*
X16120182Y-13560174D02*
X16139230Y-13550650D01*
X16139230Y-13550650D02*
X16167801Y-13550650D01*
X16167801Y-13550650D02*
X16186849Y-13560174D01*
X16263039Y-13760174D02*
X16272563Y-13750650D01*
X16272563Y-13750650D02*
X16291611Y-13722079D01*
X16291611Y-13722079D02*
X16301134Y-13703031D01*
X16301134Y-13703031D02*
X16310658Y-13674460D01*
X16310658Y-13674460D02*
X16320182Y-13626841D01*
X16320182Y-13626841D02*
X16320182Y-13588746D01*
X16320182Y-13588746D02*
X16310658Y-13541127D01*
X16310658Y-13541127D02*
X16301134Y-13512555D01*
X16301134Y-13512555D02*
X16291611Y-13493508D01*
X16291611Y-13493508D02*
X16272563Y-13464936D01*
X16272563Y-13464936D02*
X16263039Y-13455412D01*
D12*
X11297500Y-13856500D02*
G75*
G02*
X11237500Y-13856500I-30000J0D01*
G01*
X11237500Y-13856500D02*
G75*
G02*
X11297500Y-13856500I30000J0D01*
G01*
D11*
X11596372Y-13747984D02*
X11615420Y-13747984D01*
X11615420Y-13747984D02*
X11634467Y-13757508D01*
X11634467Y-13757508D02*
X11643991Y-13767031D01*
X11643991Y-13767031D02*
X11653515Y-13786079D01*
X11653515Y-13786079D02*
X11663039Y-13824174D01*
X11663039Y-13824174D02*
X11663039Y-13871793D01*
X11663039Y-13871793D02*
X11653515Y-13909888D01*
X11653515Y-13909888D02*
X11643991Y-13928936D01*
X11643991Y-13928936D02*
X11634467Y-13938460D01*
X11634467Y-13938460D02*
X11615420Y-13947984D01*
X11615420Y-13947984D02*
X11596372Y-13947984D01*
X11596372Y-13947984D02*
X11577324Y-13938460D01*
X11577324Y-13938460D02*
X11567801Y-13928936D01*
X11567801Y-13928936D02*
X11558277Y-13909888D01*
X11558277Y-13909888D02*
X11548753Y-13871793D01*
X11548753Y-13871793D02*
X11548753Y-13824174D01*
X11548753Y-13824174D02*
X11558277Y-13786079D01*
X11558277Y-13786079D02*
X11567801Y-13767031D01*
X11567801Y-13767031D02*
X11577324Y-13757508D01*
X11577324Y-13757508D02*
X11596372Y-13747984D01*
X11748753Y-13928936D02*
X11758277Y-13938460D01*
X11758277Y-13938460D02*
X11748753Y-13947984D01*
X11748753Y-13947984D02*
X11739229Y-13938460D01*
X11739229Y-13938460D02*
X11748753Y-13928936D01*
X11748753Y-13928936D02*
X11748753Y-13947984D01*
X11929705Y-13747984D02*
X11891610Y-13747984D01*
X11891610Y-13747984D02*
X11872562Y-13757508D01*
X11872562Y-13757508D02*
X11863039Y-13767031D01*
X11863039Y-13767031D02*
X11843991Y-13795603D01*
X11843991Y-13795603D02*
X11834467Y-13833698D01*
X11834467Y-13833698D02*
X11834467Y-13909888D01*
X11834467Y-13909888D02*
X11843991Y-13928936D01*
X11843991Y-13928936D02*
X11853515Y-13938460D01*
X11853515Y-13938460D02*
X11872562Y-13947984D01*
X11872562Y-13947984D02*
X11910658Y-13947984D01*
X11910658Y-13947984D02*
X11929705Y-13938460D01*
X11929705Y-13938460D02*
X11939229Y-13928936D01*
X11939229Y-13928936D02*
X11948753Y-13909888D01*
X11948753Y-13909888D02*
X11948753Y-13862269D01*
X11948753Y-13862269D02*
X11939229Y-13843222D01*
X11939229Y-13843222D02*
X11929705Y-13833698D01*
X11929705Y-13833698D02*
X11910658Y-13824174D01*
X11910658Y-13824174D02*
X11872562Y-13824174D01*
X11872562Y-13824174D02*
X11853515Y-13833698D01*
X11853515Y-13833698D02*
X11843991Y-13843222D01*
X11843991Y-13843222D02*
X11834467Y-13862269D01*
X12072562Y-13747984D02*
X12091610Y-13747984D01*
X12091610Y-13747984D02*
X12110658Y-13757508D01*
X12110658Y-13757508D02*
X12120182Y-13767031D01*
X12120182Y-13767031D02*
X12129705Y-13786079D01*
X12129705Y-13786079D02*
X12139229Y-13824174D01*
X12139229Y-13824174D02*
X12139229Y-13871793D01*
X12139229Y-13871793D02*
X12129705Y-13909888D01*
X12129705Y-13909888D02*
X12120182Y-13928936D01*
X12120182Y-13928936D02*
X12110658Y-13938460D01*
X12110658Y-13938460D02*
X12091610Y-13947984D01*
X12091610Y-13947984D02*
X12072562Y-13947984D01*
X12072562Y-13947984D02*
X12053515Y-13938460D01*
X12053515Y-13938460D02*
X12043991Y-13928936D01*
X12043991Y-13928936D02*
X12034467Y-13909888D01*
X12034467Y-13909888D02*
X12024943Y-13871793D01*
X12024943Y-13871793D02*
X12024943Y-13824174D01*
X12024943Y-13824174D02*
X12034467Y-13786079D01*
X12034467Y-13786079D02*
X12043991Y-13767031D01*
X12043991Y-13767031D02*
X12053515Y-13757508D01*
X12053515Y-13757508D02*
X12072562Y-13747984D01*
X12263039Y-13747984D02*
X12282086Y-13747984D01*
X12282086Y-13747984D02*
X12301134Y-13757508D01*
X12301134Y-13757508D02*
X12310658Y-13767031D01*
X12310658Y-13767031D02*
X12320182Y-13786079D01*
X12320182Y-13786079D02*
X12329705Y-13824174D01*
X12329705Y-13824174D02*
X12329705Y-13871793D01*
X12329705Y-13871793D02*
X12320182Y-13909888D01*
X12320182Y-13909888D02*
X12310658Y-13928936D01*
X12310658Y-13928936D02*
X12301134Y-13938460D01*
X12301134Y-13938460D02*
X12282086Y-13947984D01*
X12282086Y-13947984D02*
X12263039Y-13947984D01*
X12263039Y-13947984D02*
X12243991Y-13938460D01*
X12243991Y-13938460D02*
X12234467Y-13928936D01*
X12234467Y-13928936D02*
X12224943Y-13909888D01*
X12224943Y-13909888D02*
X12215420Y-13871793D01*
X12215420Y-13871793D02*
X12215420Y-13824174D01*
X12215420Y-13824174D02*
X12224943Y-13786079D01*
X12224943Y-13786079D02*
X12234467Y-13767031D01*
X12234467Y-13767031D02*
X12243991Y-13757508D01*
X12243991Y-13757508D02*
X12263039Y-13747984D01*
X12415420Y-13947984D02*
X12415420Y-13814650D01*
X12415420Y-13833698D02*
X12424943Y-13824174D01*
X12424943Y-13824174D02*
X12443991Y-13814650D01*
X12443991Y-13814650D02*
X12472563Y-13814650D01*
X12472563Y-13814650D02*
X12491610Y-13824174D01*
X12491610Y-13824174D02*
X12501134Y-13843222D01*
X12501134Y-13843222D02*
X12501134Y-13947984D01*
X12501134Y-13843222D02*
X12510658Y-13824174D01*
X12510658Y-13824174D02*
X12529705Y-13814650D01*
X12529705Y-13814650D02*
X12558277Y-13814650D01*
X12558277Y-13814650D02*
X12577324Y-13824174D01*
X12577324Y-13824174D02*
X12586848Y-13843222D01*
X12586848Y-13843222D02*
X12586848Y-13947984D01*
X12682086Y-13947984D02*
X12682086Y-13814650D01*
X12682086Y-13833698D02*
X12691610Y-13824174D01*
X12691610Y-13824174D02*
X12710658Y-13814650D01*
X12710658Y-13814650D02*
X12739229Y-13814650D01*
X12739229Y-13814650D02*
X12758277Y-13824174D01*
X12758277Y-13824174D02*
X12767801Y-13843222D01*
X12767801Y-13843222D02*
X12767801Y-13947984D01*
X12767801Y-13843222D02*
X12777324Y-13824174D01*
X12777324Y-13824174D02*
X12796372Y-13814650D01*
X12796372Y-13814650D02*
X12824943Y-13814650D01*
X12824943Y-13814650D02*
X12843991Y-13824174D01*
X12843991Y-13824174D02*
X12853515Y-13843222D01*
X12853515Y-13843222D02*
X12853515Y-13947984D01*
X13243991Y-13738460D02*
X13072563Y-13995603D01*
X13501134Y-13747984D02*
X13520182Y-13747984D01*
X13520182Y-13747984D02*
X13539229Y-13757508D01*
X13539229Y-13757508D02*
X13548753Y-13767031D01*
X13548753Y-13767031D02*
X13558277Y-13786079D01*
X13558277Y-13786079D02*
X13567801Y-13824174D01*
X13567801Y-13824174D02*
X13567801Y-13871793D01*
X13567801Y-13871793D02*
X13558277Y-13909888D01*
X13558277Y-13909888D02*
X13548753Y-13928936D01*
X13548753Y-13928936D02*
X13539229Y-13938460D01*
X13539229Y-13938460D02*
X13520182Y-13947984D01*
X13520182Y-13947984D02*
X13501134Y-13947984D01*
X13501134Y-13947984D02*
X13482086Y-13938460D01*
X13482086Y-13938460D02*
X13472563Y-13928936D01*
X13472563Y-13928936D02*
X13463039Y-13909888D01*
X13463039Y-13909888D02*
X13453515Y-13871793D01*
X13453515Y-13871793D02*
X13453515Y-13824174D01*
X13453515Y-13824174D02*
X13463039Y-13786079D01*
X13463039Y-13786079D02*
X13472563Y-13767031D01*
X13472563Y-13767031D02*
X13482086Y-13757508D01*
X13482086Y-13757508D02*
X13501134Y-13747984D01*
X13653515Y-13928936D02*
X13663039Y-13938460D01*
X13663039Y-13938460D02*
X13653515Y-13947984D01*
X13653515Y-13947984D02*
X13643991Y-13938460D01*
X13643991Y-13938460D02*
X13653515Y-13928936D01*
X13653515Y-13928936D02*
X13653515Y-13947984D01*
X13786848Y-13747984D02*
X13805896Y-13747984D01*
X13805896Y-13747984D02*
X13824944Y-13757508D01*
X13824944Y-13757508D02*
X13834467Y-13767031D01*
X13834467Y-13767031D02*
X13843991Y-13786079D01*
X13843991Y-13786079D02*
X13853515Y-13824174D01*
X13853515Y-13824174D02*
X13853515Y-13871793D01*
X13853515Y-13871793D02*
X13843991Y-13909888D01*
X13843991Y-13909888D02*
X13834467Y-13928936D01*
X13834467Y-13928936D02*
X13824944Y-13938460D01*
X13824944Y-13938460D02*
X13805896Y-13947984D01*
X13805896Y-13947984D02*
X13786848Y-13947984D01*
X13786848Y-13947984D02*
X13767801Y-13938460D01*
X13767801Y-13938460D02*
X13758277Y-13928936D01*
X13758277Y-13928936D02*
X13748753Y-13909888D01*
X13748753Y-13909888D02*
X13739229Y-13871793D01*
X13739229Y-13871793D02*
X13739229Y-13824174D01*
X13739229Y-13824174D02*
X13748753Y-13786079D01*
X13748753Y-13786079D02*
X13758277Y-13767031D01*
X13758277Y-13767031D02*
X13767801Y-13757508D01*
X13767801Y-13757508D02*
X13786848Y-13747984D01*
X13929706Y-13767031D02*
X13939229Y-13757508D01*
X13939229Y-13757508D02*
X13958277Y-13747984D01*
X13958277Y-13747984D02*
X14005896Y-13747984D01*
X14005896Y-13747984D02*
X14024944Y-13757508D01*
X14024944Y-13757508D02*
X14034467Y-13767031D01*
X14034467Y-13767031D02*
X14043991Y-13786079D01*
X14043991Y-13786079D02*
X14043991Y-13805127D01*
X14043991Y-13805127D02*
X14034467Y-13833698D01*
X14034467Y-13833698D02*
X13920182Y-13947984D01*
X13920182Y-13947984D02*
X14043991Y-13947984D01*
X14110658Y-13747984D02*
X14234467Y-13747984D01*
X14234467Y-13747984D02*
X14167801Y-13824174D01*
X14167801Y-13824174D02*
X14196372Y-13824174D01*
X14196372Y-13824174D02*
X14215420Y-13833698D01*
X14215420Y-13833698D02*
X14224944Y-13843222D01*
X14224944Y-13843222D02*
X14234467Y-13862269D01*
X14234467Y-13862269D02*
X14234467Y-13909888D01*
X14234467Y-13909888D02*
X14224944Y-13928936D01*
X14224944Y-13928936D02*
X14215420Y-13938460D01*
X14215420Y-13938460D02*
X14196372Y-13947984D01*
X14196372Y-13947984D02*
X14139229Y-13947984D01*
X14139229Y-13947984D02*
X14120182Y-13938460D01*
X14120182Y-13938460D02*
X14110658Y-13928936D01*
X14405896Y-13747984D02*
X14367801Y-13747984D01*
X14367801Y-13747984D02*
X14348753Y-13757508D01*
X14348753Y-13757508D02*
X14339229Y-13767031D01*
X14339229Y-13767031D02*
X14320182Y-13795603D01*
X14320182Y-13795603D02*
X14310658Y-13833698D01*
X14310658Y-13833698D02*
X14310658Y-13909888D01*
X14310658Y-13909888D02*
X14320182Y-13928936D01*
X14320182Y-13928936D02*
X14329706Y-13938460D01*
X14329706Y-13938460D02*
X14348753Y-13947984D01*
X14348753Y-13947984D02*
X14386848Y-13947984D01*
X14386848Y-13947984D02*
X14405896Y-13938460D01*
X14405896Y-13938460D02*
X14415420Y-13928936D01*
X14415420Y-13928936D02*
X14424944Y-13909888D01*
X14424944Y-13909888D02*
X14424944Y-13862269D01*
X14424944Y-13862269D02*
X14415420Y-13843222D01*
X14415420Y-13843222D02*
X14405896Y-13833698D01*
X14405896Y-13833698D02*
X14386848Y-13824174D01*
X14386848Y-13824174D02*
X14348753Y-13824174D01*
X14348753Y-13824174D02*
X14329706Y-13833698D01*
X14329706Y-13833698D02*
X14320182Y-13843222D01*
X14320182Y-13843222D02*
X14310658Y-13862269D01*
X14501134Y-13747984D02*
X14501134Y-13786079D01*
X14577325Y-13747984D02*
X14577325Y-13786079D01*
X14872563Y-14024174D02*
X14863039Y-14014650D01*
X14863039Y-14014650D02*
X14843991Y-13986079D01*
X14843991Y-13986079D02*
X14834468Y-13967031D01*
X14834468Y-13967031D02*
X14824944Y-13938460D01*
X14824944Y-13938460D02*
X14815420Y-13890841D01*
X14815420Y-13890841D02*
X14815420Y-13852746D01*
X14815420Y-13852746D02*
X14824944Y-13805127D01*
X14824944Y-13805127D02*
X14834468Y-13776555D01*
X14834468Y-13776555D02*
X14843991Y-13757508D01*
X14843991Y-13757508D02*
X14863039Y-13728936D01*
X14863039Y-13728936D02*
X14872563Y-13719412D01*
X14986848Y-13747984D02*
X15005896Y-13747984D01*
X15005896Y-13747984D02*
X15024944Y-13757508D01*
X15024944Y-13757508D02*
X15034468Y-13767031D01*
X15034468Y-13767031D02*
X15043991Y-13786079D01*
X15043991Y-13786079D02*
X15053515Y-13824174D01*
X15053515Y-13824174D02*
X15053515Y-13871793D01*
X15053515Y-13871793D02*
X15043991Y-13909888D01*
X15043991Y-13909888D02*
X15034468Y-13928936D01*
X15034468Y-13928936D02*
X15024944Y-13938460D01*
X15024944Y-13938460D02*
X15005896Y-13947984D01*
X15005896Y-13947984D02*
X14986848Y-13947984D01*
X14986848Y-13947984D02*
X14967801Y-13938460D01*
X14967801Y-13938460D02*
X14958277Y-13928936D01*
X14958277Y-13928936D02*
X14948753Y-13909888D01*
X14948753Y-13909888D02*
X14939229Y-13871793D01*
X14939229Y-13871793D02*
X14939229Y-13824174D01*
X14939229Y-13824174D02*
X14948753Y-13786079D01*
X14948753Y-13786079D02*
X14958277Y-13767031D01*
X14958277Y-13767031D02*
X14967801Y-13757508D01*
X14967801Y-13757508D02*
X14986848Y-13747984D01*
X15291610Y-13947984D02*
X15291610Y-13747984D01*
X15377325Y-13947984D02*
X15377325Y-13843222D01*
X15377325Y-13843222D02*
X15367801Y-13824174D01*
X15367801Y-13824174D02*
X15348753Y-13814650D01*
X15348753Y-13814650D02*
X15320182Y-13814650D01*
X15320182Y-13814650D02*
X15301134Y-13824174D01*
X15301134Y-13824174D02*
X15291610Y-13833698D01*
X15501134Y-13947984D02*
X15482087Y-13938460D01*
X15482087Y-13938460D02*
X15472563Y-13928936D01*
X15472563Y-13928936D02*
X15463039Y-13909888D01*
X15463039Y-13909888D02*
X15463039Y-13852746D01*
X15463039Y-13852746D02*
X15472563Y-13833698D01*
X15472563Y-13833698D02*
X15482087Y-13824174D01*
X15482087Y-13824174D02*
X15501134Y-13814650D01*
X15501134Y-13814650D02*
X15529706Y-13814650D01*
X15529706Y-13814650D02*
X15548753Y-13824174D01*
X15548753Y-13824174D02*
X15558277Y-13833698D01*
X15558277Y-13833698D02*
X15567801Y-13852746D01*
X15567801Y-13852746D02*
X15567801Y-13909888D01*
X15567801Y-13909888D02*
X15558277Y-13928936D01*
X15558277Y-13928936D02*
X15548753Y-13938460D01*
X15548753Y-13938460D02*
X15529706Y-13947984D01*
X15529706Y-13947984D02*
X15501134Y-13947984D01*
X15682087Y-13947984D02*
X15663039Y-13938460D01*
X15663039Y-13938460D02*
X15653515Y-13919412D01*
X15653515Y-13919412D02*
X15653515Y-13747984D01*
X15834468Y-13938460D02*
X15815420Y-13947984D01*
X15815420Y-13947984D02*
X15777325Y-13947984D01*
X15777325Y-13947984D02*
X15758277Y-13938460D01*
X15758277Y-13938460D02*
X15748753Y-13919412D01*
X15748753Y-13919412D02*
X15748753Y-13843222D01*
X15748753Y-13843222D02*
X15758277Y-13824174D01*
X15758277Y-13824174D02*
X15777325Y-13814650D01*
X15777325Y-13814650D02*
X15815420Y-13814650D01*
X15815420Y-13814650D02*
X15834468Y-13824174D01*
X15834468Y-13824174D02*
X15843991Y-13843222D01*
X15843991Y-13843222D02*
X15843991Y-13862269D01*
X15843991Y-13862269D02*
X15748753Y-13881317D01*
X15920182Y-13938460D02*
X15939230Y-13947984D01*
X15939230Y-13947984D02*
X15977325Y-13947984D01*
X15977325Y-13947984D02*
X15996372Y-13938460D01*
X15996372Y-13938460D02*
X16005896Y-13919412D01*
X16005896Y-13919412D02*
X16005896Y-13909888D01*
X16005896Y-13909888D02*
X15996372Y-13890841D01*
X15996372Y-13890841D02*
X15977325Y-13881317D01*
X15977325Y-13881317D02*
X15948753Y-13881317D01*
X15948753Y-13881317D02*
X15929706Y-13871793D01*
X15929706Y-13871793D02*
X15920182Y-13852746D01*
X15920182Y-13852746D02*
X15920182Y-13843222D01*
X15920182Y-13843222D02*
X15929706Y-13824174D01*
X15929706Y-13824174D02*
X15948753Y-13814650D01*
X15948753Y-13814650D02*
X15977325Y-13814650D01*
X15977325Y-13814650D02*
X15996372Y-13824174D01*
X16243992Y-13871793D02*
X16396373Y-13871793D01*
X16320182Y-13947984D02*
X16320182Y-13795603D01*
X16634468Y-13767031D02*
X16643992Y-13757508D01*
X16643992Y-13757508D02*
X16663039Y-13747984D01*
X16663039Y-13747984D02*
X16710658Y-13747984D01*
X16710658Y-13747984D02*
X16729706Y-13757508D01*
X16729706Y-13757508D02*
X16739230Y-13767031D01*
X16739230Y-13767031D02*
X16748753Y-13786079D01*
X16748753Y-13786079D02*
X16748753Y-13805127D01*
X16748753Y-13805127D02*
X16739230Y-13833698D01*
X16739230Y-13833698D02*
X16624944Y-13947984D01*
X16624944Y-13947984D02*
X16748753Y-13947984D01*
X16977325Y-13938460D02*
X16996373Y-13947984D01*
X16996373Y-13947984D02*
X17034468Y-13947984D01*
X17034468Y-13947984D02*
X17053516Y-13938460D01*
X17053516Y-13938460D02*
X17063039Y-13919412D01*
X17063039Y-13919412D02*
X17063039Y-13909888D01*
X17063039Y-13909888D02*
X17053516Y-13890841D01*
X17053516Y-13890841D02*
X17034468Y-13881317D01*
X17034468Y-13881317D02*
X17005896Y-13881317D01*
X17005896Y-13881317D02*
X16986849Y-13871793D01*
X16986849Y-13871793D02*
X16977325Y-13852746D01*
X16977325Y-13852746D02*
X16977325Y-13843222D01*
X16977325Y-13843222D02*
X16986849Y-13824174D01*
X16986849Y-13824174D02*
X17005896Y-13814650D01*
X17005896Y-13814650D02*
X17034468Y-13814650D01*
X17034468Y-13814650D02*
X17053516Y-13824174D01*
X17177325Y-13947984D02*
X17158277Y-13938460D01*
X17158277Y-13938460D02*
X17148754Y-13919412D01*
X17148754Y-13919412D02*
X17148754Y-13747984D01*
X17282087Y-13947984D02*
X17263039Y-13938460D01*
X17263039Y-13938460D02*
X17253516Y-13928936D01*
X17253516Y-13928936D02*
X17243992Y-13909888D01*
X17243992Y-13909888D02*
X17243992Y-13852746D01*
X17243992Y-13852746D02*
X17253516Y-13833698D01*
X17253516Y-13833698D02*
X17263039Y-13824174D01*
X17263039Y-13824174D02*
X17282087Y-13814650D01*
X17282087Y-13814650D02*
X17310658Y-13814650D01*
X17310658Y-13814650D02*
X17329706Y-13824174D01*
X17329706Y-13824174D02*
X17339230Y-13833698D01*
X17339230Y-13833698D02*
X17348754Y-13852746D01*
X17348754Y-13852746D02*
X17348754Y-13909888D01*
X17348754Y-13909888D02*
X17339230Y-13928936D01*
X17339230Y-13928936D02*
X17329706Y-13938460D01*
X17329706Y-13938460D02*
X17310658Y-13947984D01*
X17310658Y-13947984D02*
X17282087Y-13947984D01*
X17405897Y-13814650D02*
X17482087Y-13814650D01*
X17434468Y-13747984D02*
X17434468Y-13919412D01*
X17434468Y-13919412D02*
X17443992Y-13938460D01*
X17443992Y-13938460D02*
X17463039Y-13947984D01*
X17463039Y-13947984D02*
X17482087Y-13947984D01*
X17539230Y-13938460D02*
X17558277Y-13947984D01*
X17558277Y-13947984D02*
X17596373Y-13947984D01*
X17596373Y-13947984D02*
X17615420Y-13938460D01*
X17615420Y-13938460D02*
X17624944Y-13919412D01*
X17624944Y-13919412D02*
X17624944Y-13909888D01*
X17624944Y-13909888D02*
X17615420Y-13890841D01*
X17615420Y-13890841D02*
X17596373Y-13881317D01*
X17596373Y-13881317D02*
X17567801Y-13881317D01*
X17567801Y-13881317D02*
X17548754Y-13871793D01*
X17548754Y-13871793D02*
X17539230Y-13852746D01*
X17539230Y-13852746D02*
X17539230Y-13843222D01*
X17539230Y-13843222D02*
X17548754Y-13824174D01*
X17548754Y-13824174D02*
X17567801Y-13814650D01*
X17567801Y-13814650D02*
X17596373Y-13814650D01*
X17596373Y-13814650D02*
X17615420Y-13824174D01*
X17691611Y-14024174D02*
X17701135Y-14014650D01*
X17701135Y-14014650D02*
X17720182Y-13986079D01*
X17720182Y-13986079D02*
X17729706Y-13967031D01*
X17729706Y-13967031D02*
X17739230Y-13938460D01*
X17739230Y-13938460D02*
X17748754Y-13890841D01*
X17748754Y-13890841D02*
X17748754Y-13852746D01*
X17748754Y-13852746D02*
X17739230Y-13805127D01*
X17739230Y-13805127D02*
X17729706Y-13776555D01*
X17729706Y-13776555D02*
X17720182Y-13757508D01*
X17720182Y-13757508D02*
X17701135Y-13728936D01*
X17701135Y-13728936D02*
X17691611Y-13719412D01*
D12*
X11257500Y-14080500D02*
X11257500Y-14160500D01*
X11217500Y-14120500D02*
X11297500Y-14120500D01*
D11*
X11596372Y-14011984D02*
X11615420Y-14011984D01*
X11615420Y-14011984D02*
X11634467Y-14021508D01*
X11634467Y-14021508D02*
X11643991Y-14031031D01*
X11643991Y-14031031D02*
X11653515Y-14050079D01*
X11653515Y-14050079D02*
X11663039Y-14088174D01*
X11663039Y-14088174D02*
X11663039Y-14135793D01*
X11663039Y-14135793D02*
X11653515Y-14173888D01*
X11653515Y-14173888D02*
X11643991Y-14192936D01*
X11643991Y-14192936D02*
X11634467Y-14202460D01*
X11634467Y-14202460D02*
X11615420Y-14211984D01*
X11615420Y-14211984D02*
X11596372Y-14211984D01*
X11596372Y-14211984D02*
X11577324Y-14202460D01*
X11577324Y-14202460D02*
X11567801Y-14192936D01*
X11567801Y-14192936D02*
X11558277Y-14173888D01*
X11558277Y-14173888D02*
X11548753Y-14135793D01*
X11548753Y-14135793D02*
X11548753Y-14088174D01*
X11548753Y-14088174D02*
X11558277Y-14050079D01*
X11558277Y-14050079D02*
X11567801Y-14031031D01*
X11567801Y-14031031D02*
X11577324Y-14021508D01*
X11577324Y-14021508D02*
X11596372Y-14011984D01*
X11748753Y-14192936D02*
X11758277Y-14202460D01*
X11758277Y-14202460D02*
X11748753Y-14211984D01*
X11748753Y-14211984D02*
X11739229Y-14202460D01*
X11739229Y-14202460D02*
X11748753Y-14192936D01*
X11748753Y-14192936D02*
X11748753Y-14211984D01*
X11872562Y-14097698D02*
X11853515Y-14088174D01*
X11853515Y-14088174D02*
X11843991Y-14078650D01*
X11843991Y-14078650D02*
X11834467Y-14059603D01*
X11834467Y-14059603D02*
X11834467Y-14050079D01*
X11834467Y-14050079D02*
X11843991Y-14031031D01*
X11843991Y-14031031D02*
X11853515Y-14021508D01*
X11853515Y-14021508D02*
X11872562Y-14011984D01*
X11872562Y-14011984D02*
X11910658Y-14011984D01*
X11910658Y-14011984D02*
X11929705Y-14021508D01*
X11929705Y-14021508D02*
X11939229Y-14031031D01*
X11939229Y-14031031D02*
X11948753Y-14050079D01*
X11948753Y-14050079D02*
X11948753Y-14059603D01*
X11948753Y-14059603D02*
X11939229Y-14078650D01*
X11939229Y-14078650D02*
X11929705Y-14088174D01*
X11929705Y-14088174D02*
X11910658Y-14097698D01*
X11910658Y-14097698D02*
X11872562Y-14097698D01*
X11872562Y-14097698D02*
X11853515Y-14107222D01*
X11853515Y-14107222D02*
X11843991Y-14116746D01*
X11843991Y-14116746D02*
X11834467Y-14135793D01*
X11834467Y-14135793D02*
X11834467Y-14173888D01*
X11834467Y-14173888D02*
X11843991Y-14192936D01*
X11843991Y-14192936D02*
X11853515Y-14202460D01*
X11853515Y-14202460D02*
X11872562Y-14211984D01*
X11872562Y-14211984D02*
X11910658Y-14211984D01*
X11910658Y-14211984D02*
X11929705Y-14202460D01*
X11929705Y-14202460D02*
X11939229Y-14192936D01*
X11939229Y-14192936D02*
X11948753Y-14173888D01*
X11948753Y-14173888D02*
X11948753Y-14135793D01*
X11948753Y-14135793D02*
X11939229Y-14116746D01*
X11939229Y-14116746D02*
X11929705Y-14107222D01*
X11929705Y-14107222D02*
X11910658Y-14097698D01*
X12072562Y-14011984D02*
X12091610Y-14011984D01*
X12091610Y-14011984D02*
X12110658Y-14021508D01*
X12110658Y-14021508D02*
X12120182Y-14031031D01*
X12120182Y-14031031D02*
X12129705Y-14050079D01*
X12129705Y-14050079D02*
X12139229Y-14088174D01*
X12139229Y-14088174D02*
X12139229Y-14135793D01*
X12139229Y-14135793D02*
X12129705Y-14173888D01*
X12129705Y-14173888D02*
X12120182Y-14192936D01*
X12120182Y-14192936D02*
X12110658Y-14202460D01*
X12110658Y-14202460D02*
X12091610Y-14211984D01*
X12091610Y-14211984D02*
X12072562Y-14211984D01*
X12072562Y-14211984D02*
X12053515Y-14202460D01*
X12053515Y-14202460D02*
X12043991Y-14192936D01*
X12043991Y-14192936D02*
X12034467Y-14173888D01*
X12034467Y-14173888D02*
X12024943Y-14135793D01*
X12024943Y-14135793D02*
X12024943Y-14088174D01*
X12024943Y-14088174D02*
X12034467Y-14050079D01*
X12034467Y-14050079D02*
X12043991Y-14031031D01*
X12043991Y-14031031D02*
X12053515Y-14021508D01*
X12053515Y-14021508D02*
X12072562Y-14011984D01*
X12263039Y-14011984D02*
X12282086Y-14011984D01*
X12282086Y-14011984D02*
X12301134Y-14021508D01*
X12301134Y-14021508D02*
X12310658Y-14031031D01*
X12310658Y-14031031D02*
X12320182Y-14050079D01*
X12320182Y-14050079D02*
X12329705Y-14088174D01*
X12329705Y-14088174D02*
X12329705Y-14135793D01*
X12329705Y-14135793D02*
X12320182Y-14173888D01*
X12320182Y-14173888D02*
X12310658Y-14192936D01*
X12310658Y-14192936D02*
X12301134Y-14202460D01*
X12301134Y-14202460D02*
X12282086Y-14211984D01*
X12282086Y-14211984D02*
X12263039Y-14211984D01*
X12263039Y-14211984D02*
X12243991Y-14202460D01*
X12243991Y-14202460D02*
X12234467Y-14192936D01*
X12234467Y-14192936D02*
X12224943Y-14173888D01*
X12224943Y-14173888D02*
X12215420Y-14135793D01*
X12215420Y-14135793D02*
X12215420Y-14088174D01*
X12215420Y-14088174D02*
X12224943Y-14050079D01*
X12224943Y-14050079D02*
X12234467Y-14031031D01*
X12234467Y-14031031D02*
X12243991Y-14021508D01*
X12243991Y-14021508D02*
X12263039Y-14011984D01*
X12415420Y-14211984D02*
X12415420Y-14078650D01*
X12415420Y-14097698D02*
X12424943Y-14088174D01*
X12424943Y-14088174D02*
X12443991Y-14078650D01*
X12443991Y-14078650D02*
X12472563Y-14078650D01*
X12472563Y-14078650D02*
X12491610Y-14088174D01*
X12491610Y-14088174D02*
X12501134Y-14107222D01*
X12501134Y-14107222D02*
X12501134Y-14211984D01*
X12501134Y-14107222D02*
X12510658Y-14088174D01*
X12510658Y-14088174D02*
X12529705Y-14078650D01*
X12529705Y-14078650D02*
X12558277Y-14078650D01*
X12558277Y-14078650D02*
X12577324Y-14088174D01*
X12577324Y-14088174D02*
X12586848Y-14107222D01*
X12586848Y-14107222D02*
X12586848Y-14211984D01*
X12682086Y-14211984D02*
X12682086Y-14078650D01*
X12682086Y-14097698D02*
X12691610Y-14088174D01*
X12691610Y-14088174D02*
X12710658Y-14078650D01*
X12710658Y-14078650D02*
X12739229Y-14078650D01*
X12739229Y-14078650D02*
X12758277Y-14088174D01*
X12758277Y-14088174D02*
X12767801Y-14107222D01*
X12767801Y-14107222D02*
X12767801Y-14211984D01*
X12767801Y-14107222D02*
X12777324Y-14088174D01*
X12777324Y-14088174D02*
X12796372Y-14078650D01*
X12796372Y-14078650D02*
X12824943Y-14078650D01*
X12824943Y-14078650D02*
X12843991Y-14088174D01*
X12843991Y-14088174D02*
X12853515Y-14107222D01*
X12853515Y-14107222D02*
X12853515Y-14211984D01*
X13243991Y-14002460D02*
X13072563Y-14259603D01*
X13501134Y-14011984D02*
X13520182Y-14011984D01*
X13520182Y-14011984D02*
X13539229Y-14021508D01*
X13539229Y-14021508D02*
X13548753Y-14031031D01*
X13548753Y-14031031D02*
X13558277Y-14050079D01*
X13558277Y-14050079D02*
X13567801Y-14088174D01*
X13567801Y-14088174D02*
X13567801Y-14135793D01*
X13567801Y-14135793D02*
X13558277Y-14173888D01*
X13558277Y-14173888D02*
X13548753Y-14192936D01*
X13548753Y-14192936D02*
X13539229Y-14202460D01*
X13539229Y-14202460D02*
X13520182Y-14211984D01*
X13520182Y-14211984D02*
X13501134Y-14211984D01*
X13501134Y-14211984D02*
X13482086Y-14202460D01*
X13482086Y-14202460D02*
X13472563Y-14192936D01*
X13472563Y-14192936D02*
X13463039Y-14173888D01*
X13463039Y-14173888D02*
X13453515Y-14135793D01*
X13453515Y-14135793D02*
X13453515Y-14088174D01*
X13453515Y-14088174D02*
X13463039Y-14050079D01*
X13463039Y-14050079D02*
X13472563Y-14031031D01*
X13472563Y-14031031D02*
X13482086Y-14021508D01*
X13482086Y-14021508D02*
X13501134Y-14011984D01*
X13653515Y-14192936D02*
X13663039Y-14202460D01*
X13663039Y-14202460D02*
X13653515Y-14211984D01*
X13653515Y-14211984D02*
X13643991Y-14202460D01*
X13643991Y-14202460D02*
X13653515Y-14192936D01*
X13653515Y-14192936D02*
X13653515Y-14211984D01*
X13786848Y-14011984D02*
X13805896Y-14011984D01*
X13805896Y-14011984D02*
X13824944Y-14021508D01*
X13824944Y-14021508D02*
X13834467Y-14031031D01*
X13834467Y-14031031D02*
X13843991Y-14050079D01*
X13843991Y-14050079D02*
X13853515Y-14088174D01*
X13853515Y-14088174D02*
X13853515Y-14135793D01*
X13853515Y-14135793D02*
X13843991Y-14173888D01*
X13843991Y-14173888D02*
X13834467Y-14192936D01*
X13834467Y-14192936D02*
X13824944Y-14202460D01*
X13824944Y-14202460D02*
X13805896Y-14211984D01*
X13805896Y-14211984D02*
X13786848Y-14211984D01*
X13786848Y-14211984D02*
X13767801Y-14202460D01*
X13767801Y-14202460D02*
X13758277Y-14192936D01*
X13758277Y-14192936D02*
X13748753Y-14173888D01*
X13748753Y-14173888D02*
X13739229Y-14135793D01*
X13739229Y-14135793D02*
X13739229Y-14088174D01*
X13739229Y-14088174D02*
X13748753Y-14050079D01*
X13748753Y-14050079D02*
X13758277Y-14031031D01*
X13758277Y-14031031D02*
X13767801Y-14021508D01*
X13767801Y-14021508D02*
X13786848Y-14011984D01*
X13920182Y-14011984D02*
X14043991Y-14011984D01*
X14043991Y-14011984D02*
X13977325Y-14088174D01*
X13977325Y-14088174D02*
X14005896Y-14088174D01*
X14005896Y-14088174D02*
X14024944Y-14097698D01*
X14024944Y-14097698D02*
X14034467Y-14107222D01*
X14034467Y-14107222D02*
X14043991Y-14126269D01*
X14043991Y-14126269D02*
X14043991Y-14173888D01*
X14043991Y-14173888D02*
X14034467Y-14192936D01*
X14034467Y-14192936D02*
X14024944Y-14202460D01*
X14024944Y-14202460D02*
X14005896Y-14211984D01*
X14005896Y-14211984D02*
X13948753Y-14211984D01*
X13948753Y-14211984D02*
X13929706Y-14202460D01*
X13929706Y-14202460D02*
X13920182Y-14192936D01*
X14234467Y-14211984D02*
X14120182Y-14211984D01*
X14177325Y-14211984D02*
X14177325Y-14011984D01*
X14177325Y-14011984D02*
X14158277Y-14040555D01*
X14158277Y-14040555D02*
X14139229Y-14059603D01*
X14139229Y-14059603D02*
X14120182Y-14069127D01*
X14415420Y-14011984D02*
X14320182Y-14011984D01*
X14320182Y-14011984D02*
X14310658Y-14107222D01*
X14310658Y-14107222D02*
X14320182Y-14097698D01*
X14320182Y-14097698D02*
X14339229Y-14088174D01*
X14339229Y-14088174D02*
X14386848Y-14088174D01*
X14386848Y-14088174D02*
X14405896Y-14097698D01*
X14405896Y-14097698D02*
X14415420Y-14107222D01*
X14415420Y-14107222D02*
X14424944Y-14126269D01*
X14424944Y-14126269D02*
X14424944Y-14173888D01*
X14424944Y-14173888D02*
X14415420Y-14192936D01*
X14415420Y-14192936D02*
X14405896Y-14202460D01*
X14405896Y-14202460D02*
X14386848Y-14211984D01*
X14386848Y-14211984D02*
X14339229Y-14211984D01*
X14339229Y-14211984D02*
X14320182Y-14202460D01*
X14320182Y-14202460D02*
X14310658Y-14192936D01*
X14501134Y-14011984D02*
X14501134Y-14050079D01*
X14577325Y-14011984D02*
X14577325Y-14050079D01*
X14872563Y-14288174D02*
X14863039Y-14278650D01*
X14863039Y-14278650D02*
X14843991Y-14250079D01*
X14843991Y-14250079D02*
X14834468Y-14231031D01*
X14834468Y-14231031D02*
X14824944Y-14202460D01*
X14824944Y-14202460D02*
X14815420Y-14154841D01*
X14815420Y-14154841D02*
X14815420Y-14116746D01*
X14815420Y-14116746D02*
X14824944Y-14069127D01*
X14824944Y-14069127D02*
X14834468Y-14040555D01*
X14834468Y-14040555D02*
X14843991Y-14021508D01*
X14843991Y-14021508D02*
X14863039Y-13992936D01*
X14863039Y-13992936D02*
X14872563Y-13983412D01*
X14939229Y-14031031D02*
X14948753Y-14021508D01*
X14948753Y-14021508D02*
X14967801Y-14011984D01*
X14967801Y-14011984D02*
X15015420Y-14011984D01*
X15015420Y-14011984D02*
X15034468Y-14021508D01*
X15034468Y-14021508D02*
X15043991Y-14031031D01*
X15043991Y-14031031D02*
X15053515Y-14050079D01*
X15053515Y-14050079D02*
X15053515Y-14069127D01*
X15053515Y-14069127D02*
X15043991Y-14097698D01*
X15043991Y-14097698D02*
X14929706Y-14211984D01*
X14929706Y-14211984D02*
X15053515Y-14211984D01*
X15291610Y-14211984D02*
X15291610Y-14011984D01*
X15377325Y-14211984D02*
X15377325Y-14107222D01*
X15377325Y-14107222D02*
X15367801Y-14088174D01*
X15367801Y-14088174D02*
X15348753Y-14078650D01*
X15348753Y-14078650D02*
X15320182Y-14078650D01*
X15320182Y-14078650D02*
X15301134Y-14088174D01*
X15301134Y-14088174D02*
X15291610Y-14097698D01*
X15501134Y-14211984D02*
X15482087Y-14202460D01*
X15482087Y-14202460D02*
X15472563Y-14192936D01*
X15472563Y-14192936D02*
X15463039Y-14173888D01*
X15463039Y-14173888D02*
X15463039Y-14116746D01*
X15463039Y-14116746D02*
X15472563Y-14097698D01*
X15472563Y-14097698D02*
X15482087Y-14088174D01*
X15482087Y-14088174D02*
X15501134Y-14078650D01*
X15501134Y-14078650D02*
X15529706Y-14078650D01*
X15529706Y-14078650D02*
X15548753Y-14088174D01*
X15548753Y-14088174D02*
X15558277Y-14097698D01*
X15558277Y-14097698D02*
X15567801Y-14116746D01*
X15567801Y-14116746D02*
X15567801Y-14173888D01*
X15567801Y-14173888D02*
X15558277Y-14192936D01*
X15558277Y-14192936D02*
X15548753Y-14202460D01*
X15548753Y-14202460D02*
X15529706Y-14211984D01*
X15529706Y-14211984D02*
X15501134Y-14211984D01*
X15682087Y-14211984D02*
X15663039Y-14202460D01*
X15663039Y-14202460D02*
X15653515Y-14183412D01*
X15653515Y-14183412D02*
X15653515Y-14011984D01*
X15834468Y-14202460D02*
X15815420Y-14211984D01*
X15815420Y-14211984D02*
X15777325Y-14211984D01*
X15777325Y-14211984D02*
X15758277Y-14202460D01*
X15758277Y-14202460D02*
X15748753Y-14183412D01*
X15748753Y-14183412D02*
X15748753Y-14107222D01*
X15748753Y-14107222D02*
X15758277Y-14088174D01*
X15758277Y-14088174D02*
X15777325Y-14078650D01*
X15777325Y-14078650D02*
X15815420Y-14078650D01*
X15815420Y-14078650D02*
X15834468Y-14088174D01*
X15834468Y-14088174D02*
X15843991Y-14107222D01*
X15843991Y-14107222D02*
X15843991Y-14126269D01*
X15843991Y-14126269D02*
X15748753Y-14145317D01*
X15920182Y-14202460D02*
X15939230Y-14211984D01*
X15939230Y-14211984D02*
X15977325Y-14211984D01*
X15977325Y-14211984D02*
X15996372Y-14202460D01*
X15996372Y-14202460D02*
X16005896Y-14183412D01*
X16005896Y-14183412D02*
X16005896Y-14173888D01*
X16005896Y-14173888D02*
X15996372Y-14154841D01*
X15996372Y-14154841D02*
X15977325Y-14145317D01*
X15977325Y-14145317D02*
X15948753Y-14145317D01*
X15948753Y-14145317D02*
X15929706Y-14135793D01*
X15929706Y-14135793D02*
X15920182Y-14116746D01*
X15920182Y-14116746D02*
X15920182Y-14107222D01*
X15920182Y-14107222D02*
X15929706Y-14088174D01*
X15929706Y-14088174D02*
X15948753Y-14078650D01*
X15948753Y-14078650D02*
X15977325Y-14078650D01*
X15977325Y-14078650D02*
X15996372Y-14088174D01*
X16072563Y-14288174D02*
X16082087Y-14278650D01*
X16082087Y-14278650D02*
X16101134Y-14250079D01*
X16101134Y-14250079D02*
X16110658Y-14231031D01*
X16110658Y-14231031D02*
X16120182Y-14202460D01*
X16120182Y-14202460D02*
X16129706Y-14154841D01*
X16129706Y-14154841D02*
X16129706Y-14116746D01*
X16129706Y-14116746D02*
X16120182Y-14069127D01*
X16120182Y-14069127D02*
X16110658Y-14040555D01*
X16110658Y-14040555D02*
X16101134Y-14021508D01*
X16101134Y-14021508D02*
X16082087Y-13992936D01*
X16082087Y-13992936D02*
X16072563Y-13983412D01*
D12*
X11282856Y-14419856D02*
X11282856Y-14349144D01*
X11212144Y-14349144D01*
X11212144Y-14419856D01*
X11282856Y-14419856D01*
D11*
X11663039Y-14475984D02*
X11548753Y-14475984D01*
X11605896Y-14475984D02*
X11605896Y-14275984D01*
X11605896Y-14275984D02*
X11586848Y-14304555D01*
X11586848Y-14304555D02*
X11567801Y-14323603D01*
X11567801Y-14323603D02*
X11548753Y-14333127D01*
X11748753Y-14456936D02*
X11758277Y-14466460D01*
X11758277Y-14466460D02*
X11748753Y-14475984D01*
X11748753Y-14475984D02*
X11739229Y-14466460D01*
X11739229Y-14466460D02*
X11748753Y-14456936D01*
X11748753Y-14456936D02*
X11748753Y-14475984D01*
X11882086Y-14275984D02*
X11901134Y-14275984D01*
X11901134Y-14275984D02*
X11920182Y-14285508D01*
X11920182Y-14285508D02*
X11929705Y-14295031D01*
X11929705Y-14295031D02*
X11939229Y-14314079D01*
X11939229Y-14314079D02*
X11948753Y-14352174D01*
X11948753Y-14352174D02*
X11948753Y-14399793D01*
X11948753Y-14399793D02*
X11939229Y-14437888D01*
X11939229Y-14437888D02*
X11929705Y-14456936D01*
X11929705Y-14456936D02*
X11920182Y-14466460D01*
X11920182Y-14466460D02*
X11901134Y-14475984D01*
X11901134Y-14475984D02*
X11882086Y-14475984D01*
X11882086Y-14475984D02*
X11863039Y-14466460D01*
X11863039Y-14466460D02*
X11853515Y-14456936D01*
X11853515Y-14456936D02*
X11843991Y-14437888D01*
X11843991Y-14437888D02*
X11834467Y-14399793D01*
X11834467Y-14399793D02*
X11834467Y-14352174D01*
X11834467Y-14352174D02*
X11843991Y-14314079D01*
X11843991Y-14314079D02*
X11853515Y-14295031D01*
X11853515Y-14295031D02*
X11863039Y-14285508D01*
X11863039Y-14285508D02*
X11882086Y-14275984D01*
X12072562Y-14275984D02*
X12091610Y-14275984D01*
X12091610Y-14275984D02*
X12110658Y-14285508D01*
X12110658Y-14285508D02*
X12120182Y-14295031D01*
X12120182Y-14295031D02*
X12129705Y-14314079D01*
X12129705Y-14314079D02*
X12139229Y-14352174D01*
X12139229Y-14352174D02*
X12139229Y-14399793D01*
X12139229Y-14399793D02*
X12129705Y-14437888D01*
X12129705Y-14437888D02*
X12120182Y-14456936D01*
X12120182Y-14456936D02*
X12110658Y-14466460D01*
X12110658Y-14466460D02*
X12091610Y-14475984D01*
X12091610Y-14475984D02*
X12072562Y-14475984D01*
X12072562Y-14475984D02*
X12053515Y-14466460D01*
X12053515Y-14466460D02*
X12043991Y-14456936D01*
X12043991Y-14456936D02*
X12034467Y-14437888D01*
X12034467Y-14437888D02*
X12024943Y-14399793D01*
X12024943Y-14399793D02*
X12024943Y-14352174D01*
X12024943Y-14352174D02*
X12034467Y-14314079D01*
X12034467Y-14314079D02*
X12043991Y-14295031D01*
X12043991Y-14295031D02*
X12053515Y-14285508D01*
X12053515Y-14285508D02*
X12072562Y-14275984D01*
X12263039Y-14275984D02*
X12282086Y-14275984D01*
X12282086Y-14275984D02*
X12301134Y-14285508D01*
X12301134Y-14285508D02*
X12310658Y-14295031D01*
X12310658Y-14295031D02*
X12320182Y-14314079D01*
X12320182Y-14314079D02*
X12329705Y-14352174D01*
X12329705Y-14352174D02*
X12329705Y-14399793D01*
X12329705Y-14399793D02*
X12320182Y-14437888D01*
X12320182Y-14437888D02*
X12310658Y-14456936D01*
X12310658Y-14456936D02*
X12301134Y-14466460D01*
X12301134Y-14466460D02*
X12282086Y-14475984D01*
X12282086Y-14475984D02*
X12263039Y-14475984D01*
X12263039Y-14475984D02*
X12243991Y-14466460D01*
X12243991Y-14466460D02*
X12234467Y-14456936D01*
X12234467Y-14456936D02*
X12224943Y-14437888D01*
X12224943Y-14437888D02*
X12215420Y-14399793D01*
X12215420Y-14399793D02*
X12215420Y-14352174D01*
X12215420Y-14352174D02*
X12224943Y-14314079D01*
X12224943Y-14314079D02*
X12234467Y-14295031D01*
X12234467Y-14295031D02*
X12243991Y-14285508D01*
X12243991Y-14285508D02*
X12263039Y-14275984D01*
X12415420Y-14475984D02*
X12415420Y-14342650D01*
X12415420Y-14361698D02*
X12424943Y-14352174D01*
X12424943Y-14352174D02*
X12443991Y-14342650D01*
X12443991Y-14342650D02*
X12472563Y-14342650D01*
X12472563Y-14342650D02*
X12491610Y-14352174D01*
X12491610Y-14352174D02*
X12501134Y-14371222D01*
X12501134Y-14371222D02*
X12501134Y-14475984D01*
X12501134Y-14371222D02*
X12510658Y-14352174D01*
X12510658Y-14352174D02*
X12529705Y-14342650D01*
X12529705Y-14342650D02*
X12558277Y-14342650D01*
X12558277Y-14342650D02*
X12577324Y-14352174D01*
X12577324Y-14352174D02*
X12586848Y-14371222D01*
X12586848Y-14371222D02*
X12586848Y-14475984D01*
X12682086Y-14475984D02*
X12682086Y-14342650D01*
X12682086Y-14361698D02*
X12691610Y-14352174D01*
X12691610Y-14352174D02*
X12710658Y-14342650D01*
X12710658Y-14342650D02*
X12739229Y-14342650D01*
X12739229Y-14342650D02*
X12758277Y-14352174D01*
X12758277Y-14352174D02*
X12767801Y-14371222D01*
X12767801Y-14371222D02*
X12767801Y-14475984D01*
X12767801Y-14371222D02*
X12777324Y-14352174D01*
X12777324Y-14352174D02*
X12796372Y-14342650D01*
X12796372Y-14342650D02*
X12824943Y-14342650D01*
X12824943Y-14342650D02*
X12843991Y-14352174D01*
X12843991Y-14352174D02*
X12853515Y-14371222D01*
X12853515Y-14371222D02*
X12853515Y-14475984D01*
X13243991Y-14266460D02*
X13072563Y-14523603D01*
X13501134Y-14275984D02*
X13520182Y-14275984D01*
X13520182Y-14275984D02*
X13539229Y-14285508D01*
X13539229Y-14285508D02*
X13548753Y-14295031D01*
X13548753Y-14295031D02*
X13558277Y-14314079D01*
X13558277Y-14314079D02*
X13567801Y-14352174D01*
X13567801Y-14352174D02*
X13567801Y-14399793D01*
X13567801Y-14399793D02*
X13558277Y-14437888D01*
X13558277Y-14437888D02*
X13548753Y-14456936D01*
X13548753Y-14456936D02*
X13539229Y-14466460D01*
X13539229Y-14466460D02*
X13520182Y-14475984D01*
X13520182Y-14475984D02*
X13501134Y-14475984D01*
X13501134Y-14475984D02*
X13482086Y-14466460D01*
X13482086Y-14466460D02*
X13472563Y-14456936D01*
X13472563Y-14456936D02*
X13463039Y-14437888D01*
X13463039Y-14437888D02*
X13453515Y-14399793D01*
X13453515Y-14399793D02*
X13453515Y-14352174D01*
X13453515Y-14352174D02*
X13463039Y-14314079D01*
X13463039Y-14314079D02*
X13472563Y-14295031D01*
X13472563Y-14295031D02*
X13482086Y-14285508D01*
X13482086Y-14285508D02*
X13501134Y-14275984D01*
X13653515Y-14456936D02*
X13663039Y-14466460D01*
X13663039Y-14466460D02*
X13653515Y-14475984D01*
X13653515Y-14475984D02*
X13643991Y-14466460D01*
X13643991Y-14466460D02*
X13653515Y-14456936D01*
X13653515Y-14456936D02*
X13653515Y-14475984D01*
X13786848Y-14275984D02*
X13805896Y-14275984D01*
X13805896Y-14275984D02*
X13824944Y-14285508D01*
X13824944Y-14285508D02*
X13834467Y-14295031D01*
X13834467Y-14295031D02*
X13843991Y-14314079D01*
X13843991Y-14314079D02*
X13853515Y-14352174D01*
X13853515Y-14352174D02*
X13853515Y-14399793D01*
X13853515Y-14399793D02*
X13843991Y-14437888D01*
X13843991Y-14437888D02*
X13834467Y-14456936D01*
X13834467Y-14456936D02*
X13824944Y-14466460D01*
X13824944Y-14466460D02*
X13805896Y-14475984D01*
X13805896Y-14475984D02*
X13786848Y-14475984D01*
X13786848Y-14475984D02*
X13767801Y-14466460D01*
X13767801Y-14466460D02*
X13758277Y-14456936D01*
X13758277Y-14456936D02*
X13748753Y-14437888D01*
X13748753Y-14437888D02*
X13739229Y-14399793D01*
X13739229Y-14399793D02*
X13739229Y-14352174D01*
X13739229Y-14352174D02*
X13748753Y-14314079D01*
X13748753Y-14314079D02*
X13758277Y-14295031D01*
X13758277Y-14295031D02*
X13767801Y-14285508D01*
X13767801Y-14285508D02*
X13786848Y-14275984D01*
X13920182Y-14275984D02*
X14043991Y-14275984D01*
X14043991Y-14275984D02*
X13977325Y-14352174D01*
X13977325Y-14352174D02*
X14005896Y-14352174D01*
X14005896Y-14352174D02*
X14024944Y-14361698D01*
X14024944Y-14361698D02*
X14034467Y-14371222D01*
X14034467Y-14371222D02*
X14043991Y-14390269D01*
X14043991Y-14390269D02*
X14043991Y-14437888D01*
X14043991Y-14437888D02*
X14034467Y-14456936D01*
X14034467Y-14456936D02*
X14024944Y-14466460D01*
X14024944Y-14466460D02*
X14005896Y-14475984D01*
X14005896Y-14475984D02*
X13948753Y-14475984D01*
X13948753Y-14475984D02*
X13929706Y-14466460D01*
X13929706Y-14466460D02*
X13920182Y-14456936D01*
X14139229Y-14475984D02*
X14177325Y-14475984D01*
X14177325Y-14475984D02*
X14196372Y-14466460D01*
X14196372Y-14466460D02*
X14205896Y-14456936D01*
X14205896Y-14456936D02*
X14224944Y-14428365D01*
X14224944Y-14428365D02*
X14234467Y-14390269D01*
X14234467Y-14390269D02*
X14234467Y-14314079D01*
X14234467Y-14314079D02*
X14224944Y-14295031D01*
X14224944Y-14295031D02*
X14215420Y-14285508D01*
X14215420Y-14285508D02*
X14196372Y-14275984D01*
X14196372Y-14275984D02*
X14158277Y-14275984D01*
X14158277Y-14275984D02*
X14139229Y-14285508D01*
X14139229Y-14285508D02*
X14129706Y-14295031D01*
X14129706Y-14295031D02*
X14120182Y-14314079D01*
X14120182Y-14314079D02*
X14120182Y-14361698D01*
X14120182Y-14361698D02*
X14129706Y-14380746D01*
X14129706Y-14380746D02*
X14139229Y-14390269D01*
X14139229Y-14390269D02*
X14158277Y-14399793D01*
X14158277Y-14399793D02*
X14196372Y-14399793D01*
X14196372Y-14399793D02*
X14215420Y-14390269D01*
X14215420Y-14390269D02*
X14224944Y-14380746D01*
X14224944Y-14380746D02*
X14234467Y-14361698D01*
X14405896Y-14342650D02*
X14405896Y-14475984D01*
X14358277Y-14266460D02*
X14310658Y-14409317D01*
X14310658Y-14409317D02*
X14434467Y-14409317D01*
X14501134Y-14275984D02*
X14501134Y-14314079D01*
X14577325Y-14275984D02*
X14577325Y-14314079D01*
X14872563Y-14552174D02*
X14863039Y-14542650D01*
X14863039Y-14542650D02*
X14843991Y-14514079D01*
X14843991Y-14514079D02*
X14834468Y-14495031D01*
X14834468Y-14495031D02*
X14824944Y-14466460D01*
X14824944Y-14466460D02*
X14815420Y-14418841D01*
X14815420Y-14418841D02*
X14815420Y-14380746D01*
X14815420Y-14380746D02*
X14824944Y-14333127D01*
X14824944Y-14333127D02*
X14834468Y-14304555D01*
X14834468Y-14304555D02*
X14843991Y-14285508D01*
X14843991Y-14285508D02*
X14863039Y-14256936D01*
X14863039Y-14256936D02*
X14872563Y-14247412D01*
X15034468Y-14342650D02*
X15034468Y-14475984D01*
X14986848Y-14266460D02*
X14939229Y-14409317D01*
X14939229Y-14409317D02*
X15063039Y-14409317D01*
X15291610Y-14475984D02*
X15291610Y-14275984D01*
X15377325Y-14475984D02*
X15377325Y-14371222D01*
X15377325Y-14371222D02*
X15367801Y-14352174D01*
X15367801Y-14352174D02*
X15348753Y-14342650D01*
X15348753Y-14342650D02*
X15320182Y-14342650D01*
X15320182Y-14342650D02*
X15301134Y-14352174D01*
X15301134Y-14352174D02*
X15291610Y-14361698D01*
X15501134Y-14475984D02*
X15482087Y-14466460D01*
X15482087Y-14466460D02*
X15472563Y-14456936D01*
X15472563Y-14456936D02*
X15463039Y-14437888D01*
X15463039Y-14437888D02*
X15463039Y-14380746D01*
X15463039Y-14380746D02*
X15472563Y-14361698D01*
X15472563Y-14361698D02*
X15482087Y-14352174D01*
X15482087Y-14352174D02*
X15501134Y-14342650D01*
X15501134Y-14342650D02*
X15529706Y-14342650D01*
X15529706Y-14342650D02*
X15548753Y-14352174D01*
X15548753Y-14352174D02*
X15558277Y-14361698D01*
X15558277Y-14361698D02*
X15567801Y-14380746D01*
X15567801Y-14380746D02*
X15567801Y-14437888D01*
X15567801Y-14437888D02*
X15558277Y-14456936D01*
X15558277Y-14456936D02*
X15548753Y-14466460D01*
X15548753Y-14466460D02*
X15529706Y-14475984D01*
X15529706Y-14475984D02*
X15501134Y-14475984D01*
X15682087Y-14475984D02*
X15663039Y-14466460D01*
X15663039Y-14466460D02*
X15653515Y-14447412D01*
X15653515Y-14447412D02*
X15653515Y-14275984D01*
X15834468Y-14466460D02*
X15815420Y-14475984D01*
X15815420Y-14475984D02*
X15777325Y-14475984D01*
X15777325Y-14475984D02*
X15758277Y-14466460D01*
X15758277Y-14466460D02*
X15748753Y-14447412D01*
X15748753Y-14447412D02*
X15748753Y-14371222D01*
X15748753Y-14371222D02*
X15758277Y-14352174D01*
X15758277Y-14352174D02*
X15777325Y-14342650D01*
X15777325Y-14342650D02*
X15815420Y-14342650D01*
X15815420Y-14342650D02*
X15834468Y-14352174D01*
X15834468Y-14352174D02*
X15843991Y-14371222D01*
X15843991Y-14371222D02*
X15843991Y-14390269D01*
X15843991Y-14390269D02*
X15748753Y-14409317D01*
X15920182Y-14466460D02*
X15939230Y-14475984D01*
X15939230Y-14475984D02*
X15977325Y-14475984D01*
X15977325Y-14475984D02*
X15996372Y-14466460D01*
X15996372Y-14466460D02*
X16005896Y-14447412D01*
X16005896Y-14447412D02*
X16005896Y-14437888D01*
X16005896Y-14437888D02*
X15996372Y-14418841D01*
X15996372Y-14418841D02*
X15977325Y-14409317D01*
X15977325Y-14409317D02*
X15948753Y-14409317D01*
X15948753Y-14409317D02*
X15929706Y-14399793D01*
X15929706Y-14399793D02*
X15920182Y-14380746D01*
X15920182Y-14380746D02*
X15920182Y-14371222D01*
X15920182Y-14371222D02*
X15929706Y-14352174D01*
X15929706Y-14352174D02*
X15948753Y-14342650D01*
X15948753Y-14342650D02*
X15977325Y-14342650D01*
X15977325Y-14342650D02*
X15996372Y-14352174D01*
X16072563Y-14552174D02*
X16082087Y-14542650D01*
X16082087Y-14542650D02*
X16101134Y-14514079D01*
X16101134Y-14514079D02*
X16110658Y-14495031D01*
X16110658Y-14495031D02*
X16120182Y-14466460D01*
X16120182Y-14466460D02*
X16129706Y-14418841D01*
X16129706Y-14418841D02*
X16129706Y-14380746D01*
X16129706Y-14380746D02*
X16120182Y-14333127D01*
X16120182Y-14333127D02*
X16110658Y-14304555D01*
X16110658Y-14304555D02*
X16101134Y-14285508D01*
X16101134Y-14285508D02*
X16082087Y-14256936D01*
X16082087Y-14256936D02*
X16072563Y-14247412D01*
D13*
X11246500Y-14699500D02*
X11297500Y-14648500D01*
X11246500Y-14597500D01*
X11195500Y-14648500D01*
X11246500Y-14699500D01*
D11*
X11663039Y-14739984D02*
X11548753Y-14739984D01*
X11605896Y-14739984D02*
X11605896Y-14539984D01*
X11605896Y-14539984D02*
X11586848Y-14568555D01*
X11586848Y-14568555D02*
X11567801Y-14587603D01*
X11567801Y-14587603D02*
X11548753Y-14597127D01*
X11748753Y-14720936D02*
X11758277Y-14730460D01*
X11758277Y-14730460D02*
X11748753Y-14739984D01*
X11748753Y-14739984D02*
X11739229Y-14730460D01*
X11739229Y-14730460D02*
X11748753Y-14720936D01*
X11748753Y-14720936D02*
X11748753Y-14739984D01*
X11882086Y-14539984D02*
X11901134Y-14539984D01*
X11901134Y-14539984D02*
X11920182Y-14549508D01*
X11920182Y-14549508D02*
X11929705Y-14559031D01*
X11929705Y-14559031D02*
X11939229Y-14578079D01*
X11939229Y-14578079D02*
X11948753Y-14616174D01*
X11948753Y-14616174D02*
X11948753Y-14663793D01*
X11948753Y-14663793D02*
X11939229Y-14701888D01*
X11939229Y-14701888D02*
X11929705Y-14720936D01*
X11929705Y-14720936D02*
X11920182Y-14730460D01*
X11920182Y-14730460D02*
X11901134Y-14739984D01*
X11901134Y-14739984D02*
X11882086Y-14739984D01*
X11882086Y-14739984D02*
X11863039Y-14730460D01*
X11863039Y-14730460D02*
X11853515Y-14720936D01*
X11853515Y-14720936D02*
X11843991Y-14701888D01*
X11843991Y-14701888D02*
X11834467Y-14663793D01*
X11834467Y-14663793D02*
X11834467Y-14616174D01*
X11834467Y-14616174D02*
X11843991Y-14578079D01*
X11843991Y-14578079D02*
X11853515Y-14559031D01*
X11853515Y-14559031D02*
X11863039Y-14549508D01*
X11863039Y-14549508D02*
X11882086Y-14539984D01*
X12024943Y-14559031D02*
X12034467Y-14549508D01*
X12034467Y-14549508D02*
X12053515Y-14539984D01*
X12053515Y-14539984D02*
X12101134Y-14539984D01*
X12101134Y-14539984D02*
X12120182Y-14549508D01*
X12120182Y-14549508D02*
X12129705Y-14559031D01*
X12129705Y-14559031D02*
X12139229Y-14578079D01*
X12139229Y-14578079D02*
X12139229Y-14597127D01*
X12139229Y-14597127D02*
X12129705Y-14625698D01*
X12129705Y-14625698D02*
X12015420Y-14739984D01*
X12015420Y-14739984D02*
X12139229Y-14739984D01*
X12263039Y-14539984D02*
X12282086Y-14539984D01*
X12282086Y-14539984D02*
X12301134Y-14549508D01*
X12301134Y-14549508D02*
X12310658Y-14559031D01*
X12310658Y-14559031D02*
X12320182Y-14578079D01*
X12320182Y-14578079D02*
X12329705Y-14616174D01*
X12329705Y-14616174D02*
X12329705Y-14663793D01*
X12329705Y-14663793D02*
X12320182Y-14701888D01*
X12320182Y-14701888D02*
X12310658Y-14720936D01*
X12310658Y-14720936D02*
X12301134Y-14730460D01*
X12301134Y-14730460D02*
X12282086Y-14739984D01*
X12282086Y-14739984D02*
X12263039Y-14739984D01*
X12263039Y-14739984D02*
X12243991Y-14730460D01*
X12243991Y-14730460D02*
X12234467Y-14720936D01*
X12234467Y-14720936D02*
X12224943Y-14701888D01*
X12224943Y-14701888D02*
X12215420Y-14663793D01*
X12215420Y-14663793D02*
X12215420Y-14616174D01*
X12215420Y-14616174D02*
X12224943Y-14578079D01*
X12224943Y-14578079D02*
X12234467Y-14559031D01*
X12234467Y-14559031D02*
X12243991Y-14549508D01*
X12243991Y-14549508D02*
X12263039Y-14539984D01*
X12415420Y-14739984D02*
X12415420Y-14606650D01*
X12415420Y-14625698D02*
X12424943Y-14616174D01*
X12424943Y-14616174D02*
X12443991Y-14606650D01*
X12443991Y-14606650D02*
X12472563Y-14606650D01*
X12472563Y-14606650D02*
X12491610Y-14616174D01*
X12491610Y-14616174D02*
X12501134Y-14635222D01*
X12501134Y-14635222D02*
X12501134Y-14739984D01*
X12501134Y-14635222D02*
X12510658Y-14616174D01*
X12510658Y-14616174D02*
X12529705Y-14606650D01*
X12529705Y-14606650D02*
X12558277Y-14606650D01*
X12558277Y-14606650D02*
X12577324Y-14616174D01*
X12577324Y-14616174D02*
X12586848Y-14635222D01*
X12586848Y-14635222D02*
X12586848Y-14739984D01*
X12682086Y-14739984D02*
X12682086Y-14606650D01*
X12682086Y-14625698D02*
X12691610Y-14616174D01*
X12691610Y-14616174D02*
X12710658Y-14606650D01*
X12710658Y-14606650D02*
X12739229Y-14606650D01*
X12739229Y-14606650D02*
X12758277Y-14616174D01*
X12758277Y-14616174D02*
X12767801Y-14635222D01*
X12767801Y-14635222D02*
X12767801Y-14739984D01*
X12767801Y-14635222D02*
X12777324Y-14616174D01*
X12777324Y-14616174D02*
X12796372Y-14606650D01*
X12796372Y-14606650D02*
X12824943Y-14606650D01*
X12824943Y-14606650D02*
X12843991Y-14616174D01*
X12843991Y-14616174D02*
X12853515Y-14635222D01*
X12853515Y-14635222D02*
X12853515Y-14739984D01*
X13243991Y-14530460D02*
X13072563Y-14787603D01*
X13501134Y-14539984D02*
X13520182Y-14539984D01*
X13520182Y-14539984D02*
X13539229Y-14549508D01*
X13539229Y-14549508D02*
X13548753Y-14559031D01*
X13548753Y-14559031D02*
X13558277Y-14578079D01*
X13558277Y-14578079D02*
X13567801Y-14616174D01*
X13567801Y-14616174D02*
X13567801Y-14663793D01*
X13567801Y-14663793D02*
X13558277Y-14701888D01*
X13558277Y-14701888D02*
X13548753Y-14720936D01*
X13548753Y-14720936D02*
X13539229Y-14730460D01*
X13539229Y-14730460D02*
X13520182Y-14739984D01*
X13520182Y-14739984D02*
X13501134Y-14739984D01*
X13501134Y-14739984D02*
X13482086Y-14730460D01*
X13482086Y-14730460D02*
X13472563Y-14720936D01*
X13472563Y-14720936D02*
X13463039Y-14701888D01*
X13463039Y-14701888D02*
X13453515Y-14663793D01*
X13453515Y-14663793D02*
X13453515Y-14616174D01*
X13453515Y-14616174D02*
X13463039Y-14578079D01*
X13463039Y-14578079D02*
X13472563Y-14559031D01*
X13472563Y-14559031D02*
X13482086Y-14549508D01*
X13482086Y-14549508D02*
X13501134Y-14539984D01*
X13653515Y-14720936D02*
X13663039Y-14730460D01*
X13663039Y-14730460D02*
X13653515Y-14739984D01*
X13653515Y-14739984D02*
X13643991Y-14730460D01*
X13643991Y-14730460D02*
X13653515Y-14720936D01*
X13653515Y-14720936D02*
X13653515Y-14739984D01*
X13786848Y-14539984D02*
X13805896Y-14539984D01*
X13805896Y-14539984D02*
X13824944Y-14549508D01*
X13824944Y-14549508D02*
X13834467Y-14559031D01*
X13834467Y-14559031D02*
X13843991Y-14578079D01*
X13843991Y-14578079D02*
X13853515Y-14616174D01*
X13853515Y-14616174D02*
X13853515Y-14663793D01*
X13853515Y-14663793D02*
X13843991Y-14701888D01*
X13843991Y-14701888D02*
X13834467Y-14720936D01*
X13834467Y-14720936D02*
X13824944Y-14730460D01*
X13824944Y-14730460D02*
X13805896Y-14739984D01*
X13805896Y-14739984D02*
X13786848Y-14739984D01*
X13786848Y-14739984D02*
X13767801Y-14730460D01*
X13767801Y-14730460D02*
X13758277Y-14720936D01*
X13758277Y-14720936D02*
X13748753Y-14701888D01*
X13748753Y-14701888D02*
X13739229Y-14663793D01*
X13739229Y-14663793D02*
X13739229Y-14616174D01*
X13739229Y-14616174D02*
X13748753Y-14578079D01*
X13748753Y-14578079D02*
X13758277Y-14559031D01*
X13758277Y-14559031D02*
X13767801Y-14549508D01*
X13767801Y-14549508D02*
X13786848Y-14539984D01*
X14024944Y-14606650D02*
X14024944Y-14739984D01*
X13977325Y-14530460D02*
X13929706Y-14673317D01*
X13929706Y-14673317D02*
X14053515Y-14673317D01*
X14167801Y-14539984D02*
X14186848Y-14539984D01*
X14186848Y-14539984D02*
X14205896Y-14549508D01*
X14205896Y-14549508D02*
X14215420Y-14559031D01*
X14215420Y-14559031D02*
X14224944Y-14578079D01*
X14224944Y-14578079D02*
X14234467Y-14616174D01*
X14234467Y-14616174D02*
X14234467Y-14663793D01*
X14234467Y-14663793D02*
X14224944Y-14701888D01*
X14224944Y-14701888D02*
X14215420Y-14720936D01*
X14215420Y-14720936D02*
X14205896Y-14730460D01*
X14205896Y-14730460D02*
X14186848Y-14739984D01*
X14186848Y-14739984D02*
X14167801Y-14739984D01*
X14167801Y-14739984D02*
X14148753Y-14730460D01*
X14148753Y-14730460D02*
X14139229Y-14720936D01*
X14139229Y-14720936D02*
X14129706Y-14701888D01*
X14129706Y-14701888D02*
X14120182Y-14663793D01*
X14120182Y-14663793D02*
X14120182Y-14616174D01*
X14120182Y-14616174D02*
X14129706Y-14578079D01*
X14129706Y-14578079D02*
X14139229Y-14559031D01*
X14139229Y-14559031D02*
X14148753Y-14549508D01*
X14148753Y-14549508D02*
X14167801Y-14539984D01*
X14310658Y-14559031D02*
X14320182Y-14549508D01*
X14320182Y-14549508D02*
X14339229Y-14539984D01*
X14339229Y-14539984D02*
X14386848Y-14539984D01*
X14386848Y-14539984D02*
X14405896Y-14549508D01*
X14405896Y-14549508D02*
X14415420Y-14559031D01*
X14415420Y-14559031D02*
X14424944Y-14578079D01*
X14424944Y-14578079D02*
X14424944Y-14597127D01*
X14424944Y-14597127D02*
X14415420Y-14625698D01*
X14415420Y-14625698D02*
X14301134Y-14739984D01*
X14301134Y-14739984D02*
X14424944Y-14739984D01*
X14501134Y-14539984D02*
X14501134Y-14578079D01*
X14577325Y-14539984D02*
X14577325Y-14578079D01*
X14872563Y-14816174D02*
X14863039Y-14806650D01*
X14863039Y-14806650D02*
X14843991Y-14778079D01*
X14843991Y-14778079D02*
X14834468Y-14759031D01*
X14834468Y-14759031D02*
X14824944Y-14730460D01*
X14824944Y-14730460D02*
X14815420Y-14682841D01*
X14815420Y-14682841D02*
X14815420Y-14644746D01*
X14815420Y-14644746D02*
X14824944Y-14597127D01*
X14824944Y-14597127D02*
X14834468Y-14568555D01*
X14834468Y-14568555D02*
X14843991Y-14549508D01*
X14843991Y-14549508D02*
X14863039Y-14520936D01*
X14863039Y-14520936D02*
X14872563Y-14511412D01*
X15034468Y-14606650D02*
X15034468Y-14739984D01*
X14986848Y-14530460D02*
X14939229Y-14673317D01*
X14939229Y-14673317D02*
X15063039Y-14673317D01*
X15224944Y-14606650D02*
X15224944Y-14739984D01*
X15177325Y-14530460D02*
X15129706Y-14673317D01*
X15129706Y-14673317D02*
X15253515Y-14673317D01*
X15482087Y-14739984D02*
X15482087Y-14539984D01*
X15567801Y-14739984D02*
X15567801Y-14635222D01*
X15567801Y-14635222D02*
X15558277Y-14616174D01*
X15558277Y-14616174D02*
X15539230Y-14606650D01*
X15539230Y-14606650D02*
X15510658Y-14606650D01*
X15510658Y-14606650D02*
X15491610Y-14616174D01*
X15491610Y-14616174D02*
X15482087Y-14625698D01*
X15691610Y-14739984D02*
X15672563Y-14730460D01*
X15672563Y-14730460D02*
X15663039Y-14720936D01*
X15663039Y-14720936D02*
X15653515Y-14701888D01*
X15653515Y-14701888D02*
X15653515Y-14644746D01*
X15653515Y-14644746D02*
X15663039Y-14625698D01*
X15663039Y-14625698D02*
X15672563Y-14616174D01*
X15672563Y-14616174D02*
X15691610Y-14606650D01*
X15691610Y-14606650D02*
X15720182Y-14606650D01*
X15720182Y-14606650D02*
X15739230Y-14616174D01*
X15739230Y-14616174D02*
X15748753Y-14625698D01*
X15748753Y-14625698D02*
X15758277Y-14644746D01*
X15758277Y-14644746D02*
X15758277Y-14701888D01*
X15758277Y-14701888D02*
X15748753Y-14720936D01*
X15748753Y-14720936D02*
X15739230Y-14730460D01*
X15739230Y-14730460D02*
X15720182Y-14739984D01*
X15720182Y-14739984D02*
X15691610Y-14739984D01*
X15872563Y-14739984D02*
X15853515Y-14730460D01*
X15853515Y-14730460D02*
X15843991Y-14711412D01*
X15843991Y-14711412D02*
X15843991Y-14539984D01*
X16024944Y-14730460D02*
X16005896Y-14739984D01*
X16005896Y-14739984D02*
X15967801Y-14739984D01*
X15967801Y-14739984D02*
X15948753Y-14730460D01*
X15948753Y-14730460D02*
X15939230Y-14711412D01*
X15939230Y-14711412D02*
X15939230Y-14635222D01*
X15939230Y-14635222D02*
X15948753Y-14616174D01*
X15948753Y-14616174D02*
X15967801Y-14606650D01*
X15967801Y-14606650D02*
X16005896Y-14606650D01*
X16005896Y-14606650D02*
X16024944Y-14616174D01*
X16024944Y-14616174D02*
X16034468Y-14635222D01*
X16034468Y-14635222D02*
X16034468Y-14654269D01*
X16034468Y-14654269D02*
X15939230Y-14673317D01*
X16110658Y-14730460D02*
X16129706Y-14739984D01*
X16129706Y-14739984D02*
X16167801Y-14739984D01*
X16167801Y-14739984D02*
X16186849Y-14730460D01*
X16186849Y-14730460D02*
X16196372Y-14711412D01*
X16196372Y-14711412D02*
X16196372Y-14701888D01*
X16196372Y-14701888D02*
X16186849Y-14682841D01*
X16186849Y-14682841D02*
X16167801Y-14673317D01*
X16167801Y-14673317D02*
X16139230Y-14673317D01*
X16139230Y-14673317D02*
X16120182Y-14663793D01*
X16120182Y-14663793D02*
X16110658Y-14644746D01*
X16110658Y-14644746D02*
X16110658Y-14635222D01*
X16110658Y-14635222D02*
X16120182Y-14616174D01*
X16120182Y-14616174D02*
X16139230Y-14606650D01*
X16139230Y-14606650D02*
X16167801Y-14606650D01*
X16167801Y-14606650D02*
X16186849Y-14616174D01*
X16263039Y-14816174D02*
X16272563Y-14806650D01*
X16272563Y-14806650D02*
X16291611Y-14778079D01*
X16291611Y-14778079D02*
X16301134Y-14759031D01*
X16301134Y-14759031D02*
X16310658Y-14730460D01*
X16310658Y-14730460D02*
X16320182Y-14682841D01*
X16320182Y-14682841D02*
X16320182Y-14644746D01*
X16320182Y-14644746D02*
X16310658Y-14597127D01*
X16310658Y-14597127D02*
X16301134Y-14568555D01*
X16301134Y-14568555D02*
X16291611Y-14549508D01*
X16291611Y-14549508D02*
X16272563Y-14520936D01*
X16272563Y-14520936D02*
X16263039Y-14511412D01*
D14*
X11167500Y-14847500D02*
X11297500Y-14977500D01*
X11297500Y-14847500D02*
X11167500Y-14977500D01*
X11297500Y-14912500D02*
G75*
G02*
X11167500Y-14912500I-65000J0D01*
G01*
X11167500Y-14912500D02*
G75*
G02*
X11297500Y-14912500I65000J0D01*
G01*
D11*
X11663039Y-15003984D02*
X11548753Y-15003984D01*
X11605896Y-15003984D02*
X11605896Y-14803984D01*
X11605896Y-14803984D02*
X11586848Y-14832555D01*
X11586848Y-14832555D02*
X11567801Y-14851603D01*
X11567801Y-14851603D02*
X11548753Y-14861127D01*
X11748753Y-14984936D02*
X11758277Y-14994460D01*
X11758277Y-14994460D02*
X11748753Y-15003984D01*
X11748753Y-15003984D02*
X11739229Y-14994460D01*
X11739229Y-14994460D02*
X11748753Y-14984936D01*
X11748753Y-14984936D02*
X11748753Y-15003984D01*
X11824943Y-14803984D02*
X11948753Y-14803984D01*
X11948753Y-14803984D02*
X11882086Y-14880174D01*
X11882086Y-14880174D02*
X11910658Y-14880174D01*
X11910658Y-14880174D02*
X11929705Y-14889698D01*
X11929705Y-14889698D02*
X11939229Y-14899222D01*
X11939229Y-14899222D02*
X11948753Y-14918269D01*
X11948753Y-14918269D02*
X11948753Y-14965888D01*
X11948753Y-14965888D02*
X11939229Y-14984936D01*
X11939229Y-14984936D02*
X11929705Y-14994460D01*
X11929705Y-14994460D02*
X11910658Y-15003984D01*
X11910658Y-15003984D02*
X11853515Y-15003984D01*
X11853515Y-15003984D02*
X11834467Y-14994460D01*
X11834467Y-14994460D02*
X11824943Y-14984936D01*
X12072562Y-14803984D02*
X12091610Y-14803984D01*
X12091610Y-14803984D02*
X12110658Y-14813508D01*
X12110658Y-14813508D02*
X12120182Y-14823031D01*
X12120182Y-14823031D02*
X12129705Y-14842079D01*
X12129705Y-14842079D02*
X12139229Y-14880174D01*
X12139229Y-14880174D02*
X12139229Y-14927793D01*
X12139229Y-14927793D02*
X12129705Y-14965888D01*
X12129705Y-14965888D02*
X12120182Y-14984936D01*
X12120182Y-14984936D02*
X12110658Y-14994460D01*
X12110658Y-14994460D02*
X12091610Y-15003984D01*
X12091610Y-15003984D02*
X12072562Y-15003984D01*
X12072562Y-15003984D02*
X12053515Y-14994460D01*
X12053515Y-14994460D02*
X12043991Y-14984936D01*
X12043991Y-14984936D02*
X12034467Y-14965888D01*
X12034467Y-14965888D02*
X12024943Y-14927793D01*
X12024943Y-14927793D02*
X12024943Y-14880174D01*
X12024943Y-14880174D02*
X12034467Y-14842079D01*
X12034467Y-14842079D02*
X12043991Y-14823031D01*
X12043991Y-14823031D02*
X12053515Y-14813508D01*
X12053515Y-14813508D02*
X12072562Y-14803984D01*
X12263039Y-14803984D02*
X12282086Y-14803984D01*
X12282086Y-14803984D02*
X12301134Y-14813508D01*
X12301134Y-14813508D02*
X12310658Y-14823031D01*
X12310658Y-14823031D02*
X12320182Y-14842079D01*
X12320182Y-14842079D02*
X12329705Y-14880174D01*
X12329705Y-14880174D02*
X12329705Y-14927793D01*
X12329705Y-14927793D02*
X12320182Y-14965888D01*
X12320182Y-14965888D02*
X12310658Y-14984936D01*
X12310658Y-14984936D02*
X12301134Y-14994460D01*
X12301134Y-14994460D02*
X12282086Y-15003984D01*
X12282086Y-15003984D02*
X12263039Y-15003984D01*
X12263039Y-15003984D02*
X12243991Y-14994460D01*
X12243991Y-14994460D02*
X12234467Y-14984936D01*
X12234467Y-14984936D02*
X12224943Y-14965888D01*
X12224943Y-14965888D02*
X12215420Y-14927793D01*
X12215420Y-14927793D02*
X12215420Y-14880174D01*
X12215420Y-14880174D02*
X12224943Y-14842079D01*
X12224943Y-14842079D02*
X12234467Y-14823031D01*
X12234467Y-14823031D02*
X12243991Y-14813508D01*
X12243991Y-14813508D02*
X12263039Y-14803984D01*
X12415420Y-15003984D02*
X12415420Y-14870650D01*
X12415420Y-14889698D02*
X12424943Y-14880174D01*
X12424943Y-14880174D02*
X12443991Y-14870650D01*
X12443991Y-14870650D02*
X12472563Y-14870650D01*
X12472563Y-14870650D02*
X12491610Y-14880174D01*
X12491610Y-14880174D02*
X12501134Y-14899222D01*
X12501134Y-14899222D02*
X12501134Y-15003984D01*
X12501134Y-14899222D02*
X12510658Y-14880174D01*
X12510658Y-14880174D02*
X12529705Y-14870650D01*
X12529705Y-14870650D02*
X12558277Y-14870650D01*
X12558277Y-14870650D02*
X12577324Y-14880174D01*
X12577324Y-14880174D02*
X12586848Y-14899222D01*
X12586848Y-14899222D02*
X12586848Y-15003984D01*
X12682086Y-15003984D02*
X12682086Y-14870650D01*
X12682086Y-14889698D02*
X12691610Y-14880174D01*
X12691610Y-14880174D02*
X12710658Y-14870650D01*
X12710658Y-14870650D02*
X12739229Y-14870650D01*
X12739229Y-14870650D02*
X12758277Y-14880174D01*
X12758277Y-14880174D02*
X12767801Y-14899222D01*
X12767801Y-14899222D02*
X12767801Y-15003984D01*
X12767801Y-14899222D02*
X12777324Y-14880174D01*
X12777324Y-14880174D02*
X12796372Y-14870650D01*
X12796372Y-14870650D02*
X12824943Y-14870650D01*
X12824943Y-14870650D02*
X12843991Y-14880174D01*
X12843991Y-14880174D02*
X12853515Y-14899222D01*
X12853515Y-14899222D02*
X12853515Y-15003984D01*
X13243991Y-14794460D02*
X13072563Y-15051603D01*
X13501134Y-14803984D02*
X13520182Y-14803984D01*
X13520182Y-14803984D02*
X13539229Y-14813508D01*
X13539229Y-14813508D02*
X13548753Y-14823031D01*
X13548753Y-14823031D02*
X13558277Y-14842079D01*
X13558277Y-14842079D02*
X13567801Y-14880174D01*
X13567801Y-14880174D02*
X13567801Y-14927793D01*
X13567801Y-14927793D02*
X13558277Y-14965888D01*
X13558277Y-14965888D02*
X13548753Y-14984936D01*
X13548753Y-14984936D02*
X13539229Y-14994460D01*
X13539229Y-14994460D02*
X13520182Y-15003984D01*
X13520182Y-15003984D02*
X13501134Y-15003984D01*
X13501134Y-15003984D02*
X13482086Y-14994460D01*
X13482086Y-14994460D02*
X13472563Y-14984936D01*
X13472563Y-14984936D02*
X13463039Y-14965888D01*
X13463039Y-14965888D02*
X13453515Y-14927793D01*
X13453515Y-14927793D02*
X13453515Y-14880174D01*
X13453515Y-14880174D02*
X13463039Y-14842079D01*
X13463039Y-14842079D02*
X13472563Y-14823031D01*
X13472563Y-14823031D02*
X13482086Y-14813508D01*
X13482086Y-14813508D02*
X13501134Y-14803984D01*
X13653515Y-14984936D02*
X13663039Y-14994460D01*
X13663039Y-14994460D02*
X13653515Y-15003984D01*
X13653515Y-15003984D02*
X13643991Y-14994460D01*
X13643991Y-14994460D02*
X13653515Y-14984936D01*
X13653515Y-14984936D02*
X13653515Y-15003984D01*
X13786848Y-14803984D02*
X13805896Y-14803984D01*
X13805896Y-14803984D02*
X13824944Y-14813508D01*
X13824944Y-14813508D02*
X13834467Y-14823031D01*
X13834467Y-14823031D02*
X13843991Y-14842079D01*
X13843991Y-14842079D02*
X13853515Y-14880174D01*
X13853515Y-14880174D02*
X13853515Y-14927793D01*
X13853515Y-14927793D02*
X13843991Y-14965888D01*
X13843991Y-14965888D02*
X13834467Y-14984936D01*
X13834467Y-14984936D02*
X13824944Y-14994460D01*
X13824944Y-14994460D02*
X13805896Y-15003984D01*
X13805896Y-15003984D02*
X13786848Y-15003984D01*
X13786848Y-15003984D02*
X13767801Y-14994460D01*
X13767801Y-14994460D02*
X13758277Y-14984936D01*
X13758277Y-14984936D02*
X13748753Y-14965888D01*
X13748753Y-14965888D02*
X13739229Y-14927793D01*
X13739229Y-14927793D02*
X13739229Y-14880174D01*
X13739229Y-14880174D02*
X13748753Y-14842079D01*
X13748753Y-14842079D02*
X13758277Y-14823031D01*
X13758277Y-14823031D02*
X13767801Y-14813508D01*
X13767801Y-14813508D02*
X13786848Y-14803984D01*
X14034467Y-14803984D02*
X13939229Y-14803984D01*
X13939229Y-14803984D02*
X13929706Y-14899222D01*
X13929706Y-14899222D02*
X13939229Y-14889698D01*
X13939229Y-14889698D02*
X13958277Y-14880174D01*
X13958277Y-14880174D02*
X14005896Y-14880174D01*
X14005896Y-14880174D02*
X14024944Y-14889698D01*
X14024944Y-14889698D02*
X14034467Y-14899222D01*
X14034467Y-14899222D02*
X14043991Y-14918269D01*
X14043991Y-14918269D02*
X14043991Y-14965888D01*
X14043991Y-14965888D02*
X14034467Y-14984936D01*
X14034467Y-14984936D02*
X14024944Y-14994460D01*
X14024944Y-14994460D02*
X14005896Y-15003984D01*
X14005896Y-15003984D02*
X13958277Y-15003984D01*
X13958277Y-15003984D02*
X13939229Y-14994460D01*
X13939229Y-14994460D02*
X13929706Y-14984936D01*
X14234467Y-15003984D02*
X14120182Y-15003984D01*
X14177325Y-15003984D02*
X14177325Y-14803984D01*
X14177325Y-14803984D02*
X14158277Y-14832555D01*
X14158277Y-14832555D02*
X14139229Y-14851603D01*
X14139229Y-14851603D02*
X14120182Y-14861127D01*
X14310658Y-14823031D02*
X14320182Y-14813508D01*
X14320182Y-14813508D02*
X14339229Y-14803984D01*
X14339229Y-14803984D02*
X14386848Y-14803984D01*
X14386848Y-14803984D02*
X14405896Y-14813508D01*
X14405896Y-14813508D02*
X14415420Y-14823031D01*
X14415420Y-14823031D02*
X14424944Y-14842079D01*
X14424944Y-14842079D02*
X14424944Y-14861127D01*
X14424944Y-14861127D02*
X14415420Y-14889698D01*
X14415420Y-14889698D02*
X14301134Y-15003984D01*
X14301134Y-15003984D02*
X14424944Y-15003984D01*
X14501134Y-14803984D02*
X14501134Y-14842079D01*
X14577325Y-14803984D02*
X14577325Y-14842079D01*
X14872563Y-15080174D02*
X14863039Y-15070650D01*
X14863039Y-15070650D02*
X14843991Y-15042079D01*
X14843991Y-15042079D02*
X14834468Y-15023031D01*
X14834468Y-15023031D02*
X14824944Y-14994460D01*
X14824944Y-14994460D02*
X14815420Y-14946841D01*
X14815420Y-14946841D02*
X14815420Y-14908746D01*
X14815420Y-14908746D02*
X14824944Y-14861127D01*
X14824944Y-14861127D02*
X14834468Y-14832555D01*
X14834468Y-14832555D02*
X14843991Y-14813508D01*
X14843991Y-14813508D02*
X14863039Y-14784936D01*
X14863039Y-14784936D02*
X14872563Y-14775412D01*
X15043991Y-14803984D02*
X14948753Y-14803984D01*
X14948753Y-14803984D02*
X14939229Y-14899222D01*
X14939229Y-14899222D02*
X14948753Y-14889698D01*
X14948753Y-14889698D02*
X14967801Y-14880174D01*
X14967801Y-14880174D02*
X15015420Y-14880174D01*
X15015420Y-14880174D02*
X15034468Y-14889698D01*
X15034468Y-14889698D02*
X15043991Y-14899222D01*
X15043991Y-14899222D02*
X15053515Y-14918269D01*
X15053515Y-14918269D02*
X15053515Y-14965888D01*
X15053515Y-14965888D02*
X15043991Y-14984936D01*
X15043991Y-14984936D02*
X15034468Y-14994460D01*
X15034468Y-14994460D02*
X15015420Y-15003984D01*
X15015420Y-15003984D02*
X14967801Y-15003984D01*
X14967801Y-15003984D02*
X14948753Y-14994460D01*
X14948753Y-14994460D02*
X14939229Y-14984936D01*
X15291610Y-15003984D02*
X15291610Y-14803984D01*
X15377325Y-15003984D02*
X15377325Y-14899222D01*
X15377325Y-14899222D02*
X15367801Y-14880174D01*
X15367801Y-14880174D02*
X15348753Y-14870650D01*
X15348753Y-14870650D02*
X15320182Y-14870650D01*
X15320182Y-14870650D02*
X15301134Y-14880174D01*
X15301134Y-14880174D02*
X15291610Y-14889698D01*
X15501134Y-15003984D02*
X15482087Y-14994460D01*
X15482087Y-14994460D02*
X15472563Y-14984936D01*
X15472563Y-14984936D02*
X15463039Y-14965888D01*
X15463039Y-14965888D02*
X15463039Y-14908746D01*
X15463039Y-14908746D02*
X15472563Y-14889698D01*
X15472563Y-14889698D02*
X15482087Y-14880174D01*
X15482087Y-14880174D02*
X15501134Y-14870650D01*
X15501134Y-14870650D02*
X15529706Y-14870650D01*
X15529706Y-14870650D02*
X15548753Y-14880174D01*
X15548753Y-14880174D02*
X15558277Y-14889698D01*
X15558277Y-14889698D02*
X15567801Y-14908746D01*
X15567801Y-14908746D02*
X15567801Y-14965888D01*
X15567801Y-14965888D02*
X15558277Y-14984936D01*
X15558277Y-14984936D02*
X15548753Y-14994460D01*
X15548753Y-14994460D02*
X15529706Y-15003984D01*
X15529706Y-15003984D02*
X15501134Y-15003984D01*
X15682087Y-15003984D02*
X15663039Y-14994460D01*
X15663039Y-14994460D02*
X15653515Y-14975412D01*
X15653515Y-14975412D02*
X15653515Y-14803984D01*
X15834468Y-14994460D02*
X15815420Y-15003984D01*
X15815420Y-15003984D02*
X15777325Y-15003984D01*
X15777325Y-15003984D02*
X15758277Y-14994460D01*
X15758277Y-14994460D02*
X15748753Y-14975412D01*
X15748753Y-14975412D02*
X15748753Y-14899222D01*
X15748753Y-14899222D02*
X15758277Y-14880174D01*
X15758277Y-14880174D02*
X15777325Y-14870650D01*
X15777325Y-14870650D02*
X15815420Y-14870650D01*
X15815420Y-14870650D02*
X15834468Y-14880174D01*
X15834468Y-14880174D02*
X15843991Y-14899222D01*
X15843991Y-14899222D02*
X15843991Y-14918269D01*
X15843991Y-14918269D02*
X15748753Y-14937317D01*
X15920182Y-14994460D02*
X15939230Y-15003984D01*
X15939230Y-15003984D02*
X15977325Y-15003984D01*
X15977325Y-15003984D02*
X15996372Y-14994460D01*
X15996372Y-14994460D02*
X16005896Y-14975412D01*
X16005896Y-14975412D02*
X16005896Y-14965888D01*
X16005896Y-14965888D02*
X15996372Y-14946841D01*
X15996372Y-14946841D02*
X15977325Y-14937317D01*
X15977325Y-14937317D02*
X15948753Y-14937317D01*
X15948753Y-14937317D02*
X15929706Y-14927793D01*
X15929706Y-14927793D02*
X15920182Y-14908746D01*
X15920182Y-14908746D02*
X15920182Y-14899222D01*
X15920182Y-14899222D02*
X15929706Y-14880174D01*
X15929706Y-14880174D02*
X15948753Y-14870650D01*
X15948753Y-14870650D02*
X15977325Y-14870650D01*
X15977325Y-14870650D02*
X15996372Y-14880174D01*
X16072563Y-15080174D02*
X16082087Y-15070650D01*
X16082087Y-15070650D02*
X16101134Y-15042079D01*
X16101134Y-15042079D02*
X16110658Y-15023031D01*
X16110658Y-15023031D02*
X16120182Y-14994460D01*
X16120182Y-14994460D02*
X16129706Y-14946841D01*
X16129706Y-14946841D02*
X16129706Y-14908746D01*
X16129706Y-14908746D02*
X16120182Y-14861127D01*
X16120182Y-14861127D02*
X16110658Y-14832555D01*
X16110658Y-14832555D02*
X16101134Y-14813508D01*
X16101134Y-14813508D02*
X16082087Y-14784936D01*
X16082087Y-14784936D02*
X16072563Y-14775412D01*
D15*
X11137500Y-15096500D02*
X11297500Y-15256500D01*
X11297500Y-15096500D02*
X11137500Y-15256500D01*
X11217500Y-15096500D02*
X11217500Y-15256500D01*
X11137500Y-15176500D02*
X11297500Y-15176500D01*
D11*
X11663039Y-15267984D02*
X11548753Y-15267984D01*
X11605896Y-15267984D02*
X11605896Y-15067984D01*
X11605896Y-15067984D02*
X11586848Y-15096555D01*
X11586848Y-15096555D02*
X11567801Y-15115603D01*
X11567801Y-15115603D02*
X11548753Y-15125127D01*
X11748753Y-15248936D02*
X11758277Y-15258460D01*
X11758277Y-15258460D02*
X11748753Y-15267984D01*
X11748753Y-15267984D02*
X11739229Y-15258460D01*
X11739229Y-15258460D02*
X11748753Y-15248936D01*
X11748753Y-15248936D02*
X11748753Y-15267984D01*
X11929705Y-15067984D02*
X11891610Y-15067984D01*
X11891610Y-15067984D02*
X11872562Y-15077508D01*
X11872562Y-15077508D02*
X11863039Y-15087031D01*
X11863039Y-15087031D02*
X11843991Y-15115603D01*
X11843991Y-15115603D02*
X11834467Y-15153698D01*
X11834467Y-15153698D02*
X11834467Y-15229888D01*
X11834467Y-15229888D02*
X11843991Y-15248936D01*
X11843991Y-15248936D02*
X11853515Y-15258460D01*
X11853515Y-15258460D02*
X11872562Y-15267984D01*
X11872562Y-15267984D02*
X11910658Y-15267984D01*
X11910658Y-15267984D02*
X11929705Y-15258460D01*
X11929705Y-15258460D02*
X11939229Y-15248936D01*
X11939229Y-15248936D02*
X11948753Y-15229888D01*
X11948753Y-15229888D02*
X11948753Y-15182269D01*
X11948753Y-15182269D02*
X11939229Y-15163222D01*
X11939229Y-15163222D02*
X11929705Y-15153698D01*
X11929705Y-15153698D02*
X11910658Y-15144174D01*
X11910658Y-15144174D02*
X11872562Y-15144174D01*
X11872562Y-15144174D02*
X11853515Y-15153698D01*
X11853515Y-15153698D02*
X11843991Y-15163222D01*
X11843991Y-15163222D02*
X11834467Y-15182269D01*
X12072562Y-15067984D02*
X12091610Y-15067984D01*
X12091610Y-15067984D02*
X12110658Y-15077508D01*
X12110658Y-15077508D02*
X12120182Y-15087031D01*
X12120182Y-15087031D02*
X12129705Y-15106079D01*
X12129705Y-15106079D02*
X12139229Y-15144174D01*
X12139229Y-15144174D02*
X12139229Y-15191793D01*
X12139229Y-15191793D02*
X12129705Y-15229888D01*
X12129705Y-15229888D02*
X12120182Y-15248936D01*
X12120182Y-15248936D02*
X12110658Y-15258460D01*
X12110658Y-15258460D02*
X12091610Y-15267984D01*
X12091610Y-15267984D02*
X12072562Y-15267984D01*
X12072562Y-15267984D02*
X12053515Y-15258460D01*
X12053515Y-15258460D02*
X12043991Y-15248936D01*
X12043991Y-15248936D02*
X12034467Y-15229888D01*
X12034467Y-15229888D02*
X12024943Y-15191793D01*
X12024943Y-15191793D02*
X12024943Y-15144174D01*
X12024943Y-15144174D02*
X12034467Y-15106079D01*
X12034467Y-15106079D02*
X12043991Y-15087031D01*
X12043991Y-15087031D02*
X12053515Y-15077508D01*
X12053515Y-15077508D02*
X12072562Y-15067984D01*
X12263039Y-15067984D02*
X12282086Y-15067984D01*
X12282086Y-15067984D02*
X12301134Y-15077508D01*
X12301134Y-15077508D02*
X12310658Y-15087031D01*
X12310658Y-15087031D02*
X12320182Y-15106079D01*
X12320182Y-15106079D02*
X12329705Y-15144174D01*
X12329705Y-15144174D02*
X12329705Y-15191793D01*
X12329705Y-15191793D02*
X12320182Y-15229888D01*
X12320182Y-15229888D02*
X12310658Y-15248936D01*
X12310658Y-15248936D02*
X12301134Y-15258460D01*
X12301134Y-15258460D02*
X12282086Y-15267984D01*
X12282086Y-15267984D02*
X12263039Y-15267984D01*
X12263039Y-15267984D02*
X12243991Y-15258460D01*
X12243991Y-15258460D02*
X12234467Y-15248936D01*
X12234467Y-15248936D02*
X12224943Y-15229888D01*
X12224943Y-15229888D02*
X12215420Y-15191793D01*
X12215420Y-15191793D02*
X12215420Y-15144174D01*
X12215420Y-15144174D02*
X12224943Y-15106079D01*
X12224943Y-15106079D02*
X12234467Y-15087031D01*
X12234467Y-15087031D02*
X12243991Y-15077508D01*
X12243991Y-15077508D02*
X12263039Y-15067984D01*
X12415420Y-15267984D02*
X12415420Y-15134650D01*
X12415420Y-15153698D02*
X12424943Y-15144174D01*
X12424943Y-15144174D02*
X12443991Y-15134650D01*
X12443991Y-15134650D02*
X12472563Y-15134650D01*
X12472563Y-15134650D02*
X12491610Y-15144174D01*
X12491610Y-15144174D02*
X12501134Y-15163222D01*
X12501134Y-15163222D02*
X12501134Y-15267984D01*
X12501134Y-15163222D02*
X12510658Y-15144174D01*
X12510658Y-15144174D02*
X12529705Y-15134650D01*
X12529705Y-15134650D02*
X12558277Y-15134650D01*
X12558277Y-15134650D02*
X12577324Y-15144174D01*
X12577324Y-15144174D02*
X12586848Y-15163222D01*
X12586848Y-15163222D02*
X12586848Y-15267984D01*
X12682086Y-15267984D02*
X12682086Y-15134650D01*
X12682086Y-15153698D02*
X12691610Y-15144174D01*
X12691610Y-15144174D02*
X12710658Y-15134650D01*
X12710658Y-15134650D02*
X12739229Y-15134650D01*
X12739229Y-15134650D02*
X12758277Y-15144174D01*
X12758277Y-15144174D02*
X12767801Y-15163222D01*
X12767801Y-15163222D02*
X12767801Y-15267984D01*
X12767801Y-15163222D02*
X12777324Y-15144174D01*
X12777324Y-15144174D02*
X12796372Y-15134650D01*
X12796372Y-15134650D02*
X12824943Y-15134650D01*
X12824943Y-15134650D02*
X12843991Y-15144174D01*
X12843991Y-15144174D02*
X12853515Y-15163222D01*
X12853515Y-15163222D02*
X12853515Y-15267984D01*
X13243991Y-15058460D02*
X13072563Y-15315603D01*
X13501134Y-15067984D02*
X13520182Y-15067984D01*
X13520182Y-15067984D02*
X13539229Y-15077508D01*
X13539229Y-15077508D02*
X13548753Y-15087031D01*
X13548753Y-15087031D02*
X13558277Y-15106079D01*
X13558277Y-15106079D02*
X13567801Y-15144174D01*
X13567801Y-15144174D02*
X13567801Y-15191793D01*
X13567801Y-15191793D02*
X13558277Y-15229888D01*
X13558277Y-15229888D02*
X13548753Y-15248936D01*
X13548753Y-15248936D02*
X13539229Y-15258460D01*
X13539229Y-15258460D02*
X13520182Y-15267984D01*
X13520182Y-15267984D02*
X13501134Y-15267984D01*
X13501134Y-15267984D02*
X13482086Y-15258460D01*
X13482086Y-15258460D02*
X13472563Y-15248936D01*
X13472563Y-15248936D02*
X13463039Y-15229888D01*
X13463039Y-15229888D02*
X13453515Y-15191793D01*
X13453515Y-15191793D02*
X13453515Y-15144174D01*
X13453515Y-15144174D02*
X13463039Y-15106079D01*
X13463039Y-15106079D02*
X13472563Y-15087031D01*
X13472563Y-15087031D02*
X13482086Y-15077508D01*
X13482086Y-15077508D02*
X13501134Y-15067984D01*
X13653515Y-15248936D02*
X13663039Y-15258460D01*
X13663039Y-15258460D02*
X13653515Y-15267984D01*
X13653515Y-15267984D02*
X13643991Y-15258460D01*
X13643991Y-15258460D02*
X13653515Y-15248936D01*
X13653515Y-15248936D02*
X13653515Y-15267984D01*
X13786848Y-15067984D02*
X13805896Y-15067984D01*
X13805896Y-15067984D02*
X13824944Y-15077508D01*
X13824944Y-15077508D02*
X13834467Y-15087031D01*
X13834467Y-15087031D02*
X13843991Y-15106079D01*
X13843991Y-15106079D02*
X13853515Y-15144174D01*
X13853515Y-15144174D02*
X13853515Y-15191793D01*
X13853515Y-15191793D02*
X13843991Y-15229888D01*
X13843991Y-15229888D02*
X13834467Y-15248936D01*
X13834467Y-15248936D02*
X13824944Y-15258460D01*
X13824944Y-15258460D02*
X13805896Y-15267984D01*
X13805896Y-15267984D02*
X13786848Y-15267984D01*
X13786848Y-15267984D02*
X13767801Y-15258460D01*
X13767801Y-15258460D02*
X13758277Y-15248936D01*
X13758277Y-15248936D02*
X13748753Y-15229888D01*
X13748753Y-15229888D02*
X13739229Y-15191793D01*
X13739229Y-15191793D02*
X13739229Y-15144174D01*
X13739229Y-15144174D02*
X13748753Y-15106079D01*
X13748753Y-15106079D02*
X13758277Y-15087031D01*
X13758277Y-15087031D02*
X13767801Y-15077508D01*
X13767801Y-15077508D02*
X13786848Y-15067984D01*
X14024944Y-15067984D02*
X13986848Y-15067984D01*
X13986848Y-15067984D02*
X13967801Y-15077508D01*
X13967801Y-15077508D02*
X13958277Y-15087031D01*
X13958277Y-15087031D02*
X13939229Y-15115603D01*
X13939229Y-15115603D02*
X13929706Y-15153698D01*
X13929706Y-15153698D02*
X13929706Y-15229888D01*
X13929706Y-15229888D02*
X13939229Y-15248936D01*
X13939229Y-15248936D02*
X13948753Y-15258460D01*
X13948753Y-15258460D02*
X13967801Y-15267984D01*
X13967801Y-15267984D02*
X14005896Y-15267984D01*
X14005896Y-15267984D02*
X14024944Y-15258460D01*
X14024944Y-15258460D02*
X14034467Y-15248936D01*
X14034467Y-15248936D02*
X14043991Y-15229888D01*
X14043991Y-15229888D02*
X14043991Y-15182269D01*
X14043991Y-15182269D02*
X14034467Y-15163222D01*
X14034467Y-15163222D02*
X14024944Y-15153698D01*
X14024944Y-15153698D02*
X14005896Y-15144174D01*
X14005896Y-15144174D02*
X13967801Y-15144174D01*
X13967801Y-15144174D02*
X13948753Y-15153698D01*
X13948753Y-15153698D02*
X13939229Y-15163222D01*
X13939229Y-15163222D02*
X13929706Y-15182269D01*
X14110658Y-15067984D02*
X14234467Y-15067984D01*
X14234467Y-15067984D02*
X14167801Y-15144174D01*
X14167801Y-15144174D02*
X14196372Y-15144174D01*
X14196372Y-15144174D02*
X14215420Y-15153698D01*
X14215420Y-15153698D02*
X14224944Y-15163222D01*
X14224944Y-15163222D02*
X14234467Y-15182269D01*
X14234467Y-15182269D02*
X14234467Y-15229888D01*
X14234467Y-15229888D02*
X14224944Y-15248936D01*
X14224944Y-15248936D02*
X14215420Y-15258460D01*
X14215420Y-15258460D02*
X14196372Y-15267984D01*
X14196372Y-15267984D02*
X14139229Y-15267984D01*
X14139229Y-15267984D02*
X14120182Y-15258460D01*
X14120182Y-15258460D02*
X14110658Y-15248936D01*
X14358277Y-15067984D02*
X14377325Y-15067984D01*
X14377325Y-15067984D02*
X14396372Y-15077508D01*
X14396372Y-15077508D02*
X14405896Y-15087031D01*
X14405896Y-15087031D02*
X14415420Y-15106079D01*
X14415420Y-15106079D02*
X14424944Y-15144174D01*
X14424944Y-15144174D02*
X14424944Y-15191793D01*
X14424944Y-15191793D02*
X14415420Y-15229888D01*
X14415420Y-15229888D02*
X14405896Y-15248936D01*
X14405896Y-15248936D02*
X14396372Y-15258460D01*
X14396372Y-15258460D02*
X14377325Y-15267984D01*
X14377325Y-15267984D02*
X14358277Y-15267984D01*
X14358277Y-15267984D02*
X14339229Y-15258460D01*
X14339229Y-15258460D02*
X14329706Y-15248936D01*
X14329706Y-15248936D02*
X14320182Y-15229888D01*
X14320182Y-15229888D02*
X14310658Y-15191793D01*
X14310658Y-15191793D02*
X14310658Y-15144174D01*
X14310658Y-15144174D02*
X14320182Y-15106079D01*
X14320182Y-15106079D02*
X14329706Y-15087031D01*
X14329706Y-15087031D02*
X14339229Y-15077508D01*
X14339229Y-15077508D02*
X14358277Y-15067984D01*
X14501134Y-15067984D02*
X14501134Y-15106079D01*
X14577325Y-15067984D02*
X14577325Y-15106079D01*
X14872563Y-15344174D02*
X14863039Y-15334650D01*
X14863039Y-15334650D02*
X14843991Y-15306079D01*
X14843991Y-15306079D02*
X14834468Y-15287031D01*
X14834468Y-15287031D02*
X14824944Y-15258460D01*
X14824944Y-15258460D02*
X14815420Y-15210841D01*
X14815420Y-15210841D02*
X14815420Y-15172746D01*
X14815420Y-15172746D02*
X14824944Y-15125127D01*
X14824944Y-15125127D02*
X14834468Y-15096555D01*
X14834468Y-15096555D02*
X14843991Y-15077508D01*
X14843991Y-15077508D02*
X14863039Y-15048936D01*
X14863039Y-15048936D02*
X14872563Y-15039412D01*
X14939229Y-15087031D02*
X14948753Y-15077508D01*
X14948753Y-15077508D02*
X14967801Y-15067984D01*
X14967801Y-15067984D02*
X15015420Y-15067984D01*
X15015420Y-15067984D02*
X15034468Y-15077508D01*
X15034468Y-15077508D02*
X15043991Y-15087031D01*
X15043991Y-15087031D02*
X15053515Y-15106079D01*
X15053515Y-15106079D02*
X15053515Y-15125127D01*
X15053515Y-15125127D02*
X15043991Y-15153698D01*
X15043991Y-15153698D02*
X14929706Y-15267984D01*
X14929706Y-15267984D02*
X15053515Y-15267984D01*
X15291610Y-15267984D02*
X15291610Y-15067984D01*
X15377325Y-15267984D02*
X15377325Y-15163222D01*
X15377325Y-15163222D02*
X15367801Y-15144174D01*
X15367801Y-15144174D02*
X15348753Y-15134650D01*
X15348753Y-15134650D02*
X15320182Y-15134650D01*
X15320182Y-15134650D02*
X15301134Y-15144174D01*
X15301134Y-15144174D02*
X15291610Y-15153698D01*
X15501134Y-15267984D02*
X15482087Y-15258460D01*
X15482087Y-15258460D02*
X15472563Y-15248936D01*
X15472563Y-15248936D02*
X15463039Y-15229888D01*
X15463039Y-15229888D02*
X15463039Y-15172746D01*
X15463039Y-15172746D02*
X15472563Y-15153698D01*
X15472563Y-15153698D02*
X15482087Y-15144174D01*
X15482087Y-15144174D02*
X15501134Y-15134650D01*
X15501134Y-15134650D02*
X15529706Y-15134650D01*
X15529706Y-15134650D02*
X15548753Y-15144174D01*
X15548753Y-15144174D02*
X15558277Y-15153698D01*
X15558277Y-15153698D02*
X15567801Y-15172746D01*
X15567801Y-15172746D02*
X15567801Y-15229888D01*
X15567801Y-15229888D02*
X15558277Y-15248936D01*
X15558277Y-15248936D02*
X15548753Y-15258460D01*
X15548753Y-15258460D02*
X15529706Y-15267984D01*
X15529706Y-15267984D02*
X15501134Y-15267984D01*
X15682087Y-15267984D02*
X15663039Y-15258460D01*
X15663039Y-15258460D02*
X15653515Y-15239412D01*
X15653515Y-15239412D02*
X15653515Y-15067984D01*
X15834468Y-15258460D02*
X15815420Y-15267984D01*
X15815420Y-15267984D02*
X15777325Y-15267984D01*
X15777325Y-15267984D02*
X15758277Y-15258460D01*
X15758277Y-15258460D02*
X15748753Y-15239412D01*
X15748753Y-15239412D02*
X15748753Y-15163222D01*
X15748753Y-15163222D02*
X15758277Y-15144174D01*
X15758277Y-15144174D02*
X15777325Y-15134650D01*
X15777325Y-15134650D02*
X15815420Y-15134650D01*
X15815420Y-15134650D02*
X15834468Y-15144174D01*
X15834468Y-15144174D02*
X15843991Y-15163222D01*
X15843991Y-15163222D02*
X15843991Y-15182269D01*
X15843991Y-15182269D02*
X15748753Y-15201317D01*
X15920182Y-15258460D02*
X15939230Y-15267984D01*
X15939230Y-15267984D02*
X15977325Y-15267984D01*
X15977325Y-15267984D02*
X15996372Y-15258460D01*
X15996372Y-15258460D02*
X16005896Y-15239412D01*
X16005896Y-15239412D02*
X16005896Y-15229888D01*
X16005896Y-15229888D02*
X15996372Y-15210841D01*
X15996372Y-15210841D02*
X15977325Y-15201317D01*
X15977325Y-15201317D02*
X15948753Y-15201317D01*
X15948753Y-15201317D02*
X15929706Y-15191793D01*
X15929706Y-15191793D02*
X15920182Y-15172746D01*
X15920182Y-15172746D02*
X15920182Y-15163222D01*
X15920182Y-15163222D02*
X15929706Y-15144174D01*
X15929706Y-15144174D02*
X15948753Y-15134650D01*
X15948753Y-15134650D02*
X15977325Y-15134650D01*
X15977325Y-15134650D02*
X15996372Y-15144174D01*
X16072563Y-15344174D02*
X16082087Y-15334650D01*
X16082087Y-15334650D02*
X16101134Y-15306079D01*
X16101134Y-15306079D02*
X16110658Y-15287031D01*
X16110658Y-15287031D02*
X16120182Y-15258460D01*
X16120182Y-15258460D02*
X16129706Y-15210841D01*
X16129706Y-15210841D02*
X16129706Y-15172746D01*
X16129706Y-15172746D02*
X16120182Y-15125127D01*
X16120182Y-15125127D02*
X16110658Y-15096555D01*
X16110658Y-15096555D02*
X16101134Y-15077508D01*
X16101134Y-15077508D02*
X16082087Y-15048936D01*
X16082087Y-15048936D02*
X16072563Y-15039412D01*
X11097500Y-15356500D02*
X11297500Y-15556500D01*
X11297500Y-15356500D02*
X11097500Y-15556500D01*
X11268211Y-15527211D02*
X11268211Y-15385789D01*
X11126789Y-15385789D01*
X11126789Y-15527211D01*
X11268211Y-15527211D01*
X11548753Y-15367031D02*
X11558277Y-15357508D01*
X11558277Y-15357508D02*
X11577324Y-15347984D01*
X11577324Y-15347984D02*
X11624943Y-15347984D01*
X11624943Y-15347984D02*
X11643991Y-15357508D01*
X11643991Y-15357508D02*
X11653515Y-15367031D01*
X11653515Y-15367031D02*
X11663039Y-15386079D01*
X11663039Y-15386079D02*
X11663039Y-15405127D01*
X11663039Y-15405127D02*
X11653515Y-15433698D01*
X11653515Y-15433698D02*
X11539229Y-15547984D01*
X11539229Y-15547984D02*
X11663039Y-15547984D01*
X11748753Y-15528936D02*
X11758277Y-15538460D01*
X11758277Y-15538460D02*
X11748753Y-15547984D01*
X11748753Y-15547984D02*
X11739229Y-15538460D01*
X11739229Y-15538460D02*
X11748753Y-15528936D01*
X11748753Y-15528936D02*
X11748753Y-15547984D01*
X11824943Y-15347984D02*
X11958277Y-15347984D01*
X11958277Y-15347984D02*
X11872562Y-15547984D01*
X12072562Y-15347984D02*
X12091610Y-15347984D01*
X12091610Y-15347984D02*
X12110658Y-15357508D01*
X12110658Y-15357508D02*
X12120182Y-15367031D01*
X12120182Y-15367031D02*
X12129705Y-15386079D01*
X12129705Y-15386079D02*
X12139229Y-15424174D01*
X12139229Y-15424174D02*
X12139229Y-15471793D01*
X12139229Y-15471793D02*
X12129705Y-15509888D01*
X12129705Y-15509888D02*
X12120182Y-15528936D01*
X12120182Y-15528936D02*
X12110658Y-15538460D01*
X12110658Y-15538460D02*
X12091610Y-15547984D01*
X12091610Y-15547984D02*
X12072562Y-15547984D01*
X12072562Y-15547984D02*
X12053515Y-15538460D01*
X12053515Y-15538460D02*
X12043991Y-15528936D01*
X12043991Y-15528936D02*
X12034467Y-15509888D01*
X12034467Y-15509888D02*
X12024943Y-15471793D01*
X12024943Y-15471793D02*
X12024943Y-15424174D01*
X12024943Y-15424174D02*
X12034467Y-15386079D01*
X12034467Y-15386079D02*
X12043991Y-15367031D01*
X12043991Y-15367031D02*
X12053515Y-15357508D01*
X12053515Y-15357508D02*
X12072562Y-15347984D01*
X12263039Y-15347984D02*
X12282086Y-15347984D01*
X12282086Y-15347984D02*
X12301134Y-15357508D01*
X12301134Y-15357508D02*
X12310658Y-15367031D01*
X12310658Y-15367031D02*
X12320182Y-15386079D01*
X12320182Y-15386079D02*
X12329705Y-15424174D01*
X12329705Y-15424174D02*
X12329705Y-15471793D01*
X12329705Y-15471793D02*
X12320182Y-15509888D01*
X12320182Y-15509888D02*
X12310658Y-15528936D01*
X12310658Y-15528936D02*
X12301134Y-15538460D01*
X12301134Y-15538460D02*
X12282086Y-15547984D01*
X12282086Y-15547984D02*
X12263039Y-15547984D01*
X12263039Y-15547984D02*
X12243991Y-15538460D01*
X12243991Y-15538460D02*
X12234467Y-15528936D01*
X12234467Y-15528936D02*
X12224943Y-15509888D01*
X12224943Y-15509888D02*
X12215420Y-15471793D01*
X12215420Y-15471793D02*
X12215420Y-15424174D01*
X12215420Y-15424174D02*
X12224943Y-15386079D01*
X12224943Y-15386079D02*
X12234467Y-15367031D01*
X12234467Y-15367031D02*
X12243991Y-15357508D01*
X12243991Y-15357508D02*
X12263039Y-15347984D01*
X12415420Y-15547984D02*
X12415420Y-15414650D01*
X12415420Y-15433698D02*
X12424943Y-15424174D01*
X12424943Y-15424174D02*
X12443991Y-15414650D01*
X12443991Y-15414650D02*
X12472563Y-15414650D01*
X12472563Y-15414650D02*
X12491610Y-15424174D01*
X12491610Y-15424174D02*
X12501134Y-15443222D01*
X12501134Y-15443222D02*
X12501134Y-15547984D01*
X12501134Y-15443222D02*
X12510658Y-15424174D01*
X12510658Y-15424174D02*
X12529705Y-15414650D01*
X12529705Y-15414650D02*
X12558277Y-15414650D01*
X12558277Y-15414650D02*
X12577324Y-15424174D01*
X12577324Y-15424174D02*
X12586848Y-15443222D01*
X12586848Y-15443222D02*
X12586848Y-15547984D01*
X12682086Y-15547984D02*
X12682086Y-15414650D01*
X12682086Y-15433698D02*
X12691610Y-15424174D01*
X12691610Y-15424174D02*
X12710658Y-15414650D01*
X12710658Y-15414650D02*
X12739229Y-15414650D01*
X12739229Y-15414650D02*
X12758277Y-15424174D01*
X12758277Y-15424174D02*
X12767801Y-15443222D01*
X12767801Y-15443222D02*
X12767801Y-15547984D01*
X12767801Y-15443222D02*
X12777324Y-15424174D01*
X12777324Y-15424174D02*
X12796372Y-15414650D01*
X12796372Y-15414650D02*
X12824943Y-15414650D01*
X12824943Y-15414650D02*
X12843991Y-15424174D01*
X12843991Y-15424174D02*
X12853515Y-15443222D01*
X12853515Y-15443222D02*
X12853515Y-15547984D01*
X13243991Y-15338460D02*
X13072563Y-15595603D01*
X13501134Y-15347984D02*
X13520182Y-15347984D01*
X13520182Y-15347984D02*
X13539229Y-15357508D01*
X13539229Y-15357508D02*
X13548753Y-15367031D01*
X13548753Y-15367031D02*
X13558277Y-15386079D01*
X13558277Y-15386079D02*
X13567801Y-15424174D01*
X13567801Y-15424174D02*
X13567801Y-15471793D01*
X13567801Y-15471793D02*
X13558277Y-15509888D01*
X13558277Y-15509888D02*
X13548753Y-15528936D01*
X13548753Y-15528936D02*
X13539229Y-15538460D01*
X13539229Y-15538460D02*
X13520182Y-15547984D01*
X13520182Y-15547984D02*
X13501134Y-15547984D01*
X13501134Y-15547984D02*
X13482086Y-15538460D01*
X13482086Y-15538460D02*
X13472563Y-15528936D01*
X13472563Y-15528936D02*
X13463039Y-15509888D01*
X13463039Y-15509888D02*
X13453515Y-15471793D01*
X13453515Y-15471793D02*
X13453515Y-15424174D01*
X13453515Y-15424174D02*
X13463039Y-15386079D01*
X13463039Y-15386079D02*
X13472563Y-15367031D01*
X13472563Y-15367031D02*
X13482086Y-15357508D01*
X13482086Y-15357508D02*
X13501134Y-15347984D01*
X13653515Y-15528936D02*
X13663039Y-15538460D01*
X13663039Y-15538460D02*
X13653515Y-15547984D01*
X13653515Y-15547984D02*
X13643991Y-15538460D01*
X13643991Y-15538460D02*
X13653515Y-15528936D01*
X13653515Y-15528936D02*
X13653515Y-15547984D01*
X13853515Y-15547984D02*
X13739229Y-15547984D01*
X13796372Y-15547984D02*
X13796372Y-15347984D01*
X13796372Y-15347984D02*
X13777325Y-15376555D01*
X13777325Y-15376555D02*
X13758277Y-15395603D01*
X13758277Y-15395603D02*
X13739229Y-15405127D01*
X13977325Y-15347984D02*
X13996372Y-15347984D01*
X13996372Y-15347984D02*
X14015420Y-15357508D01*
X14015420Y-15357508D02*
X14024944Y-15367031D01*
X14024944Y-15367031D02*
X14034467Y-15386079D01*
X14034467Y-15386079D02*
X14043991Y-15424174D01*
X14043991Y-15424174D02*
X14043991Y-15471793D01*
X14043991Y-15471793D02*
X14034467Y-15509888D01*
X14034467Y-15509888D02*
X14024944Y-15528936D01*
X14024944Y-15528936D02*
X14015420Y-15538460D01*
X14015420Y-15538460D02*
X13996372Y-15547984D01*
X13996372Y-15547984D02*
X13977325Y-15547984D01*
X13977325Y-15547984D02*
X13958277Y-15538460D01*
X13958277Y-15538460D02*
X13948753Y-15528936D01*
X13948753Y-15528936D02*
X13939229Y-15509888D01*
X13939229Y-15509888D02*
X13929706Y-15471793D01*
X13929706Y-15471793D02*
X13929706Y-15424174D01*
X13929706Y-15424174D02*
X13939229Y-15386079D01*
X13939229Y-15386079D02*
X13948753Y-15367031D01*
X13948753Y-15367031D02*
X13958277Y-15357508D01*
X13958277Y-15357508D02*
X13977325Y-15347984D01*
X14215420Y-15347984D02*
X14177325Y-15347984D01*
X14177325Y-15347984D02*
X14158277Y-15357508D01*
X14158277Y-15357508D02*
X14148753Y-15367031D01*
X14148753Y-15367031D02*
X14129706Y-15395603D01*
X14129706Y-15395603D02*
X14120182Y-15433698D01*
X14120182Y-15433698D02*
X14120182Y-15509888D01*
X14120182Y-15509888D02*
X14129706Y-15528936D01*
X14129706Y-15528936D02*
X14139229Y-15538460D01*
X14139229Y-15538460D02*
X14158277Y-15547984D01*
X14158277Y-15547984D02*
X14196372Y-15547984D01*
X14196372Y-15547984D02*
X14215420Y-15538460D01*
X14215420Y-15538460D02*
X14224944Y-15528936D01*
X14224944Y-15528936D02*
X14234467Y-15509888D01*
X14234467Y-15509888D02*
X14234467Y-15462269D01*
X14234467Y-15462269D02*
X14224944Y-15443222D01*
X14224944Y-15443222D02*
X14215420Y-15433698D01*
X14215420Y-15433698D02*
X14196372Y-15424174D01*
X14196372Y-15424174D02*
X14158277Y-15424174D01*
X14158277Y-15424174D02*
X14139229Y-15433698D01*
X14139229Y-15433698D02*
X14129706Y-15443222D01*
X14129706Y-15443222D02*
X14120182Y-15462269D01*
X14301134Y-15347984D02*
X14424944Y-15347984D01*
X14424944Y-15347984D02*
X14358277Y-15424174D01*
X14358277Y-15424174D02*
X14386848Y-15424174D01*
X14386848Y-15424174D02*
X14405896Y-15433698D01*
X14405896Y-15433698D02*
X14415420Y-15443222D01*
X14415420Y-15443222D02*
X14424944Y-15462269D01*
X14424944Y-15462269D02*
X14424944Y-15509888D01*
X14424944Y-15509888D02*
X14415420Y-15528936D01*
X14415420Y-15528936D02*
X14405896Y-15538460D01*
X14405896Y-15538460D02*
X14386848Y-15547984D01*
X14386848Y-15547984D02*
X14329706Y-15547984D01*
X14329706Y-15547984D02*
X14310658Y-15538460D01*
X14310658Y-15538460D02*
X14301134Y-15528936D01*
X14501134Y-15347984D02*
X14501134Y-15386079D01*
X14577325Y-15347984D02*
X14577325Y-15386079D01*
X14872563Y-15624174D02*
X14863039Y-15614650D01*
X14863039Y-15614650D02*
X14843991Y-15586079D01*
X14843991Y-15586079D02*
X14834468Y-15567031D01*
X14834468Y-15567031D02*
X14824944Y-15538460D01*
X14824944Y-15538460D02*
X14815420Y-15490841D01*
X14815420Y-15490841D02*
X14815420Y-15452746D01*
X14815420Y-15452746D02*
X14824944Y-15405127D01*
X14824944Y-15405127D02*
X14834468Y-15376555D01*
X14834468Y-15376555D02*
X14843991Y-15357508D01*
X14843991Y-15357508D02*
X14863039Y-15328936D01*
X14863039Y-15328936D02*
X14872563Y-15319412D01*
X14939229Y-15367031D02*
X14948753Y-15357508D01*
X14948753Y-15357508D02*
X14967801Y-15347984D01*
X14967801Y-15347984D02*
X15015420Y-15347984D01*
X15015420Y-15347984D02*
X15034468Y-15357508D01*
X15034468Y-15357508D02*
X15043991Y-15367031D01*
X15043991Y-15367031D02*
X15053515Y-15386079D01*
X15053515Y-15386079D02*
X15053515Y-15405127D01*
X15053515Y-15405127D02*
X15043991Y-15433698D01*
X15043991Y-15433698D02*
X14929706Y-15547984D01*
X14929706Y-15547984D02*
X15053515Y-15547984D01*
X15291610Y-15547984D02*
X15291610Y-15347984D01*
X15377325Y-15547984D02*
X15377325Y-15443222D01*
X15377325Y-15443222D02*
X15367801Y-15424174D01*
X15367801Y-15424174D02*
X15348753Y-15414650D01*
X15348753Y-15414650D02*
X15320182Y-15414650D01*
X15320182Y-15414650D02*
X15301134Y-15424174D01*
X15301134Y-15424174D02*
X15291610Y-15433698D01*
X15501134Y-15547984D02*
X15482087Y-15538460D01*
X15482087Y-15538460D02*
X15472563Y-15528936D01*
X15472563Y-15528936D02*
X15463039Y-15509888D01*
X15463039Y-15509888D02*
X15463039Y-15452746D01*
X15463039Y-15452746D02*
X15472563Y-15433698D01*
X15472563Y-15433698D02*
X15482087Y-15424174D01*
X15482087Y-15424174D02*
X15501134Y-15414650D01*
X15501134Y-15414650D02*
X15529706Y-15414650D01*
X15529706Y-15414650D02*
X15548753Y-15424174D01*
X15548753Y-15424174D02*
X15558277Y-15433698D01*
X15558277Y-15433698D02*
X15567801Y-15452746D01*
X15567801Y-15452746D02*
X15567801Y-15509888D01*
X15567801Y-15509888D02*
X15558277Y-15528936D01*
X15558277Y-15528936D02*
X15548753Y-15538460D01*
X15548753Y-15538460D02*
X15529706Y-15547984D01*
X15529706Y-15547984D02*
X15501134Y-15547984D01*
X15682087Y-15547984D02*
X15663039Y-15538460D01*
X15663039Y-15538460D02*
X15653515Y-15519412D01*
X15653515Y-15519412D02*
X15653515Y-15347984D01*
X15834468Y-15538460D02*
X15815420Y-15547984D01*
X15815420Y-15547984D02*
X15777325Y-15547984D01*
X15777325Y-15547984D02*
X15758277Y-15538460D01*
X15758277Y-15538460D02*
X15748753Y-15519412D01*
X15748753Y-15519412D02*
X15748753Y-15443222D01*
X15748753Y-15443222D02*
X15758277Y-15424174D01*
X15758277Y-15424174D02*
X15777325Y-15414650D01*
X15777325Y-15414650D02*
X15815420Y-15414650D01*
X15815420Y-15414650D02*
X15834468Y-15424174D01*
X15834468Y-15424174D02*
X15843991Y-15443222D01*
X15843991Y-15443222D02*
X15843991Y-15462269D01*
X15843991Y-15462269D02*
X15748753Y-15481317D01*
X15920182Y-15538460D02*
X15939230Y-15547984D01*
X15939230Y-15547984D02*
X15977325Y-15547984D01*
X15977325Y-15547984D02*
X15996372Y-15538460D01*
X15996372Y-15538460D02*
X16005896Y-15519412D01*
X16005896Y-15519412D02*
X16005896Y-15509888D01*
X16005896Y-15509888D02*
X15996372Y-15490841D01*
X15996372Y-15490841D02*
X15977325Y-15481317D01*
X15977325Y-15481317D02*
X15948753Y-15481317D01*
X15948753Y-15481317D02*
X15929706Y-15471793D01*
X15929706Y-15471793D02*
X15920182Y-15452746D01*
X15920182Y-15452746D02*
X15920182Y-15443222D01*
X15920182Y-15443222D02*
X15929706Y-15424174D01*
X15929706Y-15424174D02*
X15948753Y-15414650D01*
X15948753Y-15414650D02*
X15977325Y-15414650D01*
X15977325Y-15414650D02*
X15996372Y-15424174D01*
X16072563Y-15624174D02*
X16082087Y-15614650D01*
X16082087Y-15614650D02*
X16101134Y-15586079D01*
X16101134Y-15586079D02*
X16110658Y-15567031D01*
X16110658Y-15567031D02*
X16120182Y-15538460D01*
X16120182Y-15538460D02*
X16129706Y-15490841D01*
X16129706Y-15490841D02*
X16129706Y-15452746D01*
X16129706Y-15452746D02*
X16120182Y-15405127D01*
X16120182Y-15405127D02*
X16110658Y-15376555D01*
X16110658Y-15376555D02*
X16101134Y-15357508D01*
X16101134Y-15357508D02*
X16082087Y-15328936D01*
X16082087Y-15328936D02*
X16072563Y-15319412D01*
X11097500Y-15676500D02*
X11297500Y-15876500D01*
X11297500Y-15676500D02*
X11097500Y-15876500D01*
X11197500Y-15876500D02*
X11297500Y-15776500D01*
X11197500Y-15676500D01*
X11097500Y-15776500D01*
X11197500Y-15876500D01*
X11539229Y-15667984D02*
X11663039Y-15667984D01*
X11663039Y-15667984D02*
X11596372Y-15744174D01*
X11596372Y-15744174D02*
X11624943Y-15744174D01*
X11624943Y-15744174D02*
X11643991Y-15753698D01*
X11643991Y-15753698D02*
X11653515Y-15763222D01*
X11653515Y-15763222D02*
X11663039Y-15782269D01*
X11663039Y-15782269D02*
X11663039Y-15829888D01*
X11663039Y-15829888D02*
X11653515Y-15848936D01*
X11653515Y-15848936D02*
X11643991Y-15858460D01*
X11643991Y-15858460D02*
X11624943Y-15867984D01*
X11624943Y-15867984D02*
X11567801Y-15867984D01*
X11567801Y-15867984D02*
X11548753Y-15858460D01*
X11548753Y-15858460D02*
X11539229Y-15848936D01*
X11748753Y-15848936D02*
X11758277Y-15858460D01*
X11758277Y-15858460D02*
X11748753Y-15867984D01*
X11748753Y-15867984D02*
X11739229Y-15858460D01*
X11739229Y-15858460D02*
X11748753Y-15848936D01*
X11748753Y-15848936D02*
X11748753Y-15867984D01*
X11834467Y-15687031D02*
X11843991Y-15677508D01*
X11843991Y-15677508D02*
X11863039Y-15667984D01*
X11863039Y-15667984D02*
X11910658Y-15667984D01*
X11910658Y-15667984D02*
X11929705Y-15677508D01*
X11929705Y-15677508D02*
X11939229Y-15687031D01*
X11939229Y-15687031D02*
X11948753Y-15706079D01*
X11948753Y-15706079D02*
X11948753Y-15725127D01*
X11948753Y-15725127D02*
X11939229Y-15753698D01*
X11939229Y-15753698D02*
X11824943Y-15867984D01*
X11824943Y-15867984D02*
X11948753Y-15867984D01*
X12072562Y-15667984D02*
X12091610Y-15667984D01*
X12091610Y-15667984D02*
X12110658Y-15677508D01*
X12110658Y-15677508D02*
X12120182Y-15687031D01*
X12120182Y-15687031D02*
X12129705Y-15706079D01*
X12129705Y-15706079D02*
X12139229Y-15744174D01*
X12139229Y-15744174D02*
X12139229Y-15791793D01*
X12139229Y-15791793D02*
X12129705Y-15829888D01*
X12129705Y-15829888D02*
X12120182Y-15848936D01*
X12120182Y-15848936D02*
X12110658Y-15858460D01*
X12110658Y-15858460D02*
X12091610Y-15867984D01*
X12091610Y-15867984D02*
X12072562Y-15867984D01*
X12072562Y-15867984D02*
X12053515Y-15858460D01*
X12053515Y-15858460D02*
X12043991Y-15848936D01*
X12043991Y-15848936D02*
X12034467Y-15829888D01*
X12034467Y-15829888D02*
X12024943Y-15791793D01*
X12024943Y-15791793D02*
X12024943Y-15744174D01*
X12024943Y-15744174D02*
X12034467Y-15706079D01*
X12034467Y-15706079D02*
X12043991Y-15687031D01*
X12043991Y-15687031D02*
X12053515Y-15677508D01*
X12053515Y-15677508D02*
X12072562Y-15667984D01*
X12263039Y-15667984D02*
X12282086Y-15667984D01*
X12282086Y-15667984D02*
X12301134Y-15677508D01*
X12301134Y-15677508D02*
X12310658Y-15687031D01*
X12310658Y-15687031D02*
X12320182Y-15706079D01*
X12320182Y-15706079D02*
X12329705Y-15744174D01*
X12329705Y-15744174D02*
X12329705Y-15791793D01*
X12329705Y-15791793D02*
X12320182Y-15829888D01*
X12320182Y-15829888D02*
X12310658Y-15848936D01*
X12310658Y-15848936D02*
X12301134Y-15858460D01*
X12301134Y-15858460D02*
X12282086Y-15867984D01*
X12282086Y-15867984D02*
X12263039Y-15867984D01*
X12263039Y-15867984D02*
X12243991Y-15858460D01*
X12243991Y-15858460D02*
X12234467Y-15848936D01*
X12234467Y-15848936D02*
X12224943Y-15829888D01*
X12224943Y-15829888D02*
X12215420Y-15791793D01*
X12215420Y-15791793D02*
X12215420Y-15744174D01*
X12215420Y-15744174D02*
X12224943Y-15706079D01*
X12224943Y-15706079D02*
X12234467Y-15687031D01*
X12234467Y-15687031D02*
X12243991Y-15677508D01*
X12243991Y-15677508D02*
X12263039Y-15667984D01*
X12415420Y-15867984D02*
X12415420Y-15734650D01*
X12415420Y-15753698D02*
X12424943Y-15744174D01*
X12424943Y-15744174D02*
X12443991Y-15734650D01*
X12443991Y-15734650D02*
X12472563Y-15734650D01*
X12472563Y-15734650D02*
X12491610Y-15744174D01*
X12491610Y-15744174D02*
X12501134Y-15763222D01*
X12501134Y-15763222D02*
X12501134Y-15867984D01*
X12501134Y-15763222D02*
X12510658Y-15744174D01*
X12510658Y-15744174D02*
X12529705Y-15734650D01*
X12529705Y-15734650D02*
X12558277Y-15734650D01*
X12558277Y-15734650D02*
X12577324Y-15744174D01*
X12577324Y-15744174D02*
X12586848Y-15763222D01*
X12586848Y-15763222D02*
X12586848Y-15867984D01*
X12682086Y-15867984D02*
X12682086Y-15734650D01*
X12682086Y-15753698D02*
X12691610Y-15744174D01*
X12691610Y-15744174D02*
X12710658Y-15734650D01*
X12710658Y-15734650D02*
X12739229Y-15734650D01*
X12739229Y-15734650D02*
X12758277Y-15744174D01*
X12758277Y-15744174D02*
X12767801Y-15763222D01*
X12767801Y-15763222D02*
X12767801Y-15867984D01*
X12767801Y-15763222D02*
X12777324Y-15744174D01*
X12777324Y-15744174D02*
X12796372Y-15734650D01*
X12796372Y-15734650D02*
X12824943Y-15734650D01*
X12824943Y-15734650D02*
X12843991Y-15744174D01*
X12843991Y-15744174D02*
X12853515Y-15763222D01*
X12853515Y-15763222D02*
X12853515Y-15867984D01*
X13243991Y-15658460D02*
X13072563Y-15915603D01*
X13501134Y-15667984D02*
X13520182Y-15667984D01*
X13520182Y-15667984D02*
X13539229Y-15677508D01*
X13539229Y-15677508D02*
X13548753Y-15687031D01*
X13548753Y-15687031D02*
X13558277Y-15706079D01*
X13558277Y-15706079D02*
X13567801Y-15744174D01*
X13567801Y-15744174D02*
X13567801Y-15791793D01*
X13567801Y-15791793D02*
X13558277Y-15829888D01*
X13558277Y-15829888D02*
X13548753Y-15848936D01*
X13548753Y-15848936D02*
X13539229Y-15858460D01*
X13539229Y-15858460D02*
X13520182Y-15867984D01*
X13520182Y-15867984D02*
X13501134Y-15867984D01*
X13501134Y-15867984D02*
X13482086Y-15858460D01*
X13482086Y-15858460D02*
X13472563Y-15848936D01*
X13472563Y-15848936D02*
X13463039Y-15829888D01*
X13463039Y-15829888D02*
X13453515Y-15791793D01*
X13453515Y-15791793D02*
X13453515Y-15744174D01*
X13453515Y-15744174D02*
X13463039Y-15706079D01*
X13463039Y-15706079D02*
X13472563Y-15687031D01*
X13472563Y-15687031D02*
X13482086Y-15677508D01*
X13482086Y-15677508D02*
X13501134Y-15667984D01*
X13653515Y-15848936D02*
X13663039Y-15858460D01*
X13663039Y-15858460D02*
X13653515Y-15867984D01*
X13653515Y-15867984D02*
X13643991Y-15858460D01*
X13643991Y-15858460D02*
X13653515Y-15848936D01*
X13653515Y-15848936D02*
X13653515Y-15867984D01*
X13853515Y-15867984D02*
X13739229Y-15867984D01*
X13796372Y-15867984D02*
X13796372Y-15667984D01*
X13796372Y-15667984D02*
X13777325Y-15696555D01*
X13777325Y-15696555D02*
X13758277Y-15715603D01*
X13758277Y-15715603D02*
X13739229Y-15725127D01*
X13929706Y-15687031D02*
X13939229Y-15677508D01*
X13939229Y-15677508D02*
X13958277Y-15667984D01*
X13958277Y-15667984D02*
X14005896Y-15667984D01*
X14005896Y-15667984D02*
X14024944Y-15677508D01*
X14024944Y-15677508D02*
X14034467Y-15687031D01*
X14034467Y-15687031D02*
X14043991Y-15706079D01*
X14043991Y-15706079D02*
X14043991Y-15725127D01*
X14043991Y-15725127D02*
X14034467Y-15753698D01*
X14034467Y-15753698D02*
X13920182Y-15867984D01*
X13920182Y-15867984D02*
X14043991Y-15867984D01*
X14215420Y-15667984D02*
X14177325Y-15667984D01*
X14177325Y-15667984D02*
X14158277Y-15677508D01*
X14158277Y-15677508D02*
X14148753Y-15687031D01*
X14148753Y-15687031D02*
X14129706Y-15715603D01*
X14129706Y-15715603D02*
X14120182Y-15753698D01*
X14120182Y-15753698D02*
X14120182Y-15829888D01*
X14120182Y-15829888D02*
X14129706Y-15848936D01*
X14129706Y-15848936D02*
X14139229Y-15858460D01*
X14139229Y-15858460D02*
X14158277Y-15867984D01*
X14158277Y-15867984D02*
X14196372Y-15867984D01*
X14196372Y-15867984D02*
X14215420Y-15858460D01*
X14215420Y-15858460D02*
X14224944Y-15848936D01*
X14224944Y-15848936D02*
X14234467Y-15829888D01*
X14234467Y-15829888D02*
X14234467Y-15782269D01*
X14234467Y-15782269D02*
X14224944Y-15763222D01*
X14224944Y-15763222D02*
X14215420Y-15753698D01*
X14215420Y-15753698D02*
X14196372Y-15744174D01*
X14196372Y-15744174D02*
X14158277Y-15744174D01*
X14158277Y-15744174D02*
X14139229Y-15753698D01*
X14139229Y-15753698D02*
X14129706Y-15763222D01*
X14129706Y-15763222D02*
X14120182Y-15782269D01*
X14358277Y-15667984D02*
X14377325Y-15667984D01*
X14377325Y-15667984D02*
X14396372Y-15677508D01*
X14396372Y-15677508D02*
X14405896Y-15687031D01*
X14405896Y-15687031D02*
X14415420Y-15706079D01*
X14415420Y-15706079D02*
X14424944Y-15744174D01*
X14424944Y-15744174D02*
X14424944Y-15791793D01*
X14424944Y-15791793D02*
X14415420Y-15829888D01*
X14415420Y-15829888D02*
X14405896Y-15848936D01*
X14405896Y-15848936D02*
X14396372Y-15858460D01*
X14396372Y-15858460D02*
X14377325Y-15867984D01*
X14377325Y-15867984D02*
X14358277Y-15867984D01*
X14358277Y-15867984D02*
X14339229Y-15858460D01*
X14339229Y-15858460D02*
X14329706Y-15848936D01*
X14329706Y-15848936D02*
X14320182Y-15829888D01*
X14320182Y-15829888D02*
X14310658Y-15791793D01*
X14310658Y-15791793D02*
X14310658Y-15744174D01*
X14310658Y-15744174D02*
X14320182Y-15706079D01*
X14320182Y-15706079D02*
X14329706Y-15687031D01*
X14329706Y-15687031D02*
X14339229Y-15677508D01*
X14339229Y-15677508D02*
X14358277Y-15667984D01*
X14501134Y-15667984D02*
X14501134Y-15706079D01*
X14577325Y-15667984D02*
X14577325Y-15706079D01*
X14872563Y-15944174D02*
X14863039Y-15934650D01*
X14863039Y-15934650D02*
X14843991Y-15906079D01*
X14843991Y-15906079D02*
X14834468Y-15887031D01*
X14834468Y-15887031D02*
X14824944Y-15858460D01*
X14824944Y-15858460D02*
X14815420Y-15810841D01*
X14815420Y-15810841D02*
X14815420Y-15772746D01*
X14815420Y-15772746D02*
X14824944Y-15725127D01*
X14824944Y-15725127D02*
X14834468Y-15696555D01*
X14834468Y-15696555D02*
X14843991Y-15677508D01*
X14843991Y-15677508D02*
X14863039Y-15648936D01*
X14863039Y-15648936D02*
X14872563Y-15639412D01*
X14939229Y-15687031D02*
X14948753Y-15677508D01*
X14948753Y-15677508D02*
X14967801Y-15667984D01*
X14967801Y-15667984D02*
X15015420Y-15667984D01*
X15015420Y-15667984D02*
X15034468Y-15677508D01*
X15034468Y-15677508D02*
X15043991Y-15687031D01*
X15043991Y-15687031D02*
X15053515Y-15706079D01*
X15053515Y-15706079D02*
X15053515Y-15725127D01*
X15053515Y-15725127D02*
X15043991Y-15753698D01*
X15043991Y-15753698D02*
X14929706Y-15867984D01*
X14929706Y-15867984D02*
X15053515Y-15867984D01*
X15291610Y-15867984D02*
X15291610Y-15667984D01*
X15377325Y-15867984D02*
X15377325Y-15763222D01*
X15377325Y-15763222D02*
X15367801Y-15744174D01*
X15367801Y-15744174D02*
X15348753Y-15734650D01*
X15348753Y-15734650D02*
X15320182Y-15734650D01*
X15320182Y-15734650D02*
X15301134Y-15744174D01*
X15301134Y-15744174D02*
X15291610Y-15753698D01*
X15501134Y-15867984D02*
X15482087Y-15858460D01*
X15482087Y-15858460D02*
X15472563Y-15848936D01*
X15472563Y-15848936D02*
X15463039Y-15829888D01*
X15463039Y-15829888D02*
X15463039Y-15772746D01*
X15463039Y-15772746D02*
X15472563Y-15753698D01*
X15472563Y-15753698D02*
X15482087Y-15744174D01*
X15482087Y-15744174D02*
X15501134Y-15734650D01*
X15501134Y-15734650D02*
X15529706Y-15734650D01*
X15529706Y-15734650D02*
X15548753Y-15744174D01*
X15548753Y-15744174D02*
X15558277Y-15753698D01*
X15558277Y-15753698D02*
X15567801Y-15772746D01*
X15567801Y-15772746D02*
X15567801Y-15829888D01*
X15567801Y-15829888D02*
X15558277Y-15848936D01*
X15558277Y-15848936D02*
X15548753Y-15858460D01*
X15548753Y-15858460D02*
X15529706Y-15867984D01*
X15529706Y-15867984D02*
X15501134Y-15867984D01*
X15682087Y-15867984D02*
X15663039Y-15858460D01*
X15663039Y-15858460D02*
X15653515Y-15839412D01*
X15653515Y-15839412D02*
X15653515Y-15667984D01*
X15834468Y-15858460D02*
X15815420Y-15867984D01*
X15815420Y-15867984D02*
X15777325Y-15867984D01*
X15777325Y-15867984D02*
X15758277Y-15858460D01*
X15758277Y-15858460D02*
X15748753Y-15839412D01*
X15748753Y-15839412D02*
X15748753Y-15763222D01*
X15748753Y-15763222D02*
X15758277Y-15744174D01*
X15758277Y-15744174D02*
X15777325Y-15734650D01*
X15777325Y-15734650D02*
X15815420Y-15734650D01*
X15815420Y-15734650D02*
X15834468Y-15744174D01*
X15834468Y-15744174D02*
X15843991Y-15763222D01*
X15843991Y-15763222D02*
X15843991Y-15782269D01*
X15843991Y-15782269D02*
X15748753Y-15801317D01*
X15920182Y-15858460D02*
X15939230Y-15867984D01*
X15939230Y-15867984D02*
X15977325Y-15867984D01*
X15977325Y-15867984D02*
X15996372Y-15858460D01*
X15996372Y-15858460D02*
X16005896Y-15839412D01*
X16005896Y-15839412D02*
X16005896Y-15829888D01*
X16005896Y-15829888D02*
X15996372Y-15810841D01*
X15996372Y-15810841D02*
X15977325Y-15801317D01*
X15977325Y-15801317D02*
X15948753Y-15801317D01*
X15948753Y-15801317D02*
X15929706Y-15791793D01*
X15929706Y-15791793D02*
X15920182Y-15772746D01*
X15920182Y-15772746D02*
X15920182Y-15763222D01*
X15920182Y-15763222D02*
X15929706Y-15744174D01*
X15929706Y-15744174D02*
X15948753Y-15734650D01*
X15948753Y-15734650D02*
X15977325Y-15734650D01*
X15977325Y-15734650D02*
X15996372Y-15744174D01*
X16072563Y-15944174D02*
X16082087Y-15934650D01*
X16082087Y-15934650D02*
X16101134Y-15906079D01*
X16101134Y-15906079D02*
X16110658Y-15887031D01*
X16110658Y-15887031D02*
X16120182Y-15858460D01*
X16120182Y-15858460D02*
X16129706Y-15810841D01*
X16129706Y-15810841D02*
X16129706Y-15772746D01*
X16129706Y-15772746D02*
X16120182Y-15725127D01*
X16120182Y-15725127D02*
X16110658Y-15696555D01*
X16110658Y-15696555D02*
X16101134Y-15677508D01*
X16101134Y-15677508D02*
X16082087Y-15648936D01*
X16082087Y-15648936D02*
X16072563Y-15639412D01*
M02*
