%TF.GenerationSoftware,KiCad,Pcbnew,10.0.1*%
%TF.CreationDate,2026-06-07T15:34:14-04:00*%
%TF.ProjectId,maincontroller,6d61696e-636f-46e7-9472-6f6c6c65722e,rev?*%
%TF.SameCoordinates,Original*%
%TF.FileFunction,Drillmap*%
%TF.FilePolarity,Positive*%
%FSLAX45Y45*%
G04 Gerber Fmt 4.5, Leading zero omitted, Abs format (unit mm)*
G04 Created by KiCad (PCBNEW 10.0.1) date 2026-06-07 15:34:14*
%MOMM*%
%LPD*%
G01*
G04 APERTURE LIST*
%ADD10C,0.050000*%
%ADD11C,0.200000*%
G04 APERTURE END LIST*
D10*
X11300000Y-6150000D02*
X11300000Y-6150000D01*
G75*
G02*
X11600000Y-5850000I300000J0D01*
G01*
X16600000Y-5850000D01*
G75*
G02*
X16900000Y-6150000I0J-300000D01*
G01*
X16900000Y-12650000D01*
G75*
G02*
X16600000Y-12950000I-300000J0D01*
G01*
X11600000Y-12950000D01*
G75*
G02*
X11300000Y-12650000I0J300000D01*
G01*
X11300000Y-6150000D01*
X16600000Y-5850000D02*
X16900000Y-5850000D01*
X16900000Y-6150000D01*
X16600000Y-6150000D01*
X16600000Y-5850000D01*
D11*
X11558277Y-13263984D02*
X11558277Y-13063984D01*
X11558277Y-13063984D02*
X11605896Y-13063984D01*
X11605896Y-13063984D02*
X11634467Y-13073508D01*
X11634467Y-13073508D02*
X11653515Y-13092555D01*
X11653515Y-13092555D02*
X11663039Y-13111603D01*
X11663039Y-13111603D02*
X11672562Y-13149698D01*
X11672562Y-13149698D02*
X11672562Y-13178269D01*
X11672562Y-13178269D02*
X11663039Y-13216365D01*
X11663039Y-13216365D02*
X11653515Y-13235412D01*
X11653515Y-13235412D02*
X11634467Y-13254460D01*
X11634467Y-13254460D02*
X11605896Y-13263984D01*
X11605896Y-13263984D02*
X11558277Y-13263984D01*
X11758277Y-13263984D02*
X11758277Y-13130650D01*
X11758277Y-13168746D02*
X11767801Y-13149698D01*
X11767801Y-13149698D02*
X11777324Y-13140174D01*
X11777324Y-13140174D02*
X11796372Y-13130650D01*
X11796372Y-13130650D02*
X11815420Y-13130650D01*
X11882086Y-13263984D02*
X11882086Y-13130650D01*
X11882086Y-13063984D02*
X11872562Y-13073508D01*
X11872562Y-13073508D02*
X11882086Y-13083031D01*
X11882086Y-13083031D02*
X11891610Y-13073508D01*
X11891610Y-13073508D02*
X11882086Y-13063984D01*
X11882086Y-13063984D02*
X11882086Y-13083031D01*
X12005896Y-13263984D02*
X11986848Y-13254460D01*
X11986848Y-13254460D02*
X11977324Y-13235412D01*
X11977324Y-13235412D02*
X11977324Y-13063984D01*
X12110658Y-13263984D02*
X12091610Y-13254460D01*
X12091610Y-13254460D02*
X12082086Y-13235412D01*
X12082086Y-13235412D02*
X12082086Y-13063984D01*
X12339229Y-13263984D02*
X12339229Y-13063984D01*
X12339229Y-13063984D02*
X12405896Y-13206841D01*
X12405896Y-13206841D02*
X12472562Y-13063984D01*
X12472562Y-13063984D02*
X12472562Y-13263984D01*
X12653515Y-13263984D02*
X12653515Y-13159222D01*
X12653515Y-13159222D02*
X12643991Y-13140174D01*
X12643991Y-13140174D02*
X12624943Y-13130650D01*
X12624943Y-13130650D02*
X12586848Y-13130650D01*
X12586848Y-13130650D02*
X12567801Y-13140174D01*
X12653515Y-13254460D02*
X12634467Y-13263984D01*
X12634467Y-13263984D02*
X12586848Y-13263984D01*
X12586848Y-13263984D02*
X12567801Y-13254460D01*
X12567801Y-13254460D02*
X12558277Y-13235412D01*
X12558277Y-13235412D02*
X12558277Y-13216365D01*
X12558277Y-13216365D02*
X12567801Y-13197317D01*
X12567801Y-13197317D02*
X12586848Y-13187793D01*
X12586848Y-13187793D02*
X12634467Y-13187793D01*
X12634467Y-13187793D02*
X12653515Y-13178269D01*
X12748753Y-13130650D02*
X12748753Y-13330650D01*
X12748753Y-13140174D02*
X12767801Y-13130650D01*
X12767801Y-13130650D02*
X12805896Y-13130650D01*
X12805896Y-13130650D02*
X12824943Y-13140174D01*
X12824943Y-13140174D02*
X12834467Y-13149698D01*
X12834467Y-13149698D02*
X12843991Y-13168746D01*
X12843991Y-13168746D02*
X12843991Y-13225888D01*
X12843991Y-13225888D02*
X12834467Y-13244936D01*
X12834467Y-13244936D02*
X12824943Y-13254460D01*
X12824943Y-13254460D02*
X12805896Y-13263984D01*
X12805896Y-13263984D02*
X12767801Y-13263984D01*
X12767801Y-13263984D02*
X12748753Y-13254460D01*
X12929705Y-13244936D02*
X12939229Y-13254460D01*
X12939229Y-13254460D02*
X12929705Y-13263984D01*
X12929705Y-13263984D02*
X12920182Y-13254460D01*
X12920182Y-13254460D02*
X12929705Y-13244936D01*
X12929705Y-13244936D02*
X12929705Y-13263984D01*
X12929705Y-13140174D02*
X12939229Y-13149698D01*
X12939229Y-13149698D02*
X12929705Y-13159222D01*
X12929705Y-13159222D02*
X12920182Y-13149698D01*
X12920182Y-13149698D02*
X12929705Y-13140174D01*
X12929705Y-13140174D02*
X12929705Y-13159222D01*
M02*
