%TF.GenerationSoftware,KiCad,Pcbnew,10.0.1*%
%TF.CreationDate,2026-06-07T15:34:10-04:00*%
%TF.ProjectId,maincontroller,6d61696e-636f-46e7-9472-6f6c6c65722e,rev?*%
%TF.SameCoordinates,Original*%
%TF.FileFunction,Copper,L2,Bot*%
%TF.FilePolarity,Positive*%
%FSLAX46Y46*%
G04 Gerber Fmt 4.6, Leading zero omitted, Abs format (unit mm)*
G04 Created by KiCad (PCBNEW 10.0.1) date 2026-06-07 15:34:10*
%MOMM*%
%LPD*%
G01*
G04 APERTURE LIST*
G04 Aperture macros list*
%AMRoundRect*
0 Rectangle with rounded corners*
0 $1 Rounding radius*
0 $2 $3 $4 $5 $6 $7 $8 $9 X,Y pos of 4 corners*
0 Add a 4 corners polygon primitive as box body*
4,1,4,$2,$3,$4,$5,$6,$7,$8,$9,$2,$3,0*
0 Add four circle primitives for the rounded corners*
1,1,$1+$1,$2,$3*
1,1,$1+$1,$4,$5*
1,1,$1+$1,$6,$7*
1,1,$1+$1,$8,$9*
0 Add four rect primitives between the rounded corners*
20,1,$1+$1,$2,$3,$4,$5,0*
20,1,$1+$1,$4,$5,$6,$7,0*
20,1,$1+$1,$6,$7,$8,$9,0*
20,1,$1+$1,$8,$9,$2,$3,0*%
G04 Aperture macros list end*
%TA.AperFunction,ComponentPad*%
%ADD10R,3.716000X3.716000*%
%TD*%
%TA.AperFunction,ComponentPad*%
%ADD11C,3.716000*%
%TD*%
%TA.AperFunction,ComponentPad*%
%ADD12O,1.200000X2.400000*%
%TD*%
%TA.AperFunction,ComponentPad*%
%ADD13C,3.600000*%
%TD*%
%TA.AperFunction,ConnectorPad*%
%ADD14C,5.600000*%
%TD*%
%TA.AperFunction,ComponentPad*%
%ADD15C,1.600000*%
%TD*%
%TA.AperFunction,ComponentPad*%
%ADD16R,1.530000X1.530000*%
%TD*%
%TA.AperFunction,ComponentPad*%
%ADD17C,1.530000*%
%TD*%
%TA.AperFunction,ComponentPad*%
%ADD18RoundRect,0.250000X0.750000X-0.750000X0.750000X0.750000X-0.750000X0.750000X-0.750000X-0.750000X0*%
%TD*%
%TA.AperFunction,ComponentPad*%
%ADD19C,2.000000*%
%TD*%
%TA.AperFunction,ComponentPad*%
%ADD20RoundRect,0.250000X1.350000X1.350000X-1.350000X1.350000X-1.350000X-1.350000X1.350000X-1.350000X0*%
%TD*%
%TA.AperFunction,ComponentPad*%
%ADD21C,3.200000*%
%TD*%
%TA.AperFunction,ComponentPad*%
%ADD22RoundRect,0.250001X-1.149999X-1.149999X1.149999X-1.149999X1.149999X1.149999X-1.149999X1.149999X0*%
%TD*%
%TA.AperFunction,ComponentPad*%
%ADD23C,2.800000*%
%TD*%
%TA.AperFunction,ViaPad*%
%ADD24C,0.600000*%
%TD*%
%TA.AperFunction,Conductor*%
%ADD25C,0.200000*%
%TD*%
%TA.AperFunction,Conductor*%
%ADD26C,0.500000*%
%TD*%
G04 APERTURE END LIST*
D10*
%TO.P,J1,1,P_1*%
%TO.N,+19.5V*%
X146400000Y-119000000D03*
D11*
%TO.P,J1,2,N_2*%
%TO.N,GND*%
X153600000Y-119000000D03*
D12*
%TO.P,J1,SH1,SHIELD_SH1*%
%TO.N,unconnected-(J1-SHIELD-PadSH1)*%
X143250000Y-125000000D03*
%TO.P,J1,SH2,SHIELD_SH2*%
%TO.N,unconnected-(J1-SHIELD-PadSH1)_1*%
X156750000Y-125000000D03*
%TD*%
D13*
%TO.P,REF\u002A\u002A,1*%
%TO.N,N/C*%
X165000000Y-116000000D03*
D14*
X165000000Y-116000000D03*
%TD*%
D13*
%TO.P,REF\u002A\u002A,1*%
%TO.N,N/C*%
X165000000Y-125000000D03*
D14*
X165000000Y-125000000D03*
%TD*%
D15*
%TO.P,C11,1*%
%TO.N,+3.3V*%
X161000000Y-77500000D03*
%TO.P,C11,2*%
%TO.N,GND*%
X166000000Y-77500000D03*
%TD*%
D16*
%TO.P,U2,J1_1,3V3_J1_1*%
%TO.N,+3.3V*%
X117486000Y-67840000D03*
D17*
%TO.P,U2,J1_2,3V3_J1_2*%
X117486000Y-70380000D03*
%TO.P,U2,J1_3,RST_J1_3*%
%TO.N,unconnected-(U2-RST-PadJ1_3)*%
X117486000Y-72920000D03*
%TO.P,U2,J1_4,GPIO4_J1_4*%
%TO.N,unconnected-(U2-GPIO4-PadJ1_4)*%
X117486000Y-75460000D03*
%TO.P,U2,J1_5,GPIO5_J1_5*%
%TO.N,unconnected-(U2-GPIO5-PadJ1_5)*%
X117486000Y-78000000D03*
%TO.P,U2,J1_6,GPIO6_J1_6*%
%TO.N,unconnected-(U2-GPIO6-PadJ1_6)*%
X117486000Y-80540000D03*
%TO.P,U2,J1_7,GPIO7_J1_7*%
%TO.N,unconnected-(U2-GPIO7-PadJ1_7)*%
X117486000Y-83080000D03*
%TO.P,U2,J1_8,GPIO15_J1_8*%
%TO.N,unconnected-(U2-GPIO15-PadJ1_8)*%
X117486000Y-85620000D03*
%TO.P,U2,J1_9,GPIO16_J1_9*%
%TO.N,unconnected-(U2-GPIO16-PadJ1_9)*%
X117486000Y-88160000D03*
%TO.P,U2,J1_10,GPIO17_J1_10*%
%TO.N,unconnected-(U2-GPIO17-PadJ1_10)*%
X117486000Y-90700000D03*
%TO.P,U2,J1_11,GPIO18_J1_11*%
%TO.N,unconnected-(U2-GPIO18-PadJ1_11)*%
X117486000Y-93240000D03*
%TO.P,U2,J1_12,GPIO8_J1_12*%
%TO.N,SDA*%
X117486000Y-95780000D03*
%TO.P,U2,J1_13,GPIO3_J1_13*%
%TO.N,unconnected-(U2-GPIO3-PadJ1_13)*%
X117486000Y-98320000D03*
%TO.P,U2,J1_14,GPIO46_J1_14*%
%TO.N,unconnected-(U2-GPIO46-PadJ1_14)*%
X117486000Y-100860000D03*
%TO.P,U2,J1_15,GPIO9_J1_15*%
%TO.N,SCL*%
X117486000Y-103400000D03*
%TO.P,U2,J1_16,GPIO10_J1_16*%
%TO.N,unconnected-(U2-GPIO10-PadJ1_16)*%
X117486000Y-105940000D03*
%TO.P,U2,J1_17,GPIO11_J1_17*%
%TO.N,unconnected-(U2-GPIO11-PadJ1_17)*%
X117486000Y-108480000D03*
%TO.P,U2,J1_18,GPIO12_J1_18*%
%TO.N,unconnected-(U2-GPIO12-PadJ1_18)*%
X117486000Y-111020000D03*
%TO.P,U2,J1_19,GPIO13_J1_19*%
%TO.N,unconnected-(U2-GPIO13-PadJ1_19)*%
X117486000Y-113560000D03*
%TO.P,U2,J1_20,GPIO14_J1_20*%
%TO.N,unconnected-(U2-GPIO14-PadJ1_20)*%
X117486000Y-116100000D03*
%TO.P,U2,J1_21,5V0_J1_21*%
%TO.N,unconnected-(U2-5V0-PadJ1_21)*%
X117486000Y-118640000D03*
%TO.P,U2,J1_22,GND_J1_22*%
%TO.N,GND*%
X117486000Y-121180000D03*
%TO.P,U2,J3_1,GND_J3_1*%
X140346000Y-67840000D03*
%TO.P,U2,J3_2,U0TXD/GPIO43_J3_2*%
%TO.N,unconnected-(U2-U0TXD{slash}GPIO43-PadJ3_2)*%
X140346000Y-70380000D03*
%TO.P,U2,J3_3,U0RXD/GPIO44_J3_3*%
%TO.N,unconnected-(U2-U0RXD{slash}GPIO44-PadJ3_3)*%
X140346000Y-72920000D03*
%TO.P,U2,J3_4,GPIO1_J3_4*%
%TO.N,unconnected-(U2-GPIO1-PadJ3_4)*%
X140346000Y-75460000D03*
%TO.P,U2,J3_5,GPIO2_J3_5*%
%TO.N,unconnected-(U2-GPIO2-PadJ3_5)*%
X140346000Y-78000000D03*
%TO.P,U2,J3_6,MTMS/GPIO42_J3_6*%
%TO.N,unconnected-(U2-MTMS{slash}GPIO42-PadJ3_6)*%
X140346000Y-80540000D03*
%TO.P,U2,J3_7,MTDI/GPIO41_J3_7*%
%TO.N,unconnected-(U2-MTDI{slash}GPIO41-PadJ3_7)*%
X140346000Y-83080000D03*
%TO.P,U2,J3_8,MTDO/GPIO40_J3_8*%
%TO.N,unconnected-(U2-MTDO{slash}GPIO40-PadJ3_8)*%
X140346000Y-85620000D03*
%TO.P,U2,J3_9,MTCK/GPIO39_J3_9*%
%TO.N,unconnected-(U2-MTCK{slash}GPIO39-PadJ3_9)*%
X140346000Y-88160000D03*
%TO.P,U2,J3_10,GPIO38_J3_10*%
%TO.N,unconnected-(U2-GPIO38-PadJ3_10)*%
X140346000Y-90700000D03*
%TO.P,U2,J3_11,GPIO37_J3_11*%
%TO.N,unconnected-(U2-GPIO37-PadJ3_11)*%
X140346000Y-93240000D03*
%TO.P,U2,J3_12,GPIO36_J3_12*%
%TO.N,unconnected-(U2-GPIO36-PadJ3_12)*%
X140346000Y-95780000D03*
%TO.P,U2,J3_13,GPIO35_J3_13*%
%TO.N,unconnected-(U2-GPIO35-PadJ3_13)*%
X140346000Y-98320000D03*
%TO.P,U2,J3_14,GPIO0_J3_14*%
%TO.N,unconnected-(U2-GPIO0-PadJ3_14)*%
X140346000Y-100860000D03*
%TO.P,U2,J3_15,GPIO45_J3_15*%
%TO.N,unconnected-(U2-GPIO45-PadJ3_15)*%
X140346000Y-103400000D03*
%TO.P,U2,J3_16,GPIO48_J3_16*%
%TO.N,unconnected-(U2-GPIO48-PadJ3_16)*%
X140346000Y-105940000D03*
%TO.P,U2,J3_17,GPIO47_J3_17*%
%TO.N,unconnected-(U2-GPIO47-PadJ3_17)*%
X140346000Y-108480000D03*
%TO.P,U2,J3_18,GPIO21_J3_18*%
%TO.N,unconnected-(U2-GPIO21-PadJ3_18)*%
X140346000Y-111020000D03*
%TO.P,U2,J3_19,USB_D+/GPIO20_J3_19*%
%TO.N,unconnected-(U2-USB_D+{slash}GPIO20-PadJ3_19)*%
X140346000Y-113560000D03*
%TO.P,U2,J3_20,USB_D-/GPIO19_J3_20*%
%TO.N,unconnected-(U2-USB_D-{slash}GPIO19-PadJ3_20)*%
X140346000Y-116100000D03*
%TO.P,U2,J3_21,GND_J3_21*%
%TO.N,GND*%
X140346000Y-118640000D03*
%TO.P,U2,J3_22,GND_J3_22*%
X140346000Y-121180000D03*
%TD*%
D18*
%TO.P,C15,1*%
%TO.N,+19.5V*%
X147500000Y-106867677D03*
D19*
%TO.P,C15,2*%
%TO.N,GND*%
X147500000Y-101867677D03*
%TD*%
D20*
%TO.P,D2,1,K_1*%
%TO.N,Net-(D2-K)*%
X159620000Y-96000000D03*
D21*
%TO.P,D2,2,A_2*%
%TO.N,GND*%
X144380000Y-96000000D03*
%TD*%
D22*
%TO.P,J2,1,Pin_1_1*%
%TO.N,GND*%
X145750000Y-63467500D03*
D23*
%TO.P,J2,2,Pin_2_2*%
%TO.N,SDA*%
X150750000Y-63467500D03*
%TO.P,J2,3,Pin_3_3*%
%TO.N,SCL*%
X155750000Y-63467500D03*
%TO.P,J2,4,Pin_4_4*%
%TO.N,+3.3V*%
X160750000Y-63467500D03*
%TO.P,J2,5,Pin_5_5*%
%TO.N,+19.5V*%
X165750000Y-63467500D03*
%TD*%
D18*
%TO.P,C12,1*%
%TO.N,+19.5V*%
X158500000Y-106867677D03*
D19*
%TO.P,C12,2*%
%TO.N,GND*%
X158500000Y-101867677D03*
%TD*%
D24*
%TO.N,GND*%
X162400875Y-69600000D03*
X155000000Y-86000000D03*
X158000000Y-69600000D03*
X167910000Y-68500000D03*
X154316161Y-95000000D03*
X157900001Y-71024388D03*
X147087500Y-93292500D03*
%TO.N,+3.3V*%
X157400271Y-66354485D03*
%TO.N,SDA*%
X142500000Y-71500000D03*
X144500000Y-69505000D03*
%TO.N,SCL*%
X146177265Y-72822735D03*
X147000000Y-75500000D03*
%TD*%
%TO.N,GND*%
D25*
X157900001Y-69699999D02*
X158000000Y-69600000D01*
X149236985Y-66954485D02*
X145750000Y-63467500D01*
X166364485Y-66954485D02*
X160954485Y-66954485D01*
X162500000Y-68500000D02*
X160954485Y-66954485D01*
X162500000Y-69500875D02*
X162500000Y-68500000D01*
D26*
X154316161Y-106051516D02*
X154316161Y-108683839D01*
D25*
X150600000Y-122000000D02*
X153600000Y-119000000D01*
X140346000Y-121180000D02*
X140346000Y-118640000D01*
D26*
X153600000Y-115400000D02*
X153600000Y-119000000D01*
X147500000Y-101867677D02*
X154316161Y-108683839D01*
D25*
X154316161Y-86683839D02*
X154316161Y-95000000D01*
X152608661Y-93292500D02*
X154316161Y-95000000D01*
X158000000Y-69600000D02*
X158000000Y-67454485D01*
X166000000Y-94367677D02*
X158500000Y-101867677D01*
X140346000Y-121180000D02*
X141166000Y-122000000D01*
X162400875Y-69600000D02*
X162500000Y-69500875D01*
X157900001Y-71024388D02*
X157900001Y-69699999D01*
X154316161Y-81810161D02*
X154316161Y-86683839D01*
X167910000Y-68500000D02*
X166364485Y-66954485D01*
X141166000Y-122000000D02*
X150600000Y-122000000D01*
D26*
X158500000Y-101867677D02*
X154316161Y-106051516D01*
X154316161Y-95000000D02*
X154316161Y-106051516D01*
D25*
X155000000Y-86000000D02*
X154316161Y-86683839D01*
X117486000Y-121180000D02*
X140346000Y-121180000D01*
X158000000Y-67454485D02*
X157500000Y-66954485D01*
D26*
X154316161Y-114683839D02*
X153600000Y-115400000D01*
D25*
X140346000Y-67840000D02*
X154316161Y-81810161D01*
D26*
X154316161Y-108683839D02*
X154316161Y-114683839D01*
D25*
X157500000Y-66954485D02*
X149236985Y-66954485D01*
X160954485Y-66954485D02*
X157500000Y-66954485D01*
X166000000Y-77500000D02*
X166000000Y-94367677D01*
X147087500Y-93292500D02*
X152608661Y-93292500D01*
%TO.N,+3.3V*%
X157400271Y-66354485D02*
X157754756Y-66000000D01*
X158217500Y-66000000D02*
X160750000Y-63467500D01*
X157754756Y-66000000D02*
X158217500Y-66000000D01*
%TO.N,SDA*%
X143500000Y-68505000D02*
X143500000Y-62632756D01*
X144500000Y-69505000D02*
X143500000Y-68505000D01*
X120000000Y-91759862D02*
X120000000Y-93266000D01*
X144365256Y-61767500D02*
X149050000Y-61767500D01*
X120000000Y-93266000D02*
X117486000Y-95780000D01*
X142500000Y-71500000D02*
X140259862Y-71500000D01*
X149050000Y-61767500D02*
X150750000Y-63467500D01*
X143500000Y-62632756D02*
X144365256Y-61767500D01*
X140259862Y-71500000D02*
X120000000Y-91759862D01*
%TO.N,SCL*%
X117486000Y-103400000D02*
X139281000Y-81605000D01*
X143100000Y-62467070D02*
X144199571Y-61367500D01*
X153650000Y-61367500D02*
X155750000Y-63467500D01*
X140895000Y-81605000D02*
X147000000Y-75500000D01*
X146177265Y-72822735D02*
X143100000Y-69745470D01*
X143100000Y-69745470D02*
X143100000Y-62467070D01*
X144199571Y-61367500D02*
X153650000Y-61367500D01*
X139281000Y-81605000D02*
X140895000Y-81605000D01*
%TD*%
M02*
